<?xml version="1.0" encoding="UTF-8"?>
<!DOCTYPE svg PUBLIC "-//W3C//DTD SVG 1.1//EN" "http://www.w3.org/Graphics/SVG/1.1/DTD/svg11.dtd">
<!-- Creator: CorelDRAW 2018 (64-Bit) -->
<svg xmlns="http://www.w3.org/2000/svg" xml:space="preserve" width="8.26772in" height="11.6929in" version="1.1" style="shape-rendering:geometricPrecision; text-rendering:geometricPrecision; image-rendering:optimizeQuality; fill-rule:evenodd; clip-rule:evenodd"
viewBox="0 0 8267.72 11692.91"
 xmlns:xlink="http://www.w3.org/1999/xlink">
 <defs>
  <style type="text/css">
   <![CDATA[
    .fil27 {fill:black;fill-rule:nonzero}
    .fil25 {fill:#0E2259;fill-rule:nonzero}
    .fil43 {fill:#112670;fill-rule:nonzero}
    .fil23 {fill:#122466;fill-rule:nonzero}
    .fil34 {fill:#161921;fill-rule:nonzero}
    .fil12 {fill:#27283A;fill-rule:nonzero}
    .fil39 {fill:#350A24;fill-rule:nonzero}
    .fil13 {fill:#414259;fill-rule:nonzero}
    .fil11 {fill:#425570;fill-rule:nonzero}
    .fil37 {fill:#4C1813;fill-rule:nonzero}
    .fil10 {fill:#62787F;fill-rule:nonzero}
    .fil22 {fill:#661F65;fill-rule:nonzero}
    .fil30 {fill:#6E2772;fill-rule:nonzero}
    .fil33 {fill:#728389;fill-rule:nonzero}
    .fil29 {fill:#772A77;fill-rule:nonzero}
    .fil20 {fill:#8094BF;fill-rule:nonzero}
    .fil36 {fill:#824E5C;fill-rule:nonzero}
    .fil32 {fill:#849299;fill-rule:nonzero}
    .fil35 {fill:#915965;fill-rule:nonzero}
    .fil19 {fill:#933777;fill-rule:nonzero}
    .fil26 {fill:#A12758;fill-rule:nonzero}
    .fil5 {fill:#A6A6E0;fill-rule:nonzero}
    .fil38 {fill:#AAC1B6;fill-rule:nonzero}
    .fil41 {fill:#B5C1DA;fill-rule:nonzero}
    .fil42 {fill:#B8CFC4;fill-rule:nonzero}
    .fil40 {fill:#BBC7D9;fill-rule:nonzero}
    .fil4 {fill:#C0C0FF;fill-rule:nonzero}
    .fil6 {fill:#C4C4F7;fill-rule:nonzero}
    .fil31 {fill:#C64F6E;fill-rule:nonzero}
    .fil1 {fill:#C7DDD3;fill-rule:nonzero}
    .fil9 {fill:#CDCDFC;fill-rule:nonzero}
    .fil2 {fill:#D3D5FE;fill-rule:nonzero}
    .fil18 {fill:#D85B77;fill-rule:nonzero}
    .fil24 {fill:#DD7897;fill-rule:nonzero}
    .fil15 {fill:#DFE7FE;fill-rule:nonzero}
    .fil28 {fill:#E89AB2;fill-rule:nonzero}
    .fil14 {fill:#EEFBFB;fill-rule:nonzero}
    .fil17 {fill:#F294BA;fill-rule:nonzero}
    .fil44 {fill:#F2A754;fill-rule:nonzero}
    .fil8 {fill:#F2C4D9;fill-rule:nonzero}
    .fil3 {fill:#F3F0FF;fill-rule:nonzero}
    .fil7 {fill:#F9D4E3;fill-rule:nonzero}
    .fil21 {fill:#FEB3C7;fill-rule:nonzero}
    .fil16 {fill:#FFA5C9;fill-rule:nonzero}
    .fil0 {fill:#FFF0F9;fill-rule:nonzero}
   ]]>
  </style>
 </defs>
 <g id="Layer_x0020_1">
  <metadata id="CorelCorpID_0Corel-Layer"/>
  <g id="_2524663295568">
   <path class="fil0" d="M7553.39 7790.37c-243.91,87.76 -641.19,28.09 -839.96,28.09 -586.23,0 -1172.47,0 -1758.7,0 -1131.34,0 -2262.67,0 -3394.01,0 -133.94,0 -315.74,41.4 -354.96,-97.87 -98.71,-350.54 348.46,-780.31 635.62,-875.36 104.39,-34.55 242.89,-87.57 229.26,-196.68 -4.27,-34.22 -24.64,-63.92 -43.5,-92.79 -157.26,-240.73 -247.56,-530.33 -223.61,-816.88 23.96,-286.54 169.54,-566.9 408.08,-727.45 307.78,-207.15 712.46,-193.88 1055.28,-335.73 464.22,-192.1 769.36,-646.35 1208.09,-891.13 617.59,-344.56 1472.06,-180.69 1918.35,367.93 125.98,154.87 228,340.51 402.87,436.85 167.92,92.52 377.57,86.79 542.51,184.53 198.99,117.93 290.13,367.87 276.85,598.8 -13.29,230.93 -113.6,447.3 -222.71,651.27 -82.08,153.45 -172.96,315.33 -160.78,488.92 11.96,170.52 121.41,316.99 232.51,446.9 111.1,129.89 232.19,261.28 276.37,426.39 61.92,231.41 -31.37,348.03 -187.54,404.22z"/>
   <path class="fil1" d="M673.64 6955.65c0,0 218.68,-96.48 461.27,92.92 217.63,169.9 85.2,459.17 326.56,328.62 200.15,-108.25 464.3,-18.23 463.17,203.06 -1.14,221.29 254.35,32.7 363.03,257.16l-1614.02 0 0 -881.76z"/>
   <path class="fil2" d="M1351.11 7837.41l1083.6 0c0,0 -105.39,-182.09 -348.92,-101.98 -161.86,53.25 -98.96,-359.85 -508.03,-292.26 -242.38,40.04 -226.65,394.24 -226.65,394.24z"/>
   <path class="fil1" d="M7680.54 7162.05c0,0 -161.57,-71.27 -340.79,68.66 -160.79,125.52 -62.94,339.22 -241.26,242.79 -147.87,-79.99 -343.03,-13.47 -342.19,150.02 0.84,163.48 -187.92,24.15 -268.21,189.98l1192.45 0 0 -651.45z"/>
   <polygon class="fil3" points="5259.8,7646.43 5620.19,7646.43 5620.19,7470.08 5259.8,7470.08 "/>
   <path class="fil4" d="M1970.98 6927.57c29.46,-176.78 123.81,-337.05 229.11,-484.29 221.55,203.87 305.35,536.46 205.66,816.14 -17.4,48.8 -40.55,96.94 -77.89,133.8 -102.22,100.93 -206.95,51.63 -270.67,-47.72 -81.14,-126.48 -110.8,-270.32 -86.2,-417.93z"/>
   <path class="fil5" d="M2212.78 7647.64c6.01,0 10.87,-4.85 10.87,-10.87l0 -1071.89c0,-6.01 -4.86,-10.87 -10.87,-10.87 -6.01,0 -10.87,4.85 -10.87,10.87l0 1071.89c0,6.01 4.86,10.87 10.87,10.87z"/>
   <path class="fil5" d="M2192.31 6878.7c1.81,0 3.65,-0.45 5.34,-1.4 5.22,-2.95 7.07,-9.59 4.11,-14.82 -37.83,-66.87 -75.41,-135.2 -111.68,-203.11 -2.83,-5.31 -9.43,-7.3 -14.7,-4.47 -5.3,2.83 -7.3,9.42 -4.47,14.71 36.36,68.07 74.01,136.57 111.94,203.58 2,3.53 5.68,5.52 9.47,5.52z"/>
   <path class="fil5" d="M2218.73 7070.67c2.89,0 5.78,-1.15 7.91,-3.42 63.25,-67.09 121.72,-139.74 173.81,-215.87 3.39,-4.96 2.13,-11.72 -2.83,-15.11 -4.97,-3.39 -11.73,-2.1 -15.11,2.84 -51.46,75.2 -109.23,146.94 -171.7,213.24 -4.12,4.37 -3.92,11.24 0.46,15.35 2.09,1.98 4.78,2.97 7.45,2.97z"/>
   <polygon class="fil6" points="2795.61,7604.87 3917.81,7604.87 3917.81,4668.39 2795.61,4668.39 "/>
   <polygon class="fil6" points="2961.62,5220.89 3751.81,5220.89 3751.81,4430.69 2961.62,4430.69 "/>
   <polygon class="fil7" points="2854.24,4914.48 3815.46,4914.48 3815.46,4793.37 2854.24,4793.37 "/>
   <polygon class="fil7" points="2854.24,5128.24 3815.46,5128.24 3815.46,5007.13 2854.24,5007.13 "/>
   <polygon class="fil7" points="2854.24,5355.04 3815.46,5355.04 3815.46,5233.93 2854.24,5233.93 "/>
   <polygon class="fil7" points="2854.24,5568.8 3815.46,5568.8 3815.46,5447.69 2854.24,5447.69 "/>
   <polygon class="fil7" points="2854.24,5772.82 3815.46,5772.82 3815.46,5651.72 2854.24,5651.72 "/>
   <polygon class="fil7" points="2854.24,5994.36 3815.46,5994.36 3815.46,5873.26 2854.24,5873.26 "/>
   <polygon class="fil7" points="2854.24,6193.55 3815.46,6193.55 3815.46,6072.44 2854.24,6072.44 "/>
   <polygon class="fil7" points="2854.24,6397.7 3815.46,6397.7 3815.46,6276.59 2854.24,6276.59 "/>
   <polygon class="fil7" points="2854.24,6636.66 3815.46,6636.66 3815.46,6515.56 2854.24,6515.56 "/>
   <polygon class="fil8" points="3690.91,7604.87 4629.58,7604.87 4629.58,5515.8 3690.91,5515.8 "/>
   <polygon class="fil2" points="5674.69,5633.74 5674.69,5358.6 5546.44,5358.6 5546.44,5230.75 4829.42,5230.75 4829.42,5358.6 4701.17,5358.6 4701.17,5633.74 4626.83,5633.74 4626.83,7604.87 5749.03,7604.87 5749.03,5633.74 "/>
   <polygon class="fil9" points="6383.48,6087.79 6380.63,5906.12 6249.51,5908.18 6246.48,5714.44 6191.81,5715.3 6188.65,5513.62 5993.55,5516.68 5996.71,5718.35 5942.04,5719.22 5945.08,5912.95 5813.96,5915 5816.81,6096.68 5645.93,6099.36 5669.52,7604.87 6577.98,7590.63 6554.38,6085.11 "/>
   <polygon class="fil3" points="4733.45,5551.57 5093.85,5551.57 5093.85,5375.22 4733.45,5375.22 "/>
   <polygon class="fil3" points="5259.8,5551.57 5620.19,5551.57 5620.19,5375.22 5259.8,5375.22 "/>
   <polygon class="fil3" points="4733.45,5813.43 5093.85,5813.43 5093.85,5637.07 4733.45,5637.07 "/>
   <polygon class="fil3" points="5259.8,5813.43 5620.19,5813.43 5620.19,5637.07 5259.8,5637.07 "/>
   <polygon class="fil3" points="4733.45,6075.29 5093.85,6075.29 5093.85,5898.93 4733.45,5898.93 "/>
   <polygon class="fil3" points="5259.8,6075.29 5620.19,6075.29 5620.19,5898.93 5259.8,5898.93 "/>
   <polygon class="fil3" points="4733.45,6337.15 5093.85,6337.15 5093.85,6160.79 4733.45,6160.79 "/>
   <polygon class="fil3" points="5259.8,6337.15 5620.19,6337.15 5620.19,6160.79 5259.8,6160.79 "/>
   <polygon class="fil3" points="4733.45,6599.01 5093.85,6599.01 5093.85,6422.65 4733.45,6422.65 "/>
   <polygon class="fil3" points="5259.8,6599.01 5620.19,6599.01 5620.19,6422.65 5259.8,6422.65 "/>
   <polygon class="fil3" points="4733.45,6860.86 5093.85,6860.86 5093.85,6684.5 4733.45,6684.5 "/>
   <polygon class="fil3" points="5259.8,6860.86 5620.19,6860.86 5620.19,6684.5 5259.8,6684.5 "/>
   <polygon class="fil3" points="4733.45,7122.72 5093.85,7122.72 5093.85,6946.37 4733.45,6946.37 "/>
   <polygon class="fil3" points="5259.8,7122.72 5620.19,7122.72 5620.19,6946.37 5259.8,6946.37 "/>
   <polygon class="fil3" points="5259.8,7384.57 5620.19,7384.57 5620.19,7208.22 5259.8,7208.22 "/>
   <polygon class="fil8" points="5576.82,6793.84 5576.82,6401.03 5223.11,6401.03 5223.11,6793.84 5129.76,6793.84 5129.76,7604.87 5845.7,7604.87 5845.7,6793.84 "/>
   <polygon class="fil2" points="5187.93,7280.42 5262.88,7280.42 5262.88,6965.02 5187.93,6965.02 "/>
   <polygon class="fil2" points="5307.69,7280.42 5382.65,7280.42 5382.65,6965.02 5307.69,6965.02 "/>
   <polygon class="fil2" points="5416.92,7280.42 5491.88,7280.42 5491.88,6965.02 5416.92,6965.02 "/>
   <polygon class="fil4" points="5797.6,6460.06 5963.26,6460.06 5963.26,6294.4 5797.6,6294.4 "/>
   <polygon class="fil4" points="6032.75,6460.06 6198.41,6460.06 6198.41,6294.4 6032.75,6294.4 "/>
   <polygon class="fil4" points="6251.85,6460.06 6417.52,6460.06 6417.52,6294.4 6251.85,6294.4 "/>
   <polygon class="fil4" points="5797.6,6706.75 5963.26,6706.75 5963.26,6541.09 5797.6,6541.09 "/>
   <polygon class="fil4" points="6032.75,6706.75 6198.41,6706.75 6198.41,6541.09 6032.75,6541.09 "/>
   <polygon class="fil4" points="6251.85,6706.75 6417.52,6706.75 6417.52,6541.09 6251.85,6541.09 "/>
   <polygon class="fil4" points="5797.6,6943.69 5963.26,6943.69 5963.26,6778.03 5797.6,6778.03 "/>
   <polygon class="fil4" points="6032.75,6943.69 6198.41,6943.69 6198.41,6778.03 6032.75,6778.03 "/>
   <polygon class="fil4" points="6251.85,6943.69 6417.52,6943.69 6417.52,6778.03 6251.85,6778.03 "/>
   <polygon class="fil2" points="3751.81,5840.15 3879.09,5840.15 3879.09,5674.48 3751.81,5674.48 "/>
   <polygon class="fil2" points="3921.44,5840.15 4048.72,5840.15 4048.72,5674.48 3921.44,5674.48 "/>
   <polygon class="fil2" points="4104.52,5840.15 4231.79,5840.15 4231.79,5674.48 4104.52,5674.48 "/>
   <polygon class="fil2" points="4274.14,5840.15 4401.43,5840.15 4401.43,5674.48 4274.14,5674.48 "/>
   <polygon class="fil2" points="4450.48,5840.15 4577.77,5840.15 4577.77,5674.48 4450.48,5674.48 "/>
   <polygon class="fil2" points="3751.81,6064.59 3879.09,6064.59 3879.09,5898.93 3751.81,5898.93 "/>
   <polygon class="fil2" points="3921.44,6064.59 4048.72,6064.59 4048.72,5898.93 3921.44,5898.93 "/>
   <polygon class="fil2" points="4104.52,6064.59 4231.79,6064.59 4231.79,5898.93 4104.52,5898.93 "/>
   <polygon class="fil2" points="4274.14,6064.59 4401.43,6064.59 4401.43,5898.93 4274.14,5898.93 "/>
   <polygon class="fil2" points="4450.48,6064.59 4577.77,6064.59 4577.77,5898.93 4450.48,5898.93 "/>
   <polygon class="fil2" points="3751.81,6289.05 3879.09,6289.05 3879.09,6123.39 3751.81,6123.39 "/>
   <polygon class="fil2" points="3921.44,6289.05 4048.72,6289.05 4048.72,6123.39 3921.44,6123.39 "/>
   <polygon class="fil2" points="4104.52,6289.05 4231.79,6289.05 4231.79,6123.39 4104.52,6123.39 "/>
   <polygon class="fil2" points="4274.14,6289.05 4401.43,6289.05 4401.43,6123.39 4274.14,6123.39 "/>
   <polygon class="fil2" points="4450.48,6289.05 4577.77,6289.05 4577.77,6123.39 4450.48,6123.39 "/>
   <polygon class="fil2" points="3751.81,6505.48 3879.09,6505.48 3879.09,6339.82 3751.81,6339.82 "/>
   <polygon class="fil2" points="3921.44,6505.48 4048.72,6505.48 4048.72,6339.82 3921.44,6339.82 "/>
   <polygon class="fil2" points="4104.52,6505.48 4231.79,6505.48 4231.79,6339.82 4104.52,6339.82 "/>
   <polygon class="fil2" points="4274.14,6505.48 4401.43,6505.48 4401.43,6339.82 4274.14,6339.82 "/>
   <polygon class="fil2" points="4450.48,6505.48 4577.77,6505.48 4577.77,6339.82 4450.48,6339.82 "/>
   <polygon class="fil8" points="2341.22,7604.87 3417.15,7604.87 3417.15,5837.35 2341.22,5837.35 "/>
   <polygon class="fil4" points="2405.35,6556.69 2547.85,6556.69 2547.85,6075.73 2405.35,6075.73 "/>
   <polygon class="fil4" points="2600.48,6556.69 2742.98,6556.69 2742.98,6075.73 2600.48,6075.73 "/>
   <polygon class="fil4" points="2807.93,6556.69 2950.43,6556.69 2950.43,6075.73 2807.93,6075.73 "/>
   <polygon class="fil4" points="3014.56,6556.69 3157.07,6556.69 3157.07,6075.73 3014.56,6075.73 "/>
   <polygon class="fil4" points="2405.35,7347.67 2547.85,7347.67 2547.85,6880.84 2405.35,6880.84 "/>
   <polygon class="fil4" points="2600.48,7347.67 2742.98,7347.67 2742.98,6880.84 2600.48,6880.84 "/>
   <polygon class="fil4" points="2807.93,7347.67 2950.43,7347.67 2950.43,6880.84 2807.93,6880.84 "/>
   <polygon class="fil4" points="3014.56,7347.67 3157.07,7347.67 3157.07,6880.84 3014.56,6880.84 "/>
   <polygon class="fil2" points="2879.19,7604.87 3917.81,7604.87 3917.81,6721.11 2879.19,6721.11 "/>
   <path class="fil8" d="M3693.64 6954.68c-15.21,-28.29 -34.49,-55.32 -56.98,-77.56 -28.83,-33.77 -67.89,-59.31 -111.57,-65.63 -94.62,-13.68 -179.96,63.93 -222.65,149.48 -42.89,85.94 -58.36,185.33 -43.59,280.24 10.51,67.62 37.63,135.03 88.5,180.82 3.34,3 6.82,5.84 10.37,8.61 33.94,49.74 86.2,72.47 146.56,71.3 45.14,-0.88 102.78,-26.03 137.34,-54.74 42.7,-35.46 74.48,-77.93 90.03,-131.7 32.19,-111.25 17.1,-258.29 -37.99,-360.8z"/>
   <path class="fil5" d="M3498.52 7634.98c6,0 10.86,-4.85 10.86,-10.87l0 -639.89c0,-6.01 -4.86,-10.88 -10.86,-10.88 -6.01,0 -10.87,4.87 -10.87,10.88l0 639.89c0,6.02 4.86,10.87 10.87,10.87z"/>
   <path class="fil5" d="M3491.78 7176.48c2.4,0 4.82,-0.8 6.84,-2.43 4.66,-3.78 5.38,-10.63 1.59,-15.29 -47.3,-58.31 -92.75,-119.32 -135.07,-181.37 -3.38,-4.96 -10.17,-6.23 -15.11,-2.85 -4.96,3.39 -6.24,10.15 -2.85,15.11 42.67,62.53 88.48,124.04 136.16,182.82 2.14,2.65 5.28,4.02 8.45,4.02z"/>
   <path class="fil5" d="M3366.67 7221.35c2.77,0 5.55,-1.05 7.67,-3.16 4.26,-4.22 4.27,-11.11 0.04,-15.37 -22.88,-23.04 -44.81,-47.41 -65.19,-72.41 -3.78,-4.62 -10.65,-5.36 -15.3,-1.56 -4.65,3.79 -5.35,10.63 -1.56,15.3 20.82,25.56 43.24,50.46 66.64,74.01 2.12,2.13 4.91,3.2 7.7,3.2z"/>
   <path class="fil5" d="M3488.18 7364.48c3.11,0 6.22,-1.34 8.36,-3.92 3.84,-4.61 3.21,-11.47 -1.41,-15.31 -30.43,-25.32 -58.39,-53.87 -83.06,-84.85 -3.73,-4.7 -10.6,-5.46 -15.28,-1.73 -4.69,3.74 -5.47,10.59 -1.73,15.28 25.59,32.14 54.59,61.76 86.16,88.02 2.03,1.69 4.5,2.52 6.94,2.52z"/>
   <path class="fil5" d="M3504.98 7070.07c3.43,0 6.79,-1.61 8.91,-4.62 28.45,-40.57 59.31,-80.12 91.74,-117.6 3.93,-4.54 3.44,-11.4 -1.1,-15.33 -4.52,-3.92 -11.41,-3.44 -15.33,1.11 -32.91,38.03 -64.24,78.19 -93.1,119.34 -3.45,4.91 -2.27,11.7 2.65,15.14 1.91,1.34 4.07,1.97 6.24,1.97z"/>
   <path class="fil5" d="M3506.46 7330.88c2.92,0 5.84,-1.17 7.99,-3.5l148.72 -161.39c4.07,-4.41 3.8,-11.29 -0.62,-15.35 -4.42,-4.06 -11.3,-3.79 -15.37,0.62l-148.72 161.37c-4.06,4.42 -3.78,11.3 0.63,15.36 2.09,1.92 4.74,2.88 7.37,2.88z"/>
   <path class="fil1" d="M4212.1 6927.57c29.45,-176.78 123.82,-337.05 229.12,-484.29 221.54,203.87 305.34,536.46 205.65,816.14 -17.4,48.8 -40.55,96.94 -77.89,133.8 -102.22,100.93 -206.95,51.63 -270.68,-47.72 -81.14,-126.48 -110.8,-270.32 -86.2,-417.93z"/>
   <path class="fil5" d="M4453.9 7647.64c6.01,0 10.87,-4.85 10.87,-10.87l0 -1071.89c0,-6.01 -4.86,-10.87 -10.87,-10.87 -6.01,0 -10.87,4.85 -10.87,10.87l0 1071.89c0,6.01 4.86,10.87 10.87,10.87z"/>
   <path class="fil5" d="M4433.43 6878.7c1.82,0 3.65,-0.45 5.34,-1.4 5.22,-2.95 7.07,-9.59 4.11,-14.82 -37.83,-66.87 -75.41,-135.2 -111.69,-203.11 -2.81,-5.31 -9.44,-7.3 -14.71,-4.47 -5.29,2.83 -7.3,9.42 -4.46,14.71 36.36,68.07 74.02,136.57 111.94,203.58 1.99,3.53 5.67,5.52 9.46,5.52z"/>
   <path class="fil5" d="M4459.85 7070.67c2.89,0 5.77,-1.15 7.91,-3.42 63.24,-67.09 121.72,-139.74 173.83,-215.87 3.38,-4.96 2.11,-11.72 -2.85,-15.11 -4.95,-3.39 -11.71,-2.12 -15.09,2.84 -51.46,75.2 -109.23,146.94 -171.71,213.24 -4.11,4.37 -3.91,11.24 0.46,15.35 2.1,1.98 4.78,2.97 7.45,2.97z"/>
   <path class="fil4" d="M3771.19 7542.18c-37.31,-30.93 -76.7,-71.23 -71.69,-119.42 0.74,-7.05 2.8,-14.57 8.43,-18.89 10.06,-7.72 24.5,-1.19 37.13,-2.45 26.57,-2.65 35.95,-39.67 24.42,-63.74 -11.54,-24.08 -34.99,-39.82 -52.59,-59.89 -15.34,-17.48 -26.4,-38.69 -31.97,-61.27 -7.28,-29.5 2.61,-69.98 32.81,-73.2 21.93,-2.33 39.36,16.66 55.64,31.5 16.28,14.85 42.93,26.56 58.74,11.2 13.63,-13.24 7.91,-35.74 2.45,-53.95 -13.36,-44.51 -19.28,-91.24 -17.43,-137.68 1.28,-32.36 6.86,-65.97 25.91,-92.18 19.04,-26.2 54.59,-42.6 84.89,-31.11 28.28,10.74 43.84,41.41 50.39,70.93 17.86,80.48 -11.9,162.89 -21,244.83 -2.16,19.36 1.59,45.29 20.82,48.43 13.49,2.2 24.87,-9.11 35.24,-18.02 25.33,-21.76 59.01,-33.57 92.39,-32.38 5.72,0.2 11.7,0.86 16.48,4.03 10.87,7.2 10.53,23.32 6.61,35.76 -18.12,57.44 -82.75,92.55 -95.39,151.44 -1.69,7.89 -2.09,16.96 3.09,23.14 3.75,4.46 9.68,6.46 15.44,7.35 23.78,3.71 46.93,-7.74 70.33,-13.36 23.39,-5.63 53.45,-2.3 63.63,19.51 7.68,16.42 0.34,35.85 -9.03,51.37 -28.77,47.69 -76.15,81.9 -127.1,104.41 -45.67,20.16 -107.43,43.91 -158.1,44.31 -47.53,0.37 -86.21,-42.22 -120.54,-70.67z"/>
   <path class="fil5" d="M3900.21 7669.1c6.01,0 10.87,-4.86 10.87,-10.87l0 -644.62c0,-6.01 -4.87,-10.86 -10.87,-10.86 -6.01,0 -10.87,4.85 -10.87,10.86l0 644.62c0,6.01 4.86,10.87 10.87,10.87z"/>
   <path class="fil5" d="M3814.61 7299.8c2.85,0 5.7,-1.12 7.84,-3.33 4.16,-4.32 4.03,-11.22 -0.3,-15.38l-80.33 -77.31c-4.33,-4.16 -11.22,-4.04 -15.37,0.3 -4.17,4.33 -4.03,11.21 0.29,15.37l80.33 77.31c2.12,2.02 4.82,3.04 7.54,3.04z"/>
   <path class="fil5" d="M3892.09 7374.03c2.65,0 5.32,-0.97 7.41,-2.92 4.39,-4.08 4.64,-10.96 0.54,-15.36l-39.66 -42.57c-4.09,-4.39 -10.97,-4.63 -15.35,-0.54 -4.4,4.09 -4.64,10.97 -0.55,15.36l39.66 42.57c2.13,2.3 5.05,3.46 7.95,3.46z"/>
   <path class="fil5" d="M3892.09 7575.03c2.93,0 5.86,-1.17 7.99,-3.51 4.07,-4.43 3.8,-11.29 -0.63,-15.35 -47.05,-43.32 -95.61,-86.63 -144.33,-128.74 -4.54,-3.91 -11.4,-3.43 -15.33,1.12 -3.93,4.54 -3.42,11.41 1.12,15.34 48.54,41.96 96.93,85.11 143.82,128.26 2.09,1.94 4.73,2.88 7.36,2.88z"/>
   <path class="fil5" d="M3904.32 7472.47c3.31,0 6.58,-1.51 8.72,-4.36 44.98,-60.11 91.45,-120.65 138.11,-179.95 3.71,-4.71 2.9,-11.55 -1.81,-15.26 -4.72,-3.71 -11.56,-2.9 -15.27,1.82 -46.78,59.43 -93.35,120.12 -138.44,180.38 -3.6,4.8 -2.61,11.61 2.2,15.21 1.95,1.47 4.23,2.17 6.49,2.17z"/>
   <path class="fil2" d="M6499.57 7423.22c-48,-39.79 -98.69,-91.64 -92.25,-153.65 0.95,-9.09 3.6,-18.76 10.85,-24.32 12.95,-9.93 31.53,-1.53 47.78,-3.15 34.18,-3.42 46.27,-51.05 31.42,-82.04 -14.85,-30.98 -45.02,-51.22 -67.68,-77.06 -19.74,-22.5 -33.97,-49.78 -41.14,-78.83 -9.37,-37.95 3.37,-90.04 42.23,-94.19 28.2,-3.01 50.63,21.43 71.59,40.54 20.96,19.11 55.25,34.18 75.59,14.41 17.54,-17.04 10.19,-46 3.15,-69.42 -17.18,-57.28 -24.79,-117.4 -22.42,-177.15 1.65,-41.65 8.83,-84.9 33.34,-118.62 24.5,-33.72 70.26,-54.82 109.23,-40.02 36.39,13.81 56.41,53.26 64.84,91.26 22.96,103.56 -15.31,209.6 -27.03,315.04 -2.77,24.92 2.05,58.28 26.8,62.32 17.36,2.83 32,-11.73 45.34,-23.19 32.59,-28.01 75.93,-43.21 118.88,-41.68 7.37,0.26 15.07,1.11 21.22,5.19 13.97,9.26 13.54,30.01 8.49,46.01 -23.31,73.92 -106.47,119.09 -122.74,194.87 -2.18,10.15 -2.69,21.83 3.98,29.78 4.81,5.74 12.44,8.31 19.86,9.46 30.6,4.78 60.39,-9.96 90.5,-17.19 30.13,-7.24 68.78,-2.97 81.89,25.09 9.87,21.14 0.44,46.15 -11.61,66.11 -37.04,61.37 -98,105.39 -163.57,134.34 -58.77,25.94 -138.25,56.52 -203.43,57.02 -61.17,0.49 -110.94,-54.31 -155.12,-90.94z"/>
   <path class="fil5" d="M6675.24 7624.26c6,0 10.87,-4.87 10.87,-10.87l0 -930.03c0,-6.01 -4.87,-10.87 -10.87,-10.87 -6,0 -10.87,4.86 -10.87,10.87l0 930.03c0,6.01 4.87,10.87 10.87,10.87z"/>
   <path class="fil5" d="M6668.76 7219.1c2.65,0 5.3,-0.98 7.4,-2.92 4.4,-4.07 4.65,-10.95 0.56,-15.35 -78.72,-84.78 -160.46,-168.7 -242.98,-249.44 -4.27,-4.21 -11.17,-4.14 -15.37,0.17 -4.2,4.29 -4.12,11.17 0.17,15.38 82.27,80.49 163.77,164.17 242.25,248.69 2.15,2.3 5.06,3.48 7.97,3.48z"/>
   <path class="fil5" d="M6668.75 7475.5c3.04,0 6.05,-1.27 8.2,-3.72 3.95,-4.54 3.47,-11.41 -1.05,-15.34 -72.23,-62.91 -146.98,-124.98 -222.19,-184.52 -4.7,-3.73 -11.54,-2.95 -15.27,1.77 -3.72,4.71 -2.94,11.55 1.78,15.27 74.94,59.33 149.43,121.19 221.4,183.87 2.06,1.79 4.61,2.67 7.13,2.67z"/>
   <path class="fil5" d="M6684.08 7269.55c2.95,0 5.88,-1.19 8.03,-3.52 70.24,-76.72 142.74,-153.29 215.47,-227.59 4.2,-4.3 4.12,-11.18 -0.17,-15.38 -4.29,-4.21 -11.17,-4.13 -15.38,0.17 -72.89,74.48 -145.55,151.22 -215.96,228.1 -4.05,4.43 -3.75,11.3 0.68,15.36 2.09,1.92 4.72,2.85 7.33,2.85z"/>
   <path class="fil8" d="M6443.75 7115.69c-12.44,-23.15 -28.22,-45.28 -46.63,-63.48 -23.6,-27.65 -55.56,-48.55 -91.33,-53.72 -77.44,-11.19 -147.29,52.32 -182.23,122.33 -35.11,70.35 -47.76,151.69 -35.68,229.38 8.6,55.34 30.8,110.52 72.44,147.99 2.73,2.45 5.57,4.78 8.48,7.04 27.78,40.72 70.56,59.32 119.94,58.36 36.96,-0.71 84.12,-21.29 112.42,-44.8 34.94,-29.03 60.94,-63.78 73.68,-107.8 26.35,-91.05 14,-211.4 -31.1,-295.3z"/>
   <path class="fil5" d="M6283.33 7662.51c6.01,0 10.87,-4.87 10.87,-10.88l0 -565.69c0,-6.01 -4.86,-10.87 -10.87,-10.87 -6,0 -10.87,4.87 -10.87,10.87l0 565.69c0,6.01 4.87,10.88 10.87,10.88z"/>
   <path class="fil5" d="M6260.05 7351.66c2.51,0 5.04,-0.87 7.09,-2.64 4.55,-3.92 5.06,-10.78 1.14,-15.33l-136.13 -157.91c-3.91,-4.56 -10.78,-5.04 -15.33,-1.14 -4.54,3.93 -5.06,10.78 -1.14,15.33l136.13 157.91c2.15,2.5 5.18,3.77 8.24,3.77z"/>
   <path class="fil5" d="M6173.34 7401.06c2.41,0 4.83,-0.8 6.84,-2.43 4.66,-3.79 5.38,-10.63 1.6,-15.29 -18.57,-22.89 -38.09,-45.63 -58.05,-67.61 -4.04,-4.45 -10.89,-4.78 -15.35,-0.74 -4.44,4.04 -4.78,10.91 -0.73,15.35 19.67,21.67 38.93,44.11 57.24,66.7 2.15,2.65 5.29,4.03 8.45,4.03z"/>
   <path class="fil5" d="M6278.63 7527.3c2.68,0 5.37,-0.99 7.47,-2.98 4.35,-4.13 4.55,-11.01 0.41,-15.37 -24.62,-26.02 -48.77,-53.13 -71.78,-80.57 -3.85,-4.61 -10.7,-5.22 -15.31,-1.35 -4.59,3.85 -5.2,10.7 -1.35,15.3 23.28,27.79 47.74,55.24 72.67,81.56 2.13,2.26 5,3.4 7.89,3.4z"/>
   <path class="fil5" d="M6284.88 7280.11c3.28,0 6.51,-1.48 8.66,-4.28 32.12,-42.15 63.69,-85.83 93.83,-129.85 3.4,-4.96 2.13,-11.72 -2.83,-15.12 -4.96,-3.39 -11.72,-2.11 -15.11,2.83 -29.93,43.72 -61.29,87.11 -93.19,128.96 -3.63,4.77 -2.72,11.61 2.06,15.24 1.97,1.5 4.29,2.22 6.59,2.22z"/>
   <path class="fil5" d="M6288.37 7463.49c2.98,0 5.95,-1.22 8.1,-3.61 28.7,-31.97 58.34,-63.91 88.11,-94.93 4.15,-4.33 4.01,-11.21 -0.32,-15.36 -4.33,-4.16 -11.2,-4.04 -15.37,0.31 -29.92,31.19 -59.73,63.29 -88.59,95.45 -4.01,4.47 -3.65,11.33 0.83,15.35 2.07,1.87 4.67,2.78 7.26,2.78z"/>
   <path class="fil1" d="M2411.48 6922.8c-15.2,-28.29 -34.48,-55.32 -56.98,-77.56 -28.83,-33.77 -67.88,-59.31 -111.58,-65.63 -94.62,-13.68 -179.95,63.93 -222.65,149.47 -42.89,85.94 -58.36,185.33 -43.59,280.24 10.52,67.62 37.63,135.03 88.5,180.82 3.33,3 6.82,5.84 10.37,8.61 33.94,49.74 86.2,72.47 146.55,71.3 45.14,-0.88 102.78,-26.03 137.35,-54.74 42.69,-35.46 74.47,-77.93 90.02,-131.7 32.19,-111.25 17.1,-258.29 -37.99,-360.8z"/>
   <path class="fil5" d="M2216.36 7603.09c6.01,0 10.87,-4.85 10.87,-10.87l0 -639.89c0,-6.01 -4.86,-10.88 -10.87,-10.88 -6.01,0 -10.87,4.87 -10.87,10.88l0 639.89c0,6.01 4.86,10.87 10.87,10.87z"/>
   <path class="fil5" d="M2209.62 7144.6c2.4,0 4.82,-0.8 6.84,-2.43 4.66,-3.78 5.38,-10.63 1.59,-15.29 -47.32,-58.34 -92.77,-119.35 -135.07,-181.37 -3.39,-4.96 -10.14,-6.23 -15.11,-2.85 -4.96,3.39 -6.24,10.15 -2.85,15.11 42.63,62.51 88.44,124.02 136.15,182.82 2.15,2.65 5.29,4.02 8.45,4.02z"/>
   <path class="fil5" d="M2084.52 7189.46c2.77,0 5.54,-1.05 7.66,-3.16 4.26,-4.22 4.28,-11.11 0.04,-15.37 -22.82,-22.97 -44.77,-47.34 -65.19,-72.41 -3.8,-4.62 -10.65,-5.35 -15.3,-1.56 -4.65,3.8 -5.35,10.63 -1.56,15.3 20.88,25.62 43.3,50.52 66.64,74.01 2.12,2.14 4.92,3.2 7.71,3.2z"/>
   <path class="fil5" d="M2206.02 7332.59c3.12,0 6.21,-1.34 8.36,-3.91 3.85,-4.61 3.22,-11.47 -1.4,-15.31 -30.43,-25.33 -58.37,-53.87 -83.06,-84.86 -3.72,-4.7 -10.59,-5.46 -15.28,-1.73 -4.69,3.74 -5.46,10.59 -1.73,15.27 25.6,32.14 54.6,61.76 86.16,88.02 2.03,1.69 4.5,2.52 6.94,2.52z"/>
   <path class="fil5" d="M2222.83 7038.18c3.43,0 6.8,-1.61 8.91,-4.62 28.48,-40.57 59.35,-80.15 91.76,-117.6 3.93,-4.53 3.44,-11.4 -1.1,-15.33 -4.52,-3.92 -11.41,-3.44 -15.33,1.11 -32.9,38.01 -64.22,78.16 -93.11,119.34 -3.45,4.91 -2.26,11.69 2.65,15.14 1.9,1.34 4.07,1.97 6.23,1.97z"/>
   <path class="fil5" d="M2224.31 7298.99c2.93,0 5.85,-1.17 7.99,-3.5l148.71 -161.38c4.06,-4.41 3.79,-11.3 -0.63,-15.35 -4.43,-4.06 -11.3,-3.79 -15.36,0.62l-148.71 161.37c-4.06,4.42 -3.79,11.3 0.63,15.36 2.09,1.93 4.74,2.88 7.37,2.88z"/>
   <path class="fil10" d="M1764.22 4864.57c0,-40.39 32.85,-73.24 73.24,-73.24l324.36 0c40.39,0 73.25,32.85 73.25,73.24l0 113.83c0,16.55 0.31,51.85 0.32,53l-0.32 0c0,0 0.58,41.34 0.58,45.99l0 133.35c0,0 -104.29,-102.98 -106.96,-105.51l-291.23 0c-40.39,0 -73.24,-32.86 -73.24,-73.24l0 -167.42zm-6.98 0l0 167.42c0,44.23 35.98,80.22 80.22,80.22l289.78 0 108.41 108.43 0 5.85 8.36 -8.35 -1.39 -1.49 0 -139.25c0,-16.54 -0.14,-33.03 -0.29,-49.52 -0.15,-16.47 -0.29,-32.94 -0.29,-49.47l0 -113.83c0,-44.23 -35.98,-80.22 -80.22,-80.22l-324.36 0c-44.24,0 -80.22,35.98 -80.22,80.22z"/>
   <polygon class="fil10" points="1824.9,4914.1 2197.23,4914.1 2197.23,4908.46 1824.9,4908.46 "/>
   <polygon class="fil10" points="1824.9,5001.54 1959.37,5001.54 1959.37,4995.9 1824.9,4995.9 "/>
   <polygon class="fil10" points="1981.57,5001.54 2197.23,5001.54 2197.23,4995.9 1981.57,4995.9 "/>
   <polygon class="fil10" points="1824.9,4956.41 1889.97,4956.41 1889.97,4950.77 1824.9,4950.77 "/>
   <polygon class="fil10" points="1915.58,4956.41 2086.08,4956.41 2086.08,4950.77 1915.58,4950.77 "/>
   <polygon class="fil10" points="2109.92,4956.41 2197.23,4956.41 2197.23,4950.77 2109.92,4950.77 "/>
   <path class="fil2" d="M6071.58 5268.23c54.27,-56.67 144.51,-58.63 201.19,-4.36 56.67,54.26 58.63,144.52 4.36,201.19 -54.26,56.67 -144.52,58.63 -201.19,4.36 -56.67,-54.27 -58.63,-144.52 -4.36,-201.19zm-55.05 -149.57l-96.78 101.07 43.5 41.63c-6.49,13 -11.65,26.47 -15.58,40.22l-60.26 1.31 3.04 139.9 60.25 -1.31c4.53,13.57 10.27,26.8 17.31,39.51l-41.64 43.48 101.07 96.78 41.64 -43.48c12.99,6.48 26.46,11.65 40.22,15.57l1.31 60.26 139.89 -3.03 -1.31 -60.26c13.57,-4.52 26.81,-10.27 39.51,-17.31l43.49 41.65 96.77 -101.07 -43.49 -41.64c6.5,-13 11.65,-26.48 15.58,-40.22l60.26 -1.31 -3.04 -139.9 -60.26 1.31c-4.52,-13.56 -10.26,-26.8 -17.3,-39.51l41.64 -43.48 -101.07 -96.78 -41.64 43.5c-13,-6.49 -26.48,-11.65 -40.22,-15.58l-1.3 -60.26 -139.91 3.04 1.31 60.25c-13.56,4.53 -26.8,10.27 -39.5,17.31l-43.49 -41.64z"/>
   <path class="fil8" d="M5001.33 4626.92l-101.85 -97.52 -226.67 236.72 101.85 97.53c-15.19,30.44 -27.28,62 -36.49,94.19l-141.14 3.07 7.1 327.66 141.14 -3.06c10.6,31.77 24.04,62.77 40.54,92.52l-97.52 101.85 236.72 226.68 97.53 -101.86c30.43,15.19 62,27.28 94.19,36.48l3.06 141.14 327.67 -7.1 -3.06 -141.14c31.76,-10.59 62.77,-24.04 92.52,-40.54l101.85 97.53 226.68 -236.72 -101.87 -97.54c15.2,-30.43 27.28,-61.99 36.5,-94.19l141.14 -3.06 -7.11 -327.67 -141.14 3.06c-10.59,-31.76 -24.04,-62.77 -40.54,-92.52l97.53 -101.85 -236.72 -226.67 -97.52 101.85c-30.45,-15.2 -62.01,-27.28 -94.2,-36.48l-3.06 -141.15 -327.67 7.1 3.06 141.15c-31.77,10.6 -62.77,24.04 -92.53,40.54z"/>
   <path class="fil6" d="M5637.8 4911.84c109.4,203.3 33.01,457.67 -170.29,567.07 -203.29,109.4 -457.67,33.01 -567.06,-170.29 -109.39,-203.29 -33,-457.67 170.29,-567.07 203.29,-109.39 457.68,-33 567.06,170.29zm-754.31 405.91c114.43,212.63 380.51,292.54 593.14,178.11 212.63,-114.41 292.54,-380.5 178.12,-593.14 -114.42,-212.63 -380.51,-292.53 -593.14,-178.11 -212.64,114.42 -292.54,380.5 -178.12,593.14z"/>
   <path class="fil11" d="M5593.23 4935.82c96.18,178.72 29.02,402.35 -149.7,498.52 -178.72,96.17 -402.35,29.02 -498.52,-149.7 -96.17,-178.72 -29.03,-402.35 149.69,-498.52 178.72,-96.17 402.35,-29.02 498.52,149.7zm-663.11 356.83c100.59,186.93 334.5,257.18 521.44,156.58 186.92,-100.58 257.17,-334.5 156.58,-521.44 -100.59,-186.94 -334.52,-257.17 -521.44,-156.59 -186.93,100.59 -257.17,334.51 -156.57,521.44z"/>
   <path class="fil12" d="M2976.98 5119.15l3118.33 0c76.41,0 138.36,61.94 138.36,138.36l0 1866.01c0,53.61 -35.43,97.06 -79.15,97.06l-1338.33 0 0 382.97 792.92 0c59.21,0 107.22,48.02 107.22,107.23l-2343.27 0c0,-59.21 48.01,-107.23 107.23,-107.23l792.92 0 0 -382.97 -1355.44 0c-43.72,0 -79.15,-43.45 -79.15,-97.06l0 -1866.01c0,-76.41 61.94,-138.36 138.36,-138.36z"/>
   <path class="fil13" d="M3406.41 7603.55l792.91 0 0 -452.85 542.98 0 0 452.85 792.92 0c59.22,0 107.23,48.02 107.23,107.23l-2343.27 0c0,-59.21 48.01,-107.23 107.23,-107.23z"/>
   <path class="fil13" d="M2764.74 6865.8l0 -1608.29c0,-76.41 61.94,-138.36 138.36,-138.36l3118.32 0c76.41,0 138.37,61.94 138.37,138.36l0 1608.29 -3395.05 0z"/>
   <path class="fil13" d="M6159.79 6865.8l0 257.72c0,53.61 -35.44,97.06 -79.15,97.06l-3236.76 0c-43.7,0 -79.14,-43.45 -79.14,-97.06l0 -257.72 3395.05 0z"/>
   <path class="fil14" d="M2844.21 6795.96l0 -1534.15c0,-40.22 33.77,-72.82 75.44,-72.82l3085.22 0c41.67,0 75.44,32.6 75.44,72.82l0 1534.15 -3236.1 0z"/>
   <path class="fil15" d="M4871.69 6756.91l969.48 0c77.04,0 139.5,-62.46 139.5,-139.5l0 -1232.5c0,-77.05 -62.46,-139.5 -139.5,-139.5l-969.48 0c-77.04,0 -139.5,62.45 -139.5,139.5l0 1232.5c0,77.04 62.46,139.5 139.5,139.5z"/>
   <path class="fil16" d="M4820.86 6340.6l0 364.59 122.8 0 0 -364.25c-40.94,-0.1 -81.87,-0.24 -122.8,-0.34z"/>
   <path class="fil16" d="M5017.29 6142.03l0 563.16 122.81 0 0 -562.8c-40.94,-0.09 -81.87,-0.22 -122.81,-0.36z"/>
   <path class="fil17" d="M5378.82 6004.27l0 700.92 122.79 0 0 -700.05c-40.94,-0.22 -81.87,-0.54 -122.79,-0.87z"/>
   <polygon class="fil18" points="5559.81,6705.19 5682.61,6705.19 5682.61,5743.39 5559.81,5743.39 "/>
   <path class="fil19" d="M5748.74 6705.48c41.07,-0.21 82.15,-0.44 123.22,-0.54l0 -784.41 -0.42 0 0 -197.88 34.53 0 -95.51 -238.78 -95.5 238.78 33.69 0 0 982.83z"/>
   <path class="fil18" d="M5203.69 6706.35c40.93,-0.26 81.87,-0.58 122.8,-0.78l0 -774.72 34.53 0 -95.51 -175.02 -95.5 175.02 33.69 0 0 775.5z"/>
   <path class="fil15" d="M3074.26 5859.12l1464.17 0c85.71,0 155.18,-69.48 155.18,-155.18l0 -303.36c0,-85.71 -69.47,-155.18 -155.18,-155.18l-1464.17 0c-85.7,0 -155.17,69.47 -155.17,155.18l0 303.36c0,85.7 69.47,155.18 155.17,155.18z"/>
   <path class="fil15" d="M4634.11 5918.74l-768.19 0c-32.85,0 -59.48,26.87 -59.48,60.02 -0.01,33.91 -0.12,67.82 -0.09,101.72 0.14,137.82 0.11,275.64 0.13,413.46 0.01,67.5 0.02,135 0.03,202.51l0 0.6c0.01,33.09 26.7,59.86 59.5,59.86l827.59 0 0 -778.15c0,-33.15 -26.64,-60.02 -59.5,-60.02z"/>
   <path class="fil15" d="M3767.71 6672.33l0.06 -413.47c0.02,-89.28 -0.7,-178.63 -0.43,-267.96 0.11,-39.81 -31.14,-72.16 -69.8,-72.16l-708.65 0c-38.56,0 -69.81,32.18 -69.81,71.89l0 694.38c0,39.71 31.25,71.9 69.81,71.9l708.97 0c38.48,0 69.73,-32.08 69.83,-71.71 0,-4.29 0.02,-8.57 0.02,-12.87z"/>
   <path class="fil19" d="M2967.07 6628.46l200.18 -212.69c1.41,-1.49 3.51,-2.11 5.52,-1.72 2.02,0.44 3.66,1.91 4.31,3.85l44.86 131.53 265.17 -311.52c1.1,-1.28 2.69,-2.04 4.37,-2.06 1.74,0 3.31,0.68 4.45,1.93l57.41 63.27 137.76 -132.48 -56.78 -2.68c-3.24,-0.16 -5.74,-2.91 -5.59,-6.15 0.15,-3.24 2.9,-5.75 6.15,-5.59l70.41 3.33 0.17 0.05 1.97 0.47 0.06 0.04 0.27 0.18 1.39 1.02 0.41 0.5 0.75 1.24 0.24 0.58c0.22,0.66 0.35,1.35 0.32,2.07l-3.4 71.81c-0.16,3.24 -2.9,5.74 -6.15,5.59 -3.24,-0.16 -5.74,-2.9 -5.59,-6.15l2.7 -57.07 -141.31 135.89c-1.15,1.1 -2.69,1.69 -4.27,1.64 -1.67,0.03 -3.09,-0.74 -4.15,-1.93l-56.98 -62.8 -267.54 314.29c-1.37,1.61 -3.51,2.36 -5.57,1.96 -2.08,-0.4 -3.78,-1.87 -4.46,-3.87l-45.05 -132.06 -193.49 205.58c-1.23,1.29 -2.9,1.91 -4.55,1.83 -1.36,-0.07 -2.69,-0.59 -3.75,-1.59 -2.36,-2.22 -2.48,-5.94 -0.26,-8.31z"/>
   <polygon class="fil18" points="2975.83,6000.39 3413.56,6000.39 3413.56,5967.84 2975.83,5967.84 "/>
   <polygon class="fil18" points="2975.83,6111.02 3413.56,6111.02 3413.56,6078.46 2975.83,6078.46 "/>
   <polygon class="fil18" points="2975.83,6173.48 3413.56,6173.48 3413.56,6140.92 2975.83,6140.92 "/>
   <polygon class="fil18" points="2975.83,6224.69 3413.56,6224.69 3413.56,6192.14 2975.83,6192.14 "/>
   <polygon class="fil18" points="3491.36,5337.58 4630.48,5337.58 4630.48,5305.02 3491.36,5305.02 "/>
   <polygon class="fil18" points="3844.92,6410.71 4630.48,6410.71 4630.48,6378.15 3844.92,6378.15 "/>
   <polygon class="fil18" points="3844.92,6480.85 4630.48,6480.85 4630.48,6448.3 3844.92,6448.3 "/>
   <polygon class="fil18" points="3844.92,6550.99 4630.48,6550.99 4630.48,6518.44 3844.92,6518.44 "/>
   <polygon class="fil18" points="3844.92,6621.13 4630.48,6621.13 4630.48,6588.57 3844.92,6588.57 "/>
   <polygon class="fil18" points="3844.92,6711.32 4630.48,6711.32 4630.48,6646.93 3844.92,6646.93 "/>
   <polygon class="fil18" points="3491.36,5448.2 4630.48,5448.2 4630.48,5415.63 3491.36,5415.63 "/>
   <polygon class="fil18" points="3491.36,5688.28 4630.48,5688.28 4630.48,5655.72 3491.36,5655.72 "/>
   <polygon class="fil18" points="3491.36,5742.78 4630.48,5742.78 4630.48,5710.22 3491.36,5710.22 "/>
   <polygon class="fil18" points="3491.36,5510.66 4630.48,5510.66 4630.48,5478.1 3491.36,5478.1 "/>
   <polygon class="fil18" points="3491.36,5561.88 4630.48,5561.88 4630.48,5529.32 3491.36,5529.32 "/>
   <polygon class="fil20" points="2971.69,6704.31 3722.17,6704.31 3722.17,6697.29 2971.69,6697.29 "/>
   <path class="fil18" d="M3722.17 6700.8c0.03,-2.6 -0.61,-7.45 -0.61,-10.04 0.03,-43.24 0.07,-86.5 0.11,-129.76 0.06,-78.19 -0.51,-156.44 0.51,-234.64 -8.75,-8.67 -21.45,-13.59 -32.93,-9.51 -13.37,4.75 -19.98,18.95 -28.46,30.12 -8.48,11.18 -25.16,20.36 -36.18,11.56 -3.91,-3.13 -6.05,-7.88 -9.52,-11.46 -13.75,-14.19 -38.01,-3.71 -53.75,8.34 -52.48,40.19 -95.17,92.51 -123.57,151.48 -2.83,5.85 -6.04,12.3 -12.17,14.74 -12.2,4.86 -22.9,-8.94 -34.58,-14.91 -20.93,-10.67 -45.43,4.97 -62.84,20.57 -25.76,23.1 -49.85,48 -71.97,74.46 -11.15,13.33 -23.37,28.01 -40.67,31.17 -27.28,4.99 -49.98,-20.56 -76.85,-27.3 -35.08,-8.81 -69.07,15.31 -96.93,37.94 -23.35,18.98 -46.7,38.25 -70.06,57.22 143.78,0 709.08,0.19 750.49,0z"/>
   <path class="fil17" d="M3421.43 5530.77c0,124.67 -101.07,225.75 -225.76,225.75 -124.67,0 -225.75,-101.08 -225.75,-225.75 0,-124.68 101.08,-225.75 225.75,-225.75 124.68,0 225.76,101.07 225.76,225.75z"/>
   <path class="fil18" d="M3085.96 5521.4c106.88,-0.1 213.81,-0.84 320.72,-0.72 -5.27,-111.98 -97.71,-201.15 -210.99,-201.15 -113.56,0 -206.18,89.63 -211.01,201.99 33.76,-0.14 67.52,-0.1 101.28,-0.13z"/>
   <path class="fil19" d="M3406.89 5528.81c-70.17,-0.01 -140.36,0.14 -210.54,0.19 0.13,70.99 0.25,141.99 0.2,213 116.26,-0.46 210.37,-94.85 210.37,-211.22l-0.03 -1.96z"/>
   <path class="fil17" d="M4018.49 6281.89c-76.96,0 -139.57,-62.62 -139.57,-139.58 0,-76.96 62.61,-139.58 139.57,-139.58 76.96,0 139.58,62.62 139.58,139.58 0,76.96 -62.61,139.58 -139.58,139.58zm174.47 -139.58c0,-96.21 -78.26,-174.47 -174.47,-174.47 -96.2,0 -174.47,78.26 -174.47,174.47 0,96.21 78.27,174.47 174.47,174.47 96.21,0 174.47,-78.26 174.47,-174.47z"/>
   <path class="fil19" d="M4018.49 6002.73c72.2,0 131.77,55.11 138.86,125.46 11.67,-0.15 23.34,-0.23 35.02,-0.24 -7.33,-89.52 -82.51,-160.11 -173.88,-160.11 -0.84,0 -1.67,0.02 -2.5,0.03 0.07,11.63 0.12,23.26 0.15,34.89 0.78,-0.02 1.57,-0.04 2.35,-0.04z"/>
   <path class="fil17" d="M4463.88 6281.89c-76.96,0 -139.58,-62.62 -139.58,-139.58 0,-76.96 62.61,-139.58 139.58,-139.58 76.96,0 139.57,62.62 139.57,139.58 0,76.96 -62.61,139.58 -139.57,139.58zm174.47 -139.58c0,-96.21 -78.26,-174.47 -174.47,-174.47 -96.21,0 -174.47,78.26 -174.47,174.47 0,96.21 78.26,174.47 174.47,174.47 96.21,0 174.47,-78.26 174.47,-174.47z"/>
   <path class="fil18" d="M4463.88 6002.73c76.96,0 139.57,62.62 139.57,139.58 0,29.55 -9.26,56.96 -24.98,79.56 9.9,6.02 19.69,12.39 29.24,19.06 19.3,-28.07 30.64,-62.04 30.64,-98.61 0,-96.21 -78.26,-174.47 -174.47,-174.47 -58.25,0 -109.89,28.71 -141.59,72.71 9.13,7.18 18.05,14.72 26.76,22.54 25.22,-36.42 67.27,-60.35 114.83,-60.35z"/>
   <path class="fil10" d="M7138.57 5742.79l0 -3.98c-34.06,0 -64.92,-13.85 -87.3,-36.22 -22.37,-22.37 -36.21,-53.24 -36.21,-87.3 0,-34.06 13.84,-64.91 36.21,-87.3 22.39,-22.38 53.24,-36.22 87.3,-36.22 34.06,0 64.91,13.84 87.29,36.22 22.38,22.38 36.22,53.24 36.22,87.3 0,34.06 -13.85,64.92 -36.22,87.3 -22.37,22.37 -53.23,36.22 -87.29,36.22l0 7.97c72.51,-0.01 131.47,-58.97 131.48,-131.49 -0.01,-72.51 -58.98,-131.47 -131.48,-131.48 -72.52,0.01 -131.48,58.98 -131.49,131.48 0.01,72.52 58.96,131.48 131.49,131.49l0 -3.99zm0 -276.23l0 -3.98c-84.22,0.01 -152.72,68.5 -152.72,152.72 0,84.22 68.49,152.71 152.72,152.72 84.22,-0.01 152.7,-68.5 152.71,-152.72 -0,-84.22 -68.49,-152.71 -152.71,-152.72l0 7.97c39.91,0 76.07,16.23 102.3,42.45 26.22,26.23 42.44,62.39 42.44,102.3 0,39.91 -16.22,76.08 -42.44,102.3 -26.23,26.22 -62.39,42.44 -102.3,42.44 -39.91,0 -76.08,-16.22 -102.3,-42.44 -26.22,-26.22 -42.44,-62.39 -42.45,-102.3 0.01,-39.91 16.23,-76.07 42.45,-102.3 26.22,-26.22 62.39,-42.45 102.3,-42.45l0 -3.98z"/>
   <path class="fil10" d="M7149.46 5535.02l-3.98 0 0 59.52c0,7.85 6.35,14.19 14.19,14.19l56.45 0c3.44,0.01 6.22,2.79 6.23,6.23 -0.01,3.43 -2.79,6.21 -6.23,6.22l-56.45 0c-7.83,0 -14.19,6.35 -14.19,14.2l0 60.2c-0.01,3.43 -2.79,6.22 -6.22,6.22l-1.35 0c-3.44,0 -6.22,-2.79 -6.23,-6.22l0 -60.2c0,-7.85 -6.35,-14.2 -14.19,-14.2l-56.46 0c-3.44,-0.01 -6.22,-2.79 -6.23,-6.22 0.01,-3.44 2.78,-6.22 6.23,-6.23l56.46 0c7.85,0 14.19,-6.34 14.19,-14.19l0 -59.52c0.01,-3.43 2.8,-6.22 6.23,-6.22l1.35 0c3.43,0 6.21,2.78 6.22,6.22l7.97 0c0,-7.84 -6.35,-14.19 -14.19,-14.19l-1.35 0c-7.83,0 -14.2,6.35 -14.2,14.19l0 59.52c0,3.44 -2.78,6.22 -6.22,6.23l-56.46 0c-7.85,0 -14.2,6.34 -14.2,14.19 0,7.83 6.35,14.19 14.2,14.19l56.46 0c3.44,0.01 6.22,2.78 6.22,6.22l0 60.2c0.01,7.83 6.36,14.19 14.2,14.19l1.35 0c7.84,0 14.19,-6.35 14.19,-14.19l0 -60.2c0,-3.44 2.79,-6.22 6.21,-6.22l56.45 0c7.84,0 14.2,-6.35 14.2,-14.19 0,-7.85 -6.35,-14.19 -14.2,-14.19l-56.45 0c-3.43,-0.01 -6.21,-2.79 -6.21,-6.23l0 -59.52 -3.99 0z"/>
   <path class="fil10" d="M4338.25 4679.19l0.01 -3.99 -0.08 0c-31.82,0.02 -57.83,25.82 -57.95,57.58l0 -0.01 -0.01 0.22c0.01,31.95 25.88,57.96 57.78,58.02l0.08 0c31.82,-0.01 57.82,-25.83 57.96,-57.59l0 -0.25c-0.01,-31.93 -25.88,-57.92 -57.78,-57.98l-0.01 3.99 -0.01 3.98c27.47,0.03 49.83,22.49 49.82,50.01l0 0.22 0 -0.01c-0.09,27.32 -22.57,49.66 -49.99,49.65l-0.07 0c-27.45,-0.02 -49.82,-22.5 -49.81,-50.05l0 -0.19c0.09,-27.33 22.57,-49.65 49.99,-49.64l0.06 0 0.01 -3.98zm-9.86 -65.91l0 3.98c6.5,0 12.98,0 19.48,0l0 -3.98 -0.59 3.94c5.51,0.84 10.91,1.44 16.03,2.46 57.8,11.47 101.45,63.76 102.65,122.78 0.02,0.96 0.03,1.92 0.03,2.88 -0.01,23.74 -6.17,45.72 -17.69,66.7 -30.44,55.37 -60.74,110.83 -90.88,166.36 -2.07,3.83 -4.3,7.01 -6.92,9.42 -2.63,2.4 -5.6,4.09 -9.54,5.05l0.93 3.88 0 -3.99c-2.5,0 -5,0 -7.49,0l0 3.99 1.02 -3.85c-6.94,-1.9 -11.54,-5.45 -15.1,-11.89 -31.03,-57.05 -62.21,-114 -93.35,-170.97 -11.06,-20.27 -16.6,-41.35 -16.6,-63.59 0,-6.18 0.42,-12.44 1.28,-18.81 6.73,-49.9 44.55,-93.2 93.2,-105.93 7.67,-2.02 15.9,-2.98 24.26,-4.5l-0.72 -3.92 0 3.98 0 -3.98 -0.71 -3.92c-8.03,1.47 -16.46,2.44 -24.85,4.64 -51.94,13.67 -91.84,59.4 -99.09,112.57 -0.91,6.7 -1.35,13.33 -1.35,19.87 -0.01,23.58 5.92,46.09 17.59,67.42 31.13,56.97 62.3,113.93 93.33,170.95 4.36,8.15 11.29,13.52 20.07,15.79l0.5 0.13 0.52 0c2.49,0 4.99,0 7.49,0l0.47 0 0.45 -0.11c5.24,-1.23 9.6,-3.7 13.1,-6.94 3.5,-3.24 6.19,-7.18 8.52,-11.47 30.12,-55.53 60.42,-110.97 90.85,-166.32 12.09,-21.98 18.69,-45.41 18.69,-70.55 0,-1.01 -0.01,-2.03 -0.03,-3.06 -1.36,-62.83 -47.48,-118.12 -109.06,-130.42 -5.58,-1.11 -11.11,-1.72 -16.4,-2.52l-0.3 -0.05 -0.3 0c-6.5,0 -12.98,0 -19.48,0l-0.36 0 -0.35 0.06 0.71 3.92z"/>
   <polygon class="fil21" points="2707.04,7908.7 2618.61,7925.23 2594.68,7797.15 2683.11,7780.63 "/>
   <polygon class="fil21" points="1937.91,7935.96 1851.18,7930.99 1859.17,7791.61 1945.89,7796.58 "/>
   <path class="fil22" d="M2995.94 5900.73c-41.24,-35.28 -71.62,-73.69 -83.03,-126.95 -77.08,50.86 -183.09,123.8 -242.45,163.04 -22.44,-52 -44.48,-102.59 -48.87,-112.62 -8.61,-19.66 -54.31,-144.1 -76.18,-145.87 -29.84,-2.4 -57.02,189.37 -58.16,216.21 -1.34,31.52 8.68,62.35 20.02,91.8 17.16,44.59 37.61,87.87 59.89,130.15 2.37,4.5 4.94,9.19 9.2,11.97 6.9,4.52 21.85,2.31 29.85,0.31 12.09,-3.03 23.14,-8.16 33.71,-14.31 139.83,-64.09 356.04,-213.73 356.04,-213.73z"/>
   <path class="fil21" d="M3099.91 5726.14c-2.99,1.02 -5.2,3.51 -7.3,5.87 -17.41,19.56 -36.94,37.22 -58.12,52.6 20.55,-22.81 41.45,-46.14 53.88,-74.22 1.03,-2.32 1.91,-5.31 0.18,-7.17 -2.32,-2.5 -6.41,-0.32 -8.98,1.92 -13.55,11.95 -25.84,25.23 -39.31,37.26 -11.17,9.98 -28.21,26.23 -43.69,27.99 -1.58,-5.7 1.47,-11.98 3.59,-17.2 3.7,-9.08 6.66,-18.45 8.86,-28.01 0.61,-2.65 1.07,-5.73 -0.68,-7.82 -1.88,-2.24 -5.56,-2.1 -8.02,-0.5 -2.17,1.43 -3.62,3.67 -4.94,5.92l-0.51 0.87c-11.57,19.91 -25.48,38.47 -41.29,55.22 -8.07,8.54 -16.65,16.63 -25.68,24.18 -3.93,3.28 -7.06,5.36 -8.74,7.57 2.7,8.88 6.59,17.16 11.38,24.94 2.13,2.94 4.27,5.89 6.46,8.8 0.92,1.21 4.46,5.95 8.89,11.73 8.18,9.29 17.31,17.86 26.6,25.96 47.83,-25.33 94.41,-53.07 139.45,-83.09 3.24,-2.15 6.71,-4.65 7.69,-8.41 3.41,-13.08 -14.69,-3.95 -18.46,-1.7 -14.59,8.66 -29.17,17.33 -43.76,25.99 21.51,-14.5 41.48,-31.29 59.47,-49.98 2.47,-2.57 5.09,-6.2 3.45,-9.37 -2.34,-4.56 -9.28,-1.88 -13.3,1.3 -18.31,14.48 -36.63,28.95 -54.94,43.43 20.34,-19.55 41.04,-39.54 54.3,-64.44 1.09,-2.04 2.15,-4.39 1.44,-6.59 -0.98,-3.01 -4.96,-4.1 -7.95,-3.07z"/>
   <path class="fil23" d="M2274.78 5289.54c-18.44,6.06 -33.61,20.56 -41.95,38.08 -7.37,15.49 -9.64,32.83 -11.52,49.89 -5,45.23 -8.02,90.7 -9.05,136.2 7.4,3.91 14.8,7.81 22.2,11.72 6.08,-56.37 22.31,-111.63 47.68,-162.33 5.61,-11.21 11.7,-22.36 19.25,-32.4 5.14,-6.82 19.3,-16.54 20.78,-25.06 4.04,-23.31 -32.56,-21 -47.39,-16.11z"/>
   <path class="fil21" d="M2248.14 5420.38c7.36,0.86 20.62,22.01 26.99,26.12 21.67,13.97 40.05,32.36 56.41,52.15 8.28,10 16.06,20.41 23.64,30.94 5.45,7.57 14.72,16.6 15.64,26.28 1.29,13.43 -5.84,30.51 -8.7,43.61 -0.59,2.71 -1.23,5.52 -2.95,7.69 -1.35,1.72 -3.27,2.89 -5.19,3.94 -20.86,11.52 -46.05,13.44 -69.5,9.16 -23.44,-4.28 -45.44,-14.36 -66.36,-25.77 -2.52,-1.37 -5.13,-2.86 -6.65,-5.28 -1.1,-1.75 -1.49,-3.73 -1.51,-5.8 6.42,-22.22 30.55,-136.5 38.18,-163.04z"/>
   <path class="fil24" d="M2360.9 5603.93c-29.4,-5.45 -55.85,-23.24 -72.25,-49.72 -10.56,-17.05 -15.19,-36.75 -17.07,-56.55 -1.59,-16.66 -1.31,-34.61 4.33,-50.63 21.33,13.91 39.48,32.07 55.64,51.63 8.28,10 16.06,20.41 23.64,30.94 5.45,7.57 14.72,16.6 15.64,26.28 1.29,13.43 -5.84,30.51 -8.7,43.61 -0.33,1.5 -0.69,3.01 -1.22,4.44z"/>
   <path class="fil25" d="M2510.36 5417.38c-7.46,11.5 -15.79,22.45 -24.89,32.71 -3.98,4.48 -8.26,8.93 -13.72,11.41 4.4,-15.76 9.22,-31.4 14.48,-46.89 1.27,-3.72 2.56,-7.45 4.35,-10.95 1.07,-2.07 2.36,-4.11 4.22,-5.52 2.14,-1.63 4.89,-2.27 7.58,-2.4 3.8,-0.19 12.75,0.61 14.71,4.72 2.21,4.65 -4.35,13.26 -6.73,16.92z"/>
   <path class="fil21" d="M2246.67 5374.56c3.41,-15.86 10.59,-32.07 19.65,-43.36 16.89,-21.02 44.82,-29.91 71.64,-32.78 12.24,-1.31 24.67,-1.59 36.8,0.51 7.31,1.27 14.44,3.39 21.48,5.74 26.43,8.87 52.09,21.69 73.02,40.32 9.19,8.16 20.98,18.9 24.44,30.84 4.43,15.29 2.3,31.59 -1.91,46.64 -4.2,15.04 -13.47,25.9 -20.56,39.53 -5.65,10.83 -24.18,58.31 -30.63,69.96 -4.94,8.93 -10.13,17.8 -16.86,25.47 -13.37,15.27 -33.74,25.31 -53.86,22.78 -7.78,-0.97 -15.24,-3.74 -22.27,-7.2 -38.9,-19.14 -63.95,-58.24 -81.7,-97.78 -11.39,-25.37 -20.72,-52.24 -21.37,-80.04 -0.15,-6.49 0.62,-13.52 2.14,-20.62z"/>
   <path class="fil26" d="M2401.05 5518.47c1.84,0.89 3.63,0.76 5.04,-0.45 1.04,-0.91 1.5,-2.21 1.78,-2.98 4.6,-12.97 6.03,-26.78 7.4,-40.14 1.44,-13.95 2.93,-28.36 8.07,-41.54 0.34,-0.89 -0.07,-1.85 -0.89,-2.17 -0.83,-0.32 -1.78,0.14 -2.13,1.03 -5.31,13.63 -6.83,28.3 -8.3,42.49 -1.35,13.14 -2.76,26.74 -7.22,39.29l-0.73 1.44c-0.71,0.61 -2.32,-0.35 -3.47,-1.57 -5.84,-6.18 -10.54,-13.75 -13.56,-21.9 -0.32,-0.87 -1.26,-1.26 -2.1,-0.89 -0.85,0.38 -1.27,1.38 -0.95,2.24 3.17,8.56 8.09,16.5 14.23,22.99 0.92,0.97 1.88,1.7 2.82,2.15z"/>
   <path class="fil26" d="M2387.68 5536.65c0.92,0.26 1.89,-0.25 2.2,-1.16 0.31,-0.95 -0.2,-1.98 -1.14,-2.29 -5.22,-1.74 -10.63,-3.53 -15.49,-6.19 -5.33,-2.93 -9.28,-6.52 -11.71,-10.69 -1.29,-2.2 -2.22,-4.69 -3.13,-7.09 -0.35,-0.93 -1.39,-1.41 -2.32,-1.06 -0.93,0.35 -1.4,1.4 -1.05,2.33 0.96,2.55 1.94,5.19 3.39,7.64 2.77,4.74 7.18,8.78 13.09,12.03 5.14,2.81 10.71,4.67 16.08,6.46l0.08 0.02z"/>
   <path class="fil25" d="M2442.93 5447.08c-5.28,-6.64 1.07,-15.92 4.85,-22.59 1.85,-3.28 4.44,-6.77 8.2,-7.12 2.7,-0.26 5.24,1.22 7.46,2.78 9.95,6.95 17.96,16.66 22.92,27.75 3.09,6.93 -3.9,13.33 -8.7,17.42 -1.74,1.48 -3.62,3.03 -5.89,3.32 -3.18,0.41 -6.06,-1.73 -8.54,-3.76 -6.5,-5.35 -12.86,-10.85 -19.09,-16.5l-1.21 -1.29z"/>
   <path class="fil25" d="M2395.63 5427.68c-0.12,0.81 -0.27,1.68 -0.84,2.26 -0.57,0.57 -1.43,0.74 -2.22,0.85 -6.94,0.93 -13.95,-0.45 -20.81,-1.83 -9.4,-1.88 -18.8,-3.76 -28.19,-5.64 -1.35,-0.27 -2.83,-0.63 -3.59,-1.78 -0.69,-1.05 -0.53,-2.42 -0.24,-3.63 1.46,-6.15 5.64,-11.3 10.23,-15.65 5.2,-4.93 11.34,-9.26 18.4,-10.56 7.66,-1.4 21.93,0.24 27.07,7.1 5.39,7.2 1.31,20.96 0.19,28.88z"/>
   <path class="fil27" d="M2439.34 5472.35c2.43,-0.99 4.98,-1.18 7.49,-0.3 2.34,0.83 4.46,2.84 5.5,5.09 1,2.19 1.24,5.23 0.3,7.48 -0.98,2.33 -2.67,4.52 -5.09,5.51 -2.42,0.99 -4.98,1.18 -7.49,0.29 -2.34,-0.83 -4.46,-2.84 -5.5,-5.09 -1.01,-2.18 -1.24,-5.23 -0.3,-7.48 0.98,-2.33 2.67,-4.52 5.09,-5.5z"/>
   <path class="fil27" d="M2353.8 5441.12c2.32,-1.37 5.57,-2.43 8.24,-1.48 1.4,0.26 2.65,0.84 3.72,1.73 1.23,0.7 2.22,1.67 2.96,2.91 1.46,2.24 2.19,5.61 1.48,8.24 -0.72,2.65 -2.2,5.24 -4.63,6.68 -2.33,1.37 -5.58,2.42 -8.25,1.48 -1.4,-0.26 -2.65,-0.84 -3.72,-1.73 -1.23,-0.7 -2.21,-1.68 -2.96,-2.91 -1.46,-2.24 -2.19,-5.62 -1.48,-8.25 0.72,-2.65 2.21,-5.24 4.64,-6.68z"/>
   <path class="fil21" d="M2256.96 5391.91c-7.61,-4.98 -16.5,-8.39 -25.61,-8.2 -7.75,0.16 -15.94,3.44 -19.74,10.2 -3.68,6.57 -2.48,14.79 -0.08,21.93 3.23,9.62 8.44,18.55 15.21,26.1 5.85,6.52 14.13,12.35 22.72,10.63 4.22,-0.84 7.87,-3.42 11.38,-5.92 9.35,-6.69 18.29,-13.98 16.12,-26.31 -2.09,-11.88 -10.06,-21.92 -20,-28.43z"/>
   <path class="fil28" d="M2256.54 5416.15c-3.02,-4.98 -7.34,-9.07 -12,-12.56 -5.21,-3.92 -11.31,-7.28 -17.82,-6.98 -1.7,0.07 -3.46,0.43 -4.84,1.43 -2.94,2.14 -3.25,6.36 -2.93,9.98 0.95,10.83 5.49,21.84 14.31,28.2 4.23,3.05 9.53,4.93 14.69,4.15 13.45,-2.02 14.47,-14.5 8.59,-24.23z"/>
   <path class="fil26" d="M2227.46 5423.48c6.77,-1.7 13.72,-2.75 20.68,-3.11l-0.11 -2.15c-7.09,0.37 -14.19,1.43 -21.09,3.17l0.52 2.09z"/>
   <path class="fil26" d="M2258.52 5435.55l1.86 -1.07c-8.62,-14.87 -21.06,-27.23 -35.97,-35.78l-1.07 1.86c14.59,8.36 26.75,20.46 35.19,35z"/>
   <path class="fil23" d="M2560.5 5329.63c-11.81,-19.46 -32.39,-32.04 -53.58,-40.39 -15.55,-6.13 -31.87,-10.3 -48.45,-12.5 -29.4,-3.91 -59.61,-1.68 -88.1,6.54 -6.94,2 -13.77,4.36 -20.46,7.07 -4.89,1.98 -14.52,9.08 -19.67,8.58 -4.46,-0.44 -9.8,-8.02 -14.43,-10.02 -5.82,-2.52 -12.41,-3.37 -18.67,-2.37 -12.79,2.04 -23.81,10.72 -31.2,21.36 -14.72,21.21 -21.45,48.08 -28.54,72.75 13.17,5.27 23.28,17.57 25.9,31.5 0.54,2.89 0.84,5.96 2.6,8.31 1.36,1.81 3.42,2.93 5.41,4 5.16,2.77 10.33,5.54 15.49,8.3 16.82,9.02 33.78,-29.67 41.19,-40.68 12.88,-19.15 23.98,-39.48 33.1,-60.68 20.75,12.36 44.76,17.7 67.86,24.74 18.66,5.69 41.98,13.12 55.5,28.1 14.55,16.12 20.89,31.91 47.76,28.9 42.06,-4.71 46.91,-52.84 28.29,-83.51z"/>
   <path class="fil29" d="M2545.5 5675.44c0,0 -148.91,-64.38 -179.91,-77.84 -35.83,44.09 -125.67,20.69 -163.3,-27.17 3.3,4.2 -161.8,69.3 -175.87,75.02 -25.81,10.5 -50.15,23.9 -75.65,35.09 -5.8,2.55 15.61,150.65 16.89,166.09 4.69,56.59 8.31,113.26 10.85,169.99 5.07,113.46 5.85,227.11 2.29,340.62 -0.24,7.65 -4.03,23.9 -1.11,30.78 4,9.37 9.13,8.03 20.76,9.65 21.63,3.02 43.39,4.85 65.21,5.74 43.78,1.82 87.63,-0.13 131.3,-3.35 65.06,-4.81 129.96,-11.54 195.08,-15.44 15.81,-0.95 45.47,-0.75 61.18,-2.57 0,0 29.8,-363.04 63.56,-471.96 7.3,-23.53 40.41,-215.12 28.71,-234.67z"/>
   <path class="fil30" d="M2022.17 5870.8c-13.16,-41.09 -40.82,-76.19 -65.54,-111.54 4.78,39.11 10.4,79.69 11.04,87.37 4.69,56.59 8.31,113.26 10.85,169.99 5.07,113.46 5.85,227.11 2.29,340.62 -0.24,7.65 -4.03,23.9 -1.11,30.78 4,9.37 9.13,8.03 20.77,9.65 21.62,3.02 43.39,4.85 65.2,5.74 43.78,1.82 87.63,-0.13 131.3,-3.35 55.8,-4.12 111.5,-9.64 167.31,-13.6 -19.32,-25.84 -227.44,-157.76 -342.11,-515.67z"/>
   <path class="fil18" d="M2746.56 7812.19l-298.94 -1430.13 -468.14 5.92 -205.04 1468.06 260.6 0 199.71 -1298.01 12.18 -0.96 252.76 1282.98c82.53,-6.45 164.44,-20.06 246.87,-27.86z"/>
   <path class="fil31" d="M2029.5 6499.32c6.76,-3.94 302.46,-80.02 419.82,-111.4l-1.7 -5.86 -468.14 5.92 -205.04 1468.06 68.25 0c2.26,-50.94 181.44,-1353.59 186.8,-1356.72z"/>
   <path class="fil31" d="M2588.58 7830.92c-25.29,-95.89 -302.51,-1203.47 -324.96,-1277.03 -16.16,3.78 -0.29,-0.65 -16.53,2.76l252.61 1283.4c29.69,-2.33 59.3,-5.56 88.88,-9.13z"/>
   <polygon class="fil23" points="2525.01,5865.35 2522.3,5864.85 2538.8,5776.31 2541.51,5776.81 "/>
   <path class="fil23" d="M2044.58 6043.07c2.04,0.07 4.08,0.1 6.12,0.1 52.46,-0.04 106.61,-20.89 154.71,-35.63 55.66,-17.1 106.07,-45.52 153.19,-78.24l15.86 -11.01 -18.93 3.83c-3.33,0.63 -6.26,2.73 -8.08,5.61l6.67 4.35c0.95,-1.37 1.71,-1.86 2.99,-2.15l-0.79 -3.91 -2.27 -3.28c-46.72,32.44 -96.42,60.41 -150.98,77.17 -48.43,14.91 -102.02,35.31 -152.37,35.27 -1.96,0 -3.91,-0.03 -5.86,-0.09l-0.26 7.97z"/>
   <path class="fil23" d="M2075.85 6288.31c97.57,3.57 194.75,17.77 289.26,42.26l2 -7.72c-95.08,-24.64 -192.83,-38.92 -290.98,-42.51l-0.29 7.96z"/>
   <path class="fil23" d="M2348.36 6270.63l-147.91 -12.28c-46.07,-3.82 -80.31,-44.28 -76.49,-90.33l19.38 -233.41c3.82,-46.07 44.27,-80.31 90.33,-76.48l147.92 12.28c46.07,3.83 80.31,44.26 76.49,90.34l-19.38 233.41c-3.83,46.07 -44.27,80.31 -90.34,76.48z"/>
   <path class="fil25" d="M2403.6 6263.48l-233.15 -19.36c-22.54,-1.87 -39.29,-21.65 -37.41,-44.19l26.45 -318.63c0.69,-8.28 3.81,-15.77 8.59,-21.85 -11.67,6.37 -20.03,18.29 -21.21,32.55l-26.46 318.63c-1.87,22.54 14.88,42.32 37.41,44.19l233.14 19.36c14.26,1.18 27.39,-5.09 35.6,-15.56 -6.79,3.71 -14.69,5.56 -22.97,4.87z"/>
   <path class="fil32" d="M2332.24 5874.13l-58.28 -4.84c-10.73,-0.89 -18.7,-10.31 -17.81,-21.04 0.89,-10.73 10.31,-18.7 21.04,-17.81l58.29 4.83c10.73,0.89 18.71,10.31 17.82,21.04l0 0.01c-0.89,10.72 -10.31,18.7 -21.05,17.81z"/>
   <path class="fil33" d="M2347.79 5871.5l-73.19 -6.07c-6.62,-0.55 -11.53,-6.36 -10.98,-12.98l1.24 -14.89c0.26,-3.09 1.69,-5.76 3.77,-7.73 -6.14,0.06 -11.35,4.73 -11.87,10.97l-1.24 14.9c-0.55,6.62 4.37,12.43 10.99,12.97l73.18 6.08c3.53,0.3 6.81,-1 9.21,-3.26l-1.11 0.02z"/>
   <path class="fil22" d="M1697.2 6232.53c103.52,53.96 543.7,2.79 543.7,2.79 -15.9,-55.35 -20.35,-107.11 0.67,-160.95 -103.63,0 -250.44,2.93 -322.49,2.65 14.41,-22.61 105.77,-170.03 107.53,-198.33 4.54,-72.9 2.76,-237.01 -81.35,-198.15 0,0 -398.19,473.74 -248.06,551.99z"/>
   <path class="fil29" d="M2247.04 6077.06c-6.2,-5.58 -33,-2.72 -41.3,-2.69 -22.68,52.57 -12.54,109.6 3.99,163.96 34.59,-1.35 39.43,2.15 41.86,-25.72 2.65,-30.47 4.06,-61.19 1.78,-91.74 -0.66,-8.89 0.37,-37.35 -6.21,-43.68l-0.12 -0.12z"/>
   <path class="fil22" d="M2247.04 6077.06c-0.79,-0.7 -1.89,-1.25 -3.25,-1.67 -21.8,20.17 -22.78,53.77 -20.78,81.66 0.97,13.48 2.8,26.94 4.98,40.28 2.21,13.53 7.64,24.84 14.85,35.52 4.75,-3.35 7.79,-9.33 8.74,-20.25 2.65,-30.47 4.06,-61.19 1.78,-91.74 -0.66,-8.89 0.37,-37.35 -6.21,-43.68l-0.12 -0.12z"/>
   <path class="fil21" d="M2435.02 6141.49c-3.25,-0.83 -6.66,0.07 -9.91,0.93 -26.84,7.14 -54.46,11.37 -82.21,12.61 31.54,-8.19 63.68,-16.63 91.1,-34.22 2.27,-1.46 4.8,-3.59 4.34,-6.25 -0.59,-3.56 -5.49,-4.04 -9.07,-3.54 -18.98,2.65 -37.63,7.23 -56.59,10.02 -15.72,2.3 -40.31,6.73 -55.05,-0.76 1.93,-5.97 8.31,-9.75 13.24,-13.13 8.58,-5.88 16.69,-12.45 24.22,-19.62 2.08,-1.99 4.29,-4.46 3.96,-7.32 -0.35,-3.09 -3.7,-5.11 -6.81,-5.13 -2.76,-0.01 -5.35,1.13 -7.84,2.35l-0.96 0.48c-21.89,10.87 -45.05,19.17 -68.84,24.76 -12.15,2.85 -24.47,4.99 -36.86,6.4 -5.41,0.61 -9.4,0.63 -12.17,1.61 -2.8,9.44 -4.18,19.05 -4.49,28.74 0.17,3.86 0.33,7.71 0.58,11.56 0.1,1.62 0.47,7.89 1.02,15.59 1.82,13 4.89,25.94 8.38,38.54 57.17,5.52 114.61,8.18 172.06,7.93 4.13,-0.02 8.65,-0.2 11.72,-2.96 10.66,-9.59 -10.7,-12.08 -15.35,-12.29 -17.98,-0.85 -35.97,-1.71 -53.96,-2.57 27.53,-0.27 55.03,-3.46 81.89,-9.49 3.7,-0.83 8.14,-2.52 8.54,-6.29 0.58,-5.41 -7.11,-7.08 -12.54,-6.62 -24.67,2.11 -49.35,4.23 -74.03,6.35 29.44,-5.42 59.45,-11.02 85.75,-25.33 2.15,-1.17 4.46,-2.63 5.12,-5 0.89,-3.24 -1.99,-6.53 -5.24,-7.36z"/>
   <path class="fil23" d="M1875.98 6118.61l-1.82 -2.06c81.65,-71.73 128.32,-176.52 169.5,-268.97l2.52 1.13c-41.29,92.7 -88.1,197.78 -170.2,269.9z"/>
   <polygon class="fil23" points="1892.2,6142.17 1889.86,6140.72 1921.12,6090.43 1923.47,6091.88 "/>
   <polygon class="fil23" points="1923.77,6139.28 1921.14,6138.44 1934.73,6095.82 1937.36,6096.66 "/>
   <path class="fil23" d="M2027.43 5893.54l-1.69 -2.19c13.29,-10.29 25.67,-21.9 36.81,-34.5l2.06 1.82c-11.25,12.73 -23.76,24.46 -37.18,34.86z"/>
   <path class="fil23" d="M2015.55 5753.59c-11.24,-27.99 -34.62,-51.53 -62.54,-62.97l1.05 -2.55c28.59,11.72 52.53,35.83 64.05,64.49l-2.56 1.03z"/>
   <path class="fil23" d="M2247.04 6385.97c2.32,41.96 2.92,84.49 1.73,126.46 -0.19,6.74 -0.81,14.28 -5.7,18.48l1.8 2.08c5.74,-4.92 6.44,-13.15 6.65,-20.47 1.19,-42.01 0.59,-84.55 -1.72,-126.54 -0.92,0 -1.83,0.02 -2.76,-0.01z"/>
   <polygon class="fil23" points="2244.47,6558.09 2241.72,6557.98 2242.8,6531.1 2245.55,6531.21 "/>
   <path class="fil23" d="M2199.12 6541.11l-0.44 -2.72c37.96,-6.13 75.91,-14.78 112.79,-25.7l0.79 2.64c-36.99,10.95 -75.06,19.63 -113.14,25.79z"/>
   <path class="fil23" d="M1988.29 6534.02c-1.05,0 -2.1,-0.06 -3.17,-0.19l0.33 -2.73c12.84,1.59 24.31,-8.31 29.55,-18.17 5.99,-11.28 7.17,-24.85 8.21,-36.83l7.63 -87.99 2.75 0.24 -7.63 87.98c-1.06,12.24 -2.27,26.11 -8.52,37.89 -5.41,10.19 -16.31,19.8 -29.15,19.8z"/>
   <path class="fil23" d="M2300.37 5645.36l-1.5 -0.01c-48.3,-0.53 -92.92,-26.66 -111.01,-65.01l3.53 -1.66c17.47,37.03 60.68,62.26 107.54,62.77 34.6,0.41 64.52,-12.91 79.53,-35.53l3.25 2.15c-15.53,23.41 -45.86,37.28 -81.33,37.28z"/>
   <path class="fil23" d="M1983.36 6385.46c155.62,5.67 311.55,3.29 466.93,-7.13l-466.93 7.13z"/>
   <path class="fil25" d="M2543.53 5384.08c-22.31,5.77 -40.76,-1.91 -57.57,-16.37 -11.27,-9.7 -20.76,-18.33 -36.15,-20.47 -11.91,-1.66 -22.14,-2.43 -33.2,-7.55 -23.78,-11.01 -60.22,-42.01 -82.38,-11.21 -10.7,14.87 -14.79,33.74 -26.33,48.36 -7.61,9.65 -18.19,17.37 -30.91,13.2 -6.57,-2.16 -11.89,-6.94 -15.92,-12.41 -6.94,-9.45 -8.94,-15.92 -18.33,-15.63 -1.84,6.26 -3.59,12.52 -5.35,18.63 13.17,5.27 23.28,17.57 25.9,31.5 0.54,2.89 0.84,5.96 2.6,8.31 1.36,1.81 3.42,2.93 5.41,4 5.16,2.77 10.33,5.54 15.49,8.3 16.82,9.02 33.78,-29.67 41.19,-40.68 12.88,-19.15 23.98,-39.48 33.1,-60.68 20.75,12.36 44.76,17.7 67.86,24.74 18.66,5.69 41.98,13.12 55.5,28.1 14.55,16.12 20.89,31.91 47.76,28.9 25.49,-2.85 37.29,-21.66 38.5,-42.86 -7.92,6.39 -17.19,11.22 -27.18,13.81z"/>
   <path class="fil23" d="M2660.6 5940c-4.57,1.71 -6.93,5.35 -8.77,8.08 -15.92,24.28 -25.07,52.87 -26.24,81.87l-0.04 0.89 0.92 2.15 5.56 13.13 2.14 -14.8 -7.88 -1.15 -0.1 0.69 3.94 0.57 3.67 -1.56 -0.56 -1.33 -3.67 1.56 3.99 0.16c1.1,-27.54 9.83,-54.77 24.94,-77.82 1.66,-2.6 3.36,-4.51 4.8,-4.96l-2.69 -7.5z"/>
   <path class="fil23" d="M2665.16 5951.56c-6.37,17.24 -9.61,35.6 -9.61,53.96 0,7.93 0.61,15.85 1.82,23.69l7.88 -1.23c-1.16,-7.43 -1.73,-14.95 -1.73,-22.46 0,-17.43 3.08,-34.87 9.11,-51.2l-7.48 -2.76z"/>
   <path class="fil23" d="M2506.84 5962.12c-1.47,1.62 -2,3.72 -1.98,5.39 0.03,2.62 0.92,4.7 1.65,6.36 9.83,21.62 19.65,43.24 29.48,64.85 5.35,11.77 10.71,23.54 16.06,35.31 5.57,12.21 11.46,25.23 21.8,35.29 7.92,7.65 18.75,13.03 29.97,13.07 3.66,0 7.35,-0.6 10.92,-1.91l-2.75 -7.48c-2.63,0.96 -5.36,1.41 -8.17,1.42 -8.56,0.03 -17.81,-4.37 -24.43,-10.82 -8.93,-8.62 -14.56,-20.65 -20.09,-32.87 -5.35,-11.76 -10.7,-23.55 -16.06,-35.31 -9.82,-21.62 -19.65,-43.23 -29.48,-64.85 -0.59,-1.24 -0.96,-2.58 -0.93,-3.07l0.02 -0.18 -0.35 -0.12 0.27 0.25 0.08 -0.13 -0.35 -0.12 0.27 0.25 -5.93 -5.33z"/>
   <path class="fil23" d="M2659.44 6104.31c115.98,-51.9 225.76,-117.59 326.32,-195.26l-4.87 -6.31c-100.06,77.28 -209.31,142.66 -324.7,194.3l3.25 7.28z"/>
   <path class="fil23" d="M2903.2 5783.8c3.31,19.7 10.37,38.73 20.7,55.83l6.82 -4.13c-9.8,-16.22 -16.52,-34.33 -19.67,-53.03l-7.86 1.32z"/>
   <path class="fil23" d="M2004.44 6384.91c-30.73,277.62 -175.35,1256.59 -206.02,1470.56l7.89 1.13c30.67,-213.99 175.28,-1192.81 206.06,-1470.81l-7.92 -0.88z"/>
   <path class="fil23" d="M2249.87 6555.48c97.71,426.54 189.16,854.73 291.63,1281.31l7.75 -1.86c-102.44,-426.45 -193.88,-854.63 -291.61,-1281.23l-7.77 1.78z"/>
   <path class="fil23" d="M2209.92 6563.96c27.31,-2.57 54.56,-6 81.66,-10.31l-1.25 -7.88c-26.93,4.29 -54,7.7 -81.15,10.24l0.74 7.94z"/>
   <polygon class="fil34" points="2713.06,7997.59 2628.56,8009.71 2624.35,7980.32 2708.85,7968.2 "/>
   <path class="fil23" d="M2937.85 7959.73c2.5,-2.44 3.32,-5.09 3.02,-7.61 -69.97,-8.38 -229.51,-51.91 -232.62,-52.65 -36.38,10.52 -55.08,12.19 -92.28,15.69 -7.44,17.13 4.25,73.58 9.53,73.24 103.94,-6.74 207.7,-15.98 311.2,-27.68l1.15 -0.99z"/>
   <polygon class="fil34" points="1927.48,8022.11 1842.2,8018.26 1843.54,7988.6 1928.81,7992.44 "/>
   <path class="fil23" d="M2155.39 8026.8c2.9,-1.93 4.21,-4.37 4.39,-6.92 -67.19,-21.27 -215.81,-93.76 -218.73,-95.07 -37.71,3.55 -56.39,1.7 -93.59,-1.79 -10.5,15.46 -9.54,73.09 -4.29,73.74 103.37,12.74 207.04,22.99 310.9,30.8l1.32 -0.76z"/>
   <path class="fil34" d="M1940.69 7953.08c0.12,-4.19 2.16,-8.36 5.38,-11.46 3.21,-3.1 7.47,-5.02 11.66,-5l0.34 0 0.03 0.01 0.22 -0.93 -0.56 0.72 0.34 0.2 0.22 -0.93 -0.56 0.72 1.72 -2.19 -2.73 0c-0.02,1.14 0.71,2.01 1.01,2.19l1.72 -2.19 -2.73 0 2.81 0 -2.75 -0.61 -0.06 0.61 2.81 0 -2.75 -0.61 7.78 1.73 0.12 -1.11c0.01,-1.23 -0.49,-2.4 -1.1,-3.15 -0.93,-1.13 -1.91,-1.6 -2.77,-1.94 -0.88,-0.31 -1.7,-0.46 -2.58,-0.49l0.01 0 -0.56 0c-6.57,0.01 -12.66,2.87 -17.19,7.23 -4.52,4.37 -7.6,10.35 -7.81,16.96l7.96 0.24z"/>
   <path class="fil34" d="M1952.56 7963.74c1.81,-9.24 10.51,-17.2 19.88,-18.2l-0.01 0 -0.07 -0.59 0 0.6 0.07 -0.01 -0.07 -0.59 0 0.6 0.03 0 0.24 -1.06 -0.64 0.84 0.4 0.22 0.24 -1.06 -0.64 0.84 1.75 -2.31 -2.83 0c-0.01,1.22 0.77,2.12 1.09,2.31l1.75 -2.31 -2.83 0 2.89 0 -2.73 -0.98 -0.16 0.98 2.89 0 -2.73 -0.98 7.51 2.69 0.3 -1.71c0.01,-1.24 -0.52,-2.42 -1.13,-3.14 -0.94,-1.11 -1.91,-1.55 -2.78,-1.86 -0.88,-0.3 -1.71,-0.43 -2.6,-0.43l-0.82 0.04 -0.01 0.01c-13.02,1.56 -24.08,11.7 -26.78,24.53l7.81 1.59z"/>
   <path class="fil34" d="M1971.4 7971.05c2.14,-8.41 9.9,-15.51 18.46,-16.88l-1.31 -7.87c-11.85,2.04 -21.79,11.13 -24.87,22.74l7.71 2.01z"/>
   <path class="fil34" d="M1944.71 7884.2l3.12 2.49c0.83,-1.08 2.45,-1.81 4.32,-1.81 1.07,0 2.15,0.25 3.04,0.69l0 0c2.65,1.25 4.81,4.34 5.7,7.82 0.48,1.83 0.67,3.78 0.67,5.84 0,1.94 -0.18,3.96 -0.43,6.02 -0.9,7.5 -2.76,14.74 -6.68,20.36l3.27 2.28 3.63 1.63c4.93,-10.94 14.64,-19.81 26,-23.73 0.76,-0.28 1.25,-0.36 1.33,-0.35l0 -0.04 -0.01 0.04 0.01 0 0 -0.04 -0.01 0.04 0.08 0.01 -0.07 -0.01 0.02 -0.13 -0.07 0.13 0.05 0.01 0.02 -0.13 -0.07 0.13 0.54 0.9 0.19 1.81c-0,1.97 -0.65,3.9 -1.94,5.85 -1.93,2.91 -5.37,5.68 -9.35,7.61 -3.97,1.95 -8.45,3.05 -12.17,3.04 -2.27,0 -4.23,-0.41 -5.65,-1.09l0 0c-2.76,-1.22 -6.8,-5.83 -9.62,-11.61 -2.9,-5.74 -4.8,-12.59 -4.78,-17.86 -0.01,-3.39 0.78,-5.97 1.95,-7.41l0 0 -3.12 -2.49 -3.11 -2.49c-2.77,3.51 -3.68,7.9 -3.69,12.38 0.02,7.04 2.28,14.72 5.63,21.43 3.43,6.68 7.72,12.44 13.29,15.22l0 0.01c2.81,1.34 5.92,1.87 9.1,1.87 6.94,-0.04 14.37,-2.5 20.44,-6.63 3.03,-2.07 5.71,-4.59 7.71,-7.57 1.99,-2.98 3.29,-6.48 3.28,-10.28 0,-1.12 -0.11,-2.27 -0.35,-3.41 -0.35,-1.7 -1.13,-3.26 -2.33,-4.57 -1.19,-1.29 -2.89,-2.37 -4.98,-2.64l0.01 0 -1.01 -0.06c-1.71,0.02 -3,0.48 -3.94,0.79 -13.48,4.69 -24.76,14.98 -30.65,27.99l6.91 3.92c5.05,-7.29 7.06,-15.84 8.05,-23.96 0.27,-2.24 0.48,-4.57 0.48,-6.98 -0,-2.56 -0.24,-5.2 -0.93,-7.84 -1.36,-5.18 -4.52,-10.31 -9.93,-12.99l0.01 0.01c-2.06,-1.01 -4.31,-1.5 -6.55,-1.5 -3.83,0 -7.85,1.45 -10.55,4.8l0 0 3.11 2.49z"/>
   <path class="fil34" d="M2726.64 7900.56c-5.18,2.59 -9.06,6.29 -11.74,10.66 -2.69,4.38 -4.25,9.33 -5.26,14.63l7.83 1.5c0.9,-4.72 2.23,-8.72 4.22,-11.93 2,-3.22 4.6,-5.73 8.53,-7.72l-3.57 -7.13z"/>
   <path class="fil34" d="M2742.12 7903.67c-4.93,2.51 -8.45,6.34 -10.91,10.58 -2.49,4.26 -4.03,8.94 -5.27,13.61l7.71 2.05c1.15,-4.36 2.53,-8.39 4.44,-11.64 1.92,-3.26 4.28,-5.76 7.67,-7.51l-3.63 -7.09z"/>
   <path class="fil34" d="M2761.98 7916.5l0.43 -0.39 0.42 -0.54c0.15,-0.32 0.58,-0.67 0.67,-2.2 0.09,-1.04 -0.71,-2.71 -1.78,-3.33 -1.03,-0.65 -1.76,-0.65 -2.22,-0.67 -0.78,0.02 -1.02,0.14 -1.25,0.2 -0.74,0.27 -0.78,0.35 -1.01,0.48 -0.65,0.42 -1.33,0.96 -2.29,1.89 -2.82,2.76 -7.35,8.64 -11.23,19.7l7.52 2.64c2.55,-7.28 5.3,-11.79 7.33,-14.41 1.01,-1.31 1.85,-2.16 2.37,-2.63l0.51 -0.42 0.01 -0.01 -1.15 -1.76 0.98 1.86 0.17 -0.1 -1.15 -1.76 0.98 1.86 -1.64 -3.09 1.31 3.25 0.33 -0.16 -1.64 -3.09 1.31 3.25 -1.46 -3.63 0 3.91c1.1,-0.05 1.22,-0.22 1.46,-0.28l-1.46 -3.63 0 3.91 0 -3.98 -2.21 3.31c1.03,0.65 1.75,0.65 2.21,0.67l0 -3.98 -2.21 3.31 2.21 -3.31 -3.98 0c-0.1,1.04 0.7,2.7 1.77,3.31l2.21 -3.31 -3.98 0 3.96 0 -3.31 -2.2c-0.15,0.33 -0.58,0.66 -0.66,2.2l3.96 0 -3.31 -2.2 3.08 2.04 -2.36 -2.85c-0.11,0.12 -0.18,0.06 -0.72,0.81l3.08 2.04 -2.36 -2.85 5.07 6.15z"/>
   <path class="fil34" d="M2728.61 7904.96c-3.87,-5.55 -9.5,-16.59 -10.6,-22.65 -0.26,-1.4 -0.43,-2.89 -0.43,-4.33 -0,-2.04 0.32,-3.94 0.93,-5.34 0.62,-1.41 1.37,-2.26 2.49,-2.84 0.62,-0.32 1.3,-0.47 2.08,-0.47 1.94,-0.05 4.49,1.19 5.89,2.96 2.2,2.62 3.18,6.72 3.31,11.09l0.02 1.19c0,3.57 -0.59,7.23 -1.83,10.32 -1.25,3.11 -3.08,5.6 -5.58,7.27l2.21 3.32 3.33 2.18c3.44,-5.26 7.84,-9.93 12.9,-13.67 1.53,-1.15 2.87,-1.89 3.85,-2.06l0.44 -0.04c0.77,-0.02 1.84,0.43 2.69,1.31 0.85,0.86 1.32,2.02 1.3,2.85l-0.11 0.75c-0.39,1.25 -1.32,2.28 -3.15,3.3 -1.78,1 -4.27,1.77 -6.73,2.37l0.01 0c-0.76,0.21 -3.55,0.48 -6.6,0.58 -3.09,0.13 -6.65,0.17 -9.72,0.17l0 7.97c3.13,0 6.77,-0.04 10.04,-0.17 3.31,-0.15 6.06,-0.31 8.18,-0.81l0.01 0c2.7,-0.68 5.79,-1.55 8.67,-3.13 2.85,-1.56 5.71,-4.07 6.91,-7.89 0.32,-1.04 0.47,-2.1 0.47,-3.14 -0.02,-3.31 -1.45,-6.22 -3.55,-8.4 -2.1,-2.16 -5.02,-3.72 -8.41,-3.74l-1.91 0.17c-3.08,0.6 -5.34,2.19 -7.13,3.49 -5.82,4.31 -10.86,9.65 -14.82,15.7l-10.69 16.32 16.23 -10.82c4.11,-2.73 6.87,-6.69 8.56,-10.94 1.71,-4.26 2.4,-8.86 2.41,-13.29l-0.02 -1.48c-0.21,-5.21 -1.24,-11.09 -5.13,-15.88 -2.95,-3.52 -7.3,-5.82 -12.05,-5.86 -1.89,-0.01 -3.85,0.4 -5.67,1.32 -3.02,1.52 -5.09,4.11 -6.23,6.82 -1.16,2.74 -1.56,5.65 -1.57,8.48 0,2.01 0.22,3.98 0.57,5.84 1.67,8.29 7.46,19.15 11.85,25.65l6.59 -4.51 -0.01 0z"/>
   <path class="fil21" d="M5772.83 5876.54c-6.55,-7.35 -12.66,-14.96 -17.22,-23.41 -2.21,-4.07 -4.17,-8.66 -3.24,-13.19 0.93,-4.53 6.04,-8.38 10.21,-6.38 -4.24,-4.64 -3.96,-12.38 -0.07,-17.3 3.89,-4.93 10.67,-7.05 16.88,-6.21 -1.42,-6.4 -2.19,-14.01 2.44,-18.67 3.22,-3.25 8.14,-4.02 12.08,-6.37 9.28,-5.5 0.92,-19.07 -2.24,-26.33 -11.81,-27.08 -20.62,-55.47 -26.19,-84.49 11.08,-0.75 18.31,11.09 22.87,21.22 10.3,22.87 20.6,45.74 30.9,68.61 2.38,5.28 4.82,10.67 8.87,14.79 4.07,4.15 9.43,6.73 14.28,9.93 19.54,12.91 30.02,35.46 39.53,56.86 7.99,17.94 16.08,38.27 9.03,56.6 -6.26,16.32 -36.08,40 -54.78,35.65 -16.8,-3.9 -30.27,-23.4 -40.45,-35.92 -7.06,-8.69 -15.27,-16.88 -22.9,-25.42z"/>
   <polygon class="fil21" points="6153.54,7989.89 6241.76,8005.93 6264.98,7878.17 6176.76,7862.14 "/>
   <polygon class="fil21" points="6923.19,8025.87 7012.64,8019.78 7003.81,7890.21 6914.36,7896.31 "/>
   <path class="fil35" d="M6113.69 7893.89l290.93 -1426.67 466.56 3.61 211.49 1462.02 -259.7 1.27 -167.14 -1300.82 -12.33 9.33 -283.67 1277.81c-82.26,-6.02 -163.96,-19.17 -246.15,-26.56z"/>
   <path class="fil36" d="M6659.34 6660.5c53.28,0.21 106.16,-8.39 159.43,-8.84 2.85,-0.02 6.13,1.39 6.98,4.41 27.6,97.68 182.47,1267.08 183.44,1277.7l73.5 -0.92 -211.49 -1462.02 -466.56 -3.61 -37.69 184.87c28.22,16.91 178.5,16.85 217.92,18.06 5.34,0.17 8.58,4.49 6.71,9.65 -33.74,93.34 -277.78,1087.02 -311.87,1235.49 45.82,5.57 34.17,1.78 80.15,5.15l283.67 -1277.81 12.33 -9.33 3.5 27.2z"/>
   <polygon class="fil34" points="6147.98,8078.5 6232.24,8090.17 6236.3,8060.85 6152.04,8049.18 "/>
   <path class="fil34" d="M7020.32 8076.26l-0.11 -22.13 -85.07 0.4 0.15 29.59 54.85 -0.26c22.67,0.93 25.73,-2.17 30.19,-7.59z"/>
   <path class="fil23" d="M5923.78 8041.86c-2.49,-2.43 -3.33,-5.04 -3.05,-7.57 69.7,-8.69 228.46,-52.84 231.57,-53.59 36.31,10.3 54.94,11.87 92.04,15.18 7.49,17.04 -3.87,73.35 -9.14,73.04 -103.6,-6.22 -207.06,-14.93 -310.25,-26.07l-1.17 -0.99z"/>
   <path class="fil23" d="M7019.73 8052.45c0.36,-13.78 0.63,-43.19 -3.61,-43.37 -37.2,-1.5 -55.89,-2.16 -92.67,-10.68 -40.06,11.89 -79.62,25.5 -119.76,37.22 -12.94,3.78 -25.91,7.48 -38.93,11.02 -11.89,3.24 -25.19,5.14 -36.57,9.68 4.07,4.35 15.54,3.94 21.22,4.85 9.28,1.5 18.57,2.98 27.86,4.48 12.75,2.05 25.52,4.11 38.37,5.35 15.11,1.48 30.3,1.86 45.47,2.24 48.43,1.2 97.03,2.42 145.18,-2.83 4.36,-0.47 9.3,-1.34 11.66,-5.05 1.17,-1.88 1.46,-4.16 1.56,-6.37 0.04,-0.92 0.13,-3.29 0.22,-6.54z"/>
   <path class="fil34" d="M6913.13 7961.76l3.11 -2.5c-2.7,-3.32 -6.7,-4.74 -10.49,-4.74 -2.25,0.01 -4.51,0.49 -6.58,1.52 -5.37,2.7 -8.5,7.83 -9.84,12.99 -0.65,2.57 -0.88,5.13 -0.88,7.61 0,2.47 0.23,4.88 0.52,7.18 1.03,8.08 3.07,16.57 8.12,23.82l6.9 -3.94c-5.94,-12.93 -17.23,-23.14 -30.7,-27.74l0.03 0.01c-0.94,-0.31 -2.22,-0.76 -3.9,-0.78l-1.08 0.07 0.54 3.94 -0.5 -3.95c-2.09,0.26 -3.8,1.35 -4.98,2.65 -1.19,1.31 -1.95,2.87 -2.3,4.57 -0.22,1.12 -0.33,2.23 -0.33,3.33 0,3.77 1.29,7.27 3.28,10.23 3,4.44 7.48,7.87 12.43,10.28 4.96,2.4 10.41,3.8 15.61,3.81 3.21,0 6.37,-0.54 9.21,-1.92 5.52,-2.79 9.76,-8.51 13.13,-15.15 3.3,-6.67 5.53,-14.31 5.54,-21.31 -0.01,-4.52 -0.93,-8.95 -3.74,-12.47l-3.11 2.5 -3.1 2.5c1.19,1.44 1.99,4.05 1.98,7.48 0.02,5.25 -1.85,12.06 -4.7,17.76 -2.78,5.74 -6.77,10.33 -9.48,11.54 -1.44,0.7 -3.42,1.12 -5.72,1.11 -4.96,0.03 -11.22,-1.97 -15.87,-5.17 -2.34,-1.58 -4.27,-3.46 -5.55,-5.38 -1.28,-1.93 -1.92,-3.85 -1.93,-5.8l0.18 -1.76 0.37 -0.77 0.15 -0.13 -0.09 -0.15 0.03 0.17 0.06 -0.02 -0.09 -0.15 0.03 0.17 0.04 0 -0.01 -0.04 0.01 0.04 0 0 -0.01 -0.04 0.01 0.04c0.07,-0.02 0.54,0.07 1.28,0.34l0.02 0c11.33,3.84 21.04,12.63 26.01,23.51l3.63 -1.66 3.26 -2.28c-3.92,-5.59 -5.81,-12.8 -6.74,-20.26 -0.27,-2.12 -0.46,-4.19 -0.46,-6.18 0,-1.98 0.19,-3.87 0.64,-5.64 0.88,-3.48 3.02,-6.56 5.65,-7.82 0.89,-0.43 1.98,-0.69 3.05,-0.69 1.85,0 3.45,0.72 4.28,1.78l3.1 -2.5z"/>
   <path class="fil34" d="M6130.44 7988.99c3.93,1.97 6.54,4.46 8.54,7.66 2,3.19 3.34,7.15 4.26,11.86l7.82 -1.53c-1.04,-5.28 -2.61,-10.2 -5.31,-14.55 -2.69,-4.35 -6.57,-8.02 -11.76,-10.57l-3.55 7.13z"/>
   <path class="fil34" d="M6114.97 7992.15c3.39,1.73 5.74,4.2 7.67,7.44 1.92,3.24 3.31,7.23 4.48,11.56l7.69 -2.07c-1.26,-4.66 -2.81,-9.32 -5.31,-13.56 -2.48,-4.22 -6.02,-8.02 -10.94,-10.49l-3.6 7.11 -0 0z"/>
   <path class="fil34" d="M6103.88 7991.77l-2.21 2.68 2.53 -2.37 -0.32 -0.31 -2.21 2.68 2.53 -2.37 -2.82 2.65 3.24 -2.13 -0.41 -0.52 -2.82 2.65 3.24 -2.13 -3.31 2.18 3.96 0c-0.07,-1.48 -0.5,-1.85 -0.65,-2.18l-3.31 2.18 3.96 0 -3.98 0 2.53 3.07c1.13,-0.89 1.5,-2.38 1.45,-3.07l-3.98 0 2.53 3.07 -2.53 -3.07 0 3.98c0.48,-0.02 1.43,-0.05 2.53,-0.91l-2.53 -3.07 0 3.98 0 -3.94 -1.17 3.76 1.17 0.18 0 -3.94 -1.17 3.76 0.98 -3.15 -1.72 2.83 0.73 0.32 0.98 -3.15 -1.72 2.83 0 0c0.71,0.49 5.8,4.84 10.24,17.32l7.51 -2.67c-2.83,-7.94 -5.98,-13.2 -8.58,-16.54 -1.3,-1.67 -2.46,-2.86 -3.38,-3.67l-1.22 -0.98 -0.56 -0.36 -0.44 -0.22 -0.44 -0.17c-0.22,-0.06 -0.48,-0.17 -1.2,-0.19 -0.48,0.01 -1.44,0.04 -2.54,0.91 -1.13,0.89 -1.5,2.38 -1.46,3.08 0.08,1.49 0.5,1.87 0.66,2.2 0.56,0.79 0.68,0.77 0.85,0.94l5.08 -6.14 0 -0.01z"/>
   <path class="fil34" d="M6138.62 7990.74c4.34,-6.51 10.07,-17.36 11.69,-25.64 0.34,-1.81 0.54,-3.73 0.54,-5.69 -0.01,-2.83 -0.41,-5.76 -1.58,-8.51 -1.15,-2.73 -3.22,-5.33 -6.28,-6.84 -1.8,-0.9 -3.73,-1.3 -5.6,-1.3 -4.76,0.05 -9.11,2.36 -12.05,5.91 -3.86,4.79 -4.85,10.65 -5.03,15.85l-0.02 1.27c0.01,4.44 0.71,9.06 2.43,13.34 1.71,4.26 4.5,8.24 8.63,10.97l16.34 10.78 -10.82 -16.31c-3.99,-6.01 -9.04,-11.31 -14.85,-15.58 -1.8,-1.29 -4.04,-2.87 -7.14,-3.45l-1.85 -0.16c-3.39,0.02 -6.3,1.57 -8.4,3.73 -2.08,2.18 -3.5,5.08 -3.53,8.38 0,1.04 0.16,2.13 0.5,3.18 1.21,3.8 4.07,6.3 6.91,7.84 2.89,1.57 5.96,2.42 8.67,3.07 1.94,0.45 4.33,0.6 7.26,0.74 2.89,0.12 6.14,0.16 9.12,0.16l1.79 -0.01 -0.04 -7.97 -1.75 0c-2.91,0 -6.07,-0.04 -8.78,-0.15 -2.68,-0.1 -5.06,-0.34 -5.73,-0.52 -2.45,-0.58 -4.93,-1.33 -6.7,-2.32 -1.82,-1.02 -2.75,-2.03 -3.15,-3.28l-0.12 -0.75c-0.02,-0.82 0.45,-1.98 1.29,-2.84 0.85,-0.87 1.9,-1.32 2.67,-1.3l0.43 0.03c0.97,0.15 2.3,0.89 3.85,2.04 5.04,3.7 9.44,8.32 12.91,13.55l3.32 -2.21 2.19 -3.33c-2.52,-1.67 -4.37,-4.16 -5.63,-7.29 -1.25,-3.1 -1.85,-6.78 -1.85,-10.37l0.02 -1.01c0.12,-4.36 1.07,-8.45 3.25,-11.07 1.39,-1.77 3.93,-3.01 5.87,-2.97 0.77,0.01 1.43,0.16 2.04,0.46 1.13,0.57 1.88,1.43 2.51,2.85 0.61,1.41 0.94,3.32 0.93,5.37 0,1.41 -0.15,2.86 -0.41,4.22 -1.05,6.05 -6.63,17.07 -10.45,22.63l6.6 4.47z"/>
   <path class="fil23" d="M6525.52 6611.87c43.69,8.97 88.28,13.45 132.88,13.45 53.64,0 107.29,-6.48 159.36,-19.41l-1.92 -7.74c-51.44,12.78 -104.44,19.18 -157.44,19.18 -44.06,0 -88.12,-4.43 -131.27,-13.29l-1.61 7.81z"/>
   <path class="fil23" d="M6690.83 6486.17c2.27,30.75 4.55,61.48 6.84,92.22l-0.01 -0.01c0.11,1.36 0.3,2.98 0.99,4.7 0.64,1.68 2.16,3.8 4.76,4.58l1.58 0.24c1.13,0 2.16,-0.37 2.93,-0.86 1.16,-0.76 1.81,-1.69 2.28,-2.59 0.45,-0.92 0.71,-1.87 0.72,-3.02 -0.01,-0.89 -0.15,-2 -1.01,-3.17 -0.83,-1.21 -2.57,-2 -3.9,-1.93l-1 0.09 1.47 7.84 -0.47 -2.51 0 2.56 0.47 -0.05 -0.47 -2.51 0 2.56 0 -3.13 -2.49 1.85c0.52,0.8 1.81,1.35 2.49,1.28l0 -3.13 -2.49 1.85 2.13 -1.59 -2.69 0c0.01,0.26 0.02,0.82 0.57,1.59l2.13 -1.59 -2.69 0 1.11 0 -0.93 -0.65 -0.17 0.65 1.11 0 -0.93 -0.65 1.46 1.03 -0.95 -1.49 -0.51 0.46 1.46 1.03 -0.95 -1.49 1.35 2.12 0 -2.5 -1.35 0.38 1.35 2.12 0 -2.5 0 2.5 0.73 -2.39 -0.73 -0.11 0 2.5 0.73 -2.39 -0.28 0.86 0.67 -0.63 -0.41 -0.24 -0.26 0.87 0.67 -0.63 -0.13 0.12 0.14 -0.1 -0.02 -0.02 -0.13 0.12 0.14 -0.1c-0.11,-0.05 -0.47,-1.25 -0.52,-2.48l0 -0.02c-2.28,-30.74 -4.56,-61.48 -6.84,-92.22l-7.95 0.59z"/>
   <path class="fil23" d="M6620.94 6628.79c-121.69,422.17 -218.7,851.44 -290.38,1284.92l7.87 1.3c71.62,-433.16 168.57,-862.13 290.18,-1284.01l-7.66 -2.21z"/>
   <path class="fil21" d="M6578.15 5501.26c-7.18,0.17 -21.91,19.33 -28.43,22.71 -22.19,11.48 -41.59,27.51 -59.2,45.08 -8.9,8.89 -17.37,18.2 -25.65,27.65 -5.96,6.8 -15.72,14.66 -17.5,23.91 -2.48,12.83 2.82,29.96 4.38,42.85 0.33,2.66 0.69,5.43 2.14,7.69 1.15,1.79 2.89,3.09 4.63,4.28 19.07,13.03 43.17,17.2 66.17,15.24 23.01,-1.97 45.14,-9.67 66.36,-18.74 2.55,-1.08 5.21,-2.28 6.9,-4.48 1.23,-1.59 1.79,-3.46 1.99,-5.45 -4.14,-22.02 -16.87,-134.42 -21.79,-160.73z"/>
   <path class="fil24" d="M6510.86 5597.61c4.76,-14.64 7.28,-30.28 8.63,-45.6 0.26,-2.94 0.54,-6.05 0.81,-9.2 -10.53,8.02 -20.42,16.9 -29.78,26.24 -8.9,8.89 -17.37,18.2 -25.65,27.65 -5.96,6.8 -15.71,14.66 -17.5,23.91 -1.85,9.56 0.63,21.5 2.66,32.31 28.93,-5.45 51.37,-26.28 60.83,-55.31z"/>
   <path class="fil21" d="M6583.79 5457.22c-1.83,-15.61 -7.26,-31.9 -14.96,-43.62 -14.35,-21.83 -40.46,-32.97 -66.05,-38.21 -11.69,-2.38 -23.65,-3.8 -35.54,-2.89 -7.17,0.54 -14.23,1.93 -21.23,3.56 -26.3,6.12 -52.22,16.1 -74.13,32.14 -9.61,7.03 -21.97,16.29 -26.4,27.48 -5.69,14.33 -5.13,30.24 -2.46,45.15 2.67,14.89 10.61,26.22 16.19,40.02 4.44,10.96 17.94,58.45 23.09,70.28 3.93,9.06 8.13,18.09 13.91,26.11 11.48,15.95 30.19,27.52 49.83,26.93 7.59,-0.22 15.04,-2.2 22.14,-4.89 39.28,-14.87 67.02,-50.26 87.8,-86.76 13.31,-23.41 24.79,-48.46 27.98,-75.2 0.74,-6.24 0.65,-13.1 -0.17,-20.08z"/>
   <path class="fil37" d="M6427.55 5506.23c-1.83,10.96 -3.59,22.6 0.64,32.88 2.79,6.83 15.26,19.18 23.84,13.91 6.4,-3.93 4.37,-27.45 10.74,-35.89 6.7,-8.87 20.36,-13.4 29.26,-6.74 8.17,6.09 8.8,17.93 8.3,28.1 -0.93,19.48 -3.2,38.89 -6.76,58.05 28.03,2.63 56.47,0.86 83.96,-5.22 6.7,-1.48 13.73,-3.43 18.49,-8.37 5,-5.19 6.57,-12.69 7.88,-19.78 3.35,-18.21 6.25,-36.53 8.68,-54.89 4.02,-30.3 6.7,-61.7 -2.2,-90.94 -17.96,-59.08 -78.29,-76.95 -133.61,-71.7 -41.13,3.89 -82.85,11.24 -120.63,28.6 -26.37,12.12 -83.05,31.19 -69.74,69.66 6.4,18.48 25.36,30.28 44.61,33.74 19.25,3.44 38.99,0.02 58.23,-3.41 -8.58,7.21 -4.11,22.45 5.5,28.21 9.62,5.76 21.65,4.87 32.8,3.81z"/>
   <path class="fil21" d="M6455.79 5522.63c5.46,-6.92 12.58,-12.8 20.99,-15.43 7.17,-2.24 15.7,-1.74 21.26,3.29 5.42,4.89 6.84,12.82 6.84,20.11 -0.01,9.82 -2.04,19.64 -5.94,28.66 -3.35,7.79 -9.17,15.69 -17.58,16.76 -4.14,0.53 -8.28,-0.71 -12.28,-1.93 -10.65,-3.26 -21.1,-7.21 -22.91,-19.2 -1.73,-11.55 2.49,-23.22 9.61,-32.27z"/>
   <path class="fil24" d="M6463.66 5544.76c1.23,-5.51 3.94,-10.59 7.14,-15.24 3.57,-5.19 8.15,-10.16 14.22,-11.9 1.59,-0.45 3.31,-0.67 4.88,-0.17 3.36,1.07 4.94,4.85 5.77,8.27 2.48,10.24 1.69,21.74 -4.45,30.31 -2.94,4.11 -7.22,7.46 -12.2,8.34 -12.98,2.29 -17.76,-8.87 -15.35,-19.61z"/>
   <path class="fil26" d="M6492.62 5542.53c-6.74,0.52 -13.46,1.7 -19.95,3.52l-0.56 -2.01c6.63,-1.84 13.47,-3.06 20.34,-3.58l0.17 2.07z"/>
   <path class="fil26" d="M6467.8 5563.19l-2.04 -0.42c3.34,-16.31 10.95,-31.5 22.02,-43.94l1.56 1.39c-10.82,12.17 -18.26,27.03 -21.53,42.98z"/>
   <path class="fil38" d="M6111.02 6219.99c5.02,-0.18 10,-0.98 14.83,-2.53 5.03,-1.61 9.92,-4.07 13.48,-7.96 7.56,-8.23 7.65,-20.73 6.48,-31.85 -3.35,-31.96 -13.31,-62.77 -25.58,-92.33 -6.29,-15.14 -13.21,-30 -20.26,-44.79 -2.89,-6.04 -4.92,-12.98 -9.11,-18.06 -3.93,-4.76 -9.93,-7.87 -14.41,-12.11 -7.21,-6.83 -14.41,-13.67 -21.61,-20.51 -31.74,-30.18 -63.41,-60.43 -95.2,-90.55 -20.12,-19.07 -40.29,-38.09 -60.58,-56.98 1.74,1.63 -11.12,23.59 -12.59,26.15 -4.84,8.38 -10.3,16.39 -16.33,23.96 -12,15.1 -26.18,28.34 -41.47,40.04 -7.95,6.08 -16.21,11.75 -24.65,17.11 -3.4,2.16 -8.17,3.59 -7.76,8.24 0.35,3.93 7.63,10.88 10,14.06 6.66,8.89 13.62,17.56 20.83,26 14.43,16.9 29.86,32.91 45.9,48.28 32.35,31.01 67.1,59.37 101.81,87.64 18.43,14.99 36.86,29.97 54.98,45.34 13.78,11.67 27.53,23.69 43.67,31.81 11.59,5.83 24.72,9.49 37.56,9.04z"/>
   <path class="fil22" d="M6452.56 5668.01c0.3,1.11 0.7,2.18 1.32,3.15 1.15,1.78 2.89,3.08 4.63,4.27 19.07,13.03 43.17,17.2 66.17,15.24 23.01,-1.97 45.14,-9.67 66.36,-18.74 2.55,-1.08 5.21,-2.28 6.9,-4.48 1.23,-1.59 1.79,-3.46 1.99,-5.45 -0.57,-3.03 -1.31,-7.82 -2.15,-13.81 -49.49,-0.26 -100.04,2.44 -145.22,19.83z"/>
   <path class="fil1" d="M6911.17 6467.43c-1.57,-17.39 -2.95,-34.86 -4.09,-52.57 -10.07,-154.21 -19.63,-310.95 -42.39,-463.63 -8.48,-56.93 -17.95,-114.09 -32.91,-169.73 -7.35,-27.35 -18.45,-86.78 -49.69,-98.67 -12.8,-4.87 -24,-12.54 -37.11,-15.76 -15.71,-0.96 -31.57,-0.92 -47.03,-1.83 -46.4,-2.71 -92.93,-3.46 -139.24,-1.44 -63.43,2.78 -126.45,10.91 -187.5,25.15 -23.72,5.53 -75.46,15.08 -110.53,31.54 -17.1,8.03 -30.24,17.7 -34.23,29.33 -3.36,9.77 -0.93,20.37 1.51,30.46 21.67,89.22 44.7,178.1 69.07,266.62 22.67,82.39 58.57,160.83 65.11,247.06 0.97,12.74 1.45,25.54 3.31,38.18 1.15,7.87 2.85,15.67 3.72,23.58 0.57,5.27 0.79,10.57 0.8,15.88 0.02,5.67 -0.19,11.35 -0.38,17.03 -2.97,83.25 -9.56,161.84 -23.21,242.71 31.64,11.03 68.81,11.38 100.43,12.04 48,1.01 95.97,1.44 143.98,0.24 55.46,-1.38 111.26,-1.06 166.6,-4.72 58.21,-3.85 114.58,-13.82 170.36,-26.98 -1.77,-16.19 -3.71,-32.36 -5.88,-48.51 -4.19,-32.25 -7.78,-63.96 -10.68,-95.98z"/>
   <path class="fil39" d="M6229.04 5744.42c-1.08,1.76 -1.96,3.54 -2.59,5.39 -3.36,9.77 -0.93,20.37 1.51,30.46 1.41,5.8 2.88,11.59 4.29,17.39 -2.14,-17.62 -3.25,-35.38 -3.21,-53.24z"/>
   <path class="fil40" d="M6358.91 6541.09l-0.06 0c2.98,-26.89 5.31,-53.81 7.13,-81.03l0.02 0c-1.8,27.22 -4.12,54.14 -7.09,81.03z"/>
   <path class="fil41" d="M6366 6460.06l-0.02 0c1.46,-22.06 2.58,-44.3 3.43,-66.89 -0.85,22.58 -1.96,44.84 -3.41,66.89z"/>
   <path class="fil41" d="M6349.39 6612.26c3.72,-23.81 6.84,-47.48 9.46,-71.17l0.06 0c-2.6,23.56 -5.7,47.08 -9.39,70.75 -0.04,0.14 -0.09,0.28 -0.13,0.41z"/>
   <path class="fil41" d="M6369.42 6392.99c0.01,-0.21 0.02,-0.45 0.03,-0.67 -0.01,0.22 -0.02,0.44 -0.03,0.67zm0.04 -1.15c0,-0.13 0,-0.26 0.02,-0.39 -0.01,0.13 -0.01,0.26 -0.02,0.39zm0.04 -1.07c0.01,-0.09 0.01,-0.17 0.01,-0.26 0,0.09 0,0.18 -0.01,0.26zm0.04 -1.14c0,-0.02 0,-0.03 0.01,-0.04 -0.01,0.01 -0.01,0.04 -0.01,0.04z"/>
   <path class="fil40" d="M6362.17 6294.4l0 0c-0.02,-0.15 -0.02,-0.3 -0.04,-0.44 -6.54,-86.24 -42.44,-164.67 -65.11,-247.06 -0.75,-2.74 -1.51,-5.47 -2.26,-8.22 0.76,2.74 1.5,5.48 2.26,8.22 22.67,82.39 58.57,160.83 65.11,247.06 0.02,0.15 0.02,0.29 0.04,0.44z"/>
   <path class="fil40" d="M6294.74 6038.57c-0.11,-0.37 -0.21,-0.73 -0.3,-1.11 0.09,0.37 0.2,0.74 0.3,1.11zm-0.67 -2.39c-0,-0.03 -0.02,-0.06 -0.02,-0.09 0,0.03 0.02,0.06 0.02,0.09z"/>
   <path class="fil42" d="M6349.52 6611.84c3.69,-23.67 6.79,-47.2 9.39,-70.75 2.96,-26.89 5.28,-53.81 7.09,-81.03 1.45,-22.05 2.57,-44.3 3.41,-66.89 0,-0.06 0,-0.12 0,-0.19 0.01,-0.22 0.02,-0.45 0.03,-0.67 0,-0.16 0.02,-0.32 0.02,-0.48 0,-0.13 0,-0.26 0.02,-0.39 0,-0.23 0.02,-0.45 0.02,-0.69 0.01,-0.08 0.01,-0.17 0.01,-0.26 0.02,-0.29 0.02,-0.59 0.03,-0.88 0,-0.01 0,-0.03 0.01,-0.04 0.01,-0.33 0.02,-0.65 0.03,-0.97 0.19,-5.5 0.38,-11 0.38,-16.5 0,-0.17 0,-0.36 0,-0.54 -0.02,-5.31 -0.23,-10.61 -0.8,-15.88 -0.86,-7.91 -2.56,-15.71 -3.72,-23.58 -1.83,-12.5 -2.33,-25.14 -3.27,-37.74 -0.02,-0.15 -0.02,-0.3 -0.04,-0.44 -6.54,-86.24 -42.44,-164.67 -65.11,-247.06 -0.75,-2.74 -1.5,-5.47 -2.26,-8.22 -0.01,-0.03 -0.02,-0.07 -0.02,-0.1 -0.11,-0.37 -0.21,-0.74 -0.3,-1.11 -0.12,-0.42 -0.24,-0.85 -0.36,-1.28 -0,-0.03 -0.02,-0.06 -0.02,-0.09 -11.58,-42.25 -22.82,-84.57 -33.8,-126.99 33.63,87.44 92.12,166.04 164.57,225.04 14.48,11.79 29.75,22.52 45.62,32.36 12.89,8 26.62,12.83 40.59,18.58 8.28,3.4 19.85,7.32 26.21,13.25 -0.28,1.4 -0.43,1.17 -1.22,3.32 -1.99,5.36 -5.15,10.54 -8.07,15.42 -12.81,21.4 -29.33,40.26 -43.16,60.96 -21.67,32.43 -36.94,69.42 -52.09,105.17 -19.44,45.87 -38.63,91.48 -54.26,138.82 -9.86,29.89 -19.21,59.92 -28.94,89.83z"/>
   <path class="fil38" d="M6284.14 5955.33c1.43,-27.15 -7.5,-222.94 -37.79,-223.38 -30.43,-0.41 -67.13,94.1 -78.55,116.1 -39.21,75.63 -88.53,146.44 -134.06,218.52 -5.56,8.81 -11.3,18.16 -11.7,28.57 -0.32,8.36 2.87,16.41 6.15,24.11 8.3,19.43 17.58,38.45 27.8,56.94 7.86,14.2 16.87,28.71 30.94,36.8 21.2,12.2 49.38,6.19 68.4,-9.19 20.56,-16.63 30.36,-42.8 45.48,-63.6 21.2,-29.17 38.23,-62.04 54.34,-94.31 14.24,-28.56 27.3,-58.67 28.99,-90.54z"/>
   <path class="fil43" d="M6071.41 6020.38l-0.09 -1.63 -3.98 0.21 -3.93 0.65c2.74,16.56 4.13,33.33 4.13,50.11 0,1.84 -0.02,3.69 -0.05,5.54l7.96 0.14c0.04,-1.9 0.06,-3.8 0.06,-5.68 0,-17.22 -1.42,-34.43 -4.24,-51.42l-7.91 0.87 0.08 1.62 7.96 -0.41z"/>
   <path class="fil44" d="M6082.81 6028.37c4.31,11.45 10.6,22.08 14.39,33.74l-14.39 -33.74z"/>
   <path class="fil43" d="M6264.42 5912.81c3.65,19.61 7.81,39.13 12.48,58.52l7.75 -1.87c-4.64,-19.26 -8.77,-38.64 -12.39,-58.12l-7.84 1.46z"/>
   <path class="fil43" d="M5826.34 5992.27c72.52,83.13 163.72,154.58 250.87,218.46 10,7.31 22.4,10.98 34.54,11.35l1.4 0.02c14.37,0 26.78,-6.56 37.26,-15.64 10.5,-9.09 19.29,-20.8 26.78,-31.87 36.09,-53.32 69.06,-108.74 98.74,-165.87l-7.07 -3.67c-29.53,56.86 -62.36,112.01 -98.27,165.07 -7.32,10.83 -15.79,22.01 -25.41,30.31 -9.63,8.33 -20.19,13.7 -32.04,13.7l-1.17 -0.02c-10.7,-0.31 -21.63,-3.61 -30.07,-9.81 -87,-63.75 -177.76,-134.92 -249.59,-217.27l-6 5.24z"/>
   <path class="fil43" d="M6291.8 5967.96c2.5,-6.93 5.01,-13.85 7.52,-20.78l-7.49 -2.71c-2.51,6.93 -5.02,13.85 -7.54,20.78l7.5 2.71z"/>
   <path class="fil34" d="M6914.55 7997.6c-3.6,3.02 -7.55,6.25 -10.68,10.63 -2.68,3.76 -4.66,8.4 -4.67,13.45 0,0.88 0.06,1.77 0.2,2.67l7.87 -1.19 -0.1 -1.47c-0.02,-2.86 1.23,-6.08 3.19,-8.81 2.32,-3.28 5.69,-6.14 9.3,-9.13l-5.11 -6.13z"/>
   <path class="fil34" d="M6893.27 8025.28l0 -0.17c-0.05,-6.56 4.19,-13.33 10.11,-16.14l-3.47 -7.17c-8.81,4.31 -14.57,13.52 -14.62,23.31l0 0.32 7.97 -0.15z"/>
   <path class="fil34" d="M6888.21 8005.46c-7.59,3.47 -13.38,10.23 -15.64,18.24l1.61 0.46 -1.23 -1.17 -0.38 0.72 1.61 0.44 -1.23 -1.17 1.54 1.44 -1.07 -1.8 -0.46 0.36 1.54 1.44 -1.07 -1.8 1.63 2.76 0 -3.19c-0.89,0.02 -1.35,0.27 -1.63,0.43l1.63 2.76 0 -3.19 0 3.57 2.06 -2.92 -2.06 -0.65 0 3.57 2.06 -2.92 -1.98 2.8 3.16 -1.37 -1.17 -1.43 -1.98 2.8 3.16 -1.37 -7.31 3.18c0.26,0.61 0.75,1.35 1.53,1.91 0.77,0.56 1.76,0.81 2.54,0.8 1.14,-0.02 1.87,-0.37 2.43,-0.69 0.8,-0.49 1.29,-1 1.74,-1.57 0.43,-0.57 0.79,-1.2 1.05,-2.08 1.56,-5.67 5.88,-10.71 11.25,-13.13l-3.29 -7.26z"/>
   <path class="fil10" d="M7183.63 4985.6c0,57.52 -46.8,104.32 -104.32,104.32l-414.8 0c-3.81,3.61 -152.33,150.28 -152.33,150.28l0 -189.93c0,-6.63 0.82,-65.51 0.82,-65.51l-0.45 0c0.02,-1.65 0.45,-51.92 0.45,-75.48l0 -162.14c0,-57.52 46.79,-104.32 104.32,-104.32l461.99 0c57.52,0 104.32,46.8 104.32,104.32l0 238.45zm-104.32 -352.7l-461.99 0c-63,0 -114.26,51.26 -114.26,114.26l0 162.14c0,23.53 -0.2,47 -0.41,70.46 -0.21,23.49 -0.41,46.97 -0.41,70.53l0 198.34 -1.97 2.11 11.91 11.91 0 -8.35 154.39 -154.44 412.74 0c63,0 114.26,-51.25 114.26,-114.25l0 -238.45c0,-63 -51.26,-114.26 -114.26,-114.26z"/>
   <polygon class="fil10" points="6566.9,4817.7 7097.2,4817.7 7097.2,4809.67 6566.9,4809.67 "/>
   <polygon class="fil10" points="6905.67,4942.24 7097.2,4942.24 7097.2,4934.2 6905.67,4934.2 "/>
   <polygon class="fil10" points="6566.9,4942.24 6874.06,4942.24 6874.06,4934.2 6566.9,4934.2 "/>
   <polygon class="fil10" points="7004.53,4877.96 7097.2,4877.96 7097.2,4869.93 7004.53,4869.93 "/>
   <polygon class="fil10" points="6725.21,4877.96 6968.05,4877.96 6968.05,4869.93 6725.21,4869.93 "/>
   <polygon class="fil10" points="6566.9,4877.96 6691.25,4877.96 6691.25,4869.93 6566.9,4869.93 "/>
  </g>
 </g>
</svg>
