<?xml version="1.0" encoding="UTF-8"?>
<!DOCTYPE svg PUBLIC "-//W3C//DTD SVG 1.1//EN" "http://www.w3.org/Graphics/SVG/1.1/DTD/svg11.dtd">
<!-- Creator: CorelDRAW 2018 (64-Bit) -->
<svg xmlns="http://www.w3.org/2000/svg" xml:space="preserve" width="8.26772in" height="11.6929in" version="1.1" style="shape-rendering:geometricPrecision; text-rendering:geometricPrecision; image-rendering:optimizeQuality; fill-rule:evenodd; clip-rule:evenodd"
viewBox="0 0 8267.72 11692.91"
 xmlns:xlink="http://www.w3.org/1999/xlink">
 <defs>
  <style type="text/css">
   <![CDATA[
    .fil51 {fill:#7D97F4;fill-rule:nonzero}
    .fil1 {fill:#91B3FA;fill-rule:nonzero}
    .fil2 {fill:#BDD0FB;fill-rule:nonzero}
    .fil52 {fill:white;fill-rule:nonzero}
    .fil21 {fill:url(#id0)}
    .fil45 {fill:url(#id1)}
    .fil30 {fill:url(#id2)}
    .fil25 {fill:url(#id3)}
    .fil44 {fill:url(#id4)}
    .fil38 {fill:url(#id5)}
    .fil33 {fill:url(#id6)}
    .fil19 {fill:url(#id7)}
    .fil36 {fill:url(#id8)}
    .fil11 {fill:url(#id9)}
    .fil22 {fill:url(#id10)}
    .fil39 {fill:url(#id11)}
    .fil27 {fill:url(#id12)}
    .fil32 {fill:url(#id13)}
    .fil48 {fill:url(#id14)}
    .fil16 {fill:url(#id15)}
    .fil23 {fill:url(#id16)}
    .fil42 {fill:url(#id17)}
    .fil28 {fill:url(#id18)}
    .fil43 {fill:url(#id19)}
    .fil40 {fill:url(#id20)}
    .fil12 {fill:url(#id21)}
    .fil47 {fill:url(#id22)}
    .fil29 {fill:url(#id23)}
    .fil31 {fill:url(#id24)}
    .fil5 {fill:url(#id25)}
    .fil41 {fill:url(#id26)}
    .fil13 {fill:url(#id27)}
    .fil46 {fill:url(#id28)}
    .fil18 {fill:url(#id29)}
    .fil8 {fill:url(#id30)}
    .fil35 {fill:url(#id31)}
    .fil7 {fill:url(#id32)}
    .fil37 {fill:url(#id33)}
    .fil50 {fill:url(#id34)}
    .fil34 {fill:url(#id35)}
    .fil6 {fill:url(#id36)}
    .fil4 {fill:url(#id37)}
    .fil20 {fill:url(#id38)}
    .fil0 {fill:url(#id39)}
    .fil10 {fill:url(#id40)}
    .fil26 {fill:url(#id41)}
    .fil24 {fill:url(#id42)}
    .fil17 {fill:url(#id43)}
    .fil14 {fill:url(#id44)}
    .fil15 {fill:url(#id45)}
    .fil9 {fill:url(#id46)}
    .fil3 {fill:url(#id47)}
    .fil49 {fill:url(#id48)}
   ]]>
  </style>
  <linearGradient id="id0" gradientUnits="userSpaceOnUse" x1="1891.83" y1="8693.7" x2="2044.54" y2="8693.7">
   <stop offset="0" style="stop-opacity:1; stop-color:#FEBBBA"/>
   <stop offset="1" style="stop-opacity:1; stop-color:#FF928E"/>
  </linearGradient>
  <linearGradient id="id1" gradientUnits="userSpaceOnUse" xlink:href="#id0" x1="5737.26" y1="6127.16" x2="4684.38" y2="6127.16">
  </linearGradient>
  <linearGradient id="id2" gradientUnits="userSpaceOnUse" xlink:href="#id0" x1="2370.32" y1="7027.68" x2="2791.43" y2="7027.68">
  </linearGradient>
  <linearGradient id="id3" gradientUnits="userSpaceOnUse" xlink:href="#id0" x1="2615.11" y1="8713.94" x2="2797.42" y2="8713.94">
  </linearGradient>
  <linearGradient id="id4" gradientUnits="userSpaceOnUse" xlink:href="#id0" x1="6256.83" y1="6847.36" x2="5693.02" y2="6847.36">
  </linearGradient>
  <linearGradient id="id5" gradientUnits="userSpaceOnUse" x1="6543.57" y1="9700.99" x2="6536.36" y2="10496.58">
   <stop offset="0" style="stop-opacity:1; stop-color:#09005D"/>
   <stop offset="1" style="stop-opacity:1; stop-color:#1A0F91"/>
  </linearGradient>
  <linearGradient id="id6" gradientUnits="userSpaceOnUse" xlink:href="#id0" x1="1776.04" y1="5667.83" x2="1471.74" y2="5991.32">
  </linearGradient>
  <linearGradient id="id7" gradientUnits="userSpaceOnUse" x1="1863.64" y1="8871.15" x2="2424.93" y2="8871.15">
   <stop offset="0" style="stop-opacity:1; stop-color:#4F52FF"/>
   <stop offset="1" style="stop-opacity:1; stop-color:#4042E2"/>
  </linearGradient>
  <linearGradient id="id8" gradientUnits="userSpaceOnUse" xlink:href="#id5" x1="5469.51" y1="9647.25" x2="5462.13" y2="10407.33">
  </linearGradient>
  <linearGradient id="id9" gradientUnits="userSpaceOnUse" xlink:href="#id5" x1="3359.34" y1="8868" x2="3654.78" y2="8865.25">
  </linearGradient>
  <linearGradient id="id10" gradientUnits="userSpaceOnUse" xlink:href="#id7" x1="2748.85" y1="8757.12" x2="3200.62" y2="8757.12">
  </linearGradient>
  <linearGradient id="id11" gradientUnits="userSpaceOnUse" xlink:href="#id0" x1="6560.87" y1="8910.31" x2="6601.1" y2="8600.34">
  </linearGradient>
  <linearGradient id="id12" gradientUnits="userSpaceOnUse" xlink:href="#id0" x1="1602.45" y1="6144.93" x2="1692.33" y2="5918.27">
  </linearGradient>
  <linearGradient id="id13" gradientUnits="userSpaceOnUse" xlink:href="#id5" x1="1535.66" y1="5454.17" x2="1975.52" y2="5915.9">
  </linearGradient>
  <linearGradient id="id14" gradientUnits="userSpaceOnUse" xlink:href="#id5" x1="5925.86" y1="5087.58" x2="5404.08" y2="5087.58">
  </linearGradient>
  <linearGradient id="id15" gradientUnits="userSpaceOnUse" x1="1116.59" y1="7655.45" x2="288.02" y2="9538.09">
   <stop offset="0" style="stop-opacity:1; stop-color:#FE7062"/>
   <stop offset="1" style="stop-opacity:1; stop-color:#FF928E"/>
  </linearGradient>
  <linearGradient id="id16" gradientUnits="userSpaceOnUse" xlink:href="#id5" x1="3062.28" y1="7935.78" x2="2908.07" y2="8960.51">
  </linearGradient>
  <linearGradient id="id17" gradientUnits="userSpaceOnUse" xlink:href="#id7" x1="6543.56" y1="5369.32" x2="5674.49" y2="7767.94">
  </linearGradient>
  <linearGradient id="id18" gradientUnits="userSpaceOnUse" xlink:href="#id7" x1="3209.38" y1="4571.66" x2="451.81" y2="8654.44">
  </linearGradient>
  <linearGradient id="id19" gradientUnits="userSpaceOnUse" x1="7445.87" y1="4284.87" x2="4707.98" y2="7148.63">
   <stop offset="0" style="stop-opacity:1; stop-color:#53D8FF"/>
   <stop offset="1" style="stop-opacity:1; stop-color:#3840F7"/>
  </linearGradient>
  <linearGradient id="id20" gradientUnits="userSpaceOnUse" xlink:href="#id5" x1="6710.65" y1="7717.92" x2="5603.81" y2="7717.92">
  </linearGradient>
  <linearGradient id="id21" gradientUnits="userSpaceOnUse" xlink:href="#id0" x1="4288.11" y1="8175.82" x2="2795.36" y2="8668.43">
  </linearGradient>
  <linearGradient id="id22" gradientUnits="userSpaceOnUse" xlink:href="#id0" x1="5584.93" y1="4955.37" x2="6041.77" y2="5530.8">
  </linearGradient>
  <linearGradient id="id23" gradientUnits="userSpaceOnUse" xlink:href="#id19" x1="3380.26" y1="3309.61" x2="1151.51" y2="7458.02">
  </linearGradient>
  <linearGradient id="id24" gradientUnits="userSpaceOnUse" xlink:href="#id0" x1="1858.28" y1="5676.85" x2="1488.33" y2="6059.83">
  </linearGradient>
  <linearGradient id="id25" gradientUnits="userSpaceOnUse" xlink:href="#id15" x1="4102.21" y1="5740.62" x2="2686.11" y2="7197.82">
  </linearGradient>
  <linearGradient id="id26" gradientUnits="userSpaceOnUse" xlink:href="#id19" x1="6581.51" y1="7527.54" x2="6537.44" y2="7437.61">
  </linearGradient>
  <linearGradient id="id27" gradientUnits="userSpaceOnUse" xlink:href="#id5" x1="3670.22" y1="8911.96" x2="3995.07" y2="8908.53">
  </linearGradient>
  <linearGradient id="id28" gradientUnits="userSpaceOnUse" xlink:href="#id0" x1="6116.34" y1="5525.65" x2="5749.91" y2="5195.32">
  </linearGradient>
  <linearGradient id="id29" gradientUnits="userSpaceOnUse" xlink:href="#id15" x1="1002.93" y1="8750.8" x2="1148.34" y2="8056.75">
  </linearGradient>
  <linearGradient id="id30" gradientUnits="userSpaceOnUse" xlink:href="#id5" x1="3089.26" y1="4566.98" x2="3727.89" y2="5023.93">
  </linearGradient>
  <linearGradient id="id31" gradientUnits="userSpaceOnUse" xlink:href="#id5" x1="126796.66" y1="-34477.35" x2="124766.9" y2="-33799.91">
  </linearGradient>
  <linearGradient id="id32" gradientUnits="userSpaceOnUse" xlink:href="#id0" x1="3872.27" y1="4995.17" x2="3665" y2="5498.12">
  </linearGradient>
  <linearGradient id="id33" gradientUnits="userSpaceOnUse" xlink:href="#id0" x1="5661.95" y1="8800.57" x2="5701.79" y2="8480.5">
  </linearGradient>
  <linearGradient id="id34" gradientUnits="userSpaceOnUse" xlink:href="#id19" x1="7770.7" y1="4576.33" x2="4995.71" y2="7442.22">
  </linearGradient>
  <linearGradient id="id35" gradientUnits="userSpaceOnUse" xlink:href="#id5" x1="-88305.08" y1="-89493.33" x2="-86806.66" y2="-87904.83">
  </linearGradient>
  <linearGradient id="id36" gradientUnits="userSpaceOnUse" xlink:href="#id0" x1="3906.17" y1="5695.02" x2="3769.61" y2="5415.25">
  </linearGradient>
  <linearGradient id="id37" gradientUnits="userSpaceOnUse" xlink:href="#id5" x1="2881.65" y1="4864.81" x2="3507.21" y2="5308.63">
  </linearGradient>
  <linearGradient id="id38" gradientUnits="userSpaceOnUse" xlink:href="#id5" x1="2298.61" y1="7796.7" x2="2144.57" y2="8851.55">
  </linearGradient>
  <linearGradient id="id39" gradientUnits="userSpaceOnUse" x1="7278.85" y1="10664.65" x2="2252.52" y2="4116.9">
   <stop offset="0" style="stop-opacity:1; stop-color:#DAE3FE"/>
   <stop offset="1" style="stop-opacity:1; stop-color:#E9EFFD"/>
  </linearGradient>
  <linearGradient id="id40" gradientUnits="userSpaceOnUse" xlink:href="#id0" x1="3141.55" y1="9507.94" x2="4153.93" y2="7671.62">
  </linearGradient>
  <linearGradient id="id41" gradientUnits="userSpaceOnUse" xlink:href="#id5" x1="3978.57" y1="5292.67" x2="2749.02" y2="6760.18">
  </linearGradient>
  <linearGradient id="id42" gradientUnits="userSpaceOnUse" xlink:href="#id5" x1="2377.92" y1="7652.31" x2="-193.06" y2="8781.56">
  </linearGradient>
  <linearGradient id="id43" gradientUnits="userSpaceOnUse" xlink:href="#id15" x1="1802.69" y1="7958.85" x2="974.1" y2="9841.5">
  </linearGradient>
  <linearGradient id="id44" gradientUnits="userSpaceOnUse" xlink:href="#id7" x1="4342.64" y1="6452.62" x2="3072.63" y2="8199.08">
  </linearGradient>
  <linearGradient id="id45" gradientUnits="userSpaceOnUse" xlink:href="#id0" x1="3279.28" y1="6670.91" x2="4514.26" y2="4609.76">
  </linearGradient>
  <linearGradient id="id46" gradientUnits="userSpaceOnUse" xlink:href="#id0" x1="3773.12" y1="5030.72" x2="3545.86" y2="5413.01">
  </linearGradient>
  <linearGradient id="id47" gradientUnits="userSpaceOnUse" xlink:href="#id0" x1="4741.89" y1="4958.26" x2="4065.76" y2="6002.45">
  </linearGradient>
  <linearGradient id="id48" gradientUnits="userSpaceOnUse" xlink:href="#id0" x1="6195.32" y1="5353.8" x2="5898.58" y2="5040.12">
  </linearGradient>
 </defs>
 <g id="Layer_x0020_1">
  <metadata id="CorelCorpID_0Corel-Layer"/>
  <g id="_2523299455136">
   <path class="fil0" d="M6147.66 8247.76c-126.83,133.53 -246.83,219.66 -341.66,287.69 -1114.58,799.72 -2433.4,566.61 -2713.69,509.68 -413.91,-84.06 -1213.98,-246.56 -1792.39,-926.79 -875.11,-1029.11 -738.85,-2650.44 -60.05,-3720.7 124.17,-195.78 780.03,-1282.37 2113.06,-1456.64 806.73,-105.43 1747.13,107.27 2428.17,677.81 1429.5,1197.64 1327.69,3617.08 366.56,4628.95z"/>
   <path class="fil1" d="M1151.46 4643.63c-5.49,-2.54 -9.32,-8.03 -9.34,-14.36 -0.08,-20.85 0.28,-42.03 1.07,-62.99 0.32,-8.6 7.67,-15.2 16.42,-14.74 21.2,1.04 13.98,21.75 14.2,78.16 0.04,8.62 -7.04,15.52 -15.78,15.41 -2.33,-0.05 -4.56,-0.57 -6.56,-1.48z"/>
   <path class="fil1" d="M3474.81 3342.61c-103.59,-59.43 -124.84,-55.59 -114.66,-76.93 6.46,-13.54 22.97,-7.17 21.07,-7.23 37.04,17.67 73.76,36.94 109.17,57.25 7.62,4.36 10.3,13.94 5.98,21.34 -4.1,7.11 -13.45,10.1 -21.57,5.57zm-416.52 -182.3c2.04,-8.32 10.56,-13.37 19.07,-11.24 39.61,9.98 79.37,21.57 118.2,34.54 19.96,6.71 10.23,36.25 -9.71,29.6 -38.04,-12.74 -77.01,-24.15 -115.81,-33.9 -8.62,-2.18 -13.74,-10.73 -11.75,-18.99zm673.6 366.5c-89.64,-79.11 -111.03,-79.45 -96.65,-98.15 5.24,-6.83 15.15,-8.03 22.18,-2.75 32.64,24.55 64.74,50.76 95.39,77.78 15.74,13.88 -5.13,37 -20.92,23.12zm-989.76 -409.63c0.26,-8.61 7.53,-15.31 16.29,-14.91 40.67,1.83 81.89,5.28 122.46,10.21 20.89,2.58 17.42,33.5 -3.38,30.98 -39.74,-4.87 -80.09,-8.2 -119.97,-9.98 -8.73,-0.4 -15.65,-7.69 -15.41,-16.29zm-308.16 33.04c-4.61,-2.13 -8.15,-6.37 -9.1,-11.65 -1.57,-8.49 4.18,-16.52 12.78,-17.9 40.1,-6.43 80.97,-11.36 121.51,-14.69 8.71,-0.75 16.49,5.68 17.35,14.28 0.86,8.55 -5.49,16.12 -14.2,16.81 -39.69,3.27 -79.75,8.09 -119.04,14.4 -3.27,0.52 -6.49,0 -9.3,-1.26zm-305.97 81.57c-3.61,-1.67 -6.6,-4.65 -8.19,-8.55 -3.26,-8.03 0.66,-17.09 8.78,-20.14 37.85,-14.4 76.74,-27.42 115.54,-38.78 8.37,-2.47 17.24,2.24 19.89,10.56 2.61,8.26 -2.02,16.92 -10.37,19.39 -38.04,11.13 -76.15,23.92 -113.25,37.97 -4.15,1.61 -8.62,1.32 -12.41,-0.46zm-288.54 135.61c-4.85,-7.28 -2.86,-16.92 4.42,-21.57 33.98,-21.69 69.23,-42.22 104.81,-61.15 18.33,-9.69 33.75,17.73 15.43,27.54 -34.86,18.53 -69.43,38.67 -102.7,59.89 -7.28,4.65 -17.13,2.52 -21.96,-4.7zm-243.91 197.73c-6.22,-6.19 -6.29,-16.06 -0.13,-22.08 28.64,-28.05 58.8,-55.36 89.67,-81.11 15.87,-13.25 36.58,10.73 20.73,23.98 -30.24,25.24 -59.8,51.97 -87.86,79.45 -6.15,6.02 -16.19,5.91 -22.41,-0.23zm-201.51 221.77c22.08,-33.33 45.8,-66.26 70.52,-97.75 12.76,-16.23 37.88,3.16 25.2,19.33 -24.21,30.92 -47.46,63.1 -69.09,95.8 -11.38,17.15 -37.98,-0.23 -26.63,-17.38zm-145.76 280.05c14.77,-37.46 31.31,-74.98 48.6,-110.25 9.27,-18.99 37.5,-4.19 28.57,13.94 -17.21,35.22 -33.16,71.42 -47.61,108.02 -3.15,8.03 -12.33,11.87 -20.49,8.61 -8.25,-3.27 -12.19,-12.45 -9.07,-20.31zm-84.95 304.26c6.69,-39.52 15.06,-79.22 24.89,-118 2.11,-8.37 10.7,-13.31 19.2,-11.07 23.11,6.19 6.89,18.35 -12.83,134.69 -1.43,8.49 -9.6,14.11 -18.23,12.56 -8.75,-1.61 -14.45,-9.81 -13.03,-18.19z"/>
   <path class="fil1" d="M3911.29 3713.69c-33.59,-41.42 -55.2,-56.16 -39.06,-69.87 6.56,-5.57 16.58,-4.82 22.37,1.78 36.47,41.42 55.03,58.17 38.97,70.73 -4.81,3.78 -16.76,4.13 -22.28,-2.64z"/>
   <path class="fil1" d="M4254.25 4877.22c-6.15,-2.83 -10.07,-9.37 -9.21,-16.29 2.57,-20.37 4.7,-41.01 6.4,-61.35 0.7,-8.58 8.35,-14.83 17.08,-14 8.71,0.88 15.22,8.5 14.5,17.08 -1.72,20.78 -3.93,41.82 -6.52,62.6 -1.06,8.56 -8.98,14.5 -17.65,13.29 -1.63,-0.22 -3.17,-0.68 -4.6,-1.33z"/>
   <path class="fil1" d="M4175.11 5204.48c-7.46,-3.44 -11.2,-11.95 -8.42,-19.62 14.52,-39.83 27.45,-80.61 38.41,-121.17 2.24,-8.3 10.93,-13.11 19.39,-10.78 8.46,2.43 13.49,11 11.25,19.3 -11.21,41.39 -24.39,83 -39.2,123.64 -2.93,8.08 -12,12.16 -20.23,9.12 -0.41,-0.16 -0.81,-0.31 -1.2,-0.5zm-151.52 300.21c-20.82,-13.28 0.14,-19.58 59.32,-131.2 9.59,-18.1 37.81,-3.38 28.15,14.83 -20.19,38.09 -42.28,75.72 -65.62,111.85 -4.72,7.31 -14.63,9.17 -21.85,4.52zm-216.53 258.29c-17.42,-17.42 4.65,-19.1 87.49,-114.62 13.47,-15.58 37.74,4.93 24.22,20.51 -28.24,32.59 -58.3,64.37 -89.3,94.47 -6.17,5.97 -16.2,5.87 -22.41,-0.36zm-262.8 210c-2.72,-1.25 -5.13,-3.27 -6.85,-5.97 -4.69,-7.37 -2.51,-16.97 4.88,-21.46 36.29,-22.09 72.06,-45.98 106.31,-71.02 6.96,-5.1 16.9,-3.6 22.2,3.39 5.29,6.93 3.95,16.71 -3.04,21.8 -34.95,25.56 -71.45,49.95 -108.49,72.47 -4.67,2.86 -10.32,2.97 -15.02,0.8zm-307.73 143.49c-3.77,-1.75 -6.88,-4.93 -8.4,-9.07 -2.97,-8.16 1.3,-17.04 9.53,-19.82 40.42,-13.68 80.75,-29.24 119.85,-46.22 7.96,-3.46 17.35,0.13 21.01,8.02 3.65,7.92 0.15,17.11 -7.81,20.57 -39.9,17.33 -81.04,33.21 -122.31,47.18 -4.01,1.37 -8.26,1 -11.88,-0.65zm-333.12 73.4c-4.88,-2.24 -8.5,-6.83 -9.23,-12.45 -1.11,-8.55 5.04,-16.27 13.72,-17.2 42.6,-4.6 85.54,-11.04 127.62,-19.19 8.57,-1.66 16.98,3.88 18.8,12.34 1.84,8.46 -3.63,16.65 -12.18,18.31 -42.94,8.3 -86.76,14.88 -130.25,19.58 -3.01,0.31 -5.92,-0.21 -8.48,-1.39zm-342.56 -0.68c-6.04,-2.8 -9.94,-9.07 -9.28,-15.9 0.84,-8.55 8.57,-14.72 17.28,-13.74 42.87,4.78 86.35,7.82 129.27,9.01 8.78,0.24 15.76,7.43 15.67,16.06 -0.09,8.61 -7.26,15.4 -16.01,15.15 -43.8,-1.23 -88.19,-4.31 -131.95,-9.19 -1.77,-0.2 -3.47,-0.68 -4.99,-1.38zm-826.07 -343.6c-34.29,-27.52 -67.88,-56.8 -99.8,-87.07 -6.35,-6.04 -6.64,-15.93 -0.63,-22.1 16.95,-17.37 19.65,4.44 120.18,85.09 6.84,5.51 7.97,15.33 2.52,21.98 -5.46,6.65 -15.42,7.6 -22.27,2.11zm482.07 249.42c7.67,-22.91 20.24,-4.11 144.6,27.08 8.53,2.09 13.77,10.64 11.76,18.99 -2.02,8.35 -10.55,13.38 -19.06,11.25 -42.57,-10.66 -85.36,-23.27 -127.16,-37.44 -8.37,-2.86 -12.84,-11.77 -10.14,-19.87zm-188.92 -62.67c-39.51,-19.53 -78.69,-40.94 -116.43,-63.63 -7.51,-4.52 -10,-14.15 -5.53,-21.48 12.59,-20.67 20.12,0.08 135.77,57.25 7.89,3.88 11.19,13.27 7.35,20.96 -6.64,13.44 -23.07,6.8 -21.16,6.89z"/>
   <path class="fil1" d="M1488.81 5599.7c-34.56,-43.05 -52.28,-60.61 -35.64,-72.4 17.31,-12.27 24.99,9.2 60.36,53.3 5.48,6.83 4.38,16.63 -2.45,21.89 -6.83,5.28 -16.8,4.04 -22.27,-2.79z"/>
   <path class="fil1" d="M1689.64 5218.8l226.85 -11.93c62.81,85.45 139.72,161.86 229.14,225.31 -6.58,217.46 -22.46,232.25 0.19,241.61l253.05 104.69c7.39,3.04 15.86,1.18 21.09,-4.65l148.96 -166.54c108.02,18.21 216.3,18.39 320.91,2.22l152.47 168.83c5.35,5.92 13.86,7.92 21.19,4.97l250.96 -101.03c7.33,-2.95 11.89,-10.19 11.32,-18.04l-16.06 -223.74c85.63,-60.4 161.88,-134.84 224.74,-221.86l226.98 15.22c7.96,0.54 15.29,-3.98 18.26,-11.19l101.87 -247.54c2.97,-7.23 0.93,-15.62 -5.08,-20.86l-171.64 -149.69c16.61,-106.13 14.9,-212.83 -3.33,-316.2 161.73,-147.37 182.89,-145.99 173.41,-168.07 -109.15,-242.48 -100.58,-261.81 -125.42,-260.54l-226.84 11.93c-62.81,-85.41 -139.73,-161.82 -229.15,-225.32 6.58,-217.3 22.46,-232.21 -0.18,-241.56 -253.21,-99.7 -258.13,-117.94 -274.15,-100.04l-148.95 166.53c-108.02,-18.24 -216.31,-18.41 -320.94,-2.24 -150.5,-159.93 -151.02,-182.88 -173.64,-173.81 -246.58,104.35 -264,94.94 -262.27,119.09l16.06 223.72c-85.65,60.41 -161.89,134.86 -224.74,221.88 -216.97,-10.09 -235.96,-26.61 -245.25,-4.02 -96.37,246.67 -115.34,252.17 -96.78,268.41l171.65 149.66c-16.61,106.11 -14.91,212.83 3.33,316.2 -161.18,146.82 -182.93,145.85 -173.4,168.1 109.14,242.43 100.57,261.8 125.41,260.51z"/>
   <path class="fil2" d="M2749.06 4426.61c-117.95,-17.9 -229.43,60.86 -245.93,179.92 -16.26,117.29 67.59,227.46 186.95,245.47 119.35,18.07 229.69,-62.65 245.92,-179.94 16.29,-117.47 -67.82,-227.44 -186.94,-245.45zm-62.2 448.54l0.16 0.07 -0.16 -0.07zm-230.84 -275.75c19.8,-142.79 154.13,-241.11 299.46,-219.08 145.31,21.97 247.44,156.03 227.64,298.86 -19.8,142.81 -154.13,241.12 -299.46,219.12l0 0c-145.35,-22 -247.44,-156.1 -227.64,-298.89z"/>
   <path class="fil2" d="M2444.38 5244.34l0 0c-35.84,-16.52 -70.24,-35.98 -102.55,-58.07 -9.73,-6.65 -13.02,-19.01 -8.37,-29.12 0.55,-1.2 1.22,-2.39 2,-3.5 7.37,-10.59 22.18,-13.11 33,-5.72 37.18,25.41 77.33,47.09 119.33,64.49l0 0c316.45,130.9 676.42,-7.56 815.26,-308.85 3.54,-7.69 6.94,-15.5 10.2,-23.41 131.4,-319.39 -27.67,-685.08 -351.65,-819.2 -323.54,-133.83 -694.24,13.77 -825.46,332.25 -78.01,189.65 -31.08,323.91 -40.04,343.36 -9.68,21.03 -41.46,16.24 -45.16,-6.69 -20.12,-125.28 -4.29,-257.74 52.06,-380.04 243.2,-527.69 1017.13,-506.12 1249.11,34.3 71.38,166.3 73.24,348.96 5.21,514.24 -3.52,8.55 -7.21,17.01 -11.04,25.38 -70.5,153.04 -195.39,271.6 -354.33,335.57 -167.58,67.46 -352.94,66.09 -521.93,-3.79 -8.62,-3.58 -17.19,-7.32 -25.65,-11.22z"/>
   <path class="fil1" d="M4238.42 3802.09c27.94,32.93 61.35,61.67 99.44,84.61l1.86 92.47c0.2,10.27 8.98,6.25 110.89,41.13 9.44,3.04 8.39,-5.8 63.92,-76.58 44.32,3.61 88.21,-0.17 130.15,-10.61l66.73 64.13c7.42,7.11 10.8,-1.95 107.49,-49.33 2.9,-1.49 4.54,-4.65 4.06,-7.86l-13.02 -91.61c32.93,-27.94 61.68,-61.32 84.61,-99.41 88.31,-3.61 96.42,2.46 99.53,-7.11 31.89,-105.2 39.37,-108.07 31.4,-114.04l-73.95 -55.53c3.65,-44.34 -0.16,-88.22 -10.57,-130.16l64.11 -66.72c7.12,-7.4 -1.91,-10.78 -49.31,-107.5 -4.5,-8.83 -9.62,-1.95 -99.44,8.95 -27.94,-32.93 -61.35,-61.67 -99.44,-84.61l-1.86 -92.47c-0.2,-10.27 -8.98,-6.25 -110.89,-41.13 -9.39,-3.04 -8.12,5.39 -63.92,76.64 -44.33,-3.67 -88.24,0.11 -130.15,10.56l-66.73 -64.07c-2.33,-2.3 -5.85,-2.81 -8.74,-1.32l-98.78 50.59c-2.88,1.49 -4.51,4.65 -4.06,7.86l13.04 91.61c-32.96,27.93 -61.67,61.32 -84.63,99.41 -88.3,3.61 -96.42,-2.46 -99.51,7.17 -31.89,105.09 -39.4,108.02 -31.39,114.04l73.93 55.47c-3.63,44.34 0.16,88.22 10.59,130.16 -59.91,64.99 -70,66.43 -65.4,75.49l50.61 98.72c4.51,8.83 10.07,1.89 99.44,-8.95z"/>
   <path class="fil2" d="M4466.24 3534.26c-2.88,44.74 31.17,83.46 75.85,86.39l0 0c71.83,4.65 114,-80.48 66.35,-134.8 -47.45,-53.98 -137.5,-23.86 -142.2,48.41zm74.74 103.6l0.11 0.06 -0.11 -0.06zm-109.17 -105.83c4.13,-63.85 59.16,-112.2 123.05,-108.07 63.85,4.13 112.22,59.2 108.06,123.05 -4.13,63.73 -59.31,112.2 -123.05,108.07l0 0c-63.72,-4.13 -112.19,-59.31 -108.06,-123.05z"/>
   <path class="fil1" d="M3966.13 3712.77c-4.47,-14.91 -8.37,-30.23 -11.66,-45.43 -1.33,-6.26 2.61,-12.33 8.82,-13.71 15.65,-3.33 13.41,14.11 24.89,52.55 1.82,6.08 -1.66,12.5 -7.73,14.28 -6.08,1.83 -12.5,-1.61 -14.32,-7.69z"/>
   <path class="fil1" d="M4603.36 2947.02c0.73,-6.37 6.42,-10.9 12.72,-10.15 31.46,3.56 62.77,9.58 93.09,17.96 14.63,3.96 8.59,26.21 -6.13,22.14 -29.17,-8.03 -59.29,-13.82 -89.53,-17.27 -6.49,-0.74 -10.84,-6.54 -10.17,-12.68zm-234.97 33.85c-2.85,-1.32 -5.17,-3.85 -6.17,-7.11 -1.89,-6.08 1.54,-12.5 7.62,-14.34 30.15,-9.23 61.29,-16.17 92.52,-20.54 6.31,-0.92 12.12,3.5 13,9.75 0.88,6.31 -3.49,12.11 -9.8,13.02 -30.06,4.19 -60,10.84 -88.98,19.73 -2.82,0.86 -5.72,0.57 -8.19,-0.52zm-212.52 116.91c-1.47,-0.69 -2.81,-1.66 -3.92,-2.98 -4.15,-4.82 -3.59,-12.05 1.25,-16.18 23.97,-20.54 49.74,-39.35 76.57,-55.87 5.42,-3.33 12.52,-1.61 15.83,3.79 3.33,5.39 1.66,12.5 -3.76,15.83 -25.81,15.89 -50.61,33.96 -73.68,53.69 -3.54,3.04 -8.35,3.56 -12.3,1.72zm-148.68 191.83c-5.72,-2.81 -8.07,-9.7 -5.31,-15.43 13.8,-28.34 29.97,-55.81 48.04,-81.69 8.74,-12.5 27.59,0.69 18.87,13.19 -17.4,24.9 -32.96,51.34 -46.2,78.59 -4.91,10.04 -16.79,5.28 -15.41,5.34zm-65.67 224.46c1.28,-30.52 4.92,-62.3 11.27,-94.08 3,-14.97 25.54,-10.38 22.57,4.47 -16.47,82.38 -3.61,102.4 -22.84,101.59 -6.4,-0.29 -11.27,-5.68 -11,-11.99z"/>
   <path class="fil1" d="M4878.07 3058.6c-34.75,-23.92 -50.06,-26.44 -42.28,-39.87 3.19,-5.51 10.12,-7.46 15.74,-4.19 13.41,7.8 26.72,16.23 39.6,25.12 5.24,3.61 6.56,10.73 2.95,16.01 -3.56,5.16 -10.67,6.59 -16.02,2.93z"/>
   <path class="fil1" d="M5126.24 3465.02c-5.37,-42.05 -13.74,-54.96 1.47,-58.11 6.24,-1.32 12.32,2.7 13.61,8.95 3.15,15.15 5.76,30.75 7.74,46.24 0.79,6.31 -3.65,12.04 -9.96,12.85 -6.28,0.8 -12.07,-3.61 -12.86,-9.92z"/>
   <path class="fil1" d="M5108.89 3698.55c22.78,-80.65 11.39,-100.33 30.47,-97.98 6.33,0.74 10.8,6.48 10.04,12.79 -3.79,30.92 -9.96,61.67 -18.35,91.44 -1.74,6.08 -8.09,9.64 -14.2,7.92 -6.11,-1.72 -9.69,-8.09 -7.96,-14.17zm-106.02 223.89c-14.93,-12.05 7.33,-17.95 49.22,-89.94 7.64,-13.2 27.56,-1.61 19.89,11.53 -15.58,26.79 -33.39,52.6 -52.92,76.75 -4.02,4.94 -11.28,5.68 -16.2,1.67zm-187.11 148.23c-8.98,-16.92 13.72,-13.71 80.5,-63.56 12.2,-9.06 25.99,9.35 13.77,18.47 -24.89,18.53 -51.38,35.33 -78.73,49.85 -5.61,2.98 -12.57,0.86 -15.54,-4.76zm-230.25 62.64c-0.52,-6.31 4.17,-11.87 10.52,-12.39 83.54,-6.88 97.87,-24.38 102.39,-5.73 1.5,6.14 -2.31,12.39 -8.48,13.88 -30.12,7.29 -61.08,12.22 -92.02,14.8 -6.35,0.52 -11.89,-4.19 -12.41,-10.56zm-236.46 -32.7c5.99,-18.19 19.6,0.52 101.59,14.22 14.97,2.47 11.25,25.18 -3.81,22.66 -30.65,-5.1 -61.11,-12.62 -90.49,-22.37 -5.94,-1.95 -9.34,-8.43 -7.3,-14.51z"/>
   <path class="fil1" d="M4219.39 4049.61c-13.11,-8.43 -26.02,-17.49 -38.4,-26.9 -5.06,-3.84 -6.06,-11.07 -2.2,-16.12 9.66,-12.74 19.3,1.89 53.06,23.69 5.35,3.44 6.89,10.56 3.45,15.89 -3.5,5.39 -10.67,6.83 -15.9,3.44z"/>
   <path class="fil2" d="M4407 3785.28c-9.46,-5.39 -11.39,-16.12 -6.87,-23.92 4.76,-8.26 15.4,-11.07 23.56,-6.31 15.31,8.89 31.73,16.17 48.8,21.68 3.72,0.4 91.41,35.39 191.12,-15.49 197.72,-101.3 174.37,-393.17 -37.33,-461.43 -121.78,-39.24 -252.13,20.02 -304.4,133.48 -52.65,114.21 6.87,173.7 -29.56,182.07 -9.28,2.18 -18.56,-3.61 -20.71,-12.91 -11.64,-50.08 -9.4,-102.51 6.48,-151.67 48.11,-149.37 208.95,-232.15 358.78,-183.79 161.2,51.97 243.47,234.22 171.18,391.11 -58.3,126.54 -204.94,196.98 -346.18,151.44l0 0c-19.1,-6.14 -37.59,-14.34 -54.87,-24.26z"/>
   <path class="fil3" d="M4720.47 5226.14c-5.65,-10.8 -21.65,-9.09 -24.91,2.66 -12.09,43.5 -41.32,119.39 -102.68,146.35 -3.11,1.36 -6.03,2.72 -8.85,4.11 -2.79,-8.35 -2.83,-18.04 3.84,-28.22 19.07,-29.17 -15.36,-68.98 -15.36,-68.98 0,0 -2.29,35.07 -28.94,57.14 -22.95,19.04 -34,61.36 -18.3,96.09 33.21,129.02 82.95,299.63 -110.78,424.27 -193.74,124.67 -466.56,-235.24 -466.56,-235.24l135.42 429.27c0,0 209.02,154.24 452.11,-62.65 243.11,-216.87 81.98,-532.45 81.98,-532.45 0,0 185.43,-74.81 103.05,-232.34z"/>
   <path class="fil4" d="M3914.01 4993.58c0,0 56.11,-251.76 -232.27,-185.11 0,0 -140,-22.87 -147.12,109.26 0,0 -90.24,59.45 -24.16,173.8 0,0 -268.18,-103.59 -385.01,131.47 -116.84,235.06 -9.44,364.39 103.14,398.11 0,0 -91.21,45.79 -48.04,149.2 43.19,103.43 261.85,176.33 391.03,50.56 0,0 367.55,48.57 360.2,-211.04 0,0 170.94,-110.4 -8.62,-324.95 -179.53,-214.56 -9.14,-291.29 -9.14,-291.29z"/>
   <path class="fil5" d="M3929.85 5577.16c-57.96,-17.38 -226.69,-49.45 -387.2,98.67 -27.22,25.11 -38.33,63.28 -28.62,99.03 43.1,158.69 156.85,627.58 57.12,830.46 0,0 175.74,193.73 367.48,37.58 0,0 86.01,-374.92 198.68,-539.5 77.8,-113.64 -124.03,-426.7 -175.09,-502.35 -7.73,-11.43 -19.14,-19.92 -32.36,-23.89z"/>
   <path class="fil6" d="M3769.84 5261.85c0,0 -85.72,242.43 -92.16,349.38 0,0 94.72,43.07 183.98,-29.62 0,0 9.37,-242.14 22.89,-285.5l-114.7 -34.25z"/>
   <path class="fil7" d="M3888.88 4931.31c0,0 224.17,313.7 90.16,404.84 -134.01,91.12 -293.58,-131.83 -293.58,-131.83 0,0 -52,-171.71 2.39,-229.96 54.39,-58.25 201.04,-43.05 201.04,-43.05z"/>
   <path class="fil8" d="M3785.13 4856.35c0,0 102.98,24.41 117.41,71 14.43,46.59 -146.03,89.8 -191.01,91.91l-36.22 188.04c0,0 -107.11,-176.88 -64.67,-279.04 42.41,-102.17 174.49,-71.91 174.49,-71.91z"/>
   <path class="fil9" d="M3728.92 5181.23c0,0 -87.26,-101.03 -121.96,-35.16 -34.7,65.87 78.56,115.34 117.74,82.99l4.22 -47.83z"/>
   <path class="fil10" d="M4162.43 7430.1c-0.66,17.01 29.24,152.02 45.48,224.03 6.56,28.97 2,59.29 -12.74,85.08l-563.26 947.96c-6.8,11.47 -11.77,23.88 -14.79,36.88 -10.32,44.48 -31.74,153.52 -20.56,252.68l29.15 60.52 -126.02 -28.6 -27.43 -338.4 35.68 -21.76c30.83,-18.8 54.83,-46.89 68.57,-80.27 50.92,-123.71 177.4,-438.61 209.99,-592.08 37.06,-174.43 230.75,-316.11 230.75,-316.11l-34.02 -80.43 179.19 -149.5z"/>
   <path class="fil11" d="M3359.65 8892.2c0,0 68.05,-107.88 76.05,-149.89 8.01,-41.98 30.31,-116.15 72.24,-93.81 0,0 19.78,204.01 12.95,283.71 -6.8,79.71 90.12,77.15 90.12,77.15 0,0 26.72,3.77 46.27,23.31 13.52,13.5 3.86,36.93 -15.2,38.18 -31.73,2.04 -82.11,2.56 -135,-7.64 -18.49,-3.58 -32.19,-19.3 -33.32,-38.11l-13.97 -234.81 -85.83 108.4 -14.31 -6.48z"/>
   <path class="fil12" d="M3825.96 7581.1c0,0 -19.87,847.94 -22.55,968.37 -2.7,120.44 19.01,387.33 139.75,467.1l-52.53 38.88c0,0 -65.67,-55.8 -129.79,-163.18 -72.06,-120.65 -93.83,-142.67 -93.83,-142.67l23.91 -48.97c10.45,-21.44 13.54,-45.69 8.7,-69.04 -26.04,-126.28 -113.07,-546.27 -136.82,-636.72 -28.03,-106.74 -30.03,-249.33 67.48,-368.69 97.49,-119.33 195.69,-45.07 195.69,-45.07z"/>
   <path class="fil13" d="M3714.47 9093.67c-3.74,0.05 -6.92,-2.65 -7.46,-6.35 -4.01,-28.26 -20.73,-141.61 -34.41,-170.96 -15.7,-33.59 -66.89,-175.06 0.02,-187.06 0,0 166.35,243.04 198.29,275.82 31.93,32.78 72.24,11.46 72.24,11.46 0,0 31.1,9.18 54.58,39.17 11.16,14.26 0.77,35.22 -17.35,35.39l-112.06 1.06c-32.55,0.32 -61.83,-19.44 -73.92,-49.65 -19.72,-49.27 -53.6,-121.54 -93.09,-153.61l20.5 196.5c0.48,4.38 -2.95,8.19 -7.35,8.23l0 0z"/>
   <path class="fil14" d="M3965.14 6551.49c0,0 -25.25,80.47 13.54,213.03l240.64 840.35c3.79,13.2 -3.35,27.01 -16.28,31.67 -71.97,25.84 -308.59,98.85 -631.6,76.57 -16.26,-1.11 -29.92,-12.63 -33.43,-28.56 -21.3,-95.79 -93.91,-422.65 -108.86,-489.81 -56.97,-255.93 -120.6,-531.88 159.26,-698.76 128.97,55.23 249.26,87.78 376.74,55.51z"/>
   <path class="fil15" d="M3519.7 5707.49c0,0 -273.8,227.53 -341.76,538.46 -67.93,310.91 400.1,343.96 400.1,343.96 0,0 63.53,-70.95 138.98,-45.64 75.42,25.31 5.83,-123.82 -82.43,-123.43 -88.26,0.39 -47.36,70.18 -172.23,13.63 -121.62,-55.1 -196.79,-225.48 113.53,-483.76 17.99,-14.96 32.35,-34.07 40.99,-55.8 60.26,-151.77 12.45,-251.23 -97.17,-187.43z"/>
   <path class="fil16" d="M827.46 7808.81c-24.11,35.68 -119.95,843.59 -134.95,1141.98 -1.02,20.19 15.12,36.99 35.33,36.99l0 0c17.42,0 32.24,-12.68 34.93,-29.89l175.3 -1123.39 -110.61 -25.7z"/>
   <path class="fil17" d="M1598.03 7808.81c24.11,35.68 119.96,843.59 134.95,1141.98 1.02,20.19 -15.12,36.99 -35.32,36.99l0 0c-17.42,0 -32.26,-12.68 -34.94,-29.89l-175.3 -1123.39 110.61 -25.7z"/>
   <path class="fil18" d="M682.48 7745.75l-0.08 8.8c-0.58,63.38 54.02,115.36 122.39,116.54l810.28 13.77c67.39,1.16 123.56,-47.54 126.83,-109.94l0.43 -8.06c3.41,-65.07 -51.86,-119.9 -122.13,-121.17l-810.63 -14.52c-69.38,-1.24 -126.5,50.25 -127.09,114.57z"/>
   <path class="fil19" d="M2090.57 8873.51c-138.34,0 -199.56,-11.86 -226.94,-22.68 5.33,22.73 25.56,40.65 51.13,40.65l489.47 0c16.49,0 26.9,-15.77 22.95,-30.06 -55.8,4.49 -174.29,12.09 -336.61,12.09z"/>
   <path class="fil20" d="M2427.19 8861.42c-0.79,-2.88 -1.97,-5.71 -4.02,-8.32 -37.29,-47.61 -112.19,-122.37 -214.05,-120.94 -149.27,2.11 -201.31,18.31 -317.28,0.93l-27.38 90.68c-2.76,9.26 -2.83,18.49 -0.81,27.06 27.38,10.82 88.6,22.68 226.94,22.68 162.32,0 280.81,-7.6 336.61,-12.09z"/>
   <path class="fil21" d="M1925.43 8635.34l-33.59 114.23c0,0 74.4,33.87 139.86,6.67l12.83 -98.96 -119.11 -21.93z"/>
   <path class="fil22" d="M2939.91 8801.58c-107.86,86.67 -162.98,115.79 -191.06,124.55 18.3,14.29 45.25,15.54 65.19,-0.5l381.57 -306.58c12.84,-10.32 11.12,-29.08 -0.86,-37.7 -40.7,38.43 -128.32,118.56 -254.84,220.22z"/>
   <path class="fil23" d="M3194.75 8581.36c-2.41,-1.72 -5.08,-3.2 -8.3,-3.95 -58.75,-13.59 -163.75,-24.65 -242.28,40.26 -115.02,95.11 -145.51,140.27 -246.76,199.43l35.2 87.51c3.61,8.91 9.33,16.13 16.25,21.53 28.08,-8.76 83.2,-37.88 191.06,-124.55 126.52,-101.67 214.14,-181.8 254.84,-220.22z"/>
   <path class="fil24" d="M1206.92 7333.86c0,0 828.35,67.64 998.3,147.64 169.91,79.98 -138.68,1201.15 -138.68,1201.15 0,0 -46.25,22.28 -149.21,-9.73 0,0 105.57,-827.39 27.02,-1006.79l-896.9 -146.71 159.48 -185.56z"/>
   <path class="fil25" d="M2615.11 8659.61c7.69,7.01 82.3,157.49 82.3,157.49 0,0 83.06,-17.97 100.01,-70.52l-74.74 -135.82 -107.56 48.85z"/>
   <path class="fil26" d="M708.01 7326.94c0,0 -26.99,64.94 -25.89,151.28 1.52,119.38 97.49,216.23 216.73,222.2l979.24 44.64c20.69,0.96 38.17,15.27 43.37,35.31 23,89.01 135.48,362.33 685.31,907.74 14.63,14.52 37.4,16.99 54.82,5.99l78.28 -49.44c8.21,-5.19 10.84,-15.96 5.92,-24.33l-570.17 -973.66c-29.94,-49.43 -78.08,-85.12 -134.08,-99.44l-834.62 -213.35 -498.91 -6.92z"/>
   <path class="fil27" d="M1673.06 5806c0,0 -104.9,185.47 -211.86,275.35l221.07 123.32c0,0 49.81,-196.34 163.63,-253.84l-172.85 -144.83z"/>
   <path class="fil28" d="M690.22 7333.86c0,0 264.37,64.44 516.7,0 0,0 353.09,-474.66 489.69,-603.83 0,0 217.9,343.83 702.88,392.54l27.04 -60.43c0,0 -386.08,-177.99 -504.96,-451.48 -118.86,-273.46 -166.59,-390.12 -274.74,-461.46 -67.34,-44.46 -107.67,-74.8 -128.51,-91.39 -11.41,-9.07 -27.16,-10.09 -39.61,-2.52 -114.76,69.95 -654.76,439.8 -788.5,1278.55z"/>
   <path class="fil29" d="M1682.28 6723.33c-5.09,0 -10.13,-2.3 -13.46,-6.65 -84.19,-109.76 -131.07,-230.77 -133.03,-235.85 -3.35,-8.74 1.02,-18.54 9.76,-21.91 8.76,-3.36 18.55,1.02 21.91,9.75 0.46,1.23 47.19,121.65 128.28,227.4 5.7,7.42 4.3,18.05 -3.14,23.77 -3.07,2.35 -6.7,3.49 -10.31,3.49z"/>
   <path class="fil30" d="M2370.32 7030.57l54.6 -14.56 165.74 -38.38c19.96,-4.61 40.94,-1.06 58.27,9.85l142.52 89.64 -393.57 -0.66 -27.56 -45.89z"/>
   <path class="fil31" d="M1839.62 5527.89c0,0 101.93,169.46 119.63,263.15 17.69,93.66 46.09,152.2 -60.52,185.59 -106.59,33.37 -205.67,-8.87 -267.84,-96.31 0,0 -97.11,-134.55 -87.42,-196.16 9.69,-61.63 296.15,-156.26 296.15,-156.26z"/>
   <path class="fil32" d="M1659.26 5807.81l13.79 -1.81c0,0 -72.19,-109.08 -24.95,-136.14 47.24,-27.06 239.72,-93.45 273.15,-169.26 32.24,-73.09 -15.96,-155.65 -74.1,-172.89 -3.67,-1.09 -7.55,1.09 -8.89,4.7l-3.4 9.21c-2.34,6.28 -11.16,6.56 -13.86,0.38l0 0c-2.56,-5.83 -10.92,-6.08 -13.55,-0.27 -10.3,22.7 -41.17,61.49 -133.74,91.5 -131.35,42.57 -213.17,108.78 -203.09,202.13 0.64,5.9 -5.24,9.98 -10.68,7.57 -10.74,-4.74 -27.02,-5.49 -45.92,15.2 -32.87,35.95 -7.12,114.57 82.65,170.23 4.26,2.63 5.03,8.64 1.21,11.91 -13.43,11.49 -32.33,37.15 28.41,60 62.14,23.38 96.04,15.46 108.57,10.45 3.37,-1.36 5.3,-4.85 4.61,-8.41l-15.96 -81.77c-0.83,-4.24 2.09,-8.28 6.35,-8.85l29.41 -3.88z"/>
   <path class="fil33" d="M1664.93 5824.62c0,0 -44.99,-110.89 -92.24,-71.93 -47.24,39 43.67,125.17 85.63,124.01l6.6 -52.08z"/>
   <path class="fil34" d="M2378.44 7130.89c0.66,0.04 1.29,0.04 1.95,0.04l846.38 -0.84c20.92,-0.02 37.86,-16.96 37.84,-37.86 -0.02,-20.89 -17.08,-38.15 -37.93,-37.76l-846.38 0.84c-20.92,0.02 -37.85,16.97 -37.83,37.85 0.02,20.24 15.96,36.72 35.97,37.72z"/>
   <path class="fil35" d="M3554.54 6302.05c-0.29,0.57 -0.59,1.13 -0.86,1.72l-356.12 767.81c-8.8,18.99 -0.59,41.48 18.37,50.26 18.94,8.81 41.79,0.64 50.24,-18.46l356.12 -767.79c8.8,-18.98 0.59,-41.48 -18.37,-50.27 -18.35,-8.52 -40.04,-1.02 -49.38,16.72z"/>
   <path class="fil36" d="M5708.25 8752.54c0,0 9.29,51.81 13.02,113.32 1.55,26.22 -17.9,49 -44.06,51.54 -90.98,8.83 -298.12,25.11 -430.4,6.04 -18.53,-2.67 -25.9,-25.43 -12.2,-38.2 54.55,-50.81 186.24,-149.67 403.07,-171.28l70.56 38.59z"/>
   <path class="fil37" d="M5753.45 8635.75l-46 112.78c-6.31,15.44 -21.97,25.07 -38.55,23.32 -11.3,-1.18 -24.61,-3.34 -37.63,-7.29 -25.93,-7.87 -40.61,-35.4 -32.81,-61.4l34.7 -116.15 120.29 48.74z"/>
   <path class="fil38" d="M6540.14 8842.37c0,0 -92.13,77.1 -128.04,175.97 -9.87,27.22 11.01,55.87 39.93,55.87l189.59 0c27.76,0 49.04,-24.98 44.22,-52.31 -12.1,-68.28 -46.92,-179.24 -145.7,-179.53z"/>
   <path class="fil39" d="M6654.3 8742.04c0,0 -18.65,82.36 -32.93,136.82 -2.64,9.87 -13.13,15.29 -22.77,11.86 -28.68,-10.28 -52.03,-14.81 -69.01,-12.52 -7.86,1.04 -14.69,-5.49 -14.8,-13.41l-1.78 -136.82 141.29 14.06z"/>
   <path class="fil40" d="M6164.24 6888.39l-560.44 1709.77c0,0 107.5,70.39 158.73,67.46l665.7 -1374.07c0,0 116.45,846.65 60,1454.48l190.68 14.56c0,0 310.05,-1553.33 75.2,-2085.35l-589.87 213.15z"/>
   <path class="fil41" d="M6424.61 7276.79c0.23,0 0.46,-0.02 0.69,-0.04 2.93,-0.39 5.05,-3.09 4.65,-6.06l-21.74 -172.64c-0.35,-2.97 -3.04,-5.04 -6.02,-4.7 -2.98,0.36 -5.11,3.09 -4.7,6.06l21.74 172.61c0.35,2.75 2.7,4.76 5.39,4.76z"/>
   <path class="fil42" d="M6059.2 5383.9c0,0 454.03,40.31 389.78,363.86 0,0 251.02,472.34 368.33,1028.74 3.84,18.1 -8.26,35.77 -26.5,38.9l-756.17 129.47c-20.88,3.56 -41.01,-9.44 -46.29,-29.94l-180.69 -698.26 -70.39 324.66 -223.72 -58.3 188.33 -953.96c0,0 26.27,-139.2 357.32,-145.17z"/>
   <path class="fil43" d="M5803.82 6185.44c0.4,0 0.8,-0.05 1.2,-0.11 3.04,-0.69 4.99,-3.68 4.3,-6.72l-62.98 -289.43c-0.69,-3.02 -3.67,-4.94 -6.71,-4.29 -3.04,0.66 -4.99,3.65 -4.3,6.69l62.98 289.43c0.57,2.63 2.93,4.43 5.51,4.43z"/>
   <path class="fil44" d="M5849.48 7046.68c23.81,-13.09 51.69,-16.72 78.07,-10.14l52.6 13.09c11.19,2.79 22.26,-4.93 23.57,-16.38l54.44 -484.59c68.04,32.34 166.3,28.46 198.65,26.11l-125.28 571.28 -438.49 0 156.43 -99.37z"/>
   <path class="fil45" d="M4684.39 5995.56l13.27 -44.05c7.62,-25.36 26.36,-45.86 50.92,-55.74l239.71 -96.4c0,0 3.6,-30.74 -50.65,-51.62 -54.26,-20.89 -41.58,-81.68 -41.58,-81.68 0,0 74.15,33.81 182.67,87.46 62.08,30.67 96.9,84.83 115.39,125.59l543.17 662.2 -63.79 43.8c-83.87,57.63 -199.17,29.33 -246.83,-60.56l-294.26 -564.28c-147.74,44.39 -297.24,52.87 -448,35.28z"/>
   <path class="fil46" d="M5912.07 5074.99l139.68 390.87c0,0 -123.67,96.67 -213.91,63.99l-70.38 -224.06c0,0 53.75,-273.82 144.61,-230.79z"/>
   <path class="fil47" d="M5495.26 4934.6c0,6.04 134.52,380.84 134.52,380.84l212.42 -81.36 -74.74 -374.2c0,0 -272.19,-26.11 -272.19,74.72z"/>
   <path class="fil48" d="M5730.17 4951.05l54.78 193.91c0.69,2.47 1.09,4.99 1.09,7.58 0,15.81 -3.9,70.22 -59.31,62.83 -50.31,-6.72 -96.31,-12.12 -125.57,1.68 -13.14,6.17 -19.44,21.29 -14.51,34.95 12.22,34.05 41.19,110.28 76.52,172.66 7.11,12.65 22.83,17.58 36.08,11.55 39.87,-18.15 122.93,-58.78 182.07,-107.11 8.03,-6.55 11.87,-16.85 9.98,-27.01 -9.29,-49.61 -37.06,-200.47 -38.26,-243.7 -1.15,-40.58 44.4,-71.56 64.42,-83.2 6.6,-3.81 11.3,-10.11 13.02,-17.49 6.31,-26.13 11.64,-85.24 -63.73,-98.26 -15.78,-2.72 -26.1,-17.83 -22.89,-33.52 6.37,-31.24 4.36,-77.21 -54.95,-94.13 -60.29,-17.22 -98.26,19.07 -117.54,46.91 -7.8,11.26 -22.43,14.91 -34.88,9.32 -7.17,-3.17 -15.72,-3.33 -25.01,4.47 -12.39,10.5 -31.38,7.31 -40.56,-6.17 -17.55,-25.89 -49.5,-51.72 -103.6,-34.23 -95.91,31.05 -91.32,141.68 -56.16,201.83 35.17,60.13 137.27,20.55 185.63,-19.3 36.77,-30.28 92.7,-12.15 117.42,-1.74 7.8,3.31 13.65,10.02 15.95,18.19z"/>
   <path class="fil49" d="M5872.26 5129.17c0,0 -56.73,-107.43 -19.22,-141.15 37.57,-33.72 101.19,-28.22 99.47,55.8 -2.12,104.47 -80.25,85.35 -80.25,85.35z"/>
   <path class="fil50" d="M6212.76 6582.02c30.98,0 53.12,-2.33 55.47,-2.61l4.07 -0.45 165.32 -770.87c0.69,-3.04 -1.26,-6.04 -4.3,-6.67 -3.1,-0.68 -6.02,1.28 -6.71,4.31l-163.6 762.86c-24.61,2.18 -156.03,10.89 -225.38,-38.24l143.24 -669.73 -29.89 -56.34c-1.49,-2.74 -4.87,-3.79 -7.63,-2.33 -2.75,1.45 -3.78,4.88 -2.35,7.63l27.99 52.71 -143.87 672.81 2.87 2.16c50.14,37.65 130.85,44.77 184.77,44.77z"/>
   <path class="fil51" d="M1623.15 8983.68c-3.62,0 -7.29,-0.93 -10.83,-2.86 -13.91,-7.66 -20.33,-28.31 -14.35,-46.09l575.07 -1710.63c5.99,-17.78 22.09,-25.99 36.02,-18.35 13.93,7.65 20.35,28.29 14.36,46.09l-575.07 1710.61c-4.46,13.27 -14.58,21.23 -25.2,21.23z"/>
   <path class="fil51" d="M2271 8983.68c-10.61,0 -20.73,-7.94 -25.2,-21.23l-575.07 -1710.61c-5.98,-17.81 0.44,-38.44 14.36,-46.09 13.9,-7.66 30.03,0.55 36.02,18.35l575.07 1710.63c5.99,17.78 -0.43,38.43 -14.36,46.09 -3.52,1.93 -7.19,2.86 -10.82,2.86z"/>
   <path class="fil51" d="M5526.06 8983.68c-3.61,0 -7.28,-0.93 -10.84,-2.86 -13.88,-7.66 -20.31,-28.31 -14.34,-46.09l575.07 -1710.63c6.02,-17.78 22.09,-25.99 36.02,-18.35 13.94,7.65 20.37,28.29 14.34,46.09l-575.07 1710.61c-4.48,13.27 -14.57,21.23 -25.19,21.23z"/>
   <path class="fil51" d="M6173.93 8983.68c-10.61,0 -20.76,-7.94 -25.24,-21.23l-575.07 -1710.61c-5.96,-17.81 0.46,-38.44 14.4,-46.09 13.88,-7.66 30,0.55 35.97,18.35l575.07 1710.63c6.02,17.78 -0.4,38.43 -14.34,46.09 -3.5,1.93 -7.17,2.86 -10.79,2.86z"/>
   <path class="fil51" d="M6375.56 7125.16c2.64,-9.67 -0.97,-19.69 -9.98,-27.29 -9.01,-7.63 -22.43,-12.02 -36.6,-12.02l-4792.8 0c-18.6,0 -35.93,6.62 -45.96,17.54 -10.02,10.93 -11.37,24.65 -3.57,36.43l51.94 78.37c11.89,17.94 37.66,29.42 66.02,29.42l4691.49 0c26.39,0 49.05,-13.04 54.04,-31.08l25.41 -91.36z"/>
   <path class="fil52" d="M4937.16 5137.73c0,0 -1016.16,-502.06 -683.84,-871.74 332.33,-369.65 951.86,-221.88 983.25,167.16 31.4,389.09 -722.69,297.81 -299.41,704.58z"/>
   <path class="fil1" d="M4329.04 4361.5c0,5.68 4.58,10.21 10.25,10.21l448.43 0c5.67,0 10.25,-4.53 10.25,-10.21 0,-5.68 -4.58,-10.27 -10.25,-10.27l-448.43 0c-5.67,0 -10.25,4.59 -10.25,10.27z"/>
   <path class="fil1" d="M4920.89 4371.71l133.08 0c5.65,0 10.23,-4.53 10.23,-10.21 0,-5.68 -4.58,-10.27 -10.23,-10.27l-133.08 0c-5.65,0 -10.25,4.59 -10.25,10.27 0,5.68 4.6,10.21 10.25,10.21z"/>
   <path class="fil1" d="M4313.93 4452.25c0,5.68 4.58,10.27 10.25,10.27l168.37 0c5.67,0 10.26,-4.59 10.26,-10.27 0,-5.62 -4.58,-10.21 -10.26,-10.21l-168.37 0c-5.67,0 -10.25,4.59 -10.25,10.21z"/>
   <path class="fil1" d="M4729.41 4452.25c0,5.68 4.58,10.27 10.23,10.27l299.22 0c5.65,0 10.24,-4.59 10.24,-10.27 0,-5.62 -4.58,-10.21 -10.24,-10.21l-299.22 0c-5.65,0 -10.23,4.59 -10.23,10.21z"/>
   <path class="fil1" d="M4309.08 4553.32l447.62 0c5.65,0 10.25,-4.59 10.25,-10.27 0,-5.62 -4.61,-10.21 -10.25,-10.21l-447.62 0c-5.68,0 -10.26,4.59 -10.26,10.21 0,5.68 4.58,10.27 10.26,10.27z"/>
   <path class="fil1" d="M4868.79 4553.32l154.97 0c5.65,0 10.23,-4.59 10.23,-10.27 0,-5.62 -4.58,-10.21 -10.23,-10.21l-154.97 0c-5.67,0 -10.25,4.59 -10.25,10.21 0,5.68 4.58,10.27 10.25,10.27z"/>
  </g>
 </g>
</svg>
