<?xml version="1.0" encoding="UTF-8"?>
<!DOCTYPE svg PUBLIC "-//W3C//DTD SVG 1.1//EN" "http://www.w3.org/Graphics/SVG/1.1/DTD/svg11.dtd">
<!-- Creator: CorelDRAW 2018 (64-Bit) -->
<svg xmlns="http://www.w3.org/2000/svg" xml:space="preserve" width="8.26772in" height="11.6929in" version="1.1" style="shape-rendering:geometricPrecision; text-rendering:geometricPrecision; image-rendering:optimizeQuality; fill-rule:evenodd; clip-rule:evenodd"
viewBox="0 0 8267.72 11692.91"
 xmlns:xlink="http://www.w3.org/1999/xlink">
 <defs>
  <style type="text/css">
   <![CDATA[
    .fil7 {fill:#160B85;fill-rule:nonzero}
    .fil22 {fill:#163560;fill-rule:nonzero}
    .fil15 {fill:#19243F;fill-rule:nonzero}
    .fil9 {fill:#1D3F77;fill-rule:nonzero}
    .fil17 {fill:#233862;fill-rule:nonzero}
    .fil8 {fill:#2A4E96;fill-rule:nonzero}
    .fil14 {fill:#2B478B;fill-rule:nonzero}
    .fil5 {fill:#2C3A64;fill-rule:nonzero}
    .fil6 {fill:#4547EC;fill-rule:nonzero}
    .fil1 {fill:#4648ED;fill-rule:nonzero}
    .fil19 {fill:#699AE2;fill-rule:nonzero}
    .fil4 {fill:#77A4E5;fill-rule:nonzero}
    .fil25 {fill:#919CB1;fill-rule:nonzero}
    .fil3 {fill:#91B3FA;fill-rule:nonzero}
    .fil18 {fill:#ADC8FE;fill-rule:nonzero}
    .fil13 {fill:#AFCDFB;fill-rule:nonzero}
    .fil28 {fill:#BDD0FB;fill-rule:nonzero}
    .fil2 {fill:#C0D8FB;fill-rule:nonzero}
    .fil26 {fill:#CE6719;fill-rule:nonzero}
    .fil23 {fill:#E58638;fill-rule:nonzero}
    .fil20 {fill:#EBF3FA;fill-rule:nonzero}
    .fil12 {fill:#ED975D;fill-rule:nonzero}
    .fil27 {fill:#F2C39C;fill-rule:nonzero}
    .fil10 {fill:#F99746;fill-rule:nonzero}
    .fil24 {fill:#FCA56B;fill-rule:nonzero}
    .fil21 {fill:#FE7F75;fill-rule:nonzero}
    .fil11 {fill:#FFB27D;fill-rule:nonzero}
    .fil16 {fill:white;fill-rule:nonzero}
    .fil32 {fill:url(#id0)}
    .fil30 {fill:url(#id1)}
    .fil33 {fill:url(#id2)}
    .fil35 {fill:url(#id3)}
    .fil36 {fill:url(#id4)}
    .fil31 {fill:url(#id5)}
    .fil29 {fill:url(#id6)}
    .fil0 {fill:url(#id7)}
    .fil34 {fill:url(#id8)}
   ]]>
  </style>
  <linearGradient id="id0" gradientUnits="userSpaceOnUse" x1="2770.11" y1="8799.91" x2="2848.47" y2="8190.03">
   <stop offset="0" style="stop-opacity:1; stop-color:#FF928E"/>
   <stop offset="1" style="stop-opacity:1; stop-color:#FE7062"/>
  </linearGradient>
  <linearGradient id="id1" gradientUnits="userSpaceOnUse" xlink:href="#id0" x1="2604.59" y1="8853.69" x2="2744.98" y2="8266.6">
  </linearGradient>
  <linearGradient id="id2" gradientUnits="userSpaceOnUse" x1="5002.22" y1="8233.88" x2="4930.12" y2="8752.91">
   <stop offset="0" style="stop-opacity:1; stop-color:#E1473D"/>
   <stop offset="1" style="stop-opacity:1; stop-color:#E9605A"/>
  </linearGradient>
  <linearGradient id="id3" gradientUnits="userSpaceOnUse" xlink:href="#id0" x1="6665.08" y1="4447.8" x2="6304.58" y2="5353.73">
  </linearGradient>
  <linearGradient id="id4" gradientUnits="userSpaceOnUse" xlink:href="#id0" x1="3733.66" y1="5913.76" x2="3505.12" y2="6488.1">
  </linearGradient>
  <linearGradient id="id5" gradientUnits="userSpaceOnUse" xlink:href="#id0" x1="5145.22" y1="9000.25" x2="5268.81" y2="8038.24">
  </linearGradient>
  <linearGradient id="id6" gradientUnits="userSpaceOnUse" xlink:href="#id0" x1="4884.13" y1="9085.07" x2="5105.57" y2="8159.01">
  </linearGradient>
  <linearGradient id="id7" gradientUnits="userSpaceOnUse" x1="7356.5" y1="10618.22" x2="2330.17" y2="4070.47">
   <stop offset="0" style="stop-opacity:1; stop-color:#DAE3FE"/>
   <stop offset="1" style="stop-opacity:1; stop-color:#E9EFFD"/>
  </linearGradient>
  <linearGradient id="id8" gradientUnits="userSpaceOnUse" xlink:href="#id2" x1="2679.46" y1="8314.06" x2="2633.75" y2="8643.11">
  </linearGradient>
 </defs>
 <g id="Layer_x0020_1">
  <metadata id="CorelCorpID_0Corel-Layer"/>
  <g id="_2523298581600">
   <path class="fil0" d="M6225.31 8201.33c-126.83,133.53 -246.83,219.66 -341.66,287.69 -1114.58,799.72 -2433.4,566.61 -2713.69,509.68 -413.91,-84.06 -1213.98,-246.56 -1792.39,-926.79 -875.11,-1029.11 -738.85,-2650.44 -60.05,-3720.7 124.17,-195.78 780.03,-1282.37 2113.06,-1456.64 806.73,-105.43 1747.13,107.27 2428.17,677.81 1429.5,1197.64 1327.69,3617.08 366.56,4628.95z"/>
   <polygon class="fil1" points="5366.69,8238.32 5491.41,8238.32 5491.41,4889.8 5366.69,4889.8 "/>
   <polygon class="fil1" points="4604.47,5063.26 6236.42,5063.26 6236.42,4980.94 4604.47,4980.94 "/>
   <polygon class="fil1" points="4665.99,4980.94 4692.89,4980.94 4692.89,4798.67 4665.99,4798.67 "/>
   <path class="fil1" d="M4606.69 4835.85c0,-9.22 33.02,-16.7 73.74,-16.7 40.72,0 73.74,7.48 73.74,16.7 0,9.23 -33.02,16.7 -73.74,16.7 -40.72,0 -73.74,-7.48 -73.74,-16.7z"/>
   <path class="fil1" d="M4606.69 4802.44c0,-9.22 33.02,-16.7 73.74,-16.7 40.72,0 73.74,7.48 73.74,16.7 0,9.23 -33.02,16.7 -73.74,16.7 -40.72,0 -73.74,-7.48 -73.74,-16.7z"/>
   <path class="fil1" d="M4606.69 4769.04c0,-9.22 33.02,-16.7 73.74,-16.7 40.72,0 73.74,7.48 73.74,16.7 0,9.23 -33.02,16.7 -73.74,16.7 -40.72,0 -73.74,-7.48 -73.74,-16.7z"/>
   <path class="fil1" d="M4606.69 4735.63c0,-9.23 33.02,-16.7 73.74,-16.7 40.72,0 73.74,7.48 73.74,16.7 0,9.22 -33.02,16.7 -73.74,16.7 -40.72,0 -73.74,-7.48 -73.74,-16.7z"/>
   <polygon class="fil1" points="4634.72,4841.78 4724.19,4841.78 4724.19,4728.1 4634.72,4728.1 "/>
   <polygon class="fil1" points="5406.01,4980.94 5432.91,4980.94 5432.91,4798.67 5406.01,4798.67 "/>
   <path class="fil1" d="M5346.71 4835.85c0,-9.22 33.02,-16.7 73.73,-16.7 40.72,0 73.74,7.48 73.74,16.7 0,9.23 -33.02,16.7 -73.74,16.7 -40.72,0 -73.73,-7.48 -73.73,-16.7z"/>
   <path class="fil1" d="M5346.71 4802.44c0,-9.22 33.02,-16.7 73.73,-16.7 40.72,0 73.74,7.48 73.74,16.7 0,9.23 -33.02,16.7 -73.74,16.7 -40.72,0 -73.73,-7.48 -73.73,-16.7z"/>
   <path class="fil1" d="M5346.71 4769.04c0,-9.22 33.02,-16.7 73.73,-16.7 40.72,0 73.74,7.48 73.74,16.7 0,9.23 -33.02,16.7 -73.74,16.7 -40.72,0 -73.73,-7.48 -73.73,-16.7z"/>
   <path class="fil1" d="M5346.71 4735.63c0,-9.23 33.02,-16.7 73.73,-16.7 40.72,0 73.74,7.48 73.74,16.7 0,9.22 -33.02,16.7 -73.74,16.7 -40.72,0 -73.73,-7.48 -73.73,-16.7z"/>
   <polygon class="fil1" points="5374.71,4841.78 5464.21,4841.78 5464.21,4728.1 5374.71,4728.1 "/>
   <polygon class="fil1" points="6148.22,4980.94 6175.12,4980.94 6175.12,4798.67 6148.22,4798.67 "/>
   <path class="fil1" d="M6088.97 4835.85c0,-9.22 32.97,-16.7 73.7,-16.7 40.73,0 73.75,7.48 73.75,16.7 0,9.23 -33.02,16.7 -73.75,16.7 -40.73,0 -73.7,-7.48 -73.7,-16.7z"/>
   <path class="fil1" d="M6088.97 4802.44c0,-9.22 32.97,-16.7 73.7,-16.7 40.73,0 73.75,7.48 73.75,16.7 0,9.23 -33.02,16.7 -73.75,16.7 -40.73,0 -73.7,-7.48 -73.7,-16.7z"/>
   <path class="fil1" d="M6088.97 4769.04c0,-9.22 32.97,-16.7 73.7,-16.7 40.73,0 73.75,7.48 73.75,16.7 0,9.23 -33.02,16.7 -73.75,16.7 -40.73,0 -73.7,-7.48 -73.7,-16.7z"/>
   <path class="fil1" d="M6088.97 4735.63c0,-9.23 32.97,-16.7 73.7,-16.7 40.73,0 73.75,7.48 73.75,16.7 0,9.22 -33.02,16.7 -73.75,16.7 -40.73,0 -73.7,-7.48 -73.7,-16.7z"/>
   <polygon class="fil1" points="6116.96,4841.78 6206.43,4841.78 6206.43,4728.1 6116.96,4728.1 "/>
   <polygon class="fil1" points="5429.11,5430.75 4966.79,5044.71 4983.82,5024.43 5428.98,5396.11 5881.31,5012.03 5898.53,5032.17 "/>
   <path class="fil2" d="M1289.49 7511.4l147.96 0 0 -774.81 -147.96 0 0 774.81zm149.41 2.91l-150.86 0c-0.8,0 -1.45,-0.64 -1.45,-1.44l0 -777.75c0,-0.81 0.65,-1.44 1.45,-1.44l150.86 0c0.8,0 1.46,0.63 1.46,1.44l0 777.75c0,0.8 -0.65,1.44 -1.46,1.44z"/>
   <path class="fil2" d="M1220.96 8029.88l284.04 0 -67.39 -515.57 -148.31 0 -68.34 515.57zm285.7 2.91l-287.35 0c-0.42,0 -0.82,-0.17 -1.09,-0.5 -0.28,-0.31 -0.4,-0.72 -0.35,-1.14l68.73 -518.48c0.1,-0.74 0.71,-1.27 1.44,-1.27l150.86 0c0.72,0 1.34,0.56 1.44,1.27l67.77 518.48c0.06,0.42 -0.07,0.83 -0.35,1.14 -0.28,0.33 -0.67,0.5 -1.09,0.5z"/>
   <path class="fil2" d="M1193.61 8235.71l52.45 0 84.98 -202.93 -110.46 0 -26.97 202.93zm53.41 2.91l-55.07 0c-0.42,0 -0.81,-0.19 -1.09,-0.5 -0.27,-0.33 -0.4,-0.75 -0.35,-1.16l27.35 -205.81c0.1,-0.72 0.72,-1.27 1.44,-1.27l113.91 0c0.49,0 0.94,0.25 1.21,0.67 0.26,0.39 0.31,0.91 0.13,1.35l-86.2 205.84c-0.23,0.53 -0.76,0.89 -1.34,0.89z"/>
   <path class="fil2" d="M1479.45 8235.71l52.45 0 -26.96 -202.93 -110.46 0 84.98 202.93zm54.11 2.91l-55.07 0c-0.59,0 -1.12,-0.36 -1.34,-0.89l-86.2 -205.84c-0.19,-0.44 -0.15,-0.97 0.13,-1.35 0.27,-0.42 0.72,-0.67 1.2,-0.67l113.92 0c0.72,0 1.34,0.56 1.44,1.27l27.35 205.81c0.06,0.41 -0.07,0.83 -0.35,1.16 -0.28,0.31 -0.68,0.5 -1.09,0.5z"/>
   <path class="fil2" d="M957.75 7511.4l831.56 0 -350.67 -126.72 -150.33 0 -330.56 126.72zm839.86 2.91l-847.7 0c-0.7,0 -1.3,-0.5 -1.43,-1.19 -0.13,-0.69 0.25,-1.35 0.91,-1.61l338.13 -129.63 0.52 -0.11 150.86 0 0.49 0.11 358.72 129.6c0.67,0.25 1.06,0.91 0.94,1.63 -0.13,0.7 -0.72,1.19 -1.43,1.19z"/>
   <path class="fil2" d="M1006.96 7122.52l733.16 0 -301.52 -126.69 -150.26 0 -281.39 126.69zm740.37 2.91l-747.13 0c-0.69,0 -1.28,-0.47 -1.42,-1.13 -0.15,-0.67 0.19,-1.36 0.82,-1.64l287.83 -129.63 0.6 -0.11 150.86 0 0.56 0.11 308.43 129.61c0.63,0.28 1,0.97 0.86,1.64 -0.14,0.69 -0.73,1.16 -1.42,1.16z"/>
   <path class="fil2" d="M1086.73 6733.68l573.63 0 -241.6 -91.46 -104.29 0 -227.74 91.46zm581.57 2.91l-589.08 0c-0.7,0 -1.3,-0.5 -1.43,-1.19 -0.13,-0.69 0.24,-1.36 0.88,-1.63l234.97 -94.35 0.54 -0.11 104.83 0 0.51 0.11 249.28 94.35c0.66,0.24 1.04,0.94 0.91,1.63 -0.13,0.67 -0.73,1.19 -1.43,1.19z"/>
   <path class="fil2" d="M1316.09 6639.31l100.96 0 -53.5 -173.79 -47.46 173.79zm102.94 2.91l-104.83 0c-0.45,0 -0.89,-0.19 -1.16,-0.56 -0.28,-0.35 -0.37,-0.83 -0.25,-1.28l49.28 -180.46c0.16,-0.61 0.73,-1.05 1.37,-1.05 0.7,0 1.22,0.39 1.41,1.02l55.56 180.43c0.14,0.45 0.06,0.94 -0.22,1.31 -0.27,0.35 -0.71,0.57 -1.17,0.57z"/>
   <path class="fil2" d="M1291.95 6736.58l71.52 61.44 71.52 -61.44 -143.03 0zm0 126.7l143.03 0 -71.52 -61.44 -71.52 61.44zm146.94 2.91l-150.86 0c-0.61,0 -1.15,-0.39 -1.36,-0.94 -0.21,-0.58 -0.04,-1.22 0.41,-1.6l74.15 -63.71 -74.15 -63.71c-0.46,-0.39 -0.62,-1.06 -0.41,-1.61 0.22,-0.58 0.76,-0.94 1.36,-0.94l150.86 0c0.61,0 1.15,0.36 1.37,0.94 0.21,0.56 0.04,1.22 -0.42,1.61l-74.15 63.71 74.15 63.71c0.46,0.39 0.63,1.02 0.42,1.6 -0.22,0.56 -0.76,0.94 -1.37,0.94z"/>
   <path class="fil2" d="M1291.95 6866.19l71.52 61.44 71.52 -61.44 -143.03 0zm0 126.73l143.03 0 -71.52 -61.44 -71.52 61.44zm146.94 2.91l-150.86 0c-0.61,0 -1.15,-0.39 -1.36,-0.97 -0.21,-0.56 -0.04,-1.19 0.41,-1.61l74.15 -63.71 -74.15 -63.71c-0.46,-0.39 -0.62,-1.02 -0.41,-1.61 0.22,-0.55 0.76,-0.94 1.36,-0.94l150.86 0c0.61,0 1.15,0.39 1.37,0.94 0.21,0.58 0.04,1.22 -0.42,1.61l-74.15 63.71 74.15 63.71c0.46,0.41 0.63,1.05 0.42,1.61 -0.22,0.58 -0.76,0.97 -1.37,0.97z"/>
   <path class="fil2" d="M1291.95 6995.83l71.52 61.44 71.52 -61.44 -143.03 0zm0 126.69l143.03 0 -71.52 -61.43 -71.52 61.43zm146.94 2.91l-150.86 0c-0.61,0 -1.15,-0.36 -1.36,-0.94 -0.21,-0.58 -0.04,-1.22 0.41,-1.61l74.15 -63.71 -74.15 -63.71c-0.46,-0.39 -0.62,-1.02 -0.41,-1.6 0.22,-0.58 0.76,-0.94 1.36,-0.94l150.86 0c0.61,0 1.15,0.36 1.37,0.94 0.21,0.58 0.04,1.22 -0.42,1.6l-74.15 63.71 74.15 63.71c0.46,0.39 0.63,1.03 0.42,1.61 -0.22,0.58 -0.76,0.94 -1.37,0.94z"/>
   <path class="fil2" d="M1291.95 7125.43l71.52 61.44 71.52 -61.44 -143.03 0zm0 126.72l143.03 0 -71.52 -61.44 -71.52 61.44zm146.94 2.91l-150.86 0c-0.61,0 -1.15,-0.39 -1.36,-0.94 -0.21,-0.58 -0.04,-1.22 0.41,-1.61l74.15 -63.71 -74.15 -63.74c-0.46,-0.39 -0.62,-1.02 -0.41,-1.57 0.22,-0.58 0.76,-0.98 1.36,-0.98l150.86 0c0.61,0 1.15,0.39 1.37,0.98 0.21,0.56 0.04,1.19 -0.42,1.57l-74.15 63.74 74.15 63.71c0.46,0.39 0.63,1.03 0.42,1.61 -0.22,0.56 -0.76,0.94 -1.37,0.94z"/>
   <path class="fil2" d="M1291.95 7255.07l71.52 61.44 71.52 -61.44 -143.03 0zm0 126.7l143.03 0 -71.52 -61.44 -71.52 61.44zm146.94 2.91l-150.86 0c-0.61,0 -1.15,-0.36 -1.36,-0.94 -0.21,-0.55 -0.04,-1.22 0.41,-1.6l74.15 -63.71 -74.15 -63.71c-0.46,-0.39 -0.62,-1.03 -0.41,-1.61 0.22,-0.56 0.76,-0.94 1.36,-0.94l150.86 0c0.61,0 1.15,0.39 1.37,0.94 0.21,0.58 0.04,1.22 -0.42,1.61l-74.15 63.71 74.15 63.71c0.46,0.39 0.63,1.06 0.42,1.6 -0.22,0.58 -0.76,0.94 -1.37,0.94z"/>
   <path class="fil2" d="M1292.3 7514.31l71.12 54.81 71.22 -54.81 -142.33 0zm-17.56 126.72l177.23 0 -88.55 -68.24 -88.68 68.24zm181.49 2.89l-185.75 0c-0.62,0 -1.17,-0.39 -1.38,-0.97 -0.2,-0.58 -0,-1.25 0.49,-1.63l91.45 -70.36 -73.88 -56.95c-0.49,-0.38 -0.69,-1.02 -0.49,-1.61 0.2,-0.61 0.76,-1 1.37,-1l150.86 0c0.62,0 1.17,0.39 1.37,1 0.2,0.58 0,1.22 -0.48,1.61l-74 56.95 91.32 70.36c0.48,0.39 0.69,1.05 0.48,1.63 -0.2,0.58 -0.76,0.97 -1.37,0.97z"/>
   <path class="fil2" d="M1275.43 7643.91l87.76 56.15 88.05 -56.15 -175.81 0zm-17.56 126.72l210.29 0 -104.98 -67.15 -105.31 67.15zm215.25 2.91l-220.23 0c-0.64,0 -1.21,-0.41 -1.39,-1.05 -0.18,-0.61 0.07,-1.27 0.61,-1.64l108.38 -69.08 -90.81 -58.08c-0.54,-0.33 -0.8,-1 -0.61,-1.63 0.17,-0.61 0.75,-1.03 1.39,-1.03l185.75 0c0.65,0 1.21,0.42 1.39,1.03 0.18,0.63 -0.07,1.3 -0.61,1.63l-91.11 58.08 108.02 69.08c0.55,0.37 0.8,1.03 0.61,1.64 -0.17,0.63 -0.74,1.05 -1.39,1.05z"/>
   <path class="fil2" d="M1258.6 7773.54l104.44 56.9 104.38 -56.9 -208.83 0zm-17.57 126.73l244.13 0 -122.11 -66.54 -122.02 66.54zm249.83 2.91l-255.54 0c-0.66,0 -1.24,-0.48 -1.41,-1.11 -0.17,-0.64 0.13,-1.3 0.71,-1.64l125.39 -68.33 -107.81 -58.72c-0.58,-0.33 -0.88,-1 -0.71,-1.63 0.17,-0.64 0.74,-1.11 1.41,-1.11l220.23 0c0.67,0 1.25,0.44 1.41,1.11 0.17,0.64 -0.12,1.3 -0.7,1.63l-107.74 58.72 125.47 68.33c0.59,0.33 0.88,1 0.72,1.64 -0.17,0.63 -0.75,1.11 -1.41,1.11z"/>
   <path class="fil2" d="M1241.76 7903.19l121.46 57.86 121.24 -57.86 -242.7 0zm-16.04 126.69l275.24 0 -137.74 -65.62 -137.5 65.62zm281.67 2.91l-288.07 0c-0.68,0 -1.27,-0.47 -1.42,-1.14 -0.15,-0.63 0.18,-1.33 0.79,-1.63l141.16 -67.37 -125.14 -59.64c-0.61,-0.28 -0.93,-0.96 -0.79,-1.61 0.15,-0.67 0.74,-1.13 1.42,-1.13l255.54 0c0.68,0 1.27,0.47 1.43,1.13 0.15,0.64 -0.19,1.33 -0.8,1.61l-124.9 59.64 141.41 67.37c0.62,0.3 0.94,0.97 0.79,1.63 -0.15,0.67 -0.73,1.14 -1.41,1.14z"/>
   <path class="fil2" d="M1190.03 7125.43c-0.36,0 -0.71,-0.14 -0.97,-0.36l-62.89 -57.17 1.96 -2.16 61.71 56.09 97.04 -128.33 2.32 1.74 -98 129.61c-0.24,0.33 -0.62,0.56 -1.02,0.58l-0.14 0z"/>
   <path class="fil2" d="M1558.49 7125.43c-0.39,0 -0.78,-0.14 -1.06,-0.47l-119.6 -129.6 2.13 -1.97 118.67 128.61 63.03 -51.56 1.84 2.25 -64.09 52.41c-0.26,0.22 -0.59,0.33 -0.92,0.33z"/>
   <polygon class="fil2" points="1288.98,7513.94 1287.09,7511.76 1437.95,7382.13 1439.84,7384.34 "/>
   <path class="fil2" d="M1685.96 7515.16l-109.86 -80.57 -136.47 79.53c-0.53,0.3 -1.2,0.25 -1.67,-0.17l-150.87 -129.6 1.89 -2.22 150.08 128.94 136.39 -79.47c0.5,-0.31 1.12,-0.28 1.59,0.08l110.63 81.16 -1.72 2.32z"/>
   <path class="fil2" d="M1100.7 7514.94l-2.24 -1.85 70.8 -85.68c0.27,-0.33 0.67,-0.53 1.1,-0.53 0.46,0 0.83,0.17 1.11,0.5l73.53 84.51 -2.19 1.92 -72.4 -83.24 -69.7 84.37z"/>
   <path class="fil2" d="M1288.04 6736.58l-0.67 -0.16 -91.33 -47.17 1.34 -2.6 89.74 46.37 25.67 -92.63c0.13,-0.47 0.48,-0.83 0.94,-1 0.45,-0.13 0.95,-0.08 1.33,0.22l124.04 93.85 108.56 -45.12 1.12 2.69 -109.33 45.43c-0.47,0.22 -1.02,0.13 -1.43,-0.17l-123 -93.07 -25.59 92.3c-0.11,0.42 -0.41,0.78 -0.81,0.94l-0.58 0.13z"/>
   <path class="fil2" d="M1288.88 6736.31l-1.69 -2.38 130.99 -94.35c0.4,-0.27 0.91,-0.33 1.37,-0.16 0.46,0.16 0.8,0.58 0.89,1.05l19.88 94.34 -2.84 0.61 -19.41 -92.18 -129.18 93.07z"/>
   <path class="fil2" d="M1342.06 6552l23.48 26.39 22.56 -26.39 -46.04 0zm75.87 89.75l-52.35 -58.92 -50.29 58.89 -2.21 -1.88 50.55 -59.2 -25.89 -29.14c-0.37,-0.41 -0.47,-1.03 -0.23,-1.55 0.23,-0.53 0.75,-0.86 1.32,-0.86l52.42 0c0.57,0 1.08,0.33 1.31,0.86 0.24,0.49 0.15,1.11 -0.21,1.52l-24.87 29.14 52.62 59.19 -2.17 1.94z"/>
   <path class="fil3" d="M2184.6 6929.85l265.54 0 0 -1390.6 -265.54 0 0 1390.6zm268.15 5.24l-270.76 0c-1.44,0 -2.6,-1.19 -2.6,-2.63l0 -1395.81c0,-1.44 1.17,-2.6 2.6,-2.6l270.76 0c1.44,0 2.6,1.17 2.6,2.6l0 1395.81c0,1.44 -1.16,2.63 -2.6,2.63z"/>
   <path class="fil3" d="M2061.62 7860.41l509.78 0 -120.94 -925.33 -266.19 0 -122.65 925.33zm512.75 5.21l-515.73 0c-0.75,0 -1.46,-0.33 -1.96,-0.89 -0.49,-0.58 -0.72,-1.33 -0.63,-2.08l123.35 -930.54c0.17,-1.3 1.28,-2.27 2.58,-2.27l270.76 0c1.31,0 2.41,0.97 2.58,2.27l121.62 930.54c0.09,0.75 -0.14,1.5 -0.63,2.08 -0.5,0.56 -1.2,0.89 -1.95,0.89z"/>
   <path class="fil3" d="M2012.53 8229.79l94.13 0 152.52 -364.17 -198.25 0 -48.4 364.17zm95.86 5.2l-98.84 0c-0.75,0 -1.46,-0.3 -1.95,-0.89 -0.5,-0.55 -0.72,-1.3 -0.63,-2.05l49.09 -369.41c0.17,-1.3 1.28,-2.24 2.59,-2.24l204.45 0c0.87,0 1.69,0.42 2.17,1.17 0.48,0.72 0.57,1.63 0.23,2.43l-154.7 369.4c-0.41,0.97 -1.35,1.58 -2.4,1.58z"/>
   <path class="fil3" d="M2525.53 8229.79l94.13 0 -48.4 -364.17 -198.25 0 152.52 364.17zm97.1 5.2l-98.83 0c-1.05,0 -2,-0.61 -2.4,-1.58l-154.71 -369.4c-0.33,-0.8 -0.24,-1.72 0.23,-2.43 0.49,-0.75 1.3,-1.17 2.18,-1.17l204.45 0c1.3,0 2.41,0.95 2.58,2.24l49.09 369.41c0.1,0.75 -0.13,1.5 -0.63,2.05 -0.49,0.58 -1.2,0.89 -1.96,0.89z"/>
   <path class="fil3" d="M1589.23 6929.85l1492.43 0 -629.37 -227.41 -269.81 0 -593.24 227.41zm1507.31 5.24l-1521.39 0c-1.25,0 -2.33,-0.92 -2.56,-2.13 -0.23,-1.25 0.45,-2.47 1.63,-2.91l606.84 -232.65c0.3,-0.11 0.61,-0.17 0.93,-0.17l270.76 0c0.3,0 0.6,0.05 0.88,0.13l643.79 232.65c1.19,0.44 1.91,1.67 1.69,2.91 -0.22,1.24 -1.3,2.16 -2.57,2.16z"/>
   <path class="fil3" d="M1677.53 6231.95l1315.82 0 -541.13 -227.44 -269.67 0 -505.02 227.44zm1328.76 5.21l-1340.89 0c-1.23,0 -2.29,-0.86 -2.55,-2.08 -0.26,-1.19 0.36,-2.41 1.48,-2.91l516.59 -232.65c0.33,-0.14 0.7,-0.22 1.07,-0.22l270.76 0c0.34,0 0.69,0.08 1.01,0.19l553.53 232.65c1.16,0.48 1.8,1.69 1.55,2.91 -0.25,1.22 -1.3,2.11 -2.55,2.11z"/>
   <path class="fil3" d="M1820.71 5534.04l1029.5 0 -433.6 -164.13 -187.17 0 -408.72 164.13zm1043.76 5.21l-1057.25 0c-1.24,0 -2.31,-0.88 -2.56,-2.11 -0.24,-1.22 0.43,-2.45 1.58,-2.91l421.71 -169.33c0.31,-0.13 0.64,-0.19 0.97,-0.19l188.15 0c0.32,0 0.63,0.05 0.93,0.17l447.38 169.33c1.19,0.44 1.85,1.67 1.63,2.9 -0.22,1.24 -1.3,2.14 -2.55,2.14z"/>
   <path class="fil3" d="M2232.35 5364.7l181.21 0 -96.03 -311.92 -85.18 311.92zm184.74 5.21l-188.15 0c-0.81,0 -1.58,-0.38 -2.07,-1.02 -0.49,-0.65 -0.65,-1.48 -0.44,-2.27l88.44 -323.87c0.31,-1.11 1.31,-1.9 2.48,-1.91 1.26,0 2.19,0.72 2.53,1.83l99.71 323.87c0.25,0.79 0.09,1.65 -0.39,2.31 -0.49,0.66 -1.27,1.06 -2.09,1.06z"/>
   <path class="fil3" d="M2189.02 5539.25l128.35 110.28 128.35 -110.28 -256.69 0zm0 227.43l256.69 0 -128.35 -110.28 -128.35 110.28zm263.72 5.21l-270.76 0c-1.09,0 -2.07,-0.68 -2.44,-1.7 -0.37,-1.03 -0.08,-2.18 0.75,-2.89l133.07 -114.34 -133.07 -114.35c-0.83,-0.71 -1.12,-1.86 -0.75,-2.88 0.38,-1.02 1.35,-1.7 2.44,-1.7l270.76 0c1.09,0 2.06,0.68 2.44,1.7 0.37,1.02 0.08,2.17 -0.75,2.88l-133.07 114.35 133.07 114.34c0.83,0.71 1.12,1.86 0.75,2.89 -0.39,1.02 -1.35,1.7 -2.44,1.7z"/>
   <path class="fil3" d="M2189.02 5771.89l128.35 110.28 128.35 -110.28 -256.69 0zm0 227.42l256.69 0 -128.35 -110.28 -128.35 110.28zm263.72 5.21l-270.76 0c-1.09,0 -2.07,-0.67 -2.44,-1.69 -0.37,-1.02 -0.08,-2.19 0.75,-2.88l133.07 -114.35 -133.07 -114.34c-0.83,-0.71 -1.12,-1.86 -0.75,-2.88 0.38,-1.02 1.35,-1.7 2.44,-1.7l270.76 0c1.09,0 2.06,0.68 2.44,1.7 0.37,1.02 0.08,2.17 -0.75,2.88l-133.07 114.34 133.07 114.35c0.83,0.7 1.12,1.86 0.75,2.88 -0.39,1.03 -1.35,1.69 -2.44,1.69z"/>
   <path class="fil3" d="M2189.02 6004.52l128.35 110.27 128.35 -110.27 -256.69 0zm0 227.44l256.69 0 -128.35 -110.3 -128.35 110.3zm263.72 5.21l-270.76 0c-1.09,0 -2.07,-0.7 -2.44,-1.72 -0.37,-1.02 -0.08,-2.16 0.75,-2.88l133.07 -114.35 -133.07 -114.31c-0.83,-0.72 -1.12,-1.89 -0.75,-2.91 0.38,-1 1.35,-1.69 2.44,-1.69l270.76 0c1.09,0 2.06,0.69 2.44,1.69 0.37,1.03 0.08,2.19 -0.75,2.91l-133.07 114.31 133.07 114.35c0.83,0.72 1.12,1.86 0.75,2.88 -0.39,1.02 -1.35,1.72 -2.44,1.72z"/>
   <path class="fil3" d="M2189.02 6237.17l128.35 110.27 128.35 -110.27 -256.69 0zm0 227.41l256.69 0 -128.35 -110.27 -128.35 110.27zm263.72 5.21l-270.76 0c-1.09,0 -2.07,-0.67 -2.44,-1.69 -0.37,-1.03 -0.08,-2.17 0.75,-2.89l133.07 -114.34 -133.07 -114.35c-0.83,-0.72 -1.12,-1.86 -0.75,-2.87 0.38,-1.03 1.35,-1.7 2.44,-1.7l270.76 0c1.09,0 2.06,0.67 2.44,1.7 0.37,1.02 0.08,2.16 -0.75,2.87l-133.07 114.35 133.07 114.34c0.83,0.72 1.12,1.86 0.75,2.89 -0.39,1.02 -1.35,1.69 -2.44,1.69z"/>
   <path class="fil3" d="M2189.02 6469.78l128.35 110.3 128.35 -110.3 -256.69 0zm0 227.44l256.69 0 -128.35 -110.28 -128.35 110.28zm263.72 5.2l-270.76 0c-1.09,0 -2.07,-0.69 -2.44,-1.69 -0.37,-1.02 -0.08,-2.19 0.75,-2.91l133.07 -114.32 -133.07 -114.34c-0.83,-0.72 -1.12,-1.86 -0.75,-2.88 0.38,-1.02 1.35,-1.72 2.44,-1.72l270.76 0c1.09,0 2.06,0.7 2.44,1.72 0.37,1.02 0.08,2.16 -0.75,2.88l-133.07 114.34 133.07 114.32c0.83,0.72 1.12,1.89 0.75,2.91 -0.39,1 -1.35,1.69 -2.44,1.69z"/>
   <path class="fil3" d="M2189.64 6935.08l127.63 98.36 127.81 -98.36 -255.44 0zm-31.52 227.41l318.07 0 -158.92 -122.49 -159.15 122.49zm325.72 5.2l-333.38 0c-1.11,0 -2.11,-0.72 -2.46,-1.77 -0.37,-1.06 -0.01,-2.22 0.88,-2.91l164.12 -126.31 -132.59 -102.19c-0.88,-0.69 -1.24,-1.86 -0.88,-2.91 0.36,-1.06 1.35,-1.78 2.47,-1.78l270.76 0c1.11,0 2.11,0.72 2.46,1.78 0.37,1.05 0.01,2.21 -0.87,2.91l-132.8 102.19 163.89 126.31c0.88,0.69 1.24,1.85 0.88,2.91 -0.36,1.05 -1.35,1.77 -2.47,1.77z"/>
   <path class="fil3" d="M2159.37 7167.7l157.51 100.74 158.02 -100.74 -315.53 0zm-31.51 227.41l377.42 0 -188.4 -120.49 -189.02 120.49zm386.32 5.24l-395.26 0c-1.16,0 -2.18,-0.77 -2.5,-1.88 -0.32,-1.11 0.13,-2.3 1.11,-2.93l194.5 -124.02 -162.98 -104.23c-0.98,-0.61 -1.43,-1.8 -1.09,-2.91 0.32,-1.13 1.34,-1.88 2.5,-1.88l333.38 0c1.16,0 2.18,0.75 2.5,1.88 0.32,1.11 -0.13,2.3 -1.1,2.91l-163.52 104.26 193.87 123.99c0.97,0.63 1.41,1.82 1.1,2.93 -0.33,1.11 -1.34,1.88 -2.5,1.88z"/>
   <path class="fil2" d="M2129.16 7400.35l187.46 102.1 187.34 -102.1 -374.8 0zm-31.54 227.41l438.16 0 -219.16 -119.39 -219 119.39zm448.39 5.21l-458.62 0c-1.19,0 -2.22,-0.81 -2.52,-1.97 -0.3,-1.13 0.23,-2.35 1.28,-2.94l225.03 -122.65 -193.49 -105.39c-1.05,-0.56 -1.57,-1.77 -1.28,-2.94 0.3,-1.13 1.34,-1.96 2.53,-1.96l395.26 0c1.19,0 2.23,0.83 2.52,1.96 0.3,1.17 -0.23,2.39 -1.28,2.94l-193.36 105.39 225.19 122.65c1.05,0.59 1.57,1.8 1.28,2.94 -0.3,1.17 -1.33,1.97 -2.53,1.97z"/>
   <path class="fil2" d="M2098.92 7632.98l217.99 103.87 217.6 -103.87 -435.59 0zm-28.78 227.43l493.98 0 -247.21 -117.8 -246.77 117.8zm505.51 5.21l-517.01 0c-1.22,0 -2.27,-0.86 -2.54,-2.05 -0.26,-1.17 0.32,-2.39 1.42,-2.91l253.34 -120.93 -224.58 -107c-1.11,-0.53 -1.69,-1.75 -1.42,-2.94 0.27,-1.19 1.32,-2.02 2.54,-2.02l458.62 0c1.22,0 2.27,0.83 2.54,2.02 0.27,1.19 -0.32,2.41 -1.42,2.94l-224.17 107 253.81 120.93c1.1,0.52 1.69,1.72 1.42,2.91 -0.26,1.19 -1.32,2.05 -2.54,2.05z"/>
   <path class="fil3" d="M2006.11 6237.17c-0.65,0 -1.28,-0.26 -1.76,-0.7l-112.87 -102.59 3.51 -3.85 110.76 100.69 174.17 -230.38 4.16 3.16 -175.89 232.65c-0.44,0.57 -1.11,0.94 -1.83,1l-0.24 0.03z"/>
   <path class="fil3" d="M2667.39 6237.17c-0.71,0 -1.41,-0.28 -1.92,-0.83l-214.64 -232.65 3.83 -3.55 212.98 230.85 113.13 -92.55 3.3 4.05 -115.02 94.09c-0.48,0.39 -1.07,0.58 -1.64,0.58z"/>
   <polygon class="fil3" points="2183.69,6934.44 2180.3,6930.48 2451.05,6697.83 2454.44,6701.79 "/>
   <path class="fil3" d="M2896.15 6936.63l-197.18 -144.65 -244.91 142.74c-0.96,0.55 -2.17,0.44 -3.02,-0.28l-270.75 -232.65 3.39 -3.96 269.35 231.43 244.79 -142.65c0.9,-0.53 2.02,-0.48 2.86,0.13l198.54 145.68 -3.08 4.21z"/>
   <path class="fil3" d="M1845.77 6936.19l-4.01 -3.33 127.06 -153.74c0.48,-0.61 1.2,-0.94 1.98,-0.97 0.81,0 1.5,0.33 2,0.92l131.96 151.68 -3.94 3.41 -129.95 -149.35 -125.1 151.38z"/>
   <path class="fil3" d="M2181.99 5539.25c-0.41,0 -0.82,-0.09 -1.19,-0.29l-163.92 -84.67 2.4 -4.63 161.06 83.2 46.07 -166.24c0.23,-0.83 0.86,-1.5 1.69,-1.77 0.81,-0.28 1.72,-0.13 2.41,0.39l222.62 168.44 194.82 -81 2.01 4.81 -196.2 81.57c-0.85,0.35 -1.83,0.24 -2.57,-0.32l-220.76 -167.03 -45.92 165.65c-0.21,0.75 -0.76,1.37 -1.47,1.69 -0.33,0.14 -0.69,0.21 -1.04,0.21z"/>
   <path class="fil3" d="M2183.51 5538.76l-3.04 -4.23 235.09 -169.33c0.71,-0.52 1.64,-0.63 2.46,-0.31 0.82,0.32 1.43,1.03 1.61,1.89l35.67 169.33 -5.1 1.07 -34.84 -165.42 -231.84 167z"/>
   <path class="fil3" d="M2278.95 5207.98l42.14 47.41 40.48 -47.41 -82.62 0zm136.18 161.07l-93.97 -105.72 -90.25 105.68 -3.96 -3.39 90.72 -106.23 -46.46 -52.28c-0.69,-0.76 -0.85,-1.86 -0.43,-2.8 0.42,-0.94 1.35,-1.54 2.37,-1.54l94.08 0c1.02,0 1.94,0.59 2.37,1.52 0.43,0.92 0.27,2 -0.38,2.78l-44.63 52.25 94.45 106.26 -3.9 3.47z"/>
   <path class="fil4" d="M3853.68 5026.89c-4.98,-19.62 -7.81,-21.49 -7.81,-21.49 0,0 -195.23,10.9 -213.59,11.13 -18.36,0.22 -268.88,-67.45 -268.88,-67.45l-128.8 137.58c0,0 352.44,34.97 398.95,33.5 76.84,-2.44 219.77,-64.78 219.77,-64.78 0,0 4.26,-13.07 0.36,-28.48z"/>
   <path class="fil5" d="M3796 6172.68c0,0 -3.54,78.78 12.27,85.59 15.81,6.81 199.55,-5.93 199.55,-5.93 0,0 -1.3,-22.99 -33.21,-26.34 -31.94,-3.35 -76.18,-24.79 -100.3,-60.25 -33.68,-49.5 -78.31,6.93 -78.31,6.93z"/>
   <path class="fil6" d="M3492.5 5483.76c0,0 256.74,221.02 289.79,292.33 33.02,71.32 134.98,392.79 134.98,392.79 0,0 -28.11,16.93 -85.43,20.08 -25.34,1.41 -43.59,-9.03 -43.59,-9.03 0,0 -148.7,-291.66 -161.71,-319.78 -12.99,-28.13 -343.56,-137.78 -434.35,-303.94l300.31 -72.45z"/>
   <polygon class="fil7" points="3826.06,8233.69 3977.41,8233.69 3977.41,4172.01 3826.06,4172.01 "/>
   <polygon class="fil7" points="2901.03,4382.41 4881.58,4382.41 4881.58,4282.56 2901.03,4282.56 "/>
   <polygon class="fil7" points="2975.71,4282.56 3008.37,4282.56 3008.37,4061.46 2975.71,4061.46 "/>
   <path class="fil7" d="M2903.74 4106.57c0,-11.19 40.06,-20.26 89.5,-20.26 49.42,0 89.5,9.07 89.5,20.26 0,11.19 -40.08,20.26 -89.5,20.26 -49.44,0 -89.5,-9.07 -89.5,-20.26z"/>
   <path class="fil7" d="M2903.74 4066.05c0,-11.19 40.06,-20.26 89.5,-20.26 49.42,0 89.5,9.07 89.5,20.26 0,11.19 -40.08,20.26 -89.5,20.26 -49.44,0 -89.5,-9.07 -89.5,-20.26z"/>
   <path class="fil7" d="M2903.74 4025.53c0,-11.19 40.06,-20.27 89.5,-20.27 49.42,0 89.5,9.07 89.5,20.27 0,11.19 -40.08,20.26 -89.5,20.26 -49.44,0 -89.5,-9.07 -89.5,-20.26z"/>
   <path class="fil7" d="M2903.74 3985c0,-11.19 40.06,-20.26 89.5,-20.26 49.42,0 89.5,9.07 89.5,20.26 0,11.19 -40.08,20.26 -89.5,20.26 -49.44,0 -89.5,-9.07 -89.5,-20.26z"/>
   <polygon class="fil7" points="2937.73,4113.76 3046.34,4113.76 3046.34,3975.87 2937.73,3975.87 "/>
   <polygon class="fil7" points="3873.78,4282.56 3906.44,4282.56 3906.44,4061.46 3873.78,4061.46 "/>
   <path class="fil7" d="M3801.82 4106.57c0,-11.19 40.06,-20.26 89.49,-20.26 49.42,0 89.47,9.07 89.47,20.26 0,11.19 -40.06,20.26 -89.47,20.26 -49.44,0 -89.49,-9.07 -89.49,-20.26z"/>
   <path class="fil7" d="M3801.82 4066.05c0,-11.19 40.06,-20.26 89.49,-20.26 49.42,0 89.47,9.07 89.47,20.26 0,11.19 -40.06,20.26 -89.47,20.26 -49.44,0 -89.49,-9.07 -89.49,-20.26z"/>
   <path class="fil7" d="M3801.82 4025.53c0,-11.19 40.06,-20.27 89.49,-20.27 49.42,0 89.47,9.07 89.47,20.27 0,11.19 -40.06,20.26 -89.47,20.26 -49.44,0 -89.49,-9.07 -89.49,-20.26z"/>
   <path class="fil7" d="M3801.82 3985c0,-11.19 40.06,-20.26 89.49,-20.26 49.42,0 89.47,9.07 89.47,20.26 0,11.19 -40.06,20.26 -89.47,20.26 -49.44,0 -89.49,-9.07 -89.49,-20.26z"/>
   <polygon class="fil7" points="3835.81,4113.76 3944.39,4113.76 3944.39,3975.87 3835.81,3975.87 "/>
   <polygon class="fil7" points="4774.55,4282.56 4807.2,4282.56 4807.2,4061.46 4774.55,4061.46 "/>
   <path class="fil7" d="M4702.59 4106.57c0,-11.19 40.05,-20.26 89.49,-20.26 49.42,0 89.5,9.07 89.5,20.26 0,11.19 -40.08,20.26 -89.5,20.26 -49.44,0 -89.49,-9.07 -89.49,-20.26z"/>
   <path class="fil7" d="M4702.59 4066.05c0,-11.19 40.05,-20.26 89.49,-20.26 49.42,0 89.5,9.07 89.5,20.26 0,11.19 -40.08,20.26 -89.5,20.26 -49.44,0 -89.49,-9.07 -89.49,-20.26z"/>
   <path class="fil7" d="M4702.59 4025.53c0,-11.19 40.05,-20.27 89.49,-20.27 49.42,0 89.5,9.07 89.5,20.27 0,11.19 -40.08,20.26 -89.5,20.26 -49.44,0 -89.49,-9.07 -89.49,-20.26z"/>
   <path class="fil7" d="M4702.59 3985c0,-11.19 40.05,-20.26 89.49,-20.26 49.42,0 89.5,9.07 89.5,20.26 0,11.19 -40.08,20.26 -89.5,20.26 -49.44,0 -89.49,-9.07 -89.49,-20.26z"/>
   <polygon class="fil7" points="4736.6,4113.76 4845.19,4113.76 4845.19,3975.87 4736.6,3975.87 "/>
   <polygon class="fil7" points="3901.82,4828.17 3340.74,4359.91 3361.43,4335.31 3901.65,4786.15 4450.6,4320.27 4471.51,4344.7 "/>
   <polygon class="fil8" points="3700.47,5090.66 4105.27,5090.66 4105.27,4594.79 3700.47,4594.79 "/>
   <path class="fil9" d="M3513.06 5466.59l-19.64 12.5 -14.96 -20.8 12.24 -14.54c2.05,-2.37 5.13,-3.61 8.23,-3.27l10.52 1.14c4.24,0.44 7.45,4.03 7.45,8.3l0 9.64c0,1.2 -0.22,2.38 -0.75,3.41 -0.61,1.48 -1.69,2.72 -3.1,3.62zm1.66 -30.62c-1.44,-0.62 -2.93,-1.04 -4.54,-1.2l-10.47 -1.14c-5.43,-0.58 -10.75,1.55 -14.3,5.72l-15.68 18.59 21.86 30.49 25.21 -16.02c3.9,-2.51 6.42,-6.54 6.89,-11.09 0.11,-0.58 0.14,-1.17 0.14,-1.76l0 -9.64c0,-6.2 -3.69,-11.61 -9.11,-13.95z"/>
   <path class="fil10" d="M3977.41 5287.07l0 36.72c0,0 -385.57,120.59 -453.72,137.54 -3.24,0.79 -5.76,1.38 -7.5,1.69l-0.03 -0.04c0.53,-1.03 0.75,-2.2 0.75,-3.41l0 -9.64c0,-4.27 -3.21,-7.86 -7.45,-8.3l-10.52 -1.14c0,0 5.68,-1.61 15.79,-4.51 72.91,-21.01 377.57,-109.57 462.69,-148.9z"/>
   <path class="fil5" d="M3680.58 6234.78c0,0 -16.59,77.12 -2.1,86.45 14.46,9.33 197.77,27.01 197.77,27.01 0,0 2.55,-22.88 -28.39,-31.46 -30.91,-8.56 -70.99,-36.98 -88.92,-75.93 -25.01,-54.35 -78.36,-6.07 -78.36,-6.07z"/>
   <path class="fil11" d="M3244.01 4895.35c0,0 87.22,98.07 152.93,85.71 0,0 -17.95,-20.94 -37.98,-39.66 -5.98,-5.59 -4.18,-18.79 -2.02,-26.67 1.22,-4.43 2.33,-8.62 3.32,-12.56 6.46,-25.74 8.37,-40.6 8.37,-40.6l-44.26 -45.16 -30.06 -30.65c-1.27,14.82 -2.8,28.61 -7.72,40.19 -18.67,44.09 -42.57,69.39 -42.57,69.39z"/>
   <path class="fil12" d="M3286.58 4825.95c0,0 16.54,56.69 73.68,76.21 6.46,-25.74 8.37,-40.6 8.37,-40.6l-44.26 -45.16c-24.6,2.99 -37.78,9.55 -37.78,9.55z"/>
   <path class="fil11" d="M3388.18 4862.37c0,0 -106.7,4.86 -108.69,-61.37 -2.02,-66.24 -17.15,-110.22 50.88,-116.12 68.03,-5.91 82.05,18.97 88.11,40.92 6.07,21.94 -2.6,133.61 -30.31,136.58z"/>
   <path class="fil13" d="M3467.88 5236.1c-0.42,-6.57 -0.72,-13.21 -0.97,-19.98 -1.14,-34.39 -5.32,-68.96 -12.05,-101.25 -5.18,-25.09 -11.91,-48.78 -19.94,-69.89 -11.83,-31.07 -25.76,-52.72 -43.35,-72.48l-28.83 -29.37c-68.75,7.12 -118.72,-47.78 -118.72,-47.78 0,0 -164.29,141.92 -121.44,447.24 0,0 4.13,22.06 11.39,53.83 1.58,6.89 3.3,14.24 5.18,21.94 12.63,52.29 333.98,-94.77 328.74,-182.26z"/>
   <path class="fil14" d="M3220.05 4702.55c-1.22,-0.97 -3.65,-1.49 -8.78,-0.87 0,0 3.6,-3.29 9,-4.39 -0.22,-7.33 1.3,-20.65 12.91,-25.88 0,0 -5.9,4.69 -5.4,12.43 11.47,-17.12 39.75,-33.11 124.48,-41.24 111.69,-10.7 88.11,67.05 75.37,78.08 -12.74,11.02 -52.77,-5.93 -78.95,0.91 -26.2,6.83 -24.31,46.56 -32.38,53.48 -8.06,6.92 -6.2,-3.13 -19.39,-6.54 -13.19,-3.41 -10.69,17.23 -4.79,29.89 5.9,12.67 -7.72,33.15 -7.72,33.15 0,0 0,0 -20.22,-15.44 -20.22,-15.44 -50.11,-90.74 -45.4,-108.76 0.44,-1.59 0.83,-3.2 1.28,-4.83z"/>
   <path class="fil4" d="M3183.82 5161.67c0,0 46.09,155.09 98.33,180.24 52.21,25.14 49.19,-107.67 49.19,-107.67l-147.52 -72.57z"/>
   <path class="fil6" d="M3528.57 5536.61c-82.85,-36.74 -55.46,-213.02 -60.69,-300.51 -0.42,-6.57 -0.72,-13.21 -0.97,-19.98 -1.14,-34.39 -5.32,-68.96 -12.05,-101.25 -5.18,-25.09 -11.91,-48.78 -19.94,-69.89l-114.54 18.61c-21.97,3.57 -37.81,22.87 -37.01,45.04 2.08,56.95 -3.13,162.62 -63.35,216.52 -43.38,38.83 -70.19,59.93 -86.06,71.26 1.58,6.89 3.3,14.24 5.18,21.94 12.63,52.29 26.73,118.82 56.79,156.89 23.19,29.35 341.48,-34.72 332.65,-38.64z"/>
   <path class="fil8" d="M3232.76 4906.49c0,0 31.6,11.84 72.93,66.36 35.07,46.27 48.03,90.68 48.03,90.68l-19 4.22c0,0 -28.17,-96.81 -113.43,-148.24 0,0 0.22,-1.87 11.47,-13.02z"/>
   <path class="fil11" d="M3730.5 4986.24c0,0 19.72,-44.91 24.98,-51.04 5.24,-6.14 33.07,-27.31 35.12,-26.26 2.05,1.06 2.85,9.21 -2.16,13.96 -3.55,3.35 -7.68,6.42 -5.51,6.76 2.16,0.34 12.02,-15.2 19.8,-10.09 7.78,5.11 26.2,27.83 14.37,45.67 -11.8,17.83 -56.87,36.79 -59.28,39.49 -20.36,22.93 -27.33,-18.48 -27.33,-18.48z"/>
   <path class="fil13" d="M3730.5 4986.24c0,0 -206.03,182.11 -225.53,184.26 -31.08,3.43 -204.78,-154.58 -204.78,-154.58 0,0 -23.02,-39.41 -73.96,-20.07 -44.26,16.8 -63.55,69.93 -63.55,69.93 0,0 -14.99,52.38 11.02,83.67 57.61,69.34 277.61,139.09 343.2,130.73 84.62,-10.78 241.41,-241.11 241.41,-241.11 0,0 9.47,-20.63 -0.48,-34.34 -8.75,-12.09 -27.33,-18.48 -27.33,-18.48z"/>
   <path class="fil6" d="M3780.44 6243.45c0,0 -30.56,12.07 -87.59,5.76 -25.2,-2.8 -41.5,-16.09 -41.5,-16.09 0,0 -8.89,-28.23 -21.55,-68.53 -1.94,-6.24 -3.96,-12.72 -6.12,-19.47 -2.77,-8.81 -5.63,-18.06 -8.61,-27.5 -2,-6.43 -4.04,-12.94 -6.06,-19.5 -27.7,-88.42 -59.56,-190.52 -64.04,-206.99 -8.17,-29.91 -315.97,-192.48 -377.93,-371.31l307.05 -61.69c0,0 217.69,299.98 238.44,375.76 11.06,40.43 29.67,154.41 44.6,251.85 1,6.45 1.97,12.8 2.91,19.06 1.44,9.53 2.83,18.83 4.21,27.79 0.97,6.56 1.91,12.88 2.85,19.03 7.95,53.6 13.35,91.85 13.35,91.85z"/>
   <path class="fil10" d="M3474.08 5458.13c0,0 -118.16,93.02 -290.26,109.08 0,0 14.79,38.87 45.78,57.32 0,0 184.7,-27.87 262.9,-140.77l-18.42 -25.63z"/>
   <path class="fil15" d="M3876.25 6356.85c-0.38,0 -0.75,0 -1.13,-0.05l-247.94 -32.47c-4.74,-0.61 -8.06,-4.93 -7.45,-9.63 0.63,-4.74 4.96,-8.06 9.7,-7.43l246.02 32.19 99.33 -31.85c4.51,-1.46 9.39,1.03 10.86,5.57 1.47,4.51 -1.03,9.36 -5.57,10.83l-101.19 32.43c-0.86,0.28 -1.74,0.41 -2.63,0.41z"/>
   <path class="fil16" d="M3760.02 6104.78c-39.83,11.36 -80.19,13.96 -110.05,13.96 -14.51,0 -26.59,-0.64 -34.9,-1.13 -2,-6.43 -4.04,-12.94 -6.06,-19.5 0.72,0.06 1.55,0.08 2.52,0.16 21.33,1.39 84.81,5.43 145.59,-12.55 1,6.45 1.97,12.8 2.91,19.06z"/>
   <path class="fil16" d="M3767.09 6151.6c-39.5,11.16 -79.47,13.71 -109.11,13.71 -10.99,0 -20.53,-0.36 -28.17,-0.72 -1.94,-6.24 -3.96,-12.72 -6.12,-19.47 24.49,1.46 83.6,4.1 140.55,-12.55 0.97,6.56 1.91,12.88 2.85,19.03z"/>
   <polygon class="fil17" points="3793.46,5090.66 4105.27,5090.66 4105.27,4594.79 3793.46,4594.79 "/>
   <polygon class="fil3" points="6448.11,8250.04 6535.17,8250.04 6535.17,5904.45 6448.11,5904.45 "/>
   <polygon class="fil3" points="5915.92,6025.95 7055.29,6025.95 7055.29,5968.29 5915.92,5968.29 "/>
   <polygon class="fil3" points="5958.92,5968.29 5977.7,5968.29 5977.7,5840.61 5958.92,5840.61 "/>
   <path class="fil3" d="M5917.51 5866.66c0,-6.46 23,-11.7 51.44,-11.7 28.43,0 51.49,5.24 51.49,11.7 0,6.46 -23.06,11.7 -51.49,11.7 -28.44,0 -51.44,-5.24 -51.44,-11.7z"/>
   <path class="fil3" d="M5917.51 5843.26c0,-6.46 23,-11.7 51.44,-11.7 28.43,0 51.49,5.24 51.49,11.7 0,6.46 -23.06,11.7 -51.49,11.7 -28.44,0 -51.44,-5.24 -51.44,-11.7z"/>
   <path class="fil3" d="M5917.51 5819.85c0,-6.46 23,-11.7 51.44,-11.7 28.43,0 51.49,5.24 51.49,11.7 0,6.46 -23.06,11.7 -51.49,11.7 -28.44,0 -51.44,-5.24 -51.44,-11.7z"/>
   <path class="fil3" d="M5917.51 5796.45c0,-6.46 23,-11.7 51.44,-11.7 28.43,0 51.49,5.24 51.49,11.7 0,6.46 -23.06,11.7 -51.49,11.7 -28.44,0 -51.44,-5.23 -51.44,-11.7z"/>
   <polygon class="fil3" points="5937.05,5870.81 5999.52,5870.81 5999.52,5791.18 5937.05,5791.18 "/>
   <polygon class="fil3" points="6475.58,5968.29 6494.36,5968.29 6494.36,5840.61 6475.58,5840.61 "/>
   <path class="fil3" d="M6434.11 5866.66c0,-6.46 23.06,-11.7 51.49,-11.7 28.43,0 51.49,5.24 51.49,11.7 0,6.46 -23.06,11.7 -51.49,11.7 -28.44,0 -51.49,-5.24 -51.49,-11.7z"/>
   <path class="fil3" d="M6434.11 5843.26c0,-6.46 23.06,-11.7 51.49,-11.7 28.43,0 51.49,5.24 51.49,11.7 0,6.46 -23.06,11.7 -51.49,11.7 -28.44,0 -51.49,-5.24 -51.49,-11.7z"/>
   <path class="fil3" d="M6434.11 5819.85c0,-6.46 23.06,-11.7 51.49,-11.7 28.43,0 51.49,5.24 51.49,11.7 0,6.46 -23.06,11.7 -51.49,11.7 -28.44,0 -51.49,-5.24 -51.49,-11.7z"/>
   <path class="fil3" d="M6434.11 5796.45c0,-6.46 23.06,-11.7 51.49,-11.7 28.43,0 51.49,5.24 51.49,11.7 0,6.46 -23.06,11.7 -51.49,11.7 -28.44,0 -51.49,-5.23 -51.49,-11.7z"/>
   <polygon class="fil3" points="6453.71,5870.81 6516.18,5870.81 6516.18,5791.18 6453.71,5791.18 "/>
   <polygon class="fil3" points="6993.77,5968.29 7012.55,5968.29 7012.55,5840.61 6993.77,5840.61 "/>
   <path class="fil3" d="M6952.36 5866.66c0,-6.46 23.06,-11.7 51.43,-11.7 28.44,0 51.49,5.24 51.49,11.7 0,6.46 -23.06,11.7 -51.49,11.7 -28.38,0 -51.43,-5.24 -51.43,-11.7z"/>
   <path class="fil3" d="M6952.36 5843.26c0,-6.46 23.06,-11.7 51.43,-11.7 28.44,0 51.49,5.24 51.49,11.7 0,6.46 -23.06,11.7 -51.49,11.7 -28.38,0 -51.43,-5.24 -51.43,-11.7z"/>
   <path class="fil3" d="M6952.36 5819.85c0,-6.46 23.06,-11.7 51.43,-11.7 28.44,0 51.49,5.24 51.49,11.7 0,6.46 -23.06,11.7 -51.49,11.7 -28.38,0 -51.43,-5.24 -51.43,-11.7z"/>
   <path class="fil3" d="M6952.36 5796.45c0,-6.46 23.06,-11.7 51.43,-11.7 28.44,0 51.49,5.24 51.49,11.7 0,6.46 -23.06,11.7 -51.49,11.7 -28.38,0 -51.43,-5.23 -51.43,-11.7z"/>
   <polygon class="fil3" points="6971.91,5870.81 7034.37,5870.81 7034.37,5791.18 6971.91,5791.18 "/>
   <polygon class="fil3" points="6491.67,6283.37 6168.9,6012.96 6180.8,5998.75 6491.55,6259.1 6807.41,5990.06 6819.36,6004.19 "/>
   <polygon class="fil18" points="3441.48,8229.23 4121.72,8229.23 4121.72,6585.04 3441.48,6585.04 "/>
   <polygon class="fil7" points="3863.01,8229.23 4121.72,8229.23 4121.72,6585.04 3863.01,6585.04 "/>
   <polygon class="fil7" points="3661.33,6886.28 3799.05,6886.28 3799.05,6641.83 3661.33,6641.83 "/>
   <polygon class="fil19" points="3626.45,6886.28 3764.18,6886.28 3764.18,6641.83 3626.45,6641.83 "/>
   <path class="fil20" d="M3487.35 7196.98l-0.83 -3.35c0.41,-0.11 43.35,-11.91 50.05,-82.37 5.57,-58.47 15.07,-89.03 31.74,-102.16 7.5,-5.9 16.68,-8.12 27.28,-6.62 13.3,1.91 25.13,13.99 38.81,27.95 24.57,25.1 55.12,56.34 109.16,41.72 82.91,-22.44 117.5,-111.27 117.83,-112.16l3.24 1.22c-0.35,0.92 -35.59,91.39 -120.16,114.26 -56,15.15 -87.36,-16.87 -112.54,-42.6 -13.26,-13.54 -24.7,-25.24 -36.83,-26.95 -9.76,-1.42 -17.81,0.53 -24.63,5.9 -15.68,12.33 -25.07,43.1 -30.47,99.78 -3.63,38.06 -17.64,59.19 -28.78,70.24 -12.16,12.11 -23.41,15.04 -23.88,15.15z"/>
   <polygon class="fil20" points="3863.01,7248.94 3659.59,7248.94 3659.59,6886.28 3663.05,6886.28 3663.05,7245.48 3863.01,7245.48 "/>
   <polygon class="fil20" points="3863.01,7209.56 3693.6,7209.56 3693.6,6886.28 3697.06,6886.28 3697.06,7206.09 3863.01,7206.09 "/>
   <polygon class="fil20" points="3863.01,7164.19 3740.55,7164.19 3740.55,6886.28 3744.01,6886.28 3744.01,7160.72 3863.01,7160.72 "/>
   <polygon class="fil20" points="3863.01,7823.19 3560.75,7823.19 3560.75,7451.32 3863.01,7451.32 3863.01,7454.75 3564.21,7454.75 3564.21,7819.72 3863.01,7819.72 "/>
   <polygon class="fil20" points="3863.01,7781.66 3608.48,7781.66 3608.48,7482.45 3863.01,7482.45 3863.01,7485.89 3611.94,7485.89 3611.94,7778.2 3863.01,7778.2 "/>
   <polygon class="fil20" points="3863.01,7726.93 3659.59,7726.93 3659.59,7529.13 3863.01,7529.13 3863.01,7532.59 3663.05,7532.59 3663.05,7723.46 3863.01,7723.46 "/>
   <polygon class="fil7" points="3533.14,8137.69 3863.01,8137.69 3863.01,7933.32 3533.14,7933.32 "/>
   <polygon class="fil19" points="3583.24,7933.32 3579.78,7933.32 3579.78,7868.14 3863.01,7868.14 3863.01,7871.6 3583.24,7871.6 "/>
   <polygon class="fil19" points="3657.59,7933.32 3654.13,7933.32 3654.13,7899.86 3863.01,7899.86 3863.01,7903.32 3657.59,7903.32 "/>
   <path class="fil18" d="M3711.6 6663.65c0,2.99 -2.41,5.41 -5.4,5.41 -3,0 -5.4,-2.41 -5.4,-5.41 0,-2.99 2.41,-5.41 5.4,-5.41 2.99,0 5.4,2.41 5.4,5.41z"/>
   <path class="fil10" d="M3731.71 6663.65c0,2.99 -2.44,5.41 -5.4,5.41 -3,0 -5.43,-2.41 -5.43,-5.41 0,-2.99 2.44,-5.41 5.43,-5.41 2.96,0 5.4,2.41 5.4,5.41z"/>
   <path class="fil16" d="M3749.86 6663.65c0,2.99 -2.41,5.41 -5.4,5.41 -2.99,0 -5.4,-2.41 -5.4,-5.41 0,-2.99 2.41,-5.41 5.4,-5.41 2.99,0 5.4,2.41 5.4,5.41z"/>
   <polygon class="fil7" points="3648.95,6734.65 3755.26,6734.65 3755.26,6676.43 3648.95,6676.43 "/>
   <path class="fil11" d="M3586.46 6740.02c0,0 18.51,-38.45 33.52,-50.39 15.01,-11.94 55.12,-9.03 56.68,-5.99 4.76,9.48 -32.19,24.21 -36.45,32.88 -4.26,8.67 13.43,7.81 -0.14,22.88 -11.49,12.74 -38.97,24.9 -38.97,24.9l-14.63 -24.29z"/>
   <path class="fil21" d="M3602.44 6735.65c-9.72,-15.15 -12.63,-15.93 -12.63,-15.93 0,0 -160.96,64.24 -176.34,69.58 -15.37,5.37 -245.03,18.86 -245.03,18.86l-69.31 152.43c0,0 306.06,-69.83 344.72,-84.21 63.87,-23.71 166.34,-116.62 166.34,-116.62 0,0 -0.11,-12.21 -7.76,-24.12z"/>
   <path class="fil22" d="M3202.57 8160.7c0,0 3.5,56.53 13.99,69.83l161.46 0c-1.02,-5.65 -5.6,-19.56 -25.79,-23.07 -25.51,-4.46 -68.19,-22.38 -83.65,-56.12 -16.26,-35.48 -66.02,9.36 -66.02,9.36z"/>
   <path class="fil22" d="M2915.55 8137.46c0,0 -10.17,85.73 3.65,87 1.86,0.17 66.51,0.06 84.09,2.69 28.72,4.3 76.62,0.56 76.62,0.56 6.01,0.25 9.91,-6.26 6.87,-11.44 -3.35,-5.65 -9.75,-11.72 -21.93,-14.07 -25.43,-4.9 -67.78,-23.57 -82.66,-57.59 -15.62,-35.76 -66.64,-7.15 -66.64,-7.15z"/>
   <path class="fil6" d="M3278.46 7408.38c0,0 -40.58,142.1 -156.94,388.9 -38.08,80.86 -63.57,146.26 -80.64,197.75 -2.21,6.64 -4.26,13.04 -6.17,19.2 -3.1,9.91 -5.87,19.22 -8.34,27.91 -1.85,6.68 -3.54,13.02 -5.12,19 -15.24,59.39 -14.93,86.4 -14.93,86.4 0,0 -26.43,9.97 -57.98,6.81 -16.09,-1.63 -51.35,-16.7 -51.35,-16.7 0,0 3.8,-39.81 11.47,-96.06 0.89,-6.18 1.77,-12.54 2.72,-19.11 1.24,-8.78 2.57,-17.87 4.02,-27.17 0.97,-6.26 1.96,-12.63 2.99,-19.03 13.52,-83.79 33.57,-181.1 60.33,-241.79 54.98,-124.54 66.2,-465.38 66.2,-465.38l233.76 139.27z"/>
   <path class="fil6" d="M3343.39 7335.86c-1.28,79.89 -7.34,247.39 -34.57,440.51 -13.13,93.33 -20.22,168.11 -23.85,226.03 -0.41,6.81 -0.8,13.38 -1.1,19.7 -0.56,10.22 -0.97,19.83 -1.33,28.81 -0.22,6.81 -0.44,13.3 -0.58,19.45 -1.52,62.32 1.69,90.96 1.69,90.96 0,0 -2.3,1.42 -7.12,3.22l-0.03 0c-8.2,3.07 -23.57,7.23 -46.76,7.23 -10.39,0 -19.37,-1.39 -26.54,-3.15 -12.52,-3.05 -19.69,-7.24 -19.69,-7.24 0,0 -6.12,-35.98 -13.05,-88.2 -0.88,-6.26 -1.72,-12.71 -2.57,-19.41 -1.13,-8.87 -2.24,-18.07 -3.38,-27.57 -0.72,-6.37 -1.5,-12.8 -2.21,-19.36 -9.2,-82.96 -16.32,-181.49 -8.65,-248.05 1.22,-10.64 1.8,-22.41 1.83,-35.2l0 -0.03c0.08,-59.94 -12.16,-140.63 -26.87,-215.87 0,0 -0.03,-0.22 -0.14,-0.63 -15.15,-77.42 -32.85,-148.91 -42.41,-185.95 -4.32,-16.76 -7.01,-26.45 -7.01,-26.45l8.06 -0.28 0.03 0 63.63 -2.05 173.54 -5.62 10.7 -0.33 8.64 -0.28c0,0 0.28,17.89 -0.25,49.77z"/>
   <path class="fil11" d="M3163.79 6771.04l42.99 31.85 62.13 -13.07c-0.85,-5.69 -4.96,-29.17 -8.69,-50.44 -0.22,-1.27 -0.45,-2.52 -0.67,-3.74 -3.19,-18.12 -5.96,-33.68 -5.96,-33.68l-58.03 -28.93 -21.63 -10.8c0.06,0.39 1.67,20.12 1.92,22.99 4.04,51.11 -12.05,85.81 -12.05,85.81z"/>
   <path class="fil23" d="M3264.56 6754.98c-1.36,-0.58 -84.51,-25.12 -93.54,-22.13 -9.03,2.96 -14.37,20.47 -14.37,20.47l128.39 36.59c0,0 -3.07,-27.62 -20.47,-34.93z"/>
   <path class="fil21" d="M3040.64 7313.23c14.07,64.35 307.96,-137.53 304.06,-176.78 -0.44,-4.32 -0.86,-8.67 -1.3,-12.99 -5.43,-54.65 -10.63,-108.15 -10.97,-143.04 -0.3,-30.3 -4.46,-61.24 -10.02,-89.39 -5.1,-25.96 -11.39,-49.53 -16.84,-67.89 -3.85,-12.91 -11.03,-24.3 -20.53,-33.24 -6.76,-6.37 -14.69,-11.47 -23.46,-14.96 -2.35,-1 -4.79,-1.83 -7.28,-2.55 -35.4,-10.28 -84.37,-22.99 -97.64,-19.11 -35.98,10.61 -62.69,73.93 -81.61,154.68 -35.4,151.15 -43.6,363.36 -34.4,405.27z"/>
   <path class="fil24" d="M3180.19 6686.12c12.75,24.41 60.23,45.51 80.03,53.26 -0.22,-1.27 -0.45,-2.52 -0.67,-3.74 -3.19,-18.12 -5.96,-33.68 -5.96,-33.68l-58.03 -28.93c-12.82,-0.19 -20.64,3.06 -15.37,13.08z"/>
   <path class="fil11" d="M3281.79 6698.58c0,0 -104.7,32.68 -124.04,-32.88 -19.33,-65.54 -45.87,-105.48 20.17,-129.11 66.04,-23.63 86.45,-2.47 98.22,17.84 11.77,20.3 32.41,133.95 5.65,144.15z"/>
   <path class="fil22" d="M3272.04 6548.12c0,0 -6.67,76.29 -22.43,72.96 -15.76,-3.3 -30.09,-5.76 -27.76,17.22 2.3,22.99 3.05,50.64 -45.54,54.71 -48.61,4.07 -97.34,-122.41 -83.99,-146.14 38.53,-68.47 235.39,-82.3 179.71,1.24z"/>
   <path class="fil23" d="M3335.83 7286.06c-29.11,10.52 0.5,-28.92 0,-37.15 -2.27,-36.18 11.91,-81.91 7.56,-125.45l-177.75 -106.29c0,0 -42.19,267.19 170.19,268.88z"/>
   <path class="fil6" d="M3040.64 7313.23c75.89,140.72 87.97,194.45 87.97,194.45 66.04,-7.53 179.22,-137.44 215.12,-172.12 0,0 4.87,-159.86 0.97,-199.11l-54.87 -1.57c0,0 -99.13,25.12 -124.87,-9.01 -25.68,-34.12 -14.57,-201.59 -14.57,-201.59l-75.35 -16.31c-35.4,151.15 -54.76,367.52 -34.4,405.27z"/>
   <path class="fil11" d="M3490.89 7043.61c0,0 36.13,-24.46 43,-26.59 6.84,-2.14 29.3,-4.44 30.35,-2.67 1.03,1.78 4.1,7.21 0.2,9.03 -3.94,1.83 -8.81,1.19 -7.34,2.46 1.47,1.3 16.23,-5.73 19.64,1.8 3.41,7.54 6.4,33.33 -10.94,41.17 -17.31,7.81 -60.08,0.75 -63.16,1.67 -26.17,7.58 -11.75,-26.87 -11.75,-26.87z"/>
   <path class="fil21" d="M3491.22 7036.98c0,0 -176.28,30 -191.9,22.39 -24.93,-12.13 9.67,-191.11 9.67,-191.11 0,0 1.5,-40.55 -45.87,-50.14 -41.13,-8.31 -80.86,22.52 -80.86,22.52 0,0 -36.09,32.33 -31.49,68.19 10.25,79.48 26.15,241.1 79.27,265.86 68.53,31.96 266.81,-88.61 266.81,-88.61 0,0 6.62,-8.09 5.68,-23.1 -0.83,-13.24 -11.3,-26.01 -11.3,-26.01z"/>
   <path class="fil8" d="M3135.79 6921.12l14.6 3.16c0,0 30.88,-133.74 134.65,-134.37 -6.76,-6.37 -14.69,-11.47 -23.46,-14.96 -38,10.22 -104.04,42.71 -125.78,146.17z"/>
   <path class="fil11" d="M3643.69 6734.65l17.65 -22.77c0,0 -4.41,-5.62 -13.41,1.08 -5.23,3.91 -19.3,12.97 -19.3,12.97l15.07 8.72z"/>
   <path class="fil25" d="M3034.43 8014.23c-38.87,0 -75.76,-7.29 -103.04,-14.41 -5.87,-1.5 -11.33,-3.07 -16.2,-4.52 0.97,-6.26 1.96,-12.63 2.99,-19.03 26.45,7.98 70.06,18.83 116.18,18.83 2.19,0 4.34,-0.02 6.53,-0.08 -2.21,6.64 -4.26,13.04 -6.17,19.2l0 0c-0.08,0 -0.19,0 -0.28,0z"/>
   <path class="fil25" d="M3021.25 8061.15c-35.43,-1.02 -68.72,-7.7 -93.88,-14.2 -6.98,-1.86 -13.29,-3.69 -18.91,-5.35 0.89,-6.18 1.77,-12.54 2.72,-19.11 25.37,7.76 68.8,19.08 115.2,19.66 -1.85,6.68 -3.54,13.02 -5.12,19l0 0z"/>
   <path class="fil16" d="M3284.97 8002.4c-0.41,6.81 -0.8,13.38 -1.1,19.7 -35.95,6.76 -71.02,7.01 -97.65,5.65 -8.08,-0.42 -15.4,-0.97 -21.71,-1.56 -0.72,-6.37 -1.5,-12.8 -2.21,-19.36 26.42,2.57 74.31,5.45 122.67,-4.44z"/>
   <path class="fil16" d="M3282.54 8050.9c-0.22,6.81 -0.44,13.3 -0.58,19.45 -33.21,5.43 -65.31,5.59 -90.05,4.31 -8,-0.41 -15.18,-0.94 -21.44,-1.5 -0.88,-6.26 -1.72,-12.71 -2.57,-19.41 24.93,2.41 69.06,5.12 114.65,-2.86z"/>
   <polygon class="fil7" points="5178.6,8205.52 5296.91,8204.05 5573.19,7052.83 5454.87,7054.3 "/>
   <path class="fil7" d="M4983.19 8231.14l530.47 0c0,-31.05 -25.15,-56.2 -56.2,-56.2l-418.07 0c-31.05,0 -56.2,25.15 -56.2,56.2z"/>
   <polygon class="fil9" points="6208.61,7698.12 6157.63,7442.67 6157.57,7442.15 5987.98,6592.05 4339.89,6592.27 4560.52,7698.37 4873.55,7698.31 4876.51,7698.31 5226.85,7698.26 5227.91,7698.26 5576.72,7698.2 5579.11,7698.2 5927.2,7698.18 5930.31,7698.18 "/>
   <polygon class="fil8" points="6236.82,7676.27 4588.74,7676.49 4368.11,6592.27 6016.19,6592.05 "/>
   <polygon class="fil2" points="4904.93,7676.46 4901.77,7676.46 4681.75,6595.15 4684.91,6595.15 "/>
   <polygon class="fil2" points="5256.13,7676.41 5252.97,7676.41 5032.96,6595.09 5036.11,6595.09 "/>
   <polygon class="fil2" points="5607.33,7676.35 5604.2,7676.35 5384.16,6595.04 5387.31,6595.04 "/>
   <polygon class="fil2" points="5958.58,7676.29 5955.41,7676.29 5735.34,6594.99 5738.51,6594.99 "/>
   <polygon class="fil2" points="6068.58,6849.35 4420.46,6849.57 4419.86,6846.61 6067.96,6846.39 "/>
   <polygon class="fil2" points="6127.21,7137.59 4479.13,7137.84 4478.52,7134.88 6126.64,7134.66 "/>
   <polygon class="fil2" points="6185.89,7425.86 4537.77,7426.08 4537.17,7423.12 6185.27,7422.9 "/>
   <polygon class="fil2" points="4741.28,6879.93 4700.87,6848.07 4728.32,6816.19 4768.73,6848.05 "/>
   <polygon class="fil2" points="4800.22,7169.67 4759.81,7137.79 4787.26,7105.93 4827.68,7137.79 "/>
   <polygon class="fil2" points="5094.06,6879.87 5053.65,6848.02 5081.1,6816.14 5121.51,6848 "/>
   <polygon class="fil2" points="5153.01,7169.61 5112.59,7137.76 5140.04,7105.88 5180.46,7137.73 "/>
   <polygon class="fil2" points="5445.27,6879.82 5404.85,6847.96 5432.3,6816.08 5472.71,6847.94 "/>
   <polygon class="fil2" points="5793.29,6879.8 5752.9,6847.91 5780.37,6816.03 5820.76,6847.91 "/>
   <polygon class="fil2" points="4858.59,7456.44 4818.18,7424.56 4845.63,7392.71 4886.04,7424.56 "/>
   <polygon class="fil2" points="5211.37,7456.39 5170.96,7424.53 5198.41,7392.65 5238.82,7424.5 "/>
   <polygon class="fil2" points="5562.57,7456.33 5522.16,7424.48 5549.61,7392.59 5590.03,7424.45 "/>
   <polygon class="fil2" points="5910.6,7456.3 5870.21,7424.42 5897.63,7392.54 5938.07,7424.42 "/>
   <polygon class="fil2" points="5852.31,7169.53 5811.87,7137.65 5839.34,7105.76 5879.73,7137.65 "/>
   <polygon class="fil2" points="5504.24,7169.56 5463.83,7137.71 5491.25,7105.82 5531.66,7137.71 "/>
   <polygon class="fil18" points="5712.62,7011.45 5693.14,7016.32 5667.22,6913.09 5686.68,6908.19 "/>
   <path class="fil18" d="M5683.73 6874.7l0.06 0.08c0.96,7.98 -1.36,16.54 -8.89,19.36 -10.03,3.77 -16.85,-2.79 -19.4,-12.91l-0.66 -2.63c-0.85,-3.54 -9.06,-0.63 -10.25,2.8 -2.13,6.18 -2.19,13.19 0.41,19.94 4.76,12.35 17.65,19.97 30.8,18.17 17.39,-2.39 28.44,-19.2 24.24,-35.76 -1.13,-4.63 -3.34,-8.7 -6.34,-12.05 -2.83,-3.24 -10.54,-1.3 -9.97,2.99z"/>
   <path class="fil18" d="M5693.65 7051.94l0 -0.11c-0.96,-7.95 1.3,-16.54 8.84,-19.34 10.08,-3.77 16.88,2.77 19.43,12.88l0.68 2.63c0.85,3.54 9.07,0.66 10.26,-2.8 2.09,-6.18 2.21,-13.16 -0.4,-19.94 -4.76,-12.35 -17.67,-19.97 -30.81,-18.17 -17.39,2.39 -28.44,19.2 -24.3,35.76 1.19,4.63 3.4,8.72 6.34,12.05 2.89,3.27 10.54,1.33 9.97,-2.96z"/>
   <path class="fil11" d="M5647.3 6649.08c0,0 -19.75,-40.97 -35.73,-53.68 -16.02,-12.74 -58.76,-9.64 -60.39,-6.37 -5.1,10.08 34.3,25.76 38.84,35.02 4.54,9.25 -14.35,8.31 0.16,24.38 12.22,13.57 41.52,26.53 41.52,26.53l15.59 -25.87z"/>
   <path class="fil4" d="M5630.24 6644.4c10.39,-16.15 13.49,-16.98 13.49,-16.98 0,0 171.53,68.41 187.9,74.12 16.37,5.74 261.14,20.11 261.14,20.11l73.86 162.35c0,0 -326.16,-74.37 -367.34,-89.67 -68.09,-25.26 -177.3,-124.23 -177.3,-124.23 0,0 0.11,-13.02 8.25,-25.7z"/>
   <path class="fil11" d="M5604.57 6637.17c-0.2,-0.19 6.31,-8.81 -2.02,-18.7 -6.15,-7.28 -7.53,6.57 -18.03,3.11 -8.7,-2.89 -32.13,-6.37 -16.98,5.85 13.93,11.24 27.7,26.34 32.85,29.85 5.15,3.52 4.18,-20.11 4.18,-20.11z"/>
   <path class="fil22" d="M6056.4 8162.37c0,0 -3.74,60.22 -14.89,74.37l-172.09 0c1.07,-6.01 5.95,-20.83 27.47,-24.6 27.19,-4.71 72.68,-23.82 89.16,-59.75 17.33,-37.81 70.35,9.97 70.35,9.97z"/>
   <path class="fil22" d="M6361.78 8153.97c0,0 11.33,74.96 -3.4,76.31 -1.98,0.17 -70.86,0.06 -89.61,2.85 -30.59,4.57 -81.63,0.58 -81.63,0.58 -6.4,0.28 -10.59,-6.65 -7.37,-12.16 3.57,-6.04 10.37,-12.49 23.4,-14.98 27.07,-5.24 72.22,-25.13 88.08,-61.36 16.65,-38.08 70.52,8.75 70.52,8.75z"/>
   <path class="fil21" d="M6361.78 8153.97c0,0 -15.92,6.07 -41.24,8.2 -16.99,1.44 -30.36,-0.69 -37.78,-2.39 -4.13,-1 -6.4,-1.82 -6.4,-1.82 0,0 -2.94,-36.57 -26.51,-113.71 -1.76,-5.84 -3.63,-11.91 -5.72,-18.22 -2.66,-8.28 -5.5,-16.93 -8.61,-25.98 -2.04,-5.93 -4.13,-12.03 -6.4,-18.28 -19.54,-55.09 -47.3,-123.68 -86.33,-206.47 -12.91,-27.43 -24.98,-53.6 -36.2,-78.53 -96.41,-214.31 -131.08,-335.8 -131.08,-335.8l4.19 -2.49 170.96 -101.8 28.72 -17.09 0.06 0 45.2 -26.95c0,0 0.62,19.33 2.38,50.69 0,0.44 0,0.89 0.06,1.35 5.67,105.23 23.22,342.04 68.09,443.69 27.3,61.8 43.61,162.82 53.24,253 0.68,6.35 1.3,12.69 1.93,18.89 0.96,9.45 1.81,18.67 2.61,27.7 0.57,6.37 1.08,12.69 1.59,18.87 5.83,72.85 7.25,127.13 7.25,127.13z"/>
   <path class="fil21" d="M6188.05 7239.85c0,0 -2.83,10.34 -7.48,28.2 -10.2,39.56 -29.17,116.03 -45.37,198.71 -15.63,80.17 -28.72,166.17 -28.61,229.99 0.06,13.57 0.62,26.15 1.93,37.44 7.87,68.06 -0.91,168.25 -12.41,255.04 -0.85,6.4 -1.76,12.77 -2.6,19.06 -1.36,9.53 -2.67,18.86 -4.08,27.89 -0.96,6.46 -1.87,12.77 -2.83,18.89 -10.14,64.79 -19.48,111.13 -19.48,111.13 0,0 -4.02,0.91 -11.16,2.05 -10.14,1.72 -26.57,3.9 -46.39,4.79 -11.5,0.5 -24.07,-3.57 -31.95,-6.7 -4.65,-1.85 -7.65,-3.38 -7.65,-3.38 0,0 4.02,-35.23 1.36,-112.41 -0.06,-3.02 -0.23,-6.1 -0.34,-9.22l-0.4 -9.64c-0.4,-8.5 -0.8,-17.42 -1.36,-26.78 -0.34,-6.12 -0.74,-12.41 -1.13,-18.93 -4.02,-60.58 -11.5,-137.72 -24.93,-233 -29,-205.72 -35.52,-384.17 -36.87,-469.24 -0.51,-33.98 -0.23,-53.04 -0.23,-53.04l9.18 0.3 11.44 0.36 184.89 5.99 67.81 2.21 0.06 0 8.61 0.27z"/>
   <path class="fil11" d="M6097.76 6682.13l-45.83 33.94 -66.22 -13.96c0.91,-6.04 5.27,-31.05 9.24,-53.71 0.28,-1.35 0.51,-2.69 0.74,-3.98 3.4,-19.31 6.34,-35.87 6.34,-35.87l61.86 -30.83 23.06 -11.46c-0.06,0.39 -1.81,21.38 -2.04,24.46 -4.31,54.43 12.86,91.43 12.86,91.43z"/>
   <path class="fil4" d="M5990.35 6665.01c1.42,-0.63 90.01,-26.78 99.7,-23.6 9.63,3.19 15.3,21.8 15.3,21.8l-136.8 38.98c0,0 3.28,-29.39 21.81,-37.18z"/>
   <path class="fil18" d="M6228.94 7259.63c-14.95,68.53 -328.2,-146.47 -324.01,-188.3 0.45,-4.6 0.91,-9.22 1.42,-13.82 5.72,-58.23 11.33,-115.21 11.67,-152.38 0.28,-32.27 4.76,-65.23 10.7,-95.2 5.44,-27.67 12.12,-52.76 17.96,-72.32 4.02,-13.76 11.72,-25.9 21.87,-35.43 7.14,-6.76 15.63,-12.19 24.98,-15.9 2.49,-1.08 5.1,-1.96 7.76,-2.71 37.72,-10.94 89.9,-24.49 104.06,-20.37 38.35,11.28 66.84,78.76 86.95,164.76 37.73,160.99 46.51,387.05 36.65,431.67z"/>
   <path class="fil24" d="M6080.25 6591.66c-13.59,25.98 -64.18,48.44 -85.31,56.72 0.28,-1.35 0.51,-2.69 0.74,-3.98 3.4,-19.31 6.34,-35.87 6.34,-35.87l61.86 -30.83c13.65,-0.19 21.98,3.27 16.37,13.96z"/>
   <path class="fil11" d="M5971.94 6604.93c0,0 111.59,34.79 132.21,-35.01 20.62,-69.83 48.89,-112.35 -21.47,-137.53 -70.41,-25.18 -92.16,-2.63 -104.68,19.01 -12.58,21.6 -34.56,142.68 -6.06,153.54z"/>
   <path class="fil26" d="M5982.37 6444.66c0,0 7.13,81.25 23.9,77.7 16.82,-3.52 32.06,-6.13 29.63,18.36 -2.49,24.49 -25.77,52.77 26,57.09 51.78,4.34 126.2,-129.19 111.99,-154.48 -41.01,-72.96 -250.83,-87.67 -191.52,1.33z"/>
   <path class="fil4" d="M5914.39 7230.72c31.04,11.19 -0.51,-30.83 0,-39.59 2.38,-38.53 -12.69,-87.25 -8.04,-133.62l189.42 -113.24c0,0 44.92,284.64 -181.38,286.44z"/>
   <path class="fil21" d="M6228.94 7259.63c-80.83,149.89 -93.75,207.14 -93.75,207.14 -70.35,-8.03 -190.95,-146.42 -229.24,-183.34 0,0 -5.21,-170.27 -1.02,-212.1l58.46 -1.69c0,0 105.7,26.78 133.11,-9.56 27.36,-36.34 15.46,-214.76 15.46,-214.76l80.32 -17.37c37.73,160.99 58.4,391.45 36.65,431.67z"/>
   <path class="fil11" d="M5749.1 6972.45c0,0 -38.46,-26.04 -45.77,-28.31 -7.31,-2.27 -31.27,-4.74 -32.35,-2.85 -1.13,1.88 -4.4,7.65 -0.22,9.61 4.19,1.96 9.4,1.27 7.81,2.63 -1.53,1.38 -17.28,-6.13 -20.91,1.91 -3.63,8.03 -6.84,35.51 11.62,43.85 18.47,8.34 64.07,0.81 67.35,1.78 27.87,8.09 12.46,-28.61 12.46,-28.61z"/>
   <path class="fil18" d="M5748.76 6965.39c0,0 187.89,31.96 204.54,23.85 26.57,-12.94 -10.37,-203.56 -10.37,-203.56 0,0 -1.53,-43.21 48.94,-53.4 43.84,-8.84 86.16,24.01 86.16,24.01 0,0 38.46,34.43 33.53,72.6 -10.87,84.65 -27.81,256.83 -84.46,283.23 -73.02,34.04 -284.36,-94.4 -284.36,-94.4 0,0 -7.03,-8.61 -6,-24.62 0.85,-14.1 12.01,-27.7 12.01,-27.7z"/>
   <path class="fil21" d="M6127.61 6841.96l-15.63 3.37c0,0 -32.85,-142.46 -143.43,-143.15 7.14,-6.76 15.63,-12.19 24.98,-15.9 40.5,10.86 110.85,45.48 134.08,155.67z"/>
   <path class="fil16" d="M6096.11 7989.24c-0.85,6.4 -1.76,12.77 -2.6,19.06 -37.95,5.35 -74.94,3.13 -102.42,-0.19 -8.21,-1.02 -15.58,-2.16 -21.86,-3.18 -0.34,-6.12 -0.74,-12.41 -1.13,-18.93 26.39,4.6 77.04,11.47 128.02,3.24z"/>
   <path class="fil16" d="M5970.59 8031.7l0.4 9.64 0.34 9.22c6.34,1.02 13.71,2.13 22.04,3.16 25.2,3.08 58.57,5.24 93.24,1.35 0.96,-6.12 1.87,-12.43 2.83,-18.89 -47.64,6.12 -93.92,-0.17 -118.84,-4.49z"/>
   <path class="fil27" d="M6235.52 8000.05l0 0c-2.04,-5.93 -4.13,-12.03 -6.4,-18.28 26.96,-0.8 74.04,-4.24 119.3,-20.39 0.68,6.35 1.3,12.69 1.93,18.89 -35.35,11.97 -71.03,16.79 -98.05,18.81 -6.06,0.47 -11.67,0.72 -16.77,0.97z"/>
   <path class="fil27" d="M6249.85 8044.25l0 0c-1.76,-5.84 -3.63,-11.91 -5.72,-18.22 26.06,-1.03 67.75,-4.52 108.81,-18.07 0.57,6.37 1.08,12.69 1.59,18.87 -33.08,10.35 -65.93,14.7 -91.2,16.56 -4.76,0.39 -9.29,0.63 -13.48,0.85z"/>
   <path class="fil11" d="M1759.17 7325.48c0,0 14.69,-22.35 25.02,-28.53 10.33,-6.18 35.01,-1.06 35.71,1 2.18,6.26 -22,12.35 -25.37,17.4 -3.37,5.04 7.71,5.95 -1.99,14.2 -8.19,6.98 -26.28,12.25 -26.28,12.25l-7.09 -16.31z"/>
   <path class="fil4" d="M1769.47 7324.09c-4.8,-10.22 -6.54,-10.97 -6.54,-10.97 0,0 -105.39,26.59 -115.38,28.67 -10,2.05 -153.88,-8.59 -153.88,-8.59l-55.7 88.97c0,0 196.04,-18.04 221.26,-23.77 41.67,-9.44 113.06,-58.7 113.06,-58.7 0,0 0.94,-7.59 -2.82,-15.62z"/>
   <path class="fil11" d="M1785.01 7321.88c0.13,-0.11 5.88,-5.41 11.52,-10.52 4.16,-3.8 7.11,-9 8.89,-10.44 4.21,-3.38 6.19,5.79 -0.76,16.12 -5.87,8.73 -15.5,15.24 -18.77,16.9 -3.27,1.64 -0.89,-12.05 -0.89,-12.05z"/>
   <polygon class="fil7" points="2059.44,8218.37 2129.06,8217.49 2291.64,7540.04 2222.02,7540.9 "/>
   <path class="fil7" d="M1944.43 8233.44l312.19 0c0,-18.25 -14.81,-33.07 -33.07,-33.07l-246.04 0c-18.27,0 -33.07,14.82 -33.07,33.07z"/>
   <polygon class="fil9" points="2665.59,7919.78 2635.6,7769.45 2635.54,7769.11 2535.75,7268.86 1565.86,7269 1695.7,7919.91 1879.92,7919.88 1881.65,7919.88 2087.83,7919.85 2088.46,7919.85 2293.73,7919.83 2295.14,7919.83 2499.96,7919.8 2501.82,7919.8 "/>
   <polygon class="fil8" points="2682.2,7906.89 1712.31,7907.03 1582.48,7269 2552.36,7268.86 "/>
   <polygon class="fil2" points="1898.39,7907 1896.54,7907 1767.05,7270.69 1768.91,7270.69 "/>
   <polygon class="fil2" points="2105.07,7906.98 2103.22,7906.98 1973.73,7270.66 1975.59,7270.66 "/>
   <polygon class="fil2" points="2311.75,7906.95 2309.9,7906.95 2180.41,7270.63 2182.26,7270.63 "/>
   <polygon class="fil2" points="2518.43,7906.92 2516.57,7906.92 2387.09,7270.61 2388.95,7270.61 "/>
   <polygon class="fil2" points="2583.17,7420.26 1613.29,7420.41 1612.93,7418.66 2582.82,7418.55 "/>
   <polygon class="fil2" points="2617.69,7589.93 1647.81,7590.07 1647.45,7588.32 2617.34,7588.18 "/>
   <polygon class="fil2" points="2652.21,7759.56 1682.32,7759.7 1681.97,7757.95 2651.85,7757.81 "/>
   <polygon class="fil2" points="1802.08,7438.27 1778.3,7419.52 1794.45,7400.77 1818.23,7419.52 "/>
   <polygon class="fil2" points="1836.78,7608.79 1812.99,7590.04 1829.14,7571.26 1852.93,7590.01 "/>
   <polygon class="fil2" points="2009.69,7438.24 1985.91,7419.49 2002.06,7400.74 2025.84,7419.49 "/>
   <polygon class="fil2" points="2044.39,7608.76 2020.6,7590.01 2036.75,7571.23 2060.54,7589.98 "/>
   <polygon class="fil2" points="2216.37,7438.22 2192.59,7419.46 2208.74,7400.71 2232.52,7419.46 "/>
   <polygon class="fil2" points="2421.19,7438.19 2397.41,7419.43 2413.56,7400.69 2437.34,7419.43 "/>
   <polygon class="fil2" points="1871.12,7777.53 1847.34,7758.78 1863.48,7740.03 1887.27,7758.78 "/>
   <polygon class="fil2" points="2078.72,7777.51 2054.94,7758.76 2071.09,7740 2094.88,7758.76 "/>
   <polygon class="fil2" points="2285.41,7777.48 2261.62,7758.73 2277.77,7739.98 2301.56,7758.73 "/>
   <polygon class="fil2" points="2490.23,7777.45 2466.45,7758.7 2482.6,7739.95 2506.38,7758.7 "/>
   <polygon class="fil2" points="2455.89,7608.68 2432.11,7589.95 2448.26,7571.17 2472.04,7589.93 "/>
   <polygon class="fil2" points="2251.07,7608.74 2227.28,7589.95 2243.43,7571.2 2267.21,7589.95 "/>
   <polygon class="fil18" points="1710.46,7515.66 1721.92,7518.54 1737.18,7457.77 1725.72,7454.92 "/>
   <path class="fil18" d="M1727.44 7435.2l-0 0.06c-0.57,4.68 0.78,9.72 5.21,11.38 5.93,2.22 9.93,-1.63 11.43,-7.59l0.39 -1.55c0.5,-2.08 5.33,-0.39 6.03,1.63 1.26,3.66 1.3,7.76 -0.24,11.75 -2.8,7.28 -10.39,11.74 -18.12,10.69 -10.24,-1.38 -16.73,-11.3 -14.28,-21.02 0.68,-2.74 1.98,-5.15 3.72,-7.12 1.68,-1.92 6.21,-0.75 5.86,1.77z"/>
   <path class="fil18" d="M1721.63 7539.52l0 -0.06c0.57,-4.71 -0.79,-9.75 -5.22,-11.41 -5.92,-2.21 -9.93,1.64 -11.43,7.59l-0.39 1.55c-0.51,2.1 -5.33,0.39 -6.03,-1.63 -1.26,-3.65 -1.3,-7.76 0.24,-11.74 2.8,-7.28 10.4,-11.74 18.12,-10.69 10.24,1.39 16.73,11.3 14.28,21.06 -0.69,2.71 -1.99,5.12 -3.72,7.09 -1.68,1.91 -6.2,0.78 -5.86,-1.74z"/>
   <path class="fil22" d="M1508.15 8192.97c0,0 2.2,35.43 8.78,43.77l101.26 0c-0.64,-3.55 -3.5,-12.24 -16.17,-14.46 -16,-2.8 -42.79,-14.04 -52.47,-35.18 -10.2,-22.24 -41.4,5.87 -41.4,5.87z"/>
   <path class="fil22" d="M1328.45 8188.02c0,0 -6.68,44.13 1.99,44.93 1.16,0.11 41.72,0.03 52.74,1.69 18.01,2.69 48.05,0.33 48.05,0.33 3.76,0.17 6.23,-3.9 4.31,-7.15 -2.1,-3.57 -6.11,-7.37 -13.76,-8.83 -15.94,-3.07 -42.52,-14.79 -51.83,-36.09 -9.81,-22.43 -41.5,5.13 -41.5,5.13z"/>
   <path class="fil21" d="M1555.77 7721.36c0,0 -25.48,89.11 -98.44,243.78 -23.62,50.11 -40.22,91.41 -51.8,124.29 -1.38,3.82 -2.66,7.54 -3.87,11.14 -1.94,5.7 -3.69,11.13 -5.33,16.28 -1.21,3.8 -2.31,7.45 -3.39,11 -12.62,42.38 -14.25,62.55 -14.25,62.55 0,0 -13.03,4.82 -26.44,3.63 -12.7,-1.19 -23.83,-5.98 -23.83,-5.98 0,0 0.72,-28.73 3.77,-68.36 0.28,-3.6 0.56,-7.26 0.87,-11.03 0.41,-5.12 0.9,-10.38 1.38,-15.76 0.35,-3.65 0.72,-7.34 1.07,-11.05 5.6,-54.81 15.31,-118 32.12,-156.03 34.48,-78.09 41.5,-291.76 41.5,-291.76l146.63 87.31z"/>
   <path class="fil21" d="M1574.79 7952.04c-8.78,62.49 -13.24,111.69 -15.35,148.94 -0.24,3.85 -0.41,7.59 -0.59,11.22 -0.28,5.81 -0.48,11.28 -0.69,16.4 -0.1,3.88 -0.21,7.56 -0.28,11.05 -0.76,36.76 1.14,53.69 1.14,53.69 0,0 -12.24,4.62 -27.11,4.62 -18.22,0 -30.08,-2.74 -30.08,-2.74 0,0 -4.43,-21.96 -9.65,-54.07l0 -0.02c-0.59,-3.6 -1.17,-7.31 -1.76,-11.11 -0.79,-5.13 -1.59,-10.42 -2.39,-15.85 -0.55,-3.63 -1.07,-7.31 -1.62,-11.08 -7.5,-53.57 -13.94,-118.81 -8.93,-162.07 9.79,-84.78 -46.78,-290.93 -46.78,-290.93l165.93 -5.37c0,0 2.01,137.94 -21.85,307.32z"/>
   <path class="fil11" d="M1483.83 7321.88l26.96 19.94 38.97 -8.2c-0.54,-3.55 -3.11,-18.28 -5.46,-31.6 -0.14,-0.81 -0.28,-1.58 -0.42,-2.36 -2,-11.36 -3.74,-21.11 -3.74,-21.11l-36.39 -18.14 -13.57 -6.76c0.03,0.25 1.06,12.61 1.19,14.41 2.55,32.04 -7.55,53.82 -7.55,53.82z"/>
   <path class="fil4" d="M1547.04 7311.8c-0.85,-0.36 -53.02,-15.76 -58.68,-13.88 -5.66,1.86 -9.02,12.82 -9.02,12.82l80.52 22.94c0,0 -1.93,-17.31 -12.82,-21.88z"/>
   <path class="fil18" d="M1406.6 7661.72c8.82,40.33 193.14,-86.2 190.69,-110.8 -0.27,-2.72 -0.54,-5.43 -0.81,-8.14 -3.4,-34.26 -6.66,-67.78 -6.89,-89.69 -0.17,-18.98 -2.79,-38.37 -6.28,-56.01 -3.2,-16.28 -7.14,-31.05 -10.56,-42.54 -2.41,-8.11 -6.91,-15.26 -12.88,-20.86 -4.24,-3.99 -9.21,-7.17 -14.7,-9.36 -1.48,-0.63 -3.02,-1.16 -4.57,-1.61 -22.2,-6.43 -52.92,-14.4 -61.24,-11.97 -22.56,6.62 -39.31,46.34 -51.19,96.95 -22.19,94.74 -27.33,227.78 -21.56,254.03z"/>
   <path class="fil24" d="M1494.11 7268.64c7.99,15.29 37.77,28.5 50.19,33.38 -0.14,-0.81 -0.28,-1.58 -0.42,-2.36 -2,-11.36 -3.74,-21.11 -3.74,-21.11l-36.39 -18.14c-8.04,-0.11 -12.94,1.91 -9.64,8.22z"/>
   <path class="fil11" d="M1557.84 7276.43c0,0 -65.67,20.5 -77.79,-20.58 -12.13,-41.11 -28.78,-66.12 12.64,-80.94 41.41,-14.82 54.22,-1.55 61.61,11.16 7.38,12.74 20.31,83.99 3.54,90.36z"/>
   <path class="fil22" d="M1551.72 7182.11c0,0 -4.19,47.83 -14.07,45.76 -9.89,-2.07 -16.8,-3.68 -17.41,10.78 -0.63,15.01 2.68,32.3 -27.8,34.84 -30.47,2.55 -61.79,-77.25 -53.42,-92.15 24.15,-42.93 147.62,-51.58 112.7,0.78z"/>
   <path class="fil4" d="M1591.72 7644.72c-18.26,6.59 0.31,-18.15 0,-23.3 -1.42,-22.68 7.47,-51.35 4.74,-78.63l-111.48 -66.65c0,0 -26.45,167.5 106.74,168.58z"/>
   <path class="fil21" d="M1406.6 7661.72c47.59,88.22 55.17,121.91 55.17,121.91 41.43,-4.73 112.4,-86.17 134.91,-107.89 0,0 3.06,-100.22 0.61,-124.81l-34.41 -1c0,0 -62.19,15.76 -78.31,-5.62 -16.11,-21.41 -9.13,-126.39 -9.13,-126.39l-47.27 -10.22c-22.19,94.74 -34.34,230.38 -21.56,254.03z"/>
   <path class="fil11" d="M1688.98 7492.7c0,0 22.66,-15.31 26.95,-16.64 4.3,-1.33 18.39,-2.77 19.04,-1.67 0.66,1.11 2.59,4.49 0.12,5.65 -2.46,1.13 -5.52,0.75 -4.61,1.55 0.92,0.8 10.18,-3.6 12.31,1.11 2.14,4.74 4.02,20.91 -6.85,25.82 -10.87,4.9 -37.69,0.47 -39.62,1.02 -16.41,4.76 -7.35,-16.85 -7.35,-16.85z"/>
   <path class="fil18" d="M1689.2 7488.57c0,0 -110.57,18.78 -120.37,14.02 -15.64,-7.62 6.07,-119.81 6.07,-119.81 0,0 0.93,-25.4 -28.77,-31.41 -25.8,-5.21 -50.7,14.13 -50.7,14.13 0,0 -22.65,20.24 -19.76,42.74 6.42,49.8 16.39,151.13 49.71,166.67 42.98,20.03 167.34,-55.56 167.34,-55.56 0,0 4.13,-5.07 3.55,-14.49 -0.52,-8.28 -7.07,-16.28 -7.07,-16.28z"/>
   <path class="fil10" d="M1466.26 7415.91l9.17 2c0,0 19.36,-83.82 84.43,-84.24 -4.24,-3.99 -9.21,-7.17 -14.7,-9.36 -23.84,6.4 -65.25,26.76 -78.89,91.6z"/>
   <path class="fil16" d="M1559.44 8100.98c-0.24,3.85 -0.41,7.59 -0.59,11.22 -22.33,4.13 -44.33,3.96 -60.78,2.85 -3.64,-0.25 -6.99,-0.56 -10.04,-0.89 -0.55,-3.63 -1.07,-7.31 -1.62,-11.08 16.42,1.74 44.78,3.6 73.02,-2.11z"/>
   <path class="fil16" d="M1558.16 8128.6c-0.1,3.88 -0.21,7.56 -0.28,11.05 -20.95,3.47 -41.43,3.27 -56.94,2.19 -3.15,-0.2 -6.05,-0.44 -8.75,-0.7l0 -0.02c-0.59,-3.6 -1.17,-7.31 -1.76,-11.11 15.73,1.63 41.53,3.18 67.74,-1.42z"/>
   <path class="fil27" d="M1395.34 8100.65c-19.09,0 -37,-2.69 -50.83,-5.51 -3.67,-0.78 -7.02,-1.52 -10.06,-2.24 0.35,-3.65 0.72,-7.34 1.07,-11.05 13.91,3.41 36.09,7.84 60,7.84 3.31,0 6.65,-0.08 10.02,-0.25 -1.38,3.82 -2.66,7.54 -3.87,11.14l0 0c-2.12,0.06 -4.23,0.08 -6.32,0.08z"/>
   <path class="fil27" d="M1392.95 8127.85c-18.46,-0.19 -35.79,-2.77 -49.2,-5.54 -4.29,-0.91 -8.16,-1.8 -11.55,-2.63 0.28,-3.6 0.56,-7.26 0.87,-11.03 13.74,3.41 36.65,8.2 61.44,8.2 0.61,0 1.22,0 1.83,0 -1.21,3.8 -2.31,7.45 -3.39,11l0 0z"/>
   <path class="fil7" d="M7002.89 5832.7c-90.74,-13.52 -191.52,-75.24 -299.48,-183.44 -86.21,-86.43 -177.24,-202.57 -270.54,-345.22 -153.51,-234.65 -263.12,-465.45 -271.28,-482.81 -110.57,2.77 -251.39,-33.89 -418.27,-109.02 -133.86,-60.25 -284.81,-145.25 -448.66,-252.63 -278.91,-182.8 -501.47,-369.63 -503.69,-371.49l2.21 -2.65c2.22,1.87 224.65,188.59 503.41,371.28 163.68,107.26 314.47,192.17 448.14,252.35 166.99,75.16 307.64,111.74 417.87,108.68l1.13 -0.03 0.51 1.03c1.13,2.38 112.84,240.84 271.5,483.44 93.19,142.43 184.04,258.39 270.14,344.65 107.4,107.65 207.49,169.04 297.5,182.45l-0.51 3.41z"/>
   <path class="fil7" d="M6453.43 5792.89c-118.5,-18.2 -246.69,-82.52 -381.05,-191.15 -107.34,-86.83 -218.88,-202.01 -331.49,-342.35 -185.99,-231.87 -313.94,-457.4 -322.5,-472.59 -225.08,-21.33 -445.49,-73.46 -655.09,-154.97 -167.92,-65.29 -329.35,-149.47 -479.76,-250.19 -204.98,-137.24 -347.85,-279.4 -394.75,-335.4l2.63 -2.22c46.84,55.9 189.46,197.8 394.14,334.82 150.21,100.56 311.4,184.61 479.06,249.8 209.57,81.48 429.95,133.56 654.98,154.8l0.92 0.09 0.44 0.79c1.3,2.32 131.19,234.27 322.69,472.94 112.38,140.15 223.75,255.14 330.92,341.8 133.85,108.23 261.48,172.29 379.35,190.41l-0.51 3.41z"/>
   <path class="fil7" d="M5968.2 5832.72c-158.72,-5.13 -325.33,-63.37 -495.24,-173.14 -135.81,-87.76 -274.03,-208.46 -410.81,-358.74 -226.17,-248.53 -374.08,-497.6 -383.72,-513.98 -152.19,-4.16 -335.47,-45.58 -544.74,-123.12 -167.72,-62.13 -352.42,-147.48 -548.98,-253.67 -334.67,-180.77 -591.11,-361.74 -593.68,-363.54l2.02 -2.83c2.55,1.8 258.85,182.67 593.32,363.34 196.42,106.1 380.98,191.38 548.54,253.45 209.35,77.57 392.59,118.93 544.57,122.93l0.97 0.03 0.5 0.83c1.47,2.56 151.21,258.7 383.8,514.27 136.56,150.05 274.56,270.55 410.13,358.13 169.35,109.41 335.4,167.47 493.44,172.57l-0.11 3.46z"/>
   <path class="fil3" d="M1144.51 5218.96c44.65,52.6 98.02,98.51 158.86,135.17l2.97 147.72c0.32,16.41 14.35,9.99 177.15,65.7 15.07,4.86 13.41,-9.25 102.11,-122.33 70.8,5.77 140.91,-0.28 207.92,-16.95l106.6 102.45c11.85,11.36 17.24,-3.11 171.72,-78.81 4.64,-2.38 7.25,-7.42 6.49,-12.56l-20.8 -146.35c52.61,-44.63 98.53,-97.96 135.16,-158.81 141.07,-5.77 154.03,3.94 159,-11.36 50.94,-168.06 62.9,-172.65 50.15,-182.18l-118.13 -88.7c5.84,-70.83 -0.26,-140.94 -16.89,-207.93l102.41 -106.57c11.37,-11.82 -3.04,-17.23 -78.77,-171.73 -7.19,-14.11 -15.37,-3.11 -158.86,14.3 -44.64,-52.6 -98.02,-98.51 -158.85,-135.17l-2.97 -147.72c-0.33,-16.4 -14.35,-9.99 -177.15,-65.7 -15,-4.85 -12.98,8.61 -102.11,122.43 -70.81,-5.87 -140.96,0.18 -207.92,16.86l-106.6 -102.36c-3.73,-3.67 -9.35,-4.49 -13.96,-2.11l-157.8 80.83c-4.6,2.38 -7.21,7.42 -6.49,12.55l20.84 146.35c-52.65,44.63 -98.52,97.96 -135.19,158.81 -141.07,5.78 -154.04,-3.94 -158.96,11.46 -50.95,167.88 -62.94,172.56 -50.15,182.17l118.09 88.61c-5.8,70.84 0.26,140.94 16.93,207.93 -95.7,103.82 -111.82,106.11 -104.46,120.59l80.84 157.71c7.2,14.11 16.08,3.02 158.84,-14.3z"/>
   <path class="fil28" d="M1508.46 4791.11c-4.6,71.48 49.79,133.33 121.17,138.01l0 0c114.76,7.42 182.12,-128.57 105.99,-215.35 -75.8,-86.23 -219.65,-38.12 -227.16,77.34zm119.39 165.5l0.19 0.09 -0.19 -0.09zm-174.39 -169.07c6.6,-101.99 94.5,-179.24 196.57,-172.65 102,6.6 179.26,94.57 172.63,196.56 -6.59,101.81 -94.75,179.24 -196.57,172.65l0 0c-101.79,-6.6 -179.22,-94.75 -172.63,-196.56z"/>
   <path class="fil3" d="M709.55 5076.29c-7.14,-23.83 -13.37,-48.3 -18.62,-72.58 -2.14,-9.99 4.17,-19.7 14.09,-21.9 25.01,-5.31 21.41,22.54 39.75,83.94 2.91,9.71 -2.65,19.98 -12.35,22.82 -9.71,2.93 -19.97,-2.57 -22.87,-12.28z"/>
   <path class="fil3" d="M1727.5 3853.02c1.16,-10.17 10.25,-17.41 20.32,-16.22 50.26,5.68 100.27,15.3 148.72,28.68 23.37,6.32 13.73,41.88 -9.79,35.37 -46.6,-12.83 -94.72,-22.09 -143.02,-27.58 -10.36,-1.19 -17.32,-10.45 -16.24,-20.25zm-375.36 54.07c-4.56,-2.11 -8.26,-6.14 -9.86,-11.37 -3.01,-9.71 2.46,-19.98 12.18,-22.91 48.15,-14.76 97.91,-25.84 147.8,-32.81 10.07,-1.47 19.35,5.59 20.76,15.58 1.41,10.08 -5.58,19.33 -15.65,20.8 -48.02,6.69 -95.84,17.32 -142.15,31.52 -4.5,1.37 -9.14,0.92 -13.09,-0.82zm-339.49 186.76c-2.35,-1.1 -4.49,-2.66 -6.27,-4.76 -6.63,-7.7 -5.72,-19.24 2,-25.84 38.3,-32.81 79.46,-62.86 122.33,-89.26 8.66,-5.31 20,-2.57 25.29,6.05 5.32,8.61 2.65,19.98 -6.01,25.3 -41.24,25.38 -80.84,54.25 -117.7,85.77 -5.65,4.85 -13.33,5.68 -19.64,2.75zm-237.52 306.44c-9.13,-4.49 -12.9,-15.49 -8.48,-24.65 22.04,-45.27 47.87,-89.17 76.75,-130.49 13.96,-19.98 44.07,1.1 30.15,21.07 -27.8,39.77 -52.65,82.02 -73.81,125.54 -7.83,16.04 -26.82,8.43 -24.61,8.52zm-104.91 358.58c2.04,-48.75 7.86,-99.52 18.01,-150.29 4.79,-23.92 40.81,-16.59 36.06,7.15 -26.31,131.59 -5.76,163.57 -36.49,162.29 -10.22,-0.46 -18,-9.07 -17.57,-19.15z"/>
   <path class="fil3" d="M2166.35 4031.25c-55.52,-38.21 -79.96,-42.25 -67.54,-63.69 5.1,-8.8 16.17,-11.91 25.15,-6.69 21.41,12.46 42.68,25.93 63.26,40.14 8.38,5.77 10.48,17.13 4.71,25.57 -5.69,8.24 -17.04,10.54 -25.59,4.67z"/>
   <path class="fil3" d="M2562.8 4680.5c-8.59,-67.17 -21.96,-87.79 2.35,-92.83 9.97,-2.11 19.67,4.31 21.74,14.3 5.04,24.19 9.21,49.12 12.36,73.86 1.26,10.08 -5.84,19.24 -15.91,20.53 -10.03,1.28 -19.28,-5.78 -20.54,-15.85z"/>
   <path class="fil3" d="M2535.08 5053.56c36.38,-128.84 18.19,-160.27 48.67,-156.52 10.11,1.19 17.24,10.35 16.04,20.44 -6.05,49.39 -15.91,98.51 -29.31,146.07 -2.78,9.72 -12.93,15.4 -22.68,12.65 -9.75,-2.75 -15.47,-12.92 -12.72,-22.64zm-169.37 357.66c-23.84,-19.24 11.7,-28.68 78.63,-143.69 12.21,-21.08 44.02,-2.57 31.77,18.42 -24.89,42.8 -53.33,84.03 -84.54,122.61 -6.41,7.88 -18.01,9.07 -25.87,2.66zm-298.9 236.8c-14.35,-27.04 21.93,-21.9 128.6,-101.54 19.49,-14.48 41.52,14.94 21.99,29.51 -39.75,29.6 -82.08,56.45 -125.77,79.63 -8.95,4.76 -20.08,1.37 -24.82,-7.61zm-367.83 100.07c-0.83,-10.08 6.67,-18.97 16.81,-19.8 133.45,-11 156.35,-38.94 163.57,-9.16 2.39,9.8 -3.69,19.79 -13.56,22.18 -48.12,11.63 -97.57,19.52 -147,23.64 -10.15,0.82 -18.99,-6.69 -19.82,-16.86zm-377.75 -52.23c9.57,-29.05 31.31,0.82 162.3,22.72 23.91,3.94 17.97,40.23 -6.08,36.2 -48.96,-8.15 -97.62,-20.16 -144.55,-35.74 -9.49,-3.11 -14.93,-13.47 -11.67,-23.18z"/>
   <path class="fil3" d="M1114.12 5614.38c-20.95,-13.47 -41.56,-27.95 -61.34,-42.98 -8.08,-6.14 -9.68,-17.69 -3.52,-25.75 15.43,-20.34 30.83,3.02 84.76,37.85 8.55,5.5 11.01,16.86 5.51,25.39 -5.58,8.61 -17.04,10.91 -25.4,5.5z"/>
   <path class="fil28" d="M1413.82 5192.12c-15.11,-8.61 -18.19,-25.75 -10.98,-38.21 7.61,-13.2 24.61,-17.69 37.65,-10.08 24.46,14.2 50.69,25.84 77.94,34.64 5.94,0.64 146.03,56.54 305.31,-24.74 315.87,-161.83 278.55,-628.08 -59.64,-737.13 -194.55,-62.68 -402.78,31.98 -486.28,213.24 -84.11,182.45 10.98,277.48 -47.21,290.86 -14.81,3.48 -29.64,-5.77 -33.08,-20.62 -18.59,-80 -15.01,-163.76 10.35,-242.29 76.86,-238.62 333.8,-370.85 573.14,-293.61 257.52,83.02 388.95,374.16 273.46,624.79 -93.13,202.15 -327.38,314.68 -553.02,241.92l0 0c-30.51,-9.8 -60.04,-22.91 -87.65,-38.76z"/>
   <path class="fil29" d="M5511.3 9039.81l0 45.17c0,11.55 -5.95,21.11 -13.8,22.15l-704.55 63.85c-5.23,0.72 -10.48,0.59 -15.68,-0.31 -1.35,-0.26 -2.71,-0.55 -4.07,-0.89l-490.9 -92.53c-5.22,-1.35 -9.06,-8.19 -9.06,-16.11l0 -47.71 520.85 -64.57 67.04 -31.72 66.66 9.61 39.37 -7.54 89.98 26.17 454.14 94.43z"/>
   <path class="fil30" d="M3002.21 8824.99l0 28.64c0,7.32 -3.77,13.38 -8.75,14.04l-446.67 40.48c-3.31,0.46 -6.64,0.38 -9.94,-0.19 -0.85,-0.17 -1.72,-0.35 -2.58,-0.57l-311.22 -58.66c-3.31,-0.85 -5.74,-5.19 -5.74,-10.21l0 -30.25 330.21 -40.93 42.5 -20.11 42.26 6.09 24.96 -4.78 57.04 16.59 287.91 59.86z"/>
   <path class="fil31" d="M5511.3 9039.81l0 45.17c0,11.55 -5.95,21.11 -13.8,22.15l-704.52 63.85c-5.23,0.72 -11.75,0.55 -15.65,-0.32l0 -243.26 83.84 -10.25 66.65 9.61 39.36 -7.54 89.98 26.17 454.14 94.43z"/>
   <path class="fil32" d="M3002.21 8824.99l0 28.64c0,7.32 -3.77,13.38 -8.75,14.04l-446.65 40.48c-3.32,0.46 -7.45,0.35 -9.92,-0.2l0 -154.22 53.15 -6.5 42.25 6.09 24.95 -4.78 57.04 16.59 287.91 59.86z"/>
   <path class="fil33" d="M4967.19 8919.21l-693.93 92.1 500.52 94.28c6.16,1.57 12.42,1.94 18.61,1.1l718.91 -66.87 -544.11 -120.6z"/>
   <path class="fil34" d="M2657.25 8748.54l-439.94 58.39 317.32 59.77c3.91,1 7.87,1.23 11.8,0.7l455.77 -42.4 -344.96 -76.46z"/>
   <path class="fil35" d="M5221.56 9002.39c0,33.06 -104,58.76 -247.56,65.41 -36.25,1.68 -74.98,2.14 -115.18,1.21 -197.6,-4.56 -356.38,-41.3 -356.38,-82 0,-0.92 0.12,-2.92 0.27,-2.92l-0.27 0 0.82 -1.96c0.19,-0.67 0.44,-1.28 0.74,-1.9l45.57 -119.13 55.04 -143.76 77.08 -201.47 58.98 -154.22 73.37 -191.77c9.18,-24 26.19,-38.93 44.58,-38.93 2.49,0 4.94,0.26 7.37,0.81 15.51,3.38 29.37,17.36 37.34,38.17l73.99 193.12 59.09 156.25 77.98 205.51 0 0.04 55.97 147.66 0 0.05 0.9 0.07 46.62 120c2,3.22 3.67,6.49 3.67,9.76z"/>
   <path class="fil36" d="M2818.52 8801.27c0,20.96 -65.94,37.25 -156.95,41.47 -22.98,1.06 -47.54,1.35 -73.02,0.76 -125.28,-2.89 -225.94,-26.19 -225.94,-51.99 0,-0.58 0.08,-1.85 0.18,-1.85l-0.18 0 0.52 -1.24c0.12,-0.43 0.28,-0.81 0.46,-1.2l28.89 -75.52 34.89 -91.14 48.87 -127.73 37.39 -97.77 46.52 -121.58c5.82,-15.21 16.6,-24.68 28.26,-24.68 1.58,0 3.13,0.17 4.67,0.52 9.83,2.14 18.62,11.01 23.67,24.2l46.91 122.43 37.46 99.06 49.44 130.29 0 0.03 35.49 93.61 0 0.03 0.57 0.05 29.56 76.07c1.27,2.04 2.33,4.11 2.33,6.19z"/>
   <path class="fil16" d="M5171.26 8872.63c-45,15.04 -116.91,25.87 -203.02,29.89 -34.69,1.63 -71.4,2.17 -109.64,1.44 -132.78,-2.52 -247.89,-19.61 -309.15,-42.85l55.1 -143.76c64.44,14.5 154.3,24.28 254.14,25.78 32.29,0.49 63.75,0.07 93.72,-1.13 63.06,-2.5 118.64,-8.55 162.45,-17.15l55.5 147.66 0 0.05 0.9 0.07z"/>
   <path class="fil16" d="M2786.63 8719.01c-28.53,9.53 -74.12,16.4 -128.71,18.94 -22,1.04 -45.27,1.38 -69.51,0.91 -84.18,-1.6 -157.15,-12.43 -195.99,-27.17l34.93 -91.14c40.85,9.19 97.82,15.39 161.12,16.34 20.47,0.31 40.42,0.05 59.41,-0.72 39.98,-1.58 75.22,-5.42 102.99,-10.87l35.19 93.61 0 0.03 0.57 0.05z"/>
   <path class="fil16" d="M5037.08 8519.29c-34.34,3.72 -72.09,6.23 -112.14,7.37 -21.44,0.64 -43.55,0.84 -66.13,0.63 -64.63,-0.63 -125.07,-4.76 -177.13,-11.43l58.98 -154.22c36.91,2.93 76.67,4.59 118.15,4.82 14.65,0.09 29.08,0 43.26,-0.29 25.99,-0.49 51.2,-1.53 75.25,-3.13l59.76 156.25z"/>
   <path class="fil16" d="M2701.56 8495c-21.77,2.36 -45.7,3.95 -71.09,4.68 -13.6,0.41 -27.61,0.53 -41.93,0.4 -40.97,-0.4 -79.29,-3.02 -112.3,-7.25l37.39 -97.77c23.4,1.85 48.61,2.91 74.91,3.06 9.29,0.06 18.44,0 27.43,-0.19 16.48,-0.31 32.46,-0.97 47.7,-1.99l37.89 99.06z"/>
  </g>
 </g>
</svg>
