<?xml version="1.0" encoding="UTF-8"?>
<!DOCTYPE svg PUBLIC "-//W3C//DTD SVG 1.1//EN" "http://www.w3.org/Graphics/SVG/1.1/DTD/svg11.dtd">
<!-- Creator: CorelDRAW 2018 (64-Bit) -->
<svg xmlns="http://www.w3.org/2000/svg" xml:space="preserve" width="8.26772in" height="11.6929in" version="1.1" style="shape-rendering:geometricPrecision; text-rendering:geometricPrecision; image-rendering:optimizeQuality; fill-rule:evenodd; clip-rule:evenodd"
viewBox="0 0 8267.72 11692.91"
 xmlns:xlink="http://www.w3.org/1999/xlink">
 <defs>
  <style type="text/css">
   <![CDATA[
    .fil54 {fill:#7D97F4;fill-rule:nonzero}
    .fil2 {fill:#91B3FA;fill-rule:nonzero}
    .fil12 {fill:#BACFFC;fill-rule:nonzero}
    .fil4 {fill:#BDD0FB;fill-rule:nonzero}
    .fil70 {fill:#E5ECFD;fill-rule:nonzero}
    .fil71 {fill:white;fill-rule:nonzero}
    .fil78 {fill:url(#id0)}
    .fil79 {fill:url(#id1)}
    .fil72 {fill:url(#id2)}
    .fil87 {fill:url(#id3)}
    .fil74 {fill:url(#id4)}
    .fil88 {fill:url(#id5)}
    .fil92 {fill:url(#id6)}
    .fil96 {fill:url(#id7)}
    .fil47 {fill:url(#id8)}
    .fil81 {fill:url(#id9)}
    .fil43 {fill:url(#id10)}
    .fil75 {fill:url(#id11)}
    .fil77 {fill:url(#id12)}
    .fil45 {fill:url(#id13)}
    .fil73 {fill:url(#id14)}
    .fil89 {fill:url(#id15)}
    .fil86 {fill:url(#id16)}
    .fil104 {fill:url(#id17)}
    .fil40 {fill:url(#id18)}
    .fil44 {fill:url(#id19)}
    .fil68 {fill:url(#id20)}
    .fil83 {fill:url(#id21)}
    .fil76 {fill:url(#id22)}
    .fil52 {fill:url(#id23)}
    .fil95 {fill:url(#id24)}
    .fil48 {fill:url(#id25)}
    .fil105 {fill:url(#id26)}
    .fil85 {fill:url(#id27)}
    .fil93 {fill:url(#id28)}
    .fil82 {fill:url(#id29)}
    .fil94 {fill:url(#id30)}
    .fil106 {fill:url(#id31)}
    .fil112 {fill:url(#id32)}
    .fil108 {fill:url(#id33)}
    .fil97 {fill:url(#id34)}
    .fil5 {fill:url(#id35)}
    .fil17 {fill:url(#id36)}
    .fil14 {fill:url(#id37)}
    .fil31 {fill:url(#id38)}
    .fil26 {fill:url(#id39)}
    .fil51 {fill:url(#id40)}
    .fil11 {fill:url(#id41)}
    .fil49 {fill:url(#id42)}
    .fil66 {fill:url(#id43)}
    .fil10 {fill:url(#id44)}
    .fil20 {fill:url(#id45)}
    .fil103 {fill:url(#id46)}
    .fil8 {fill:url(#id47)}
    .fil67 {fill:url(#id48)}
    .fil0 {fill:url(#id49)}
    .fil69 {fill:url(#id50)}
    .fil115 {fill:url(#id51)}
    .fil16 {fill:url(#id52)}
    .fil37 {fill:url(#id53)}
    .fil18 {fill:url(#id54)}
    .fil34 {fill:url(#id55)}
    .fil6 {fill:url(#id56)}
    .fil24 {fill:url(#id57)}
    .fil61 {fill:url(#id58)}
    .fil41 {fill:url(#id59)}
    .fil7 {fill:url(#id60)}
    .fil39 {fill:url(#id61)}
    .fil25 {fill:url(#id62)}
    .fil101 {fill:url(#id63)}
    .fil91 {fill:url(#id64)}
    .fil9 {fill:url(#id65)}
    .fil30 {fill:url(#id66)}
    .fil50 {fill:url(#id67)}
    .fil59 {fill:url(#id68)}
    .fil90 {fill:url(#id69)}
    .fil84 {fill:url(#id70)}
    .fil64 {fill:url(#id71)}
    .fil46 {fill:url(#id72)}
    .fil62 {fill:url(#id73)}
    .fil80 {fill:url(#id74)}
    .fil1 {fill:url(#id75)}
    .fil99 {fill:url(#id76)}
    .fil100 {fill:url(#id77)}
    .fil56 {fill:url(#id78)}
    .fil36 {fill:url(#id79)}
    .fil57 {fill:url(#id80)}
    .fil111 {fill:url(#id81)}
    .fil113 {fill:url(#id82)}
    .fil55 {fill:url(#id83)}
    .fil13 {fill:url(#id84)}
    .fil114 {fill:url(#id85)}
    .fil27 {fill:url(#id86)}
    .fil107 {fill:url(#id87)}
    .fil58 {fill:url(#id88)}
    .fil42 {fill:url(#id89)}
    .fil29 {fill:url(#id90)}
    .fil109 {fill:url(#id91)}
    .fil3 {fill:url(#id92)}
    .fil33 {fill:url(#id93)}
    .fil65 {fill:url(#id94)}
    .fil19 {fill:url(#id95)}
    .fil35 {fill:url(#id96)}
    .fil60 {fill:url(#id97)}
    .fil21 {fill:url(#id98)}
    .fil23 {fill:url(#id99)}
    .fil22 {fill:url(#id100)}
    .fil38 {fill:url(#id101)}
    .fil63 {fill:url(#id102)}
    .fil15 {fill:url(#id103)}
    .fil110 {fill:url(#id104)}
    .fil102 {fill:url(#id105)}
    .fil98 {fill:url(#id106)}
    .fil32 {fill:url(#id107)}
    .fil28 {fill:url(#id108)}
    .fil53 {fill:url(#id109)}
    .fil116 {fill:url(#id110)}
   ]]>
  </style>
  <linearGradient id="id0" gradientUnits="userSpaceOnUse" x1="1894.06" y1="3648.58" x2="3571.67" y2="3648.58">
   <stop offset="0" style="stop-opacity:1; stop-color:#FF928E"/>
   <stop offset="1" style="stop-opacity:1; stop-color:#FE7062"/>
  </linearGradient>
  <linearGradient id="id1" gradientUnits="userSpaceOnUse" x1="1903.44" y1="3648.58" x2="3562.3" y2="3648.58">
   <stop offset="0" style="stop-opacity:1; stop-color:#FFDEDD"/>
   <stop offset="1" style="stop-opacity:1; stop-color:#FFD4D0"/>
  </linearGradient>
  <linearGradient id="id2" gradientUnits="userSpaceOnUse" x1="1618.24" y1="3731.58" x2="1641.56" y2="3731.58">
   <stop offset="0" style="stop-opacity:1; stop-color:#FEBBBA"/>
   <stop offset="1" style="stop-opacity:1; stop-color:#FF928E"/>
  </linearGradient>
  <linearGradient id="id3" gradientUnits="userSpaceOnUse" xlink:href="#id0" x1="3585.22" y1="4428.05" x2="4371.26" y2="4428.05">
  </linearGradient>
  <linearGradient id="id4" gradientUnits="userSpaceOnUse" xlink:href="#id2" x1="3486.81" y1="2877.86" x2="3535.34" y2="2877.86">
  </linearGradient>
  <linearGradient id="id5" gradientUnits="userSpaceOnUse" xlink:href="#id1" x1="3597.2" y1="4428.05" x2="4359.28" y2="4428.05">
  </linearGradient>
  <linearGradient id="id6" gradientUnits="userSpaceOnUse" x1="1601.13" y1="6635.35" x2="1978.68" y2="6635.35">
   <stop offset="0" style="stop-opacity:1; stop-color:#09005D"/>
   <stop offset="1" style="stop-opacity:1; stop-color:#1A0F91"/>
  </linearGradient>
  <linearGradient id="id7" gradientUnits="userSpaceOnUse" xlink:href="#id2" x1="1014.19" y1="6525.96" x2="1127.37" y2="6525.96">
  </linearGradient>
  <linearGradient id="id8" gradientUnits="userSpaceOnUse" xlink:href="#id2" x1="7458.09" y1="8610.19" x2="7347.02" y2="8610.19">
  </linearGradient>
  <linearGradient id="id9" gradientUnits="userSpaceOnUse" xlink:href="#id2" x1="3804.57" y1="3941.46" x2="3850.28" y2="3941.46">
  </linearGradient>
  <linearGradient id="id10" gradientUnits="userSpaceOnUse" xlink:href="#id6" x1="6881.99" y1="8717.55" x2="6511.4" y2="8717.55">
  </linearGradient>
  <linearGradient id="id11" gradientUnits="userSpaceOnUse" xlink:href="#id2" x1="3822.64" y1="3675.54" x2="3844.15" y2="3675.54">
  </linearGradient>
  <linearGradient id="id12" gradientUnits="userSpaceOnUse" xlink:href="#id2" x1="1891.4" y1="4399.15" x2="1938.08" y2="4399.15">
  </linearGradient>
  <linearGradient id="id13" gradientUnits="userSpaceOnUse" xlink:href="#id6" x1="7532.87" y1="8725.44" x2="7360.39" y2="8725.44">
  </linearGradient>
  <linearGradient id="id14" gradientUnits="userSpaceOnUse" xlink:href="#id2" x1="1620.56" y1="3062.24" x2="3398.22" y2="3062.24">
  </linearGradient>
  <linearGradient id="id15" gradientUnits="userSpaceOnUse" xlink:href="#id1" x1="3592.5" y1="4428.05" x2="4365.39" y2="4428.05">
  </linearGradient>
  <linearGradient id="id16" gradientUnits="userSpaceOnUse" xlink:href="#id2" x1="3533.34" y1="4148.76" x2="3565.54" y2="4148.76">
  </linearGradient>
  <linearGradient id="id17" gradientUnits="userSpaceOnUse" xlink:href="#id2" x1="1989.81" y1="3635.87" x2="1764.32" y2="3831.56">
  </linearGradient>
  <linearGradient id="id18" gradientUnits="userSpaceOnUse" x1="5393.57" y1="6208.89" x2="6115.67" y2="6208.89">
   <stop offset="0" style="stop-opacity:1; stop-color:#4F52FF"/>
   <stop offset="1" style="stop-opacity:1; stop-color:#4042E2"/>
  </linearGradient>
  <linearGradient id="id19" gradientUnits="userSpaceOnUse" xlink:href="#id18" x1="6698.08" y1="8011.14" x2="6698.08" y2="8735.63">
  </linearGradient>
  <linearGradient id="id20" gradientUnits="userSpaceOnUse" xlink:href="#id6" x1="6107.98" y1="7708.89" x2="6053.75" y2="7964.52">
  </linearGradient>
  <linearGradient id="id21" gradientUnits="userSpaceOnUse" xlink:href="#id2" x1="4396.03" y1="4687" x2="4426.95" y2="4687">
  </linearGradient>
  <linearGradient id="id22" gradientUnits="userSpaceOnUse" xlink:href="#id2" x1="2020.51" y1="4297.37" x2="3828.94" y2="4297.37">
  </linearGradient>
  <linearGradient id="id23" gradientUnits="userSpaceOnUse" xlink:href="#id2" x1="6582.33" y1="6241.89" x2="6536.43" y2="5969.34">
  </linearGradient>
  <linearGradient id="id24" gradientUnits="userSpaceOnUse" xlink:href="#id18" x1="961.33" y1="6065.21" x2="1040.81" y2="6886.81">
  </linearGradient>
  <linearGradient id="id25" gradientUnits="userSpaceOnUse" xlink:href="#id2" x1="6859.6" y1="8592.4" x2="6769.31" y2="8592.4">
  </linearGradient>
  <linearGradient id="id26" gradientUnits="userSpaceOnUse" x1="522.83" y1="4986.56" x2="2991.95" y2="4986.56">
   <stop offset="0" style="stop-opacity:1; stop-color:#DAE3FE"/>
   <stop offset="1" style="stop-opacity:1; stop-color:#E9EFFD"/>
  </linearGradient>
  <linearGradient id="id27" gradientUnits="userSpaceOnUse" xlink:href="#id2" x1="3457.7" y1="4599.05" x2="3962.7" y2="4599.05">
  </linearGradient>
  <linearGradient id="id28" gradientUnits="userSpaceOnUse" xlink:href="#id18" x1="1788.5" y1="5915.59" x2="1788.5" y2="6653.75">
  </linearGradient>
  <linearGradient id="id29" gradientUnits="userSpaceOnUse" xlink:href="#id2" x1="3944.57" y1="4244.44" x2="4489.38" y2="4244.44">
  </linearGradient>
  <linearGradient id="id30" gradientUnits="userSpaceOnUse" xlink:href="#id6" x1="937.99" y1="6643.36" x2="1113.76" y2="6643.36">
  </linearGradient>
  <linearGradient id="id31" gradientUnits="userSpaceOnUse" xlink:href="#id26" x1="2860.77" y1="4554.8" x2="3824.05" y2="4554.8">
  </linearGradient>
  <linearGradient id="id32" gradientUnits="userSpaceOnUse" xlink:href="#id2" x1="1411.17" y1="4796.29" x2="1090.42" y2="5372.37">
  </linearGradient>
  <linearGradient id="id33" gradientUnits="userSpaceOnUse" xlink:href="#id6" x1="-50835.78" y1="24434.42" x2="-47944.37" y2="23363.73">
  </linearGradient>
  <linearGradient id="id34" gradientUnits="userSpaceOnUse" xlink:href="#id2" x1="1623.98" y1="6507.83" x2="1715.94" y2="6507.83">
  </linearGradient>
  <linearGradient id="id35" gradientUnits="userSpaceOnUse" xlink:href="#id26" x1="4878.96" y1="4449.84" x2="5230.61" y2="4449.84">
  </linearGradient>
  <linearGradient id="id36" gradientUnits="userSpaceOnUse" x1="7956.7" y1="10358.2" x2="2718.48" y2="4704.24">
   <stop offset="0" style="stop-opacity:1; stop-color:#A9C3FB"/>
   <stop offset="1" style="stop-opacity:1; stop-color:#AEC7FB"/>
  </linearGradient>
  <linearGradient id="id37" gradientUnits="userSpaceOnUse" xlink:href="#id6" x1="6140.59" y1="3029.52" x2="5455.42" y2="3971.15">
  </linearGradient>
  <linearGradient id="id38" gradientUnits="userSpaceOnUse" x1="6140.58" y1="3029.52" x2="5455.41" y2="3971.15">
   <stop offset="0" style="stop-opacity:1; stop-color:#6478C6"/>
   <stop offset="1" style="stop-opacity:1; stop-color:#6A7DD7"/>
  </linearGradient>
  <linearGradient id="id39" gradientUnits="userSpaceOnUse" x1="7956.7" y1="10358.19" x2="2718.48" y2="4704.23">
   <stop offset="0" style="stop-opacity:1; stop-color:#99B8FA"/>
   <stop offset="1" style="stop-opacity:1; stop-color:#9BBAFA"/>
  </linearGradient>
  <linearGradient id="id40" gradientUnits="userSpaceOnUse" xlink:href="#id0" x1="6243.63" y1="6641.01" x2="6976.37" y2="6683.3">
  </linearGradient>
  <linearGradient id="id41" gradientUnits="userSpaceOnUse" xlink:href="#id26" x1="4880.62" y1="4450.39" x2="5241.32" y2="4450.39">
  </linearGradient>
  <linearGradient id="id42" gradientUnits="userSpaceOnUse" xlink:href="#id18" x1="7167.34" y1="7459.38" x2="7947.15" y2="4950.96">
  </linearGradient>
  <linearGradient id="id43" gradientUnits="userSpaceOnUse" xlink:href="#id18" x1="6235.64" y1="7069.72" x2="6185.39" y2="7377.96">
  </linearGradient>
  <linearGradient id="id44" gradientUnits="userSpaceOnUse" xlink:href="#id26" x1="4880.62" y1="4448.2" x2="5241.3" y2="4448.2">
  </linearGradient>
  <linearGradient id="id45" gradientUnits="userSpaceOnUse" xlink:href="#id36" x1="7875.06" y1="10358.09" x2="2843.87" y2="4704.21">
  </linearGradient>
  <linearGradient id="id46" gradientUnits="userSpaceOnUse" xlink:href="#id6" x1="1847.78" y1="3475.76" x2="2104.54" y2="3827.4">
  </linearGradient>
  <linearGradient id="id47" gradientUnits="userSpaceOnUse" xlink:href="#id26" x1="4871.99" y1="4448.98" x2="5232.69" y2="4448.98">
  </linearGradient>
  <linearGradient id="id48" gradientUnits="userSpaceOnUse" xlink:href="#id18" x1="6234.16" y1="6982.64" x2="6182.46" y2="7318.7">
  </linearGradient>
  <linearGradient id="id49" gradientUnits="userSpaceOnUse" xlink:href="#id26" x1="7851.15" y1="10358.22" x2="2703.53" y2="4704.24">
  </linearGradient>
  <linearGradient id="id50" gradientUnits="userSpaceOnUse" xlink:href="#id6" x1="6107.06" y1="7708.98" x2="6052.84" y2="7964.59">
  </linearGradient>
  <linearGradient id="id51" gradientUnits="userSpaceOnUse" x1="4779.97" y1="7855.06" x2="4659.33" y2="8723.51">
   <stop offset="0" style="stop-opacity:1; stop-color:#E1473D"/>
   <stop offset="1" style="stop-opacity:1; stop-color:#E9605A"/>
  </linearGradient>
  <linearGradient id="id52" gradientUnits="userSpaceOnUse" xlink:href="#id18" x1="6498.52" y1="2571.25" x2="6138.9" y2="3339.94">
  </linearGradient>
  <linearGradient id="id53" gradientUnits="userSpaceOnUse" xlink:href="#id18" x1="6134.11" y1="3030.09" x2="5556.08" y2="2775.91">
  </linearGradient>
  <linearGradient id="id54" gradientUnits="userSpaceOnUse" xlink:href="#id38" x1="6363.41" y1="2504.79" x2="6002.13" y2="3280.11">
  </linearGradient>
  <linearGradient id="id55" gradientUnits="userSpaceOnUse" x1="6140.58" y1="3029.52" x2="5455.39" y2="3971.16">
   <stop offset="0" style="stop-opacity:1; stop-color:#82A0E9"/>
   <stop offset="1" style="stop-opacity:1; stop-color:#84A1EE"/>
  </linearGradient>
  <linearGradient id="id56" gradientUnits="userSpaceOnUse" xlink:href="#id26" x1="4875" y1="4450.35" x2="5236.15" y2="4450.35">
  </linearGradient>
  <linearGradient id="id57" gradientUnits="userSpaceOnUse" xlink:href="#id38" x1="6363.41" y1="2504.78" x2="6002.12" y2="3280.11">
  </linearGradient>
  <linearGradient id="id58" gradientUnits="userSpaceOnUse" xlink:href="#id2" x1="7059.26" y1="6481.71" x2="6397.29" y2="7217.3">
  </linearGradient>
  <linearGradient id="id59" gradientUnits="userSpaceOnUse" xlink:href="#id2" x1="6206.8" y1="6621.8" x2="6521.57" y2="7299.95">
  </linearGradient>
  <linearGradient id="id60" gradientUnits="userSpaceOnUse" xlink:href="#id26" x1="4876.8" y1="4448.97" x2="5237.49" y2="4448.97">
  </linearGradient>
  <linearGradient id="id61" gradientUnits="userSpaceOnUse" x1="6698" y1="3294.02" x2="6120.35" y2="3018.12">
   <stop offset="0" style="stop-opacity:1; stop-color:#B9BAFF"/>
   <stop offset="1" style="stop-opacity:1; stop-color:#B3B3F3"/>
  </linearGradient>
  <linearGradient id="id62" gradientUnits="userSpaceOnUse" xlink:href="#id38" x1="6140.58" y1="3029.52" x2="5455.42" y2="3971.08">
  </linearGradient>
  <linearGradient id="id63" gradientUnits="userSpaceOnUse" xlink:href="#id2" x1="1764.31" y1="4067.94" x2="2183.53" y2="3606.62">
  </linearGradient>
  <linearGradient id="id64" gradientUnits="userSpaceOnUse" xlink:href="#id18" x1="1904.88" y1="3375.74" x2="2034.14" y2="4254.67">
  </linearGradient>
  <linearGradient id="id65" gradientUnits="userSpaceOnUse" xlink:href="#id26" x1="4876.8" y1="4452.25" x2="5237.5" y2="4452.25">
  </linearGradient>
  <linearGradient id="id66" gradientUnits="userSpaceOnUse" xlink:href="#id38" x1="6363.41" y1="2504.77" x2="6002.12" y2="3280.11">
  </linearGradient>
  <linearGradient id="id67" gradientUnits="userSpaceOnUse" xlink:href="#id18" x1="6841.48" y1="7428" x2="6964.44" y2="6735.61">
  </linearGradient>
  <linearGradient id="id68" gradientUnits="userSpaceOnUse" xlink:href="#id2" x1="6945" y1="6413.89" x2="6378.2" y2="7173.05">
  </linearGradient>
  <linearGradient id="id69" gradientUnits="userSpaceOnUse" xlink:href="#id2" x1="2351.77" y1="4634.57" x2="1971.48" y2="5642.32">
  </linearGradient>
  <linearGradient id="id70" gradientUnits="userSpaceOnUse" xlink:href="#id2" x1="4055.93" y1="4925.45" x2="4102.73" y2="4925.45">
  </linearGradient>
  <linearGradient id="id71" gradientUnits="userSpaceOnUse" xlink:href="#id2" x1="6460.87" y1="5922.72" x2="6687.07" y2="5827.67">
  </linearGradient>
  <linearGradient id="id72" gradientUnits="userSpaceOnUse" xlink:href="#id18" x1="7509.98" y1="8157.29" x2="7431.97" y2="8964.57">
  </linearGradient>
  <linearGradient id="id73" gradientUnits="userSpaceOnUse" xlink:href="#id2" x1="6396.42" y1="5875.04" x2="6651.17" y2="5723.46">
  </linearGradient>
  <linearGradient id="id74" gradientUnits="userSpaceOnUse" xlink:href="#id1" x1="1908.25" y1="3648.58" x2="3548.5" y2="3648.58">
  </linearGradient>
  <linearGradient id="id75" gradientUnits="userSpaceOnUse" xlink:href="#id6" x1="3348.95" y1="7942.8" x2="4918.55" y2="3232.72">
  </linearGradient>
  <linearGradient id="id76" gradientUnits="userSpaceOnUse" xlink:href="#id6" x1="1854.55" y1="5040.59" x2="1469.63" y2="5542.42">
  </linearGradient>
  <linearGradient id="id77" gradientUnits="userSpaceOnUse" xlink:href="#id18" x1="2565.87" y1="3991.94" x2="1450.11" y2="4753.36">
  </linearGradient>
  <linearGradient id="id78" gradientUnits="userSpaceOnUse" xlink:href="#id6" x1="6101.26" y1="6183.41" x2="7046.56" y2="4822.55">
  </linearGradient>
  <linearGradient id="id79" gradientUnits="userSpaceOnUse" x1="7853.52" y1="10358.13" x2="2935.62" y2="4704.22">
   <stop offset="0" style="stop-opacity:1; stop-color:#E9EFFE"/>
   <stop offset="1" style="stop-opacity:1; stop-color:#E9F0FE"/>
  </linearGradient>
  <linearGradient id="id80" gradientUnits="userSpaceOnUse" xlink:href="#id6" x1="6219.26" y1="6137.69" x2="7164.63" y2="4776.81">
  </linearGradient>
  <linearGradient id="id81" gradientUnits="userSpaceOnUse" xlink:href="#id2" x1="2610.45" y1="4762.38" x2="2249.98" y2="5633.95">
  </linearGradient>
  <linearGradient id="id82" gradientUnits="userSpaceOnUse" xlink:href="#id0" x1="4582.37" y1="9279.28" x2="4952.9" y2="7729.76">
  </linearGradient>
  <linearGradient id="id83" gradientUnits="userSpaceOnUse" xlink:href="#id6" x1="6272.63" y1="6263.32" x2="7348.04" y2="4778.51">
  </linearGradient>
  <linearGradient id="id84" gradientUnits="userSpaceOnUse" xlink:href="#id6" x1="6362.94" y1="2504.79" x2="6002.05" y2="3280.11">
  </linearGradient>
  <linearGradient id="id85" gradientUnits="userSpaceOnUse" xlink:href="#id0" x1="5019.23" y1="9137.35" x2="5226.04" y2="7527.69">
  </linearGradient>
  <linearGradient id="id86" gradientUnits="userSpaceOnUse" xlink:href="#id55" x1="6363.42" y1="2504.73" x2="6002.12" y2="3280.13">
  </linearGradient>
  <linearGradient id="id87" gradientUnits="userSpaceOnUse" xlink:href="#id6" x1="-48258.12" y1="25546.64" x2="-46084.7" y2="24664.44">
  </linearGradient>
  <linearGradient id="id88" gradientUnits="userSpaceOnUse" xlink:href="#id2" x1="6217.94" y1="6535.78" x2="5887.67" y2="7406.53">
  </linearGradient>
  <linearGradient id="id89" gradientUnits="userSpaceOnUse" xlink:href="#id0" x1="8305.66" y1="1812.65" x2="7702.46" y2="3329.24">
  </linearGradient>
  <linearGradient id="id90" gradientUnits="userSpaceOnUse" xlink:href="#id36" x1="7832.57" y1="10358.23" x2="2964.11" y2="4704.24">
  </linearGradient>
  <linearGradient id="id91" gradientUnits="userSpaceOnUse" xlink:href="#id2" x1="1267.22" y1="4681.96" x2="880.43" y2="5288.28">
  </linearGradient>
  <linearGradient id="id92" gradientUnits="userSpaceOnUse" xlink:href="#id6" x1="4211.87" y1="5611.45" x2="3886.14" y2="9181.38">
  </linearGradient>
  <linearGradient id="id93" gradientUnits="userSpaceOnUse" xlink:href="#id55" x1="6363.41" y1="2504.82" x2="6002.12" y2="3280.1">
  </linearGradient>
  <linearGradient id="id94" gradientUnits="userSpaceOnUse" xlink:href="#id18" x1="6099.81" y1="8238.25" x2="6216.14" y2="7416.82">
  </linearGradient>
  <linearGradient id="id95" gradientUnits="userSpaceOnUse" xlink:href="#id38" x1="6143.43" y1="3029.52" x2="5490.41" y2="3971.16">
  </linearGradient>
  <linearGradient id="id96" gradientUnits="userSpaceOnUse" x1="7956.69" y1="10358.17" x2="2718.51" y2="4704.23">
   <stop offset="0" style="stop-opacity:1; stop-color:#ECF2FE"/>
   <stop offset="1" style="stop-opacity:1; stop-color:#EDF3FE"/>
  </linearGradient>
  <linearGradient id="id97" gradientUnits="userSpaceOnUse" xlink:href="#id0" x1="6236.1" y1="6306.69" x2="6994.2" y2="6349.57">
  </linearGradient>
  <linearGradient id="id98" gradientUnits="userSpaceOnUse" xlink:href="#id38" x1="6363.42" y1="2504.79" x2="6002.12" y2="3280.11">
  </linearGradient>
  <linearGradient id="id99" gradientUnits="userSpaceOnUse" xlink:href="#id36" x1="7853.65" y1="10358.27" x2="2892.93" y2="4704.25">
  </linearGradient>
  <linearGradient id="id100" gradientUnits="userSpaceOnUse" xlink:href="#id38" x1="6140.22" y1="3029.53" x2="5460.85" y2="3971.14">
  </linearGradient>
  <linearGradient id="id101" gradientUnits="userSpaceOnUse" xlink:href="#id18" x1="6699.02" y1="3294.02" x2="6118.02" y2="3018.12">
  </linearGradient>
  <linearGradient id="id102" gradientUnits="userSpaceOnUse" xlink:href="#id6" x1="6788.54" y1="5608.06" x2="6460.8" y2="5840.41">
  </linearGradient>
  <linearGradient id="id103" gradientUnits="userSpaceOnUse" xlink:href="#id18" x1="6221.02" y1="2439.85" x2="5862.7" y2="3212.54">
  </linearGradient>
  <linearGradient id="id104" gradientUnits="userSpaceOnUse" xlink:href="#id18" x1="2390.29" y1="3670.9" x2="1236.22" y2="4443">
  </linearGradient>
  <linearGradient id="id105" gradientUnits="userSpaceOnUse" xlink:href="#id2" x1="1826.24" y1="3835.62" x2="1546.32" y2="4061.14">
  </linearGradient>
  <linearGradient id="id106" gradientUnits="userSpaceOnUse" xlink:href="#id18" x1="2065.24" y1="4170.78" x2="1349.32" y2="6478.33">
  </linearGradient>
  <linearGradient id="id107" gradientUnits="userSpaceOnUse" xlink:href="#id39" x1="7889.22" y1="10358.25" x2="2852.36" y2="4704.24">
  </linearGradient>
  <linearGradient id="id108" gradientUnits="userSpaceOnUse" xlink:href="#id55" x1="6140.59" y1="3029.52" x2="5455.41" y2="3971.17">
  </linearGradient>
  <linearGradient id="id109" gradientUnits="userSpaceOnUse" xlink:href="#id6" x1="6375.41" y1="4685.07" x2="4836.47" y2="6035.76">
  </linearGradient>
  <linearGradient id="id110" gradientUnits="userSpaceOnUse" xlink:href="#id0" x1="7562.3" y1="1520.04" x2="6959.11" y2="3035.88">
  </linearGradient>
 </defs>
 <g id="Layer_x0020_1">
  <metadata id="CorelCorpID_0Corel-Layer"/>
  <g id="_2523309190496">
   <path class="fil0" d="M3447.91 9431.44c-111.67,0 -221.63,-4.48 -329.56,-13.41 -402.38,-33.3 -1207.84,-99.94 -1843.48,-687.09l1065.4 0c59.09,0 107.09,-47.74 107.4,-106.83l2.69 -326.33 3959.72 0c-815.53,766.43 -1952.52,1133.67 -2962.16,1133.67zm3785.57 -2311.13l59.74 -2750.1c331.22,859.11 303,1890.42 -59.74,2750.1zm-6807 -385.71c-32.2,-552.26 48.51,-1132.72 230.35,-1678.76l22.13 1663.83 -199 0.51c-19.48,0.05 -37.74,5.3 -53.47,14.41zm718.63 -2696.33c76.63,-116.96 159.04,-229.46 246.89,-336.26 150.17,-182.6 1183.75,-1398.84 2795.83,-1398.84 10.78,0 21.58,0.06 32.44,0.19 846.65,8.54 1514.31,350.18 1867.33,578.15 -54.05,4.85 -106.15,37.48 -145.7,104.86 -94.18,-47.44 -178.59,-68.61 -244.03,-68.61 -107.86,0 -164.22,57.41 -127.9,148.87 11.7,29.52 34.17,49.32 63.53,61.94 -42.08,43.76 -41.93,97.81 11.13,146.8 21.71,20.07 48.26,28.48 77.64,28.48 50.3,0 108.81,-24.79 165.12,-58.52 7.12,58.52 29.78,106.28 70.23,125.44 13.01,6.15 27.19,9.06 42.07,9.06 37.03,0 78.52,-17.87 118,-46.8 13.07,111.66 48.29,217.81 133.47,229.79 8.35,1.17 16.31,1.75 23.82,1.75 57.48,0 91.01,-33.33 97.03,-87.32 22.46,14.24 45.89,22.59 69.84,22.59 10.42,0 20.97,-1.62 31.65,-4.98 105.9,-33.66 103.37,-131.2 4.08,-225.58 59.36,33.98 114.57,68.09 164.8,102.4 2.98,2.07 6.15,2.98 9.19,2.98 5.05,0 9.77,-2.46 12.81,-6.28 113.08,122.53 238.59,277.1 358.08,463.91 9.58,14.95 18.96,29.91 28.22,45.05 -15.28,-2.72 -30.81,-4.02 -46.48,-4.02 -2.52,0 -5.05,0 -7.57,0.07l-3475.35 97.93 50.86 -164.67c1.66,-5.37 -0.29,-11.26 -4.84,-14.56l-129.94 -95.09c5.37,-77.22 -2.18,-153.6 -21.22,-226.42l110.16 -117.54c3.87,-4.15 4.68,-10.23 2.05,-15.21l-90.24 -170.95c-2.31,-4.33 -6.83,-7.06 -11.7,-7.06 -0.67,0 -1.36,0.07 -2.03,0.2l-159.22 24.66c-49.37,-56.77 -108.16,-106.09 -174.99,-145.19l-5.25 -160.98c-0.18,-5.63 -3.92,-10.49 -9.31,-12.17l-184.67 -57.03c-1.28,-0.45 -2.58,-0.65 -3.89,-0.65 -4.14,0 -8.14,2.01 -10.7,5.44l-95.05 129.97c-16.26,-1.17 -32.46,-1.68 -48.58,-1.68 -60.64,0 -120.35,7.83 -177.83,22.91l-117.56 -110.17c-2.51,-2.39 -5.79,-3.62 -9.06,-3.62 -2.1,0 -4.22,0.52 -6.19,1.55l-170.9 90.23c-5,2.65 -7.76,8.16 -6.89,13.72l24.67 159.23c-56.77,49.39 -106.09,108.16 -145.2,175.03l-160.94 5.24c-5.66,0.13 -10.54,3.88 -12.21,9.32l-57.05 184.61c-1.66,5.44 0.28,11.26 4.83,14.63l129.95 95.08c-5.38,77.22 2.2,153.6 21.22,226.42l-110.16 117.55c-3.87,4.08 -4.69,10.23 -2.05,15.21l29.43 55.8 -821.69 23.11zm5192.6 -977.72c-12.17,-0.39 -24.46,-0.58 -36.76,-0.58 -6.41,0 -12.88,0.06 -19.22,0.13 0.45,-16.51 -1.1,-32.04 -4.47,-46.61 25.7,19.35 45.96,35.34 60.46,47.06z"/>
   <path class="fil1" d="M7094.51 8297.77l-4644.15 0 1.07 -127.91 4534.72 0c60.46,0 109.85,-53.85 109.85,-119.65l87.51 -3797.77c1.36,-61.3 -20.52,-120.58 -60.39,-163.89 -38.57,-41.94 -90.81,-65.38 -145.12,-65.38 -1.88,0 -3.69,0 -5.5,0.07 -482.74,14.11 -1700.06,49.65 -2902.79,84.79l-17.58 -63.24c-0.69,-2.53 -2.89,-4.34 -5.51,-4.47l-88.92 -5.44c-0.12,0 -0.25,0 -0.38,0 -2.46,0 -4.68,1.43 -5.63,3.76l-28.43 68.55c-9.29,1.55 -18.46,3.56 -27.49,5.95 -38.52,1.1 -77.17,2.2 -115.56,3.37l-20.73 -11.72c-0.92,-0.52 -1.97,-0.78 -2.99,-0.78 -1.46,0 -2.89,0.52 -4.04,1.49l-13.77 12.17c-165.94,4.92 -330.43,9.71 -491.14,14.37 35.73,-37.93 67.49,-80.13 94.42,-126.15l160.94 -5.24c5.66,-0.2 10.57,-3.89 12.23,-9.32l6.17 -20 3475.35 -97.93c2.52,-0.07 5.05,-0.07 7.57,-0.07 15.67,0 31.2,1.3 46.48,4.02 60.26,10.55 116.44,41.36 160.33,89 56.7,61.62 87.77,145.83 85.89,233.01l-3.69 170.85 -59.74 2750.1 -22.78 1051.13c0,69.49 -52.3,126.34 -116.19,126.34zm-6415.56 -1578.1l-22.13 -1663.83 -10.83 -814.53c0,-67.01 69.89,-195.54 198.38,-195.54 4.78,0 9.65,0.19 14.59,0.58l286.14 -8.09 821.69 -23.11 60.81 115.15c2.3,4.34 6.85,6.99 11.7,6.99 0.67,0 1.35,-0.07 2.02,-0.13l159.22 -24.66c14.77,16.96 30.36,33.23 46.74,48.79 -683.47,19.96 -1157.19,33.81 -1157.19,33.81 -2.9,-0.12 -5.84,-0.2 -8.83,-0.2 -105.37,0 -268.96,78.73 -274.61,287.5l30.91 2236.82 -158.62 0.44z"/>
   <path class="fil2" d="M7096 8050.22c0,65.8 -49.39,119.65 -109.85,119.65l-6020.31 0c-60.43,0 -109.87,-53.85 -109.87,-119.65l-49.31 -3567.81c5.81,-214.69 178.66,-291.85 283.44,-287.3 0,0 4797.16,-140.14 5882.39,-171.86 56.25,-1.62 110.69,22.01 150.62,65.31 39.87,43.3 61.75,102.59 60.39,163.89l-87.51 3797.77z"/>
   <path class="fil3" d="M7493.11 8624.02l-7080.76 0c-10.56,0 -19.2,-8.65 -19.2,-19.19l0 -306.91c0,-10.57 8.64,-19.22 19.2,-19.22l7080.76 0c10.61,0 19.22,8.65 19.22,19.22l0 306.91c0,10.54 -8.61,19.19 -19.22,19.19z"/>
   <path class="fil4" d="M1048.03 4406.68l4189.75 -98.19c68.13,-1.61 124.55,38.93 124.55,89.48l0 46.59c0,48.55 -52.22,88.28 -117.67,89.5l-4187.96 78.68c-65.53,1.22 -120.41,-36.55 -123.65,-85.1l-1.8 -27.05c-3.33,-50.02 49.29,-92.32 116.78,-93.91z"/>
   <path class="fil5" d="M5099.24 4497.85c-51.06,-6.4 -87.15,-53.72 -80.63,-105.7 6.5,-51.98 53.16,-88.94 104.22,-82.55 51.04,6.4 87.15,53.73 80.63,105.71 -6.53,51.98 -53.19,88.94 -104.22,82.55zm137.98 -78.32c8.88,-70.95 -40.39,-135.58 -110.08,-144.31 -69.69,-8.72 -133.41,41.72 -142.28,112.69 -4.66,37.09 6.6,72.41 28.33,98.95l-129.74 99.83c-8.19,6.57 -9.03,18.76 -1.82,26.43l1.18 1.26c6.4,6.78 17.07,7.06 23.81,0.64l117.87 -116.08c18.78,17.74 43.02,29.85 70.43,33.28 69.7,8.72 133.41,-41.72 142.31,-112.69z"/>
   <path class="fil6" d="M969.13 6221.88l69.87 1690.35c2.35,56.98 81.92,102.21 178.4,101.44l2051.2 -16.69c96.44,-0.8 173.84,-47.27 173.61,-104.23l-7.14 -1706.22c-0.23,-58.38 -81.8,-105.21 -180.59,-103.68l-2113.95 32.53c-97.07,1.48 -173.76,49.14 -171.39,106.5z"/>
   <path class="fil7" d="M3836.62 4725.94l1285.88 -15.64c131.61,-1.61 240.74,41.13 241.84,94.7l21.83 1062.62c1.1,53.54 -106.14,97 -237.7,96.34l-1338.69 -6.68c-75.3,-0.36 -136.37,-24.93 -138.16,-55.59l-62.76 -1077.97c-3.07,-52.52 98.67,-96.21 227.74,-97.77z"/>
   <path class="fil8" d="M1291.87 4701.6l1829.84 -16.1c187.3,-1.66 342.59,42.39 344.17,97.63l31.07 1095.09c1.56,55.2 -151.03,100 -338.28,99.3l-1904.96 -6.88c-107.18,-0.39 -194.08,-25.7 -196.62,-57.28l-89.33 -1110.97c-4.35,-54.16 140.43,-99.18 324.1,-100.79z"/>
   <path class="fil9" d="M3833.58 6094.27l1285.85 -24.83c131.63,-2.54 240.74,65.29 241.84,150.32l21.85 1686.36c1.07,84.98 -106.14,153.95 -237.72,152.9l-1338.65 -10.59c-75.33,-0.61 -136.39,-39.59 -138.16,-88.22l-62.79 -1710.76c-3.04,-83.35 98.7,-152.69 227.78,-155.17z"/>
   <path class="fil10" d="M5721.3 4261.09l1003.16 -16.15c102.72,-1.66 187.84,42.49 188.69,97.85l17.02 1097.56c0.91,55.31 -82.79,100.2 -185.45,99.54l-1044.39 -6.91c-58.72,-0.38 -106.37,-25.78 -107.76,-57.41l-48.96 -1113.47c-2.4,-54.26 76.97,-99.39 177.69,-101z"/>
   <path class="fil11" d="M5745.96 5687.26l1003.16 -12.67c102.66,-1.31 187.84,33.32 188.69,76.76l17.02 861.19c0.84,43.38 -82.79,78.63 -185.45,78.09l-1044.39 -5.43c-58.74,-0.3 -106.39,-20.22 -107.78,-45.04l-48.98 -873.65c-2.38,-42.57 76.99,-77.99 177.73,-79.24z"/>
   <path class="fil12" d="M6819.55 8038.03c-0.78,0 -1.56,0 -2.33,-0.02l-1044.33 -6.22c-58.77,-0.36 -106.45,-23.3 -107.83,-51.86l-48.97 -1005.72c-2.37,-48.99 76.99,-89.77 177.71,-91.22l1003.16 -14.58c1.88,-0.04 3.76,-0.06 5.57,-0.06 100.2,0 182.28,39.34 183.12,88.43l17.02 991.34c0.84,49.57 -81.56,89.91 -183.12,89.91z"/>
   <path class="fil13" d="M6115.24 3088.44c-5.63,-2.78 -11.39,-5.5 -17.28,-8.29 1.42,-1.36 2.72,-2.65 4.01,-3.88 4.59,2.2 9.19,4.33 13.72,6.54 -0.13,1.81 -0.33,3.69 -0.46,5.63zm-6.99 -18.26c6.15,-5.95 9.45,-9.39 9.45,-9.39 0,0 -0.32,3.04 -0.84,8.55 -3.11,0.32 -6.02,0.58 -8.61,0.84zm18.51 -1.75c-2.98,-2.52 -6.02,-5.05 -9.06,-7.64l0 0c-23.3,-4.46 -46.02,-8.02 -68.03,-10.87 -36.96,-24.98 -73.08,-46.09 -107.77,-63.56 39.55,-67.38 91.65,-100 145.7,-104.86 4.79,-0.45 9.52,-0.65 14.24,-0.65 26.54,0 53.34,6.54 79.1,18.71 48.94,23.24 84.21,62.2 96.31,113.92 3.37,14.56 4.92,30.1 4.47,46.61 -60.78,0.84 -119.49,5.18 -154.96,8.35z"/>
   <path class="fil14" d="M5999.7 3379.85c-14.89,0 -29.06,-2.91 -42.07,-9.06 -40.46,-19.16 -63.11,-66.93 -70.23,-125.44 89.52,-53.66 173.54,-129.85 210.56,-165.19 5.89,2.78 11.65,5.5 17.28,8.29 -3.62,47.31 -8.87,148.03 2.46,244.61 -39.48,28.93 -80.97,46.8 -118,46.8z"/>
   <path class="fil15" d="M6094.27 2952.77c30.61,-55.22 57.48,-112.18 78.9,-171.73 10.36,-29.9 19.48,-60.39 24.41,-92.11 2.52,-15.8 3.62,-32.04 2.85,-48.42 -0.71,-16.31 -4.4,-33.27 -13.14,-48.42 -8.61,-15.28 -23.82,-26.93 -40.13,-32.3 -16.57,-5.76 -33.2,-6.67 -49.91,-5.57 -16.63,1.23 -34.63,6.09 -48.48,18.71 -14.24,12.3 -20.26,31.26 -21.23,48.35 -1.1,17.41 2.46,34.24 8.15,50.04 5.89,15.73 13.79,30.81 26.61,43.69 6.47,6.15 14.24,12.62 26.15,14.37 5.89,0.71 12.56,-0.52 17.74,-3.56 5.44,-3.04 8.8,-7.12 12.1,-11.2 10.55,-16.63 12.94,-33.33 15.47,-49.58 0.91,-6.15 -3.3,-11.91 -9.39,-12.81 -6.15,-0.97 -11.85,3.24 -12.82,9.39l-0.06 0.32 0 0.52c-1.75,14.56 -4.72,29.78 -11,39.87 -3.5,4.66 -6.15,6.28 -9.65,5.96 -3.82,-0.26 -9.39,-3.76 -14.11,-8.22 -9.65,-9.26 -17.15,-22.33 -22.33,-35.8 -5.18,-13.53 -8.41,-28.03 -7.7,-42.01 0.65,-13.85 4.79,-27.31 14.57,-35.93 9.39,-8.87 23.11,-13.33 37.48,-14.56 29.13,-2.98 60.65,3.95 74.89,28.48 7.12,11.91 10.87,26.41 11.72,41.3 0.91,14.89 0.26,30.17 -1.94,45.37 -4.14,30.43 -12.56,60.46 -22.27,89.97 -20,58.91 -45.76,116.25 -75.08,171.21l-0.07 0.13c-1.23,2.33 -0.32,5.18 1.94,6.41 2.27,1.23 5.11,0.39 6.35,-1.87z"/>
   <path class="fil16" d="M6194.01 2999.31c24.02,-57.48 52.04,-113.79 84.99,-166.54 16.76,-26.22 34.63,-51.72 55.54,-74.18 10.42,-11.33 21.81,-21.49 33.92,-30.23 12.04,-8.8 25.7,-15.08 39.35,-17.09 28.03,-4.53 53.33,15.47 69.52,39.94 8.09,11.85 13.33,25.37 12.37,38.26 -0.45,12.94 -8.22,24.72 -18.51,33.98 -10.36,9.39 -23.69,16.12 -37.41,20.65 -13.66,4.46 -28.61,6.99 -41.81,5.37 -6.47,-0.78 -12.69,-2.91 -15.34,-5.7 -2.46,-2.59 -2.85,-5.63 -1.49,-11.26 3.82,-11.26 13.72,-23.17 23.89,-33.72l0.39 -0.32c4.27,-4.46 4.14,-11.59 -0.33,-15.86 -4.46,-4.34 -11.52,-4.21 -15.86,0.26l-0.26 0.26c-11,12.3 -22.4,24.72 -28.61,43.43 -1.1,5.11 -2.14,10.29 -0.97,16.44 0.91,5.89 4.14,11.84 8.48,15.98 8.87,8.09 18.77,9.97 27.64,11.13 18.06,1.75 34.76,-1.68 50.68,-7.06 15.86,-5.63 31.07,-13.46 43.89,-25.37 12.62,-11.59 23.43,-28.22 24.02,-47.06 0.97,-18.71 -6.67,-35.73 -16.31,-49.32 -9.65,-13.66 -20.91,-26.02 -35.86,-35.15 -14.5,-9.26 -33.14,-13.66 -50.36,-10.68 -17.28,2.85 -32.81,10.75 -45.89,20.52 -13.14,9.84 -24.98,20.91 -35.6,32.88 -21.49,23.89 -39.29,50.3 -55.86,77.22 -32.5,54.24 -59.61,111.14 -82.98,169.78 -0.91,2.4 0.26,5.18 2.65,6.15 2.4,0.91 5.11,-0.19 6.09,-2.59l0.06 -0.13z"/>
   <path class="fil17" d="M6274.99 3564.58c-7.51,0 -15.47,-0.58 -23.82,-1.75 -85.19,-11.98 -120.4,-118.13 -133.47,-229.79 29.84,-21.81 58.52,-50.04 83.44,-81.62 32.43,64.92 75.21,137.22 123.95,187 1.81,17.48 0.26,33.14 -6.21,45.25 -9.91,18.44 -31.78,27.83 -64.99,27.83 -0.19,0 -0.32,0 -0.45,0l0 0c-6.21,0 -11.26,4.98 -11.26,11.2 0,4.47 2.65,8.35 6.41,10.17 1.49,0.71 3.11,1.1 4.79,1.1 0.19,0 0.32,0 0.45,0 42.2,0 70.68,-13.4 84.79,-39.74 5.5,-10.29 8.35,-22.07 9.19,-34.76 7.9,6.67 15.99,12.62 24.21,17.8 -6.02,53.98 -39.55,87.32 -97.03,87.32z"/>
   <path class="fil18" d="M6171.81 3109.8c-10.48,-3.04 -21.17,-5.95 -32.11,-8.8 -7.9,-4.2 -16.05,-8.41 -24.47,-12.56 0.13,-1.94 0.33,-3.82 0.46,-5.63 18.9,9 37.61,17.99 56.12,26.99zm-54.95 -40.45c0.52,-5.5 0.84,-8.55 0.84,-8.55 3.04,2.59 6.09,5.11 9.06,7.64 -3.56,0.33 -6.86,0.65 -9.9,0.91zm0.84 -8.55l0 0z"/>
   <path class="fil19" d="M6117.7 3333.05c-11.33,-96.57 -6.08,-197.29 -2.46,-244.61 8.42,4.14 16.57,8.35 24.47,12.56 -1.23,-0.32 -2.52,-0.65 -3.75,-0.97 0,0 24.46,69.97 65.18,151.4 -24.92,31.59 -53.59,59.81 -83.44,81.62z"/>
   <path class="fil20" d="M5722.27 3303.86c-29.39,0 -55.93,-8.42 -77.64,-28.48 -53.06,-49 -53.2,-103.05 -11.13,-146.8 31.3,13.53 70.39,18.77 112.39,18.77 46.93,0 97.55,-6.54 145.12,-15.67 -6.54,39.23 -7.9,78.39 -3.63,113.67 -56.31,33.72 -114.83,58.52 -165.12,58.52z"/>
   <path class="fil21" d="M6097.96 3080.15c-4.79,-2.2 -9.71,-4.4 -14.63,-6.6 -11.33,-8.22 -22.52,-16.11 -33.66,-23.63 22.01,2.85 44.73,6.41 68.03,10.87l0 0c0,0 -3.3,3.43 -9.45,9.39 -9.97,0.97 -15.67,1.62 -15.67,1.62 3.17,1.49 6.28,2.98 9.39,4.46 -1.3,1.23 -2.59,2.52 -4.01,3.88z"/>
   <path class="fil22" d="M5887.39 3245.34c-4.27,-35.28 -2.91,-74.44 3.63,-113.67 106.8,-20.52 198.33,-53.72 198.33,-53.72 -2.01,-1.49 -4.01,-2.98 -6.02,-4.4 4.92,2.2 9.84,4.4 14.63,6.6 -37.02,35.34 -121.04,111.53 -210.56,165.19z"/>
   <path class="fil23" d="M5633.5 3128.57c-29.36,-12.62 -51.83,-32.43 -63.53,-61.94 -36.32,-91.46 20.04,-148.87 127.9,-148.87 65.44,0 149.85,21.17 244.03,68.61 -5.11,8.61 -9.97,17.8 -14.63,27.64 -1.3,2.65 -2.46,5.44 -3.69,8.15 30.81,6.28 60.13,14.31 87.9,23.56l0 0c-27.77,-9.26 -57.09,-17.28 -87.9,-23.56 -2.91,6.47 -5.63,13.07 -8.22,19.81 -136.32,2.2 -235.09,38.06 -281.85,86.61z"/>
   <path class="fil24" d="M6049.67 3049.93c-12.94,-1.68 -25.7,-3.04 -38.19,-4.2 -27.77,-9.26 -57.09,-17.28 -87.9,-23.56 1.23,-2.72 2.39,-5.5 3.69,-8.15 4.66,-9.84 9.52,-19.03 14.63,-27.64 34.69,17.48 70.81,38.58 107.77,63.56z"/>
   <path class="fil25" d="M6011.48 3045.72c-28.87,-2.59 -56.51,-3.82 -82.85,-3.82 -4.46,0 -8.93,0 -13.27,0.06 2.59,-6.73 5.31,-13.33 8.22,-19.81 30.81,6.28 60.13,14.31 87.9,23.56z"/>
   <path class="fil26" d="M5745.9 3147.34c-42.01,0 -81.1,-5.24 -112.39,-18.77 46.76,-48.55 145.54,-84.41 281.85,-86.61 -11.07,28.74 -19.22,59.23 -24.34,89.71 -47.57,9.13 -98.19,15.67 -145.12,15.67z"/>
   <path class="fil27" d="M6083.33 3073.55c-22.52,-9.97 -46.48,-19.35 -71.85,-27.83 12.49,1.17 25.24,2.52 38.19,4.2 11.13,7.51 22.33,15.41 33.66,23.63z"/>
   <path class="fil28" d="M5891.02 3131.68c5.11,-30.48 13.27,-60.97 24.34,-89.71 4.33,-0.06 8.8,-0.06 13.27,-0.06 26.35,0 53.98,1.23 82.85,3.82 25.37,8.48 49.32,17.86 71.85,27.83 2.01,1.43 4.01,2.91 6.02,4.4 0,0 -91.52,33.21 -198.33,53.72z"/>
   <path class="fil29" d="M6441.86 3499.85c-23.95,0 -47.38,-8.35 -69.84,-22.59 7.83,-71.07 -32.04,-177.87 -127.78,-291.54 2.46,-4.66 4.86,-9.32 7.12,-13.98 -14.56,-10.94 -32.37,-23.43 -53.14,-36.63l0 0c20.78,13.2 38.58,25.7 53.14,36.63 0.52,-1.1 1.1,-2.2 1.68,-3.37 2.4,-5.11 4.66,-10.16 6.8,-15.21 76.77,38.58 149.91,77.28 217.74,116.12 99.3,94.37 101.82,191.92 -4.08,225.58 -10.68,3.37 -21.23,4.98 -31.65,4.98z"/>
   <path class="fil30" d="M6251.36 3171.74c-14.56,-10.94 -32.37,-23.43 -53.14,-36.63 -7.96,-8.16 -16.25,-16.38 -24.85,-24.6 29.26,14.24 58.13,28.42 86.48,42.66 -2.14,5.05 -4.4,10.1 -6.8,15.21 -0.58,1.17 -1.17,2.27 -1.68,3.37z"/>
   <path class="fil31" d="M6244.24 3185.73c-14.11,-16.77 -29.45,-33.66 -46.02,-50.62 20.78,13.2 38.58,25.7 53.14,36.63 -2.26,4.66 -4.66,9.32 -7.12,13.98z"/>
   <path class="fil32" d="M6372.02 3477.26c-8.22,-5.18 -16.31,-11.13 -24.21,-17.8 5.37,-83.63 -77.41,-208.17 -81.49,-214.19 -2.14,-3.24 -5.7,-4.98 -9.32,-4.98 -2.13,0 -4.33,0.58 -6.28,1.88 -5.11,3.5 -6.47,10.42 -3.04,15.6 23.17,34.43 71.13,119.04 77.41,180.65 -48.74,-49.78 -91.52,-122.08 -123.95,-187 16.24,-20.71 30.87,-42.85 43.11,-65.7 95.74,113.66 135.61,220.46 127.78,291.54z"/>
   <path class="fil33" d="M6198.22 3135.11c-17.41,-11.07 -37.02,-22.66 -58.52,-34.11 10.94,2.85 21.62,5.76 32.11,8.8 0.58,0.26 1.04,0.45 1.56,0.71 8.61,8.22 16.89,16.44 24.85,24.6z"/>
   <path class="fil34" d="M6201.13 3251.43c-40.72,-81.43 -65.18,-151.4 -65.18,-151.4 1.23,0.32 2.52,0.65 3.75,0.97 21.49,11.46 41.1,23.04 58.52,34.11 16.57,16.96 31.91,33.85 46.02,50.62 -12.23,22.85 -26.86,44.98 -43.11,65.7z"/>
   <path class="fil35" d="M6253.82 3533.96c-0.13,0 -0.26,0 -0.45,0 -1.69,0 -3.3,-0.39 -4.79,-1.1 -3.76,-1.81 -6.41,-5.7 -6.41,-10.17 0,-6.21 5.05,-11.2 11.26,-11.2l0 0c0.13,0 0.26,0 0.45,0 33.2,0 55.08,-9.39 64.99,-27.83 6.47,-12.11 8.03,-27.77 6.21,-45.25 7.44,7.57 15.02,14.63 22.72,21.04 -0.84,12.69 -3.69,24.46 -9.19,34.76 -14.11,26.35 -42.59,39.74 -84.79,39.74z"/>
   <path class="fil36" d="M6347.81 3459.46c-7.7,-6.41 -15.28,-13.46 -22.72,-21.04 -6.28,-61.62 -54.24,-146.22 -77.41,-180.65 -3.43,-5.18 -2.07,-12.11 3.04,-15.6 1.94,-1.3 4.15,-1.88 6.28,-1.88 3.63,0 7.19,1.75 9.32,4.98 4.08,6.02 86.87,130.56 81.49,214.19z"/>
   <path class="fil37" d="M6108.83 3079.51c0,0 -158.84,-246.35 -252.12,-290.57 -100.59,-47.64 -253.93,-3.17 -329.25,24.21 -14.72,5.37 -13.85,26.28 1.18,30.75 172.02,50.49 370.99,136.31 580.19,235.61z"/>
   <path class="fil38" d="M6651.58 3374.67c-3.04,0 -6.22,-0.91 -9.19,-2.98 -50.23,-34.31 -105.44,-68.42 -164.8,-102.4 -67.83,-38.84 -140.98,-77.54 -217.74,-116.12 -28.35,-14.24 -57.22,-28.42 -86.48,-42.66 -0.52,-0.26 -0.97,-0.45 -1.56,-0.71 -18.51,-9 -37.22,-17.99 -56.12,-26.99 -4.53,-2.2 -9.13,-4.34 -13.72,-6.54 -3.11,-1.49 -6.21,-2.98 -9.39,-4.46 0,0 5.7,-0.65 15.67,-1.62 2.59,-0.26 5.5,-0.52 8.61,-0.84 3.04,-0.26 6.34,-0.58 9.9,-0.91 35.47,-3.17 94.18,-7.51 154.96,-8.35 6.34,-0.07 12.81,-0.13 19.22,-0.13 12.3,0 24.59,0.19 36.76,0.58 56.31,1.68 108.68,7.89 139.49,22.52 100.52,47.64 163.24,194.44 189.72,270.11 2.01,5.76 0.65,11.26 -2.52,15.21 -3.04,3.82 -7.77,6.28 -12.81,6.28zm-275.68 -275.48c137.03,0 224.41,194.31 225.32,196.39 1.17,2.52 3.11,4.46 5.5,5.57 1.43,0.71 3.11,1.1 4.79,1.1 1.49,0 3.04,-0.32 4.53,-0.97 5.63,-2.46 8.22,-9.13 5.69,-14.76 -3.88,-8.87 -94.31,-209.78 -245.45,-209.78 -5.18,0 -10.35,0.19 -15.6,0.71 -6.22,0.52 -10.74,6.02 -10.16,12.17 0.52,5.82 5.44,10.22 11.13,10.22 0.33,0 0.71,0 1.04,-0.06 4.46,-0.39 8.87,-0.58 13.2,-0.58z"/>
   <path class="fil39" d="M6611.51 3302.24c-1.69,0 -3.37,-0.39 -4.79,-1.1 -2.39,-1.1 -4.34,-3.04 -5.5,-5.57 -0.91,-2.07 -88.29,-196.39 -225.32,-196.39 -4.33,0 -8.74,0.19 -13.2,0.58 -0.33,0.06 -0.71,0.06 -1.04,0.06 -5.69,0 -10.61,-4.4 -11.13,-10.22 -0.58,-6.15 3.94,-11.65 10.16,-12.17 5.24,-0.52 10.42,-0.71 15.6,-0.71 151.14,0 241.57,200.92 245.45,209.78 2.53,5.63 -0.06,12.3 -5.69,14.76 -1.49,0.65 -3.04,0.97 -4.53,0.97z"/>
   <path class="fil40" d="M5438.91 8142.77l-45.81 -2922.69c-0.48,-32.07 30.43,-58.28 68.75,-58.28 61.99,0 112.23,-42.06 112.23,-93.93l0 -713.89c0,-45.46 44.96,-81.87 99.26,-80.37l247.21 6.86c60.85,1.69 109.46,42.97 110.56,93.91l84.54 3768.39 -676.72 0z"/>
   <path class="fil41" d="M6124.5 6672.4l1.04 32c98.39,136.93 187.84,101.99 249.4,60.91 -37.02,-92.24 -43.63,-102.43 -73.21,-134.47 -111.2,80.88 -177.22,41.56 -177.22,41.56z"/>
   <path class="fil42" d="M6572.74 6522.13l-173.08 -270.63c-11.39,152.65 -38.45,295.61 -97.93,379.34 29.58,32.04 36.19,42.23 73.21,134.47 153.8,-102.56 197.81,-243.18 197.81,-243.18z"/>
   <path class="fil43" d="M6742.65 8793.24c-86.28,3.96 -169.78,1.45 -225.58,-1.41 50.75,-36.14 167.78,-114.77 265.65,-146.07l67.19 -4.02c0,0 22.78,34.63 30.94,113.87 -11.2,13.9 -43.69,33.27 -138.2,37.63z"/>
   <path class="fil44" d="M6516.36 8792.33l0.71 -0.51c55.8,2.87 139.3,5.37 225.58,1.41 94.5,-4.36 127,-23.73 138.2,-37.63 0.32,3.66 0.71,7.27 1.04,11.11 1.43,17.41 -11.52,32.65 -28.87,33.99 -70.75,5.35 -245.97,17.43 -330.44,13 -11.13,-0.59 -15.28,-14.9 -6.22,-21.37z"/>
   <path class="fil45" d="M7359.9 8770.12c6.28,-40.5 16.44,-99.08 24.28,-114.06 12.23,-23.5 54.31,0 54.31,0 0,0 29.58,13.77 43.11,36.73 8.67,14.61 32.62,56.24 48.87,84.49 1.87,3.22 2.65,6.71 2.52,10.06l-168.36 5.89c-4.15,-6.61 -6.09,-14.68 -4.73,-23.11z"/>
   <path class="fil46" d="M7532.98 8787.34c-0.26,9.6 -7.9,18.33 -18.64,18.64l-119.94 3.3c-12.69,0.33 -23.69,-6.24 -29.78,-16.04l168.36 -5.89z"/>
   <path class="fil47" d="M7347.02 8521.41c1.49,4.86 23.24,110.34 32.75,156.64 2.59,12.8 14.11,21.78 27.19,21.12 7.12,-0.37 15.41,-1 24.08,-2.13 15.47,-2 27.19,-14.87 27.77,-30.41 1.56,-40.54 2.33,-118.4 -12.56,-148.57 -20.58,-41.62 -99.23,3.35 -99.23,3.35z"/>
   <path class="fil48" d="M6863.17 8551.62c-9.39,-0.29 3.69,48.19 -10.42,95.82 -3.17,10.75 -11.26,19.2 -22.46,19.33 -7.25,0.1 -15.86,-0.02 -24.59,-0.74 -13.14,-1.05 -23.69,-11.24 -24.92,-24.36l-11.46 -123.6 93.85 33.56z"/>
   <path class="fil49" d="M6602.13 7237.92c4.2,20.27 151.14,877.75 160.07,1321.45 0.2,7.43 5.63,13.67 13.01,14.69 18.7,2.61 55.02,5.96 90.3,-0.59 4.79,-0.9 8.41,-4.86 8.74,-9.76 5.11,-82.7 46.41,-781.79 -4.14,-1110.89 0,0 417.95,879.72 481.32,1122.3 1.55,5.91 6.99,9.88 13.07,9.55 17.87,-0.95 55.15,-4.17 84.67,-15.05 10.61,-3.89 16.63,-15.02 13.98,-26.01 -35.41,-145.17 -283.51,-1145.36 -451.93,-1365.71l-409.08 60z"/>
   <path class="fil50" d="M6870.1 7458.31c1.36,0 2.72,-0.51 3.81,-1.56 2.2,-2.12 2.2,-5.58 0.07,-7.75l-55.93 -57.23c-2.14,-2.18 -5.63,-2.2 -7.77,-0.1 -2.2,2.12 -2.2,5.61 -0.13,7.78l55.99 57.23c1.1,1.1 2.52,1.64 3.95,1.64z"/>
   <path class="fil51" d="M6363.21 6164.37c107.32,-28.13 305.39,-72.64 463.07,-62.79 51.46,3.22 61.23,51.73 63.3,87.95 23.82,419.88 60.33,771.57 121.63,988.39 -137.74,54.52 -274.32,79.79 -409.08,60 -100.91,-216.23 -189.2,-465.83 -264.61,-749.29 0,0 -44.21,-226.07 -1.23,-301.43 6.67,-11.75 15.47,-19.83 26.93,-22.83z"/>
   <path class="fil52" d="M6621.48 5870.24c0,0 27.06,161.73 35.15,236.54 1.36,12.16 -5.05,23.65 -15.92,29.23 -29.58,15.25 -92.89,39.82 -161.76,17.28 -11.39,-3.71 -18.84,-14.69 -18.58,-26.62l4.72 -215.94 156.39 -40.48z"/>
   <path class="fil53" d="M5969.54 5017.42c3.82,-2.18 5.18,-7.04 3.04,-10.87l-11 -19.5 -0.84 0.46 -64.8 -105.07c-2.33,-3.76 -7.25,-4.91 -11,-2.61l-12.23 7.57c-3.75,2.3 -4.98,7.22 -2.65,10.98l59.81 96.98c2.39,3.86 1.1,8.93 -2.85,11.16l-469.96 265.01c-3.84,2.15 -5.19,7.04 -3.02,10.87l11 19.5 0.15 -0.08 152.7 270.79c2.17,3.84 7.04,5.2 10.88,3.02l12.57 -7.06c3.84,-2.18 5.2,-7.04 3.02,-10.88l-148.79 -263.85c-2.15,-3.85 -0.79,-8.71 3.05,-10.88l470.92 -265.55z"/>
   <polygon class="fil54" points="5777.61,4653.92 5902.54,4875.4 4928.57,5424.63 4803.67,5203.13 "/>
   <path class="fil55" d="M6627.3 7450.99l-72.04 36.48c-1.88,0.95 -4.21,0.2 -5.11,-1.69l-977.39 -1930.74c-0.97,-1.87 -0.21,-4.17 1.69,-5.15l72.02 -36.47c1.9,-0.94 4.2,-0.18 5.15,1.69l977.37 1930.74c0.97,1.89 0.19,4.19 -1.69,5.14z"/>
   <path class="fil56" d="M4907.04 5289.75c34.76,61.63 44.41,122.03 21.55,134.93 -22.88,12.87 -69.57,-26.62 -104.32,-88.25 -34.76,-61.63 -44.39,-122.03 -21.52,-134.91 22.85,-12.9 69.56,26.59 104.3,88.22z"/>
   <path class="fil57" d="M5874.64 4745.17c34.76,61.63 44.34,122.03 21.49,134.93 -22.85,12.87 -69.52,-26.62 -104.28,-88.25 -34.76,-61.63 -44.4,-122.03 -21.56,-134.91 22.85,-12.89 69.59,26.62 104.34,88.23z"/>
   <path class="fil58" d="M6108.76 6677.31c-6.8,-10.31 -8.54,-23.09 -4.85,-34.89 7.06,-22.91 21.88,-56.54 46.54,-49.09 36.83,11.06 41.75,102.02 41.75,102.02l-9.78 58.39 12.3 29.09c-24.34,-11.74 -54.24,-53.8 -85.96,-105.52z"/>
   <path class="fil59" d="M6960.78 6882.79c15.08,-21.09 30.17,-44.2 45.05,-69.69 147.26,-252.24 -122.85,-638.52 -122.85,-638.52l-82.33 245.04c121.76,135.73 70.62,266.67 29.26,375.35 -54.24,142.26 -288.69,262.86 -288.69,262.86l44.66 55.11c0,0 241.05,-42.41 374.91,-230.15z"/>
   <path class="fil60" d="M7053.41 6559.7c-3.04,-195.85 -158.58,-403.89 -187,-440.48 -2,-2.59 -6.08,-2.07 -7.44,0.92l-58.32 299.48c24.79,57.89 19.74,94.29 44.47,146.43 66.87,-9.37 129,-9.86 194.96,4.45 6.93,1.51 13.4,-3.74 13.33,-10.8z"/>
   <path class="fil61" d="M6541.22 7057.83c-13.72,-6.93 -120.98,8.7 -104.54,23.47 28.8,25.85 30.1,45.46 -0.26,69.67 -14.95,11.96 -49.39,30.11 -58.78,2.21 -2.59,-7.86 -2.98,-18.05 -10.42,-21.61 -5.5,-2.63 -21.17,16.25 -22.07,22.29 -5.24,34 21.94,62.25 51.78,73.51 14.56,5.48 29.97,7.81 45.31,10.11 8.54,1.28 29.84,4.46 31.72,3.63 2.26,-0.97 3.56,-3.22 5.18,-5.04 6.99,-7.76 44.4,-39.26 52.56,-49.81 4.4,-5.7 60.52,-76.4 57.61,-83.19 0,0 -36.51,-39.39 -48.09,-45.25z"/>
   <path class="fil62" d="M6433.7 5697.91c0,0 -86.67,163.19 -75.54,229.13 11.07,65.93 118.52,61.19 212.37,7.65l65.57 -176.22 -202.41 -60.56z"/>
   <path class="fil63" d="M6566.39 5848.15c-3.82,-1.69 -5.24,-6.37 -2.98,-9.86 6.99,-10.61 20,-32.25 24.15,-51.21 0,0 15.6,-9.98 -39.68,-23.21 -55.21,-13.21 -137.61,-33.74 -154.96,-80.78 -16.89,-45.83 27.51,-161.17 98.26,-69.29 2.72,3.51 7.96,3.56 10.68,0.09 11.59,-15.11 42.07,-46.46 84.47,-27.46 39.61,17.79 44.08,46.84 43.5,61.48 -0.13,4.3 3.76,7.65 7.96,6.85 20.06,-3.84 68.16,-7.11 90.56,42.21 18.51,40.64 6.47,63.65 -4.47,74.89 -3.5,3.66 -2,9.65 2.85,11.13 13.2,4.05 30.23,15.2 28.54,46.07 -2.39,42.64 -50.1,38.88 -63.63,36.93 -2.27,-0.3 -4.53,0.46 -6.02,2.13 -11.65,12.87 -64.08,67.59 -120.85,74.17 -4.92,0.59 -8.74,-4.27 -7.12,-8.96l24.53 -71.41c1.17,-3.33 -0.45,-6.96 -3.63,-8.39l-12.17 -5.38z"/>
   <path class="fil64" d="M6556.49 5858.28c0,0 61.75,-42.36 66.22,-6.7 4.53,35.68 -55.54,51.67 -85.31,38.36l19.09 -31.66z"/>
   <path class="fil4" d="M6371.11 8798.89c-189.65,63.35 -373.87,63.4 -551.48,5.53 -44.93,-14.63 -75.35,-56.48 -75.35,-103.71l0 -870.07c218.33,48.04 447.15,50.5 688.19,0l0 883.53c0,38.54 -24.85,72.51 -61.36,84.72z"/>
   <path class="fil54" d="M6432.47 7823.7c0,38.19 -154.06,69.16 -344.09,69.16 -190.04,0 -344.1,-30.97 -344.1,-69.16 0,-38.18 154.06,-69.15 344.1,-69.15 190.04,0 344.09,30.97 344.09,69.15z"/>
   <path class="fil65" d="M6432.47 8500.58c-229.4,79.8 -458.8,79.8 -688.19,0l0 -347.09c231.47,57.08 460.93,59.96 688.19,0l0 347.09z"/>
   <path class="fil66" d="M5781.24 7909.72c7.38,27.57 38.77,46.13 66.48,39.31 19.42,-4.79 35.99,-19.99 55.99,-20.32 22.72,-0.38 40.85,18.35 54.05,36.78 24.08,33.53 42.4,71.15 53.85,110.78 3.82,13.18 7.25,27.18 16.5,37.34 19.81,21.7 57.28,14.74 79.36,-4.71 22.01,-19.48 33.98,-47.55 50.36,-71.97 16.37,-24.42 41.56,-47.19 70.88,-45.43 9.84,0.59 19.35,3.96 29.19,4.37 21.75,0.92 43.18,-14.51 49.2,-35.44 1.87,-6.43 2.46,-13.37 5.76,-19.15 9.97,-17.41 36.25,-19.07 49.84,-33.17 8.61,-8.96 11.52,-21.96 21.55,-30.74 3.76,-3.33 29.91,-14.13 30.43,-15.77 4.59,-14.02 -10.04,-26.69 -23.5,-32.71 -79.1,-35.22 -169.52,-0.1 -255.29,11.91 -84.28,11.8 -164.86,-7.43 -248.36,-6.68 -45.96,0.38 -123.44,11.46 -106.28,75.6z"/>
   <path class="fil67" d="M6436.48 7825.67c0,38.19 -154.05,69.16 -344.09,69.16 -190.04,0 -344.1,-30.97 -344.1,-69.16 0,-38.19 154.06,-69.16 344.1,-69.16 190.04,0 344.09,30.97 344.09,69.16z"/>
   <path class="fil68" d="M6366.45 7825.67c0,23.11 -126.8,41.83 -283.25,41.83 -156.45,0 -283.25,-18.71 -283.25,-41.83 0,-23.08 126.8,-41.82 283.25,-41.82 156.45,0 283.25,18.74 283.25,41.82z"/>
   <path class="fil69" d="M2340.28 8730.93l-1860.03 0c-59.32,0 -107.4,-48.07 -107.4,-107.4l0 -1795.95c0,-59.2 47.91,-107.22 107.11,-107.4l1874.91 -5.02c59.63,-0.18 108.01,48.32 107.67,107.96l-14.87 1800.97c-0.31,59.1 -48.3,106.83 -107.4,106.83z"/>
   <path class="fil4" d="M2249.13 6852.64l-1663.17 10.24c-60.12,0.36 -108.58,49.35 -108.3,109.47l11.61 1510.5c0.28,59.2 47.78,107.37 106.99,108.44l1615.98 29.48c60.35,1.1 110.1,-47.07 110.95,-107.42l35.57 -1550.22c0.87,-61.04 -48.58,-110.88 -109.63,-110.49z"/>
   <path class="fil70" d="M2148.91 7036.77l-1281.46 0c-18,0 -32.6,-14.59 -32.6,-32.59l0 -11.46c0,-18.02 14.6,-32.61 32.6,-32.61l1281.46 0c18.01,0 32.6,14.59 32.6,32.61l0 11.46c0,18 -14.59,32.59 -32.6,32.59z"/>
   <path class="fil70" d="M885.26 7188.19c-17.96,0 -32.59,-14.56 -32.59,-32.58l0 -2.66c0,-17.81 14.28,-32.33 32.08,-32.61l1120.72 -17.76c0.15,0 0.33,0 0.52,0 18.66,0 33.56,15.67 32.55,34.38 -0.94,17.04 -14.89,30.51 -31.96,30.82l-1120.71 20.42c-0.2,0 -0.4,0 -0.6,0z"/>
   <path class="fil71" d="M2266.69 7388.72l0.07 0 -0.07 0zm-1590.62 -92.81c-16.1,0 -31.31,6.14 -42.94,17.33 -11.94,11.49 -18.68,26.93 -18.99,43.48l-39.01 1066.64c-0.31,16.35 5.89,32.09 17.46,44.05 11.59,11.95 27.13,18.63 43.77,18.84l1515.81 18.17c0.23,0.02 0.48,0.02 0.74,0.02 33.63,0 61.36,-27.15 61.97,-60.88l36.37 -1055.22c0.51,-34.07 -26.7,-62.28 -60.79,-62.97l-1513.16 -29.43c-0.41,0 -0.83,-0.02 -1.24,-0.02zm1476.84 1239.43c-0.38,0 -0.74,0 -1.12,0l-1515.81 -18.2c-24.93,-0.31 -48.22,-10.32 -65.57,-28.23 -17.35,-17.89 -26.65,-41.47 -26.18,-66.39l39.01 -1066.66c0.46,-24.55 10.57,-47.69 28.46,-64.89 17.89,-17.22 41.76,-26.36 66.21,-25.93l1513.17 29.44c51.11,1 91.96,43.41 91.07,94.52l0 0.26 -36.37 1055.12c-0.89,50.27 -42.44,90.96 -92.86,90.96z"/>
   <path class="fil71" d="M2247.06 7501.7l-1650.83 0c-8.53,0 -15.45,-6.94 -15.45,-15.46 0,-8.55 6.92,-15.46 15.45,-15.46l1650.83 0c8.52,0 15.46,6.91 15.46,15.46 0,8.52 -6.93,15.46 -15.46,15.46z"/>
   <path class="fil72" d="M1638.32 3760.39c-1.64,1.49 -3.75,2.46 -6.12,2.65 -5.78,0.52 -10.86,-3.76 -11.37,-9.52 -1.22,-14.05 -2.18,-28.29 -2.86,-42.27 -0.3,-5.82 4.19,-10.74 9.97,-11 5.8,-0.32 10.71,4.21 11,9.97 0.67,13.72 1.62,27.7 2.82,41.49 0.29,3.43 -1.08,6.6 -3.44,8.67z"/>
   <path class="fil73" d="M1889.85 2958.53c-3.83,3.5 -9.7,3.69 -13.77,0.26 -4.43,-3.69 -5.04,-10.3 -1.33,-14.76 18.53,-22.2 38.19,-44.02 58.41,-64.67 4.22,-4.07 10.7,-4.2 14.84,-0.19 4.15,4.08 4.23,10.74 0.18,14.89 -19.83,20.26 -39.11,41.62 -57.3,63.44 -0.31,0.39 -0.67,0.71 -1.03,1.04zm231.69 -208.75c-0.39,0.33 -0.77,0.65 -1.2,0.91 -23.52,15.79 -46.74,32.75 -69.01,50.42 -4.56,3.56 -11.16,2.85 -14.76,-1.75 -3.59,-4.53 -2.59,-11.13 1.71,-14.69 22.7,-17.99 46.38,-35.28 70.36,-51.39 4.81,-3.24 11.33,-2.01 14.56,2.85 2.94,4.4 2.15,10.17 -1.67,13.66zm199.53 -106.41c-0.87,0.78 -1.89,1.43 -3.07,1.88 -26.23,10.74 -52.42,22.66 -77.78,35.41 -5.19,2.59 -11.49,0.52 -14.11,-4.66 -2.61,-5.18 -0.5,-11.52 4.69,-14.11 25.85,-13.01 52.52,-25.12 79.26,-36.06 5.37,-2.2 11.5,0.39 13.7,5.76 1.71,4.21 0.51,8.87 -2.69,11.78zm-557.4 502.94c-3.19,2.85 -7.95,3.56 -11.95,1.43 -5.13,-2.72 -7.07,-9.06 -4.36,-14.18 13.59,-25.57 28.35,-50.87 43.88,-75.28 3.09,-4.85 9.6,-6.34 14.51,-3.24 4.89,3.11 6.32,9.65 3.2,14.5 -15.23,23.95 -29.71,48.8 -43.05,73.85 -0.59,1.1 -1.35,2.07 -2.23,2.91zm774.4 -566.57c-1.38,1.23 -3.15,2.14 -5.12,2.52 -27.8,5.11 -55.85,11.39 -83.37,18.77 -5.57,1.49 -11.33,-1.88 -12.84,-7.44 -1.49,-5.63 1.84,-11.39 7.44,-12.88 28.03,-7.44 56.62,-13.92 84.98,-19.09 5.68,-1.1 11.16,2.72 12.21,8.41 0.69,3.69 -0.67,7.31 -3.3,9.71zm-859.45 776.16c-2.62,2.33 -6.35,3.37 -9.98,2.26 -5.57,-1.62 -8.77,-7.44 -7.14,-13.01 8.11,-27.83 17.4,-55.67 27.58,-82.66 2.03,-5.44 8.1,-8.16 13.53,-6.09 5.43,2.07 8.16,8.09 6.11,13.53 -10,26.48 -19.1,53.79 -27.07,81.11 -0.56,1.94 -1.64,3.56 -3.03,4.85zm1084.84 -794.09c-1.92,1.75 -4.48,2.78 -7.3,2.72 -28.33,-0.71 -57.05,-0.26 -85.38,1.3 -5.79,0.32 -10.72,-4.14 -11.06,-9.9 -0.3,-5.83 4.15,-10.74 9.91,-11.07 28.9,-1.55 58.18,-2 87.08,-1.3 5.78,0.13 10.36,4.92 10.21,10.75 -0.05,2.98 -1.38,5.69 -3.45,7.51zm-1125.8 1016.56c-2.07,1.88 -4.87,2.91 -7.87,2.65 -5.78,-0.45 -10.09,-5.5 -9.63,-11.26 2.3,-28.8 5.78,-57.93 10.32,-86.54 0.9,-5.69 6.27,-9.58 12.01,-8.67 5.73,0.91 9.63,6.28 8.72,11.98 -4.46,28.09 -7.87,56.64 -10.13,84.92 -0.22,2.79 -1.51,5.18 -3.43,6.93zm1350.14 -987.82c-2.49,2.2 -5.96,3.24 -9.44,2.46 -27.7,-6.47 -55.93,-11.97 -83.93,-16.24 -5.71,-0.84 -9.65,-6.22 -8.78,-11.98 0.87,-5.7 6.22,-9.65 11.95,-8.8 28.54,4.4 57.33,9.97 85.54,16.57 5.63,1.3 9.14,6.93 7.83,12.62 -0.51,2.14 -1.64,4.01 -3.17,5.37zm213.92 73.53c-3.02,2.72 -7.5,3.56 -11.44,1.74 -25.67,-11.91 -52.24,-22.98 -78.93,-32.81 -5.43,-2.07 -8.2,-8.09 -6.2,-13.53 1.99,-5.44 8.06,-8.22 13.49,-6.22 27.21,10.1 54.28,21.36 80.46,33.46 5.25,2.46 7.56,8.67 5.12,13.92 -0.61,1.36 -1.48,2.52 -2.5,3.43zm194.39 115.6c-3.64,3.3 -9.21,3.69 -13.28,0.65 -22.78,-16.96 -46.51,-33.21 -70.51,-48.29 -4.91,-3.11 -6.41,-9.58 -3.3,-14.5 3.02,-4.98 9.55,-6.41 14.46,-3.3 24.49,15.41 48.68,31.98 71.89,49.26 4.66,3.43 5.61,10.03 2.15,14.69 -0.44,0.52 -0.9,1.04 -1.41,1.49z"/>
   <path class="fil74" d="M3532.91 2900.47c-4.17,3.76 -10.65,3.56 -14.59,-0.52 -9.55,-9.97 -19.4,-19.87 -29.33,-29.45 -4.17,-4.01 -4.3,-10.68 -0.26,-14.82 4.12,-4.08 10.67,-4.34 14.84,-0.26 10.11,9.78 20.17,19.87 29.9,29.97 4,4.21 3.87,10.88 -0.3,14.89l-0.26 0.19z"/>
   <path class="fil75" d="M3839.97 3704.33c-1.97,1.75 -4.57,2.78 -7.42,2.72 -5.79,-0.26 -10.32,-5.11 -10.11,-10.94 0.51,-13.85 0.76,-27.83 0.74,-41.56 0,-5.76 4.69,-10.49 10.47,-10.49 5.79,-0.06 10.5,4.66 10.52,10.49 0.03,13.92 -0.23,28.22 -0.74,42.33 -0.1,2.98 -1.43,5.63 -3.46,7.44z"/>
   <path class="fil76" d="M2104.34 4568.3c-3.55,3.2 -8.98,3.67 -13.05,0.8 -23.29,-16.33 -46.28,-33.79 -68.26,-51.88 -4.48,-3.69 -5.12,-10.32 -1.43,-14.8 3.68,-4.38 10.31,-5.12 14.76,-1.43 21.61,17.79 44.13,34.91 66.96,50.91 4.76,3.33 5.91,9.88 2.59,14.62 -0.46,0.69 -1,1.28 -1.57,1.78zm194.32 108.55c-2.94,2.66 -7.3,3.51 -11.19,1.85 -26.14,-11.29 -52.17,-23.76 -77.35,-37.01 -5.12,-2.71 -7.09,-9.09 -4.38,-14.21 2.69,-5.11 9.04,-7.09 14.19,-4.38 24.69,13.03 50.22,25.24 75.86,36.32 5.32,2.28 7.78,8.48 5.48,13.8 -0.61,1.44 -1.51,2.64 -2.61,3.64zm212.15 67.36c-2.41,2.18 -5.79,3.22 -9.22,2.49 -21.88,-4.61 -44,-9.96 -65.67,-15.93 -5.87,-1.59 -11.67,-3.25 -17.46,-4.94 -5.58,-1.61 -8.78,-7.44 -7.14,-13 1.61,-5.57 7.45,-8.78 13,-7.14 5.68,1.67 11.39,3.28 17.12,4.84 21.32,5.83 43,11.11 64.5,15.64 5.66,1.2 9.29,6.76 8.09,12.43 -0.46,2.25 -1.64,4.2 -3.22,5.61zm221.27 23.78c-1.87,1.69 -4.38,2.71 -7.09,2.69 -28.39,-0.13 -57.2,-1.41 -85.64,-3.76 -5.76,-0.49 -10.06,-5.56 -9.57,-11.34 0.46,-5.79 5.53,-10.08 11.31,-9.6 27.91,2.33 56.19,3.56 84,3.74 5.81,0.02 10.47,4.74 10.44,10.55 0,3.07 -1.35,5.83 -3.45,7.73zm1077.28 -843.2c-2.48,2.26 -6.01,3.24 -9.52,2.39 -5.63,-1.36 -9.09,-7.06 -7.7,-12.69 6.57,-27.12 12.21,-54.89 16.74,-82.4 0.94,-5.76 6.32,-9.64 12.05,-8.67 5.71,0.91 9.6,6.35 8.65,12.04 -4.58,28.09 -10.34,56.31 -17.05,83.95 -0.54,2.14 -1.67,4.02 -3.17,5.37zm-855.84 821.83c-1.35,1.2 -3.02,2.09 -4.94,2.48 -27.87,5.58 -56.33,10.16 -84.61,13.59 -5.76,0.69 -10.98,-3.41 -11.67,-9.16 -0.72,-5.76 3.37,-10.98 9.16,-11.7 27.72,-3.35 55.65,-7.83 82.98,-13.3 5.7,-1.16 11.23,2.53 12.36,8.21 0.77,3.76 -0.61,7.47 -3.28,9.88zm781.94 -611.85c-3.04,2.72 -7.55,3.56 -11.49,1.68 -5.25,-2.46 -7.5,-8.67 -5.04,-13.98 11.83,-25.11 22.85,-51.2 32.78,-77.42 2.05,-5.44 8.12,-8.15 13.54,-6.08 5.42,2.01 8.17,8.09 6.09,13.53 -10.11,26.73 -21.37,53.27 -33.43,78.91 -0.59,1.29 -1.46,2.46 -2.46,3.37zm-569.25 546.27c-0.87,0.77 -1.84,1.41 -2.97,1.87 -26.26,11.11 -53.24,21.3 -80.17,30.3 -5.48,1.85 -11.44,-1.13 -13.28,-6.63 -1.85,-5.48 1.13,-11.47 6.63,-13.28 26.42,-8.83 52.89,-18.84 78.65,-29.72 5.35,-2.28 11.52,0.22 13.77,5.58 1.77,4.22 0.59,8.96 -2.63,11.87zm454.69 -355.43c-3.66,3.3 -9.24,3.66 -13.31,0.61 -4.66,-3.48 -5.61,-10.06 -2.13,-14.72 16.74,-22.37 32.81,-45.66 47.73,-69.21 3.1,-4.94 9.6,-6.37 14.49,-3.28 4.91,3.12 6.34,9.6 3.25,14.49 -15.23,24.03 -31.59,47.78 -48.65,70.59 -0.43,0.56 -0.89,1.07 -1.39,1.51zm-259.43 248.65c-0.33,0.31 -0.72,0.59 -1.1,0.87 -23.47,16.07 -47.86,31.46 -72.51,45.71 -5.02,2.89 -11.44,1.18 -14.33,-3.84 -2.92,-5.02 -1.15,-11.42 3.84,-14.35 24.19,-13.98 48.11,-29.08 71.13,-44.85 4.79,-3.27 11.31,-2.04 14.59,2.74 3.02,4.37 2.23,10.24 -1.61,13.72zm115.69 -91.17l-7.09 6.34c-4.35,3.85 -10.98,3.43 -14.81,-0.92 -3.81,-4.3 -3.43,-10.9 0.84,-14.74l0.07 -0.07 6.94 -6.2c18.4,-16.61 36.5,-34.09 53.78,-51.98 4.17,-4.07 10.69,-4.27 14.84,-0.26 4.17,4.04 4.3,10.67 0.26,14.85 -17.61,18.22 -36.07,36.06 -54.83,52.98z"/>
   <path class="fil77" d="M1935.68 4422.41c-4.23,3.81 -10.75,3.59 -14.67,-0.59 -9.6,-10.15 -19.17,-20.7 -28.48,-31.35 -3.81,-4.38 -2.89,-11.01 1,-14.82 4.35,-3.81 11,-3.38 14.82,1 9.11,10.44 18.52,20.78 27.93,30.76 3.98,4.22 3.78,10.88 -0.42,14.85l-0.17 0.15z"/>
   <path class="fil78" d="M2578.66 4488.48c-1.3,0 -2.61,-0.2 -3.88,-0.59l-184.67 -57.05c-5.41,-1.66 -9.14,-6.55 -9.31,-12.21l-1.41 -43.15 -3.81 -117.78c-46.86,-27.44 -89.78,-59.87 -128.28,-96.39 -16.38,-15.56 -31.97,-31.83 -46.74,-48.79l-159.22 24.66c-0.67,0.06 -1.35,0.13 -2.02,0.13 -4.84,0 -9.39,-2.65 -11.7,-6.99l-60.81 -115.15 -29.43 -55.8c-2.64,-4.98 -1.82,-11.13 2.05,-15.21l110.16 -117.55c-19.02,-72.82 -26.6,-149.2 -21.22,-226.42l-129.95 -95.08c-4.56,-3.37 -6.5,-9.19 -4.83,-14.63l57.05 -184.61c1.67,-5.44 6.55,-9.19 12.21,-9.32l160.94 -5.24c39.11,-66.87 88.43,-125.64 145.2,-175.03l-24.67 -159.23c-0.87,-5.57 1.89,-11.07 6.89,-13.72l170.9 -90.23c1.97,-1.04 4.09,-1.55 6.19,-1.55 3.28,0 6.55,1.23 9.06,3.62l117.56 110.17c57.48,-15.08 117.2,-22.91 177.83,-22.91 16.12,0 32.32,0.52 48.58,1.68l95.05 -129.97c2.56,-3.43 6.56,-5.44 10.7,-5.44 1.31,0 2.61,0.19 3.89,0.65l184.67 57.03c5.4,1.68 9.13,6.54 9.31,12.17l5.25 160.98c66.83,39.1 125.62,88.42 174.99,145.19l159.22 -24.66c0.67,-0.13 1.36,-0.2 2.03,-0.2 4.86,0 9.39,2.72 11.7,7.06l90.24 170.95c2.63,4.98 1.82,11.07 -2.05,15.21l-110.16 117.54c19.04,72.82 26.59,149.2 21.22,226.42l129.94 95.09c4.56,3.3 6.5,9.19 4.84,14.56l-50.86 164.67 -6.17 20c-1.66,5.44 -6.57,9.13 -12.23,9.32l-160.94 5.24c-26.93,46.02 -58.69,88.22 -94.42,126.15 -16.15,17.19 -33.09,33.47 -50.78,48.85l24.7 159.22c0.85,5.58 -1.92,11.08 -6.91,13.72l-4.07 2.15 -166.82 88.1c-1.95,1.02 -4.07,1.53 -6.2,1.53 -3.27,0 -6.52,-1.23 -9.04,-3.58l-85.15 -79.78 -32.43 -30.38c-57.48,15.03 -117.19,22.91 -177.83,22.91 -16.12,0 -32.32,-0.57 -48.58,-1.69l-11.31 15.48 -83.74 114.46c-2.53,3.48 -6.55,5.43 -10.7,5.43zm-63.5 -449.37l-15.43 27.44c29.74,16.7 61.47,30.29 94.31,40.45 47.22,14.57 95.01,21.49 142.03,21.49 120.47,0 235.88,-45.57 323.72,-124.8 62.25,-56.19 110.65,-129.26 137.13,-215.03 38.01,-123.05 25.83,-253.54 -34.3,-367.4 -19.07,-36.05 -42.21,-69.13 -68.85,-98.65 -57.43,-63.63 -131.15,-110.88 -215.18,-136.83 -47.22,-14.63 -94.98,-21.56 -142,-21.56 -205.88,0 -397.02,133.15 -460.91,339.89 -25.78,83.5 -28.46,172.24 -7.75,256.65l30.58 -7.44c-19.35,-78.91 -16.84,-161.89 7.27,-239.95 59.69,-193.28 238.34,-317.62 430.79,-317.62 43.94,0 88.61,6.47 132.7,20.07 78.55,24.27 147.45,68.48 201.15,127.97 24.9,27.57 46.53,58.45 64.34,92.17 56.2,106.48 67.57,228.43 32.07,343.39 -15.51,50.17 -39.03,95.73 -68.72,135.67 -0.23,0.26 -0.43,0.52 -0.64,0.84 -0.2,0.26 -0.41,0.52 -0.63,0.84 -84.72,112.82 -218.99,180.33 -360.76,180.33 -43.95,0 -88.64,-6.54 -132.76,-20.13 -30.72,-9.51 -60.38,-22.26 -88.17,-37.8zm217.58 -577.89c-98.85,0 -181.75,77.74 -186.97,177.61 -2.64,49.97 14.38,97.93 47.87,135.15 33.47,37.16 79.44,59.1 129.43,61.69 3.35,0.19 6.68,0.32 10.01,0.32 46.35,0 90.45,-16.89 125.16,-48.16l0.13 -0.13c37.11,-33.46 58.97,-79.42 61.6,-129.33 2.61,-49.97 -14.38,-97.93 -47.89,-135.15 -33.48,-37.22 -79.45,-59.1 -129.43,-61.75 -3.33,-0.13 -6.6,-0.26 -9.91,-0.26zm0.3 343.25c-2.76,0 -5.55,-0.06 -8.34,-0.19 -41.57,-2.2 -79.8,-20.45 -107.68,-51.39 -27.84,-30.94 -42,-70.81 -39.83,-112.43 2.2,-41.49 20.38,-79.75 51.24,-107.58l0.13 -0.07c28.87,-26.02 65.55,-40.07 104.12,-40.07 2.76,0 5.53,0.07 8.32,0.2 41.56,2.2 79.8,20.45 107.67,51.39 27.85,30.94 42,70.81 39.83,112.43 -2.18,41.49 -20.37,79.68 -51.24,107.58l-0.1 0.06c-28.87,26.02 -65.57,40.07 -104.12,40.07z"/>
   <path class="fil79" d="M2733.08 3835.99c-3.33,0 -6.65,-0.13 -10.01,-0.32 -49.99,-2.59 -95.96,-24.53 -129.43,-61.69 -33.48,-37.22 -50.5,-85.18 -47.87,-135.15 5.22,-99.88 88.12,-177.61 186.97,-177.61 3.3,0 6.58,0.13 9.91,0.26 49.98,2.65 95.95,24.53 129.43,61.75 33.5,37.22 50.5,85.18 47.89,135.15 -2.63,49.91 -24.49,95.86 -61.6,129.33l-0.13 0.13c-34.7,31.26 -78.81,48.16 -125.16,48.16zm-0.38 -343.26c-38.57,0 -75.25,14.05 -104.12,40.07l-0.13 0.07c-30.86,27.83 -49.04,66.09 -51.24,107.58 -2.17,41.62 11.98,81.49 39.83,112.43 27.87,30.94 66.11,49.19 107.68,51.39 2.79,0.13 5.58,0.19 8.34,0.19 38.55,0 75.25,-14.04 104.12,-40.07l0.1 -0.06c30.87,-27.9 49.06,-66.09 51.24,-107.58 2.18,-41.62 -11.98,-81.49 -39.83,-112.43 -27.87,-30.94 -66.11,-49.19 -107.67,-51.39 -2.79,-0.13 -5.56,-0.2 -8.32,-0.2z"/>
   <path class="fil80" d="M2736.07 4128.5c-47.02,0 -94.81,-6.93 -142.03,-21.49 -32.84,-10.16 -64.58,-23.75 -94.31,-40.45l15.43 -27.44c27.79,15.54 57.46,28.29 88.17,37.8 44.12,13.59 88.81,20.13 132.76,20.13 141.77,0 276.03,-67.51 360.76,-180.33 0.23,-0.32 0.43,-0.58 0.63,-0.84 0.21,-0.32 0.41,-0.58 0.64,-0.84 29.69,-39.94 53.21,-85.5 68.72,-135.67 35.5,-114.96 24.14,-236.91 -32.07,-343.39 -17.81,-33.72 -39.44,-64.6 -64.34,-92.17 -53.7,-59.49 -122.6,-103.7 -201.15,-127.97 -44.1,-13.59 -88.76,-20.07 -132.7,-20.07 -192.45,0 -371.1,124.34 -430.79,317.62 -24.11,78.06 -26.61,161.04 -7.27,239.95l-30.58 7.44c-20.71,-84.41 -18.02,-173.15 7.75,-256.65 63.88,-206.74 255.02,-339.89 460.91,-339.89 47.02,0 94.78,6.93 142,21.56 84.03,25.96 157.74,73.21 215.18,136.83 26.64,29.52 49.78,62.59 68.85,98.65 60.12,113.86 72.3,244.35 34.3,367.4 -26.49,85.76 -74.89,158.84 -137.13,215.03 -87.84,79.22 -203.25,124.8 -323.72,124.8z"/>
   <path class="fil81" d="M3807.16 3952.69c-1.44,-0.97 -2.56,-2.39 -3.15,-4.14 -1.44,-4.27 0.87,-8.93 5.14,-10.36 10.42,-3.5 21.09,-6.73 31.72,-9.58 4.35,-1.17 8.83,1.49 9.98,5.83 1.18,4.33 -1.44,8.8 -5.79,9.97 -10.26,2.72 -20.6,5.89 -30.71,9.26 -2.51,0.84 -5.15,0.39 -7.19,-0.97z"/>
   <path class="fil82" d="M4333.26 4079.24c-0.43,-0.32 -0.84,-0.65 -1.23,-1.04 -15.64,-15.99 -32.48,-31.07 -50.06,-44.79 -3.53,-2.78 -4.17,-7.9 -1.38,-11.46 2.76,-3.56 7.85,-4.02 11.44,-1.43 18.15,14.18 35.52,29.78 51.67,46.28 3.15,3.24 3.07,8.35 -0.15,11.52 -2.81,2.78 -7.15,3.04 -10.29,0.91zm-208.52 -128.94c-2.89,-2.01 -4.28,-5.76 -3.18,-9.26 1.39,-4.27 5.99,-6.67 10.26,-5.31 21.96,7.06 43.64,15.66 64.5,25.57 4.05,1.94 5.79,6.8 3.84,10.87 -1.92,4.08 -6.8,5.76 -10.87,3.88 -20.17,-9.65 -41.18,-17.93 -62.43,-24.79 -0.77,-0.26 -1.49,-0.58 -2.12,-0.97zm308.98 276.32c-1.2,-0.81 -2.2,-1.97 -2.84,-3.41 -9.16,-20.34 -19.76,-40.29 -31.58,-59.25 -2.35,-3.84 -1.2,-8.85 2.63,-11.24 3.84,-2.4 8.83,-1.2 11.24,2.61 12.18,19.61 23.14,40.18 32.58,61.19 1.84,4.13 0.03,8.93 -4.1,10.78 -2.69,1.2 -5.68,0.84 -7.93,-0.69zm-485.79 -300.01c-2.07,-1.42 -3.46,-3.75 -3.56,-6.41 -0.2,-4.53 3.3,-8.29 7.8,-8.48 12.29,-0.52 24.78,-0.58 37.19,-0.19 10.73,0.26 21.52,0.91 32.15,1.87 4.5,0.39 7.78,4.4 7.37,8.87 -0.41,4.53 -4.38,7.83 -8.85,7.38 -10.3,-0.91 -20.76,-1.56 -31.15,-1.88 -12,-0.32 -24.13,-0.26 -36.01,0.26 -1.84,0.06 -3.53,-0.45 -4.94,-1.43zm528.99 473.03c-2,-1.35 -3.38,-3.58 -3.56,-6.2 -1.51,-22.32 -4.56,-44.71 -9.03,-66.55 -0.9,-4.4 1.94,-8.72 6.34,-9.62 4.43,-0.9 8.73,1.94 9.65,6.35 4.6,22.54 7.75,45.65 9.31,68.72 0.31,4.48 -3.09,8.39 -7.57,8.68 -1.92,0.13 -3.72,-0.38 -5.15,-1.38zm-19.07 177.37c-2.84,-1.95 -4.25,-5.56 -3.22,-9.04 6.22,-21.4 11.06,-43.48 14.35,-65.6 0.67,-4.46 4.81,-7.52 9.26,-6.85 4.46,0.67 7.53,4.81 6.86,9.26 -3.41,22.86 -8.4,45.63 -14.82,67.75 -1.26,4.32 -5.78,6.83 -10.11,5.56 -0.84,-0.23 -1.64,-0.62 -2.33,-1.07z"/>
   <path class="fil83" d="M4398.55 4707.75c-3.61,-2.46 -4.65,-7.4 -2.28,-11.11 5.76,-9.01 11.26,-18.28 16.41,-27.59 2.15,-3.94 7.11,-5.4 11.06,-3.22 4.15,2.07 5.4,7.14 3.22,11.08 -5.3,9.63 -11,19.22 -16.92,28.51 -2.43,3.79 -7.47,4.89 -11.26,2.49l-0.23 -0.16z"/>
   <path class="fil84" d="M4058.88 4935.26c-1.76,-1.19 -3.04,-3.05 -3.46,-5.33 -0.76,-4.43 2.19,-8.65 6.64,-9.44 10.49,-1.85 21.06,-4.07 31.38,-6.6 4.38,-1.07 8.8,1.61 9.88,5.99 1.05,4.37 -1.61,8.78 -5.99,9.85 -10.67,2.61 -21.57,4.92 -32.43,6.83 -2.2,0.38 -4.33,-0.13 -6.02,-1.3z"/>
   <path class="fil85" d="M3471.41 4332.76c-2.63,-1.8 -4.1,-5.04 -3.41,-8.37 4.5,-22.24 10.57,-44.41 18,-65.8 1.46,-4.28 6.11,-6.53 10.36,-5.04 4.28,1.46 6.53,6.12 5.05,10.36 -7.2,20.76 -13.06,42.19 -17.43,63.73 -0.9,4.43 -5.2,7.27 -9.6,6.38 -1.1,-0.24 -2.1,-0.67 -2.97,-1.26zm-4.96 175.43c-1.82,-1.26 -3.15,-3.22 -3.48,-5.58 -3.25,-22.37 -5.04,-45.25 -5.32,-67.98 -0.05,-4.5 3.56,-8.22 8.06,-8.27 4.5,-0.04 8.19,3.56 8.26,8.07 0.26,22.01 2,44.18 5.15,65.85 0.64,4.45 -2.45,8.6 -6.91,9.24 -2.1,0.3 -4.12,-0.23 -5.76,-1.33zm54.95 166.63c-1.05,-0.72 -1.94,-1.67 -2.61,-2.87 -10.72,-20.02 -20.24,-40.9 -28.2,-62.09 -1.59,-4.22 0.54,-8.93 4.76,-10.52 4.23,-1.59 8.93,0.54 10.5,4.76 7.73,20.53 16.91,40.75 27.33,60.13 2.12,3.96 0.63,8.93 -3.33,11.06 -2.76,1.48 -6.02,1.2 -8.45,-0.46zm361.93 260.96c-2.53,-1.74 -3.99,-4.89 -3.43,-8.11 0.74,-4.45 4.96,-7.45 9.39,-6.68 21.63,3.69 43.74,5.99 65.75,6.83 4.5,0.13 8.01,3.94 7.83,8.44 -0.17,4.51 -3.97,8.02 -8.47,7.86 -22.7,-0.87 -45.53,-3.25 -67.85,-7.06 -1.18,-0.2 -2.28,-0.64 -3.23,-1.28zm-253.54 -122.95c-0.31,-0.2 -0.59,-0.43 -0.87,-0.67 -16.87,-15.18 -32.89,-31.61 -47.61,-48.86 -2.91,-3.43 -2.53,-8.57 0.9,-11.49 3.42,-2.94 8.59,-2.51 11.51,0.89 14.26,16.71 29.77,32.61 46.1,47.32 3.35,3 3.63,8.17 0.61,11.52 -2.76,3.07 -7.31,3.55 -10.64,1.28zm88.32 63.78c-3.48,-2.35 -4.6,-7.04 -2.48,-10.77 2.23,-3.92 7.22,-5.28 11.13,-3.05 19.07,10.9 39.06,20.61 59.43,28.85 4.2,1.72 6.17,6.48 4.47,10.65 -1.69,4.18 -6.44,6.17 -10.62,4.48 -21.04,-8.52 -41.69,-18.55 -61.38,-29.79l-0.56 -0.36z"/>
   <path class="fil86" d="M3535.89 4169.13c-3.59,-2.43 -4.64,-7.27 -2.36,-11 5.76,-9.37 11.91,-18.69 18.22,-27.69 2.56,-3.63 7.58,-4.53 11.26,-2.01l0.11 0.07c3.68,2.59 4.56,7.7 1.96,11.39 -6.14,8.67 -12.08,17.7 -17.66,26.79 -2.35,3.84 -7.37,5.04 -11.21,2.69l-0.33 -0.24z"/>
   <path class="fil87" d="M3999.15 4821.23c-0.13,0 -0.25,0 -0.38,-0.02l-88.92 -5.46c-2.61,-0.15 -4.81,-1.94 -5.5,-4.45l-19.86 -71.51c-34.19,-10.26 -65.91,-25.93 -94.19,-45.99l-68.65 28.39c-0.74,0.3 -1.54,0.46 -2.33,0.46 -1.72,0 -3.38,-0.72 -4.58,-2.07l-59.02 -66.73c-1.72,-1.94 -2.02,-4.78 -0.74,-7.04l36.54 -64.65c-3.3,-6.15 -6.4,-12.4 -9.31,-18.74 -11.59,-25.29 -20.02,-52.27 -24.83,-80.37l-68.54 -28.46c-2.41,-1 -3.92,-3.41 -3.76,-6.02l5.45 -88.91c0.16,-2.58 1.94,-4.82 4.45,-5.5l28.2 -7.83 43.31 -12.04c10.26,-34.19 25.95,-65.88 46,-94.19l-28.36 -68.65c-1,-2.41 -0.36,-5.17 1.59,-6.89l52.96 -46.89 13.77 -12.17c1.15,-0.97 2.58,-1.49 4.04,-1.49 1.02,0 2.07,0.26 2.99,0.78l20.73 11.72 43.95 24.86c22.47,-12.11 46.48,-21.69 71.61,-28.22 9.04,-2.39 18.2,-4.4 27.49,-5.95l28.43 -68.55c0.95,-2.33 3.17,-3.76 5.63,-3.76 0.13,0 0.26,0 0.38,0l88.92 5.44c2.61,0.13 4.81,1.94 5.51,4.47l17.58 63.24 2.28 8.29c34.2,10.23 65.91,25.93 94.21,46l68.62 -28.39c0.77,-0.32 1.54,-0.45 2.33,-0.45 1.72,0 3.41,0.71 4.59,2.07l59.02 66.73c1.72,1.94 2.03,4.76 0.74,7.04l-36.55 64.65c9.7,18 17.74,36.99 23.94,56.78 4.33,13.74 7.76,27.9 10.21,42.33l68.57 28.44c2.41,1 3.92,3.43 3.74,6.01l-5.45 88.92c-0.16,2.61 -1.95,4.81 -4.45,5.53l-71.51 19.87c-3.13,10.36 -6.73,20.5 -10.8,30.38 -9.37,22.7 -21.22,44.07 -35.19,63.81l28.38 68.62c1,2.41 0.34,5.2 -1.61,6.91l-66.72 59.02c-1.16,1.02 -2.59,1.54 -4.04,1.54 -1.02,0 -2.08,-0.25 -3,-0.79l-64.65 -36.55c-30.53,16.46 -63.94,28.16 -99.1,34.15l-28.46 68.56c-0.94,2.28 -3.17,3.76 -5.63,3.76zm-238.28 -453.46c-0.49,1.76 -0.97,3.53 -1.41,5.33 -3.54,13.79 -5.76,28.03 -6.63,42.38 -5.07,82.8 35.09,158.13 99.13,201.79 32.66,22.27 71.54,36.3 113.74,38.88 4.76,0.3 9.5,0.43 14.21,0.43 55.46,0 108.34,-19.96 150.24,-57.03 14.41,-12.74 26.97,-27.02 37.52,-42.51 22.76,-33.38 36.19,-72.41 38.72,-113.77 3.72,-60.58 -16.37,-118.99 -56.59,-164.44 -40.21,-45.46 -95.72,-72.54 -156.28,-76.25 -4.68,-0.28 -9.34,-0.43 -14,-0.43 -36.35,0 -72.2,8.7 -104.43,25.44l11.26 21.73c28.77,-14.95 60.72,-22.68 93.17,-22.68 4.14,0 8.31,0.13 12.49,0.38 54.06,3.3 103.58,27.46 139.46,68.04 35.86,40.57 53.8,92.65 50.5,146.71 -2.28,36.93 -14.26,71.74 -34.58,101.53 -9.42,13.82 -20.6,26.57 -33.45,37.93 -37.39,33.07 -84.57,50.88 -134.04,50.88 -4.22,0 -8.44,-0.13 -12.7,-0.38 -3.32,-0.21 -6.65,-0.48 -9.93,-0.85 -1.2,-0.15 -2.41,-0.28 -3.6,-0.43 -0.49,-0.08 -0.95,-0.13 -1.44,-0.21 -0.56,-0.07 -1.15,-0.15 -1.7,-0.23 -18.02,-2.61 -35.2,-7.55 -51.3,-14.51 -62.12,-26.85 -107.6,-83.77 -119.37,-151.3l-0.03 -0.22 -0.03 -0.13c-2.61,-15.15 -3.53,-30.86 -2.56,-46.89 0.89,-14.46 3.3,-28.77 7.17,-42.57l-23.55 -6.63zm217.43 -31.07c-5.61,0 -11.26,0.51 -16.95,1.59 -23.98,4.5 -44.76,18.1 -58.53,38.24 -13.75,20.15 -18.83,44.46 -14.34,68.44 4.51,23.96 18.1,44.77 38.24,58.51l0.08 0.05c15.33,10.47 33.06,15.9 51.24,15.9 5.68,0 11.42,-0.54 17.09,-1.59 23.98,-4.53 44.77,-18.1 58.54,-38.27 13.77,-20.11 18.86,-44.43 14.33,-68.41 -8.24,-43.82 -46.68,-74.46 -89.7,-74.46zm-0.18 158.26c-13.31,0 -26.31,-4 -37.55,-11.65l-0.05 -0.02c-14.74,-10.08 -24.67,-25.29 -28,-42.85 -3.3,-17.55 0.43,-35.35 10.52,-50.11 10.06,-14.75 25.28,-24.68 42.84,-27.98 4.15,-0.8 8.29,-1.18 12.39,-1.18 13.69,0 26.74,4.25 37.62,11.67 14.18,9.65 24.67,24.7 28.08,42.85 3.3,17.56 -0.43,35.34 -10.52,50.09 -10.06,14.77 -25.29,24.69 -42.84,28 -4.18,0.79 -8.34,1.18 -12.49,1.18z"/>
   <path class="fil88" d="M3978.03 4519.42c-18.18,0 -35.91,-5.43 -51.24,-15.9l-0.08 -0.05c-20.14,-13.74 -33.73,-34.55 -38.24,-58.51 -4.5,-23.98 0.59,-48.29 14.34,-68.44 13.77,-20.14 34.55,-33.74 58.53,-38.24 5.69,-1.07 11.34,-1.59 16.95,-1.59 43.02,0 81.46,30.63 89.7,74.46 4.53,23.98 -0.56,48.3 -14.33,68.41 -13.77,20.17 -34.56,33.74 -58.54,38.27 -5.68,1.05 -11.41,1.59 -17.09,1.59zm0.23 -158.25c-4.1,0 -8.24,0.38 -12.39,1.18 -17.56,3.3 -32.78,13.23 -42.84,27.98 -10.09,14.76 -13.83,32.56 -10.52,50.11 3.33,17.56 13.26,32.77 28,42.85l0.05 0.02c11.24,7.66 24.24,11.65 37.55,11.65 4.15,0 8.31,-0.39 12.49,-1.18 17.56,-3.31 32.78,-13.23 42.84,-28 10.09,-14.74 13.82,-32.53 10.52,-50.09 -3.41,-18.15 -13.9,-33.2 -28.08,-42.85 -10.88,-7.42 -23.93,-11.67 -37.62,-11.67z"/>
   <path class="fil89" d="M3979.9 4656.58c-4.71,0 -9.44,-0.13 -14.21,-0.43 -42.2,-2.58 -81.08,-16.61 -113.74,-38.88 -64.04,-43.67 -104.2,-118.99 -99.13,-201.79 0.87,-14.35 3.1,-28.59 6.63,-42.38 0.43,-1.8 0.92,-3.56 1.41,-5.33l23.55 6.63c-3.86,13.8 -6.27,28.11 -7.17,42.57 -0.98,16.03 -0.05,31.74 2.56,46.89l0.03 0.13 0.03 0.22c11.77,67.52 57.25,124.45 119.37,151.3 16.1,6.96 33.28,11.91 51.3,14.51 0.56,0.08 1.14,0.16 1.7,0.23 0.49,0.08 0.95,0.13 1.44,0.21 1.2,0.15 2.4,0.28 3.6,0.43 3.28,0.36 6.61,0.64 9.93,0.85 4.26,0.25 8.48,0.38 12.7,0.38 49.47,0 96.65,-17.81 134.04,-50.88 12.85,-11.36 24.04,-24.11 33.45,-37.93 20.32,-29.8 32.3,-64.6 34.58,-101.53 3.3,-54.06 -14.64,-106.14 -50.5,-146.71 -35.88,-40.57 -85.41,-64.73 -139.46,-68.04 -4.18,-0.25 -8.35,-0.38 -12.49,-0.38 -32.45,0 -64.4,7.73 -93.17,22.68l-11.26 -21.73c32.23,-16.74 68.08,-25.44 104.43,-25.44 4.65,0 9.31,0.16 14,0.43 60.56,3.71 116.07,30.79 156.28,76.25 40.21,45.45 60.3,103.86 56.59,164.44 -2.53,41.36 -15.97,80.39 -38.72,113.77 -10.55,15.48 -23.11,29.76 -37.52,42.51 -41.9,37.06 -94.78,57.03 -150.24,57.03z"/>
   <path class="fil2" d="M5115.18 3218.93c-2.18,-1.36 -3.69,-3.69 -3.81,-6.41 -0.48,-10.55 -1.23,-21.17 -2.15,-31.46 -0.38,-4.4 2.84,-8.29 7.22,-8.67 4.4,-0.39 8.27,2.85 8.65,7.25 0.98,10.49 1.69,21.3 2.21,32.11 0.2,4.4 -3.18,8.15 -7.58,8.35 -1.66,0.06 -3.22,-0.39 -4.53,-1.17z"/>
   <path class="fil2" d="M5103.99 3389.04c-2.71,-1.62 -4.27,-4.85 -3.68,-8.16 3.79,-21.1 6.7,-42.59 8.67,-63.82 0.41,-4.4 4.3,-7.64 8.68,-7.19 4.4,0.39 7.6,4.28 7.19,8.68 -1.99,21.68 -4.99,43.56 -8.85,65.11 -0.77,4.34 -4.91,7.25 -9.24,6.47 -1,-0.19 -1.94,-0.58 -2.76,-1.1zm-48.52 163.5c-3.3,-2.01 -4.71,-6.22 -3.17,-9.91 8.32,-19.61 15.87,-39.94 22.52,-60.33 1.36,-4.2 5.86,-6.47 10.03,-5.11 4.18,1.43 6.48,5.89 5.12,10.04 -6.78,20.84 -14.51,41.56 -22.98,61.62 -1.71,4.08 -6.37,5.95 -10.45,4.27 -0.35,-0.19 -0.72,-0.39 -1.07,-0.58zm-83.52 148.61l-0.51 -0.32c-3.56,-2.59 -4.37,-7.51 -1.79,-11.13 11.03,-15.28 21.63,-31.2 31.48,-47.31 1.31,-2.14 2.62,-4.27 3.9,-6.47 2.25,-3.76 7.17,-4.98 10.93,-2.72l0.08 0.07c3.71,2.26 4.94,7.12 2.69,10.87 -1.33,2.2 -2.66,4.4 -3.99,6.6 -10.06,16.44 -20.86,32.69 -32.15,48.35 -2.46,3.37 -7.09,4.27 -10.62,2.07zm-114.67 126.29c-0.67,-0.45 -1.31,-0.97 -1.84,-1.62 -2.89,-3.3 -2.58,-8.29 0.72,-11.2 16.07,-14.11 31.71,-29.13 46.54,-44.53 3.04,-3.17 8.06,-3.3 11.26,-0.26 3.18,3.04 3.28,8.09 0.23,11.26 -15.1,15.79 -31.07,31.07 -47.48,45.5 -2.69,2.33 -6.52,2.59 -9.42,0.84zm-139.83 97.54c-1.15,-0.71 -2.12,-1.68 -2.83,-2.98 -2.1,-3.88 -0.67,-8.67 3.2,-10.81 18.81,-10.22 37.39,-21.36 55.21,-33.14 3.69,-2.4 8.62,-1.43 11.03,2.26 2.43,3.69 1.43,8.61 -2.26,11.07 -18.19,11.98 -37.16,23.37 -56.36,33.79 -2.61,1.42 -5.63,1.23 -7.99,-0.2zm-157.89 64.28c-1.64,-0.97 -2.94,-2.59 -3.51,-4.59 -1.2,-4.27 1.28,-8.67 5.5,-9.84 20.55,-5.83 41.13,-12.56 61.18,-20.13 4.12,-1.56 8.7,0.58 10.26,4.66 1.54,4.14 -0.53,8.74 -4.65,10.29 -20.44,7.7 -41.46,14.56 -62.45,20.52 -2.22,0.65 -4.5,0.26 -6.32,-0.91zm-168.19 27.57c-2.17,-1.3 -3.66,-3.69 -3.79,-6.41 -0.23,-4.33 3.15,-8.09 7.55,-8.35 21.32,-1.04 42.88,-3.04 64.09,-5.95 4.35,-0.58 8.37,2.46 8.98,6.8 0.59,4.4 -2.45,8.42 -6.83,9 -21.65,2.98 -43.69,5.05 -65.44,6.09 -1.67,0.06 -3.22,-0.32 -4.56,-1.17zm-170.13 -10.68c-2.71,-1.68 -4.28,-4.85 -3.69,-8.22 0.77,-4.33 4.91,-7.19 9.24,-6.41 21.09,3.69 42.56,6.54 63.8,8.48 4.38,0.39 7.63,4.27 7.22,8.67 -0.38,4.33 -4.27,7.57 -8.65,7.19 -21.68,-1.94 -43.61,-4.86 -65.13,-8.68 -1.02,-0.19 -1.95,-0.52 -2.8,-1.04zm-163.6 -48.09c-3.3,-2.01 -4.73,-6.22 -3.2,-9.84 1.71,-4.08 6.37,-6.02 10.44,-4.28 19.7,8.22 40.03,15.73 60.4,22.33 4.23,1.29 6.48,5.82 5.15,10.03 -1.35,4.21 -5.86,6.47 -10.04,5.11 -20.81,-6.67 -41.54,-14.37 -61.69,-22.78 -0.35,-0.2 -0.74,-0.39 -1.07,-0.58zm-102.73 -52.56c-15.87,-9.65 -31.56,-20.07 -46.61,-30.88 -3.59,-2.59 -4.4,-7.57 -1.84,-11.13 2.56,-3.56 7.5,-4.46 11.13,-1.81 17.33,12.43 35.48,24.21 53.88,35.21l0.1 0.06c3.71,2.27 4.91,7.12 2.69,10.87 -2.25,3.76 -7.14,4.98 -10.93,2.78 -2.81,-1.68 -5.63,-3.37 -8.41,-5.11z"/>
   <path class="fil2" d="M3827.12 3807.25c-0.48,-0.32 -0.94,-0.65 -1.36,-1.04 -7.83,-7.51 -15.51,-15.15 -22.8,-22.72 -3.07,-3.17 -2.96,-8.22 0.21,-11.26 3.17,-3.04 8.21,-2.91 11.26,0.19 7.17,7.44 14.69,14.89 22.35,22.2 3.2,3.04 3.3,8.09 0.25,11.33 -2.63,2.78 -6.78,3.17 -9.91,1.3z"/>
   <path class="fil2" d="M3590.5 3258.55c-2.28,-1.43 -3.79,-3.95 -3.81,-6.8 -0.02,-10.61 0.15,-21.49 0.56,-32.17 0.15,-4.4 3.87,-7.83 8.27,-7.7 4.4,0.19 7.83,3.88 7.65,8.28 -0.38,10.49 -0.59,21.1 -0.54,31.52 0.02,4.4 -3.53,7.96 -7.94,8.03 -1.54,0 -2.96,-0.45 -4.19,-1.17z"/>
   <path class="fil2" d="M4827.29 2657.48c-0.28,-0.2 -0.56,-0.39 -0.82,-0.58 -16.48,-13.07 -33.71,-25.63 -51.22,-37.28 -3.68,-2.4 -4.69,-7.38 -2.25,-11 2.46,-3.69 7.37,-4.79 11.06,-2.27 17.89,11.91 35.48,24.73 52.31,38.06 3.46,2.78 4.05,7.77 1.31,11.2 -2.54,3.24 -7.01,3.95 -10.39,1.88zm-200.97 -114.51c-3.2,-1.94 -4.65,-6.02 -3.27,-9.64 1.58,-4.08 6.19,-6.15 10.28,-4.59 20.15,7.7 40.13,16.31 59.41,25.63 3.97,1.94 5.63,6.67 3.74,10.61 -1.92,4.02 -6.68,5.63 -10.65,3.76 -18.89,-9.13 -38.47,-17.54 -58.18,-25.11 -0.46,-0.19 -0.92,-0.39 -1.33,-0.65zm-162.3 -42.46c-2.63,-1.62 -4.19,-4.72 -3.71,-7.96 0.63,-4.4 4.68,-7.38 9.04,-6.73 21.19,3.11 42.56,7.19 63.52,12.11 4.33,0.97 6.96,5.31 5.96,9.58 -1.02,4.27 -5.3,6.99 -9.6,5.95 -20.53,-4.79 -41.47,-8.8 -62.22,-11.91 -1.1,-0.13 -2.11,-0.52 -3,-1.04zm-167.62 -6.15c-2.1,-1.29 -3.59,-3.5 -3.79,-6.15 -0.33,-4.4 2.97,-8.22 7.35,-8.54 21.44,-1.62 43.2,-2.33 64.68,-2.13 4.37,0.06 7.91,3.69 7.88,8.09 -0.05,4.4 -3.66,7.9 -8.06,7.83 -21.01,-0.19 -42.31,0.52 -63.3,2.07 -1.74,0.13 -3.37,-0.32 -4.76,-1.17zm-164.81 30.94c-1.61,-0.97 -2.89,-2.52 -3.48,-4.46 -1.28,-4.21 1.1,-8.68 5.33,-9.97 20.55,-6.28 41.61,-11.72 62.58,-16.25 4.3,-0.91 8.54,1.81 9.47,6.15 0.92,4.27 -1.82,8.54 -6.11,9.45 -20.53,4.4 -41.16,9.78 -61.3,15.93 -2.28,0.65 -4.61,0.26 -6.48,-0.84zm-154.13 66.22c-1.13,-0.71 -2.1,-1.68 -2.76,-2.91 -2.17,-3.82 -0.85,-8.67 3,-10.81 18.68,-10.62 38.06,-20.52 57.56,-29.52 4,-1.88 8.72,-0.13 10.57,3.88 1.84,4.02 0.1,8.74 -3.89,10.55 -19.12,8.8 -38.09,18.58 -56.39,28.93 -2.61,1.49 -5.7,1.3 -8.08,-0.13zm-136.06 98.13c-0.64,-0.39 -1.23,-0.84 -1.74,-1.43 -2.97,-3.3 -2.71,-8.35 0.56,-11.26 15.91,-14.43 32.65,-28.28 49.78,-41.36 3.47,-2.66 8.49,-2.01 11.16,1.55 2.66,3.5 1.99,8.48 -1.52,11.13 -16.74,12.75 -33.14,26.41 -48.75,40.46 -2.67,2.46 -6.55,2.72 -9.5,0.91zm-111.31 125.51l-0.46 -0.26c-3.59,-2.52 -4.46,-7.51 -1.93,-11.13 12.39,-17.54 25.7,-34.76 39.52,-51.2 2.84,-3.36 7.86,-3.82 11.23,-0.97 3.38,2.85 3.82,7.9 0.97,11.26 -13.56,16.11 -26.56,32.94 -38.69,50.1 -2.43,3.5 -7.11,4.4 -10.65,2.2zm-81.01 147c-3.3,-2 -4.71,-6.21 -3.2,-9.84 8.24,-19.87 17.41,-39.61 27.26,-58.71 2.02,-3.88 6.83,-5.44 10.75,-3.43 3.96,2.07 5.43,6.86 3.41,10.74 -9.65,18.71 -18.61,38 -26.7,57.48 -1.66,4.08 -6.34,6.02 -10.41,4.33 -0.38,-0.19 -0.74,-0.39 -1.1,-0.58zm-46.96 161.11c-2.71,-1.68 -4.27,-4.92 -3.69,-8.22 3.71,-21.1 8.4,-42.33 13.9,-63.17 1.13,-4.27 5.48,-6.8 9.72,-5.7 4.25,1.17 6.81,5.5 5.68,9.77 -5.37,20.39 -9.95,41.23 -13.61,61.88 -0.77,4.34 -4.89,7.25 -9.24,6.47 -1,-0.19 -1.95,-0.58 -2.76,-1.04z"/>
   <path class="fil2" d="M4925.91 2751.33c-0.67,-0.39 -1.28,-0.91 -1.81,-1.56 -6.96,-7.89 -14.13,-15.73 -21.3,-23.24 -3.05,-3.17 -2.92,-8.22 0.25,-11.26 3.17,-3.04 8.21,-2.91 11.26,0.26 7.32,7.64 14.64,15.67 21.76,23.76 2.89,3.3 2.56,8.35 -0.74,11.26 -2.69,2.33 -6.5,2.59 -9.42,0.78z"/>
   <path class="fil54" d="M4842.54 2919.89c-1.81,-3.43 -5.63,-5.37 -9.5,-4.79l-110.03 17.35c-34.24,-39.16 -74.97,-73.14 -121.24,-100.13l-3.87 -111.2c-0.13,-3.95 -2.74,-7.31 -6.47,-8.48l-127.74 -39.09c-3.74,-1.17 -7.8,0.19 -10.08,3.37l-65.52 89.97c-53.41,-3.56 -106.19,1.75 -156.49,15.08l-81.47 -75.99c-2.87,-2.65 -7.09,-3.24 -10.54,-1.43l-118.02 62.72c-3.43,1.81 -5.35,5.63 -4.74,9.45l17.33 110.04c-39.18,34.24 -73.17,75.02 -100.09,121.24l-111.26 3.88c-3.91,0.13 -7.3,2.72 -8.44,6.47l-39.14 127.78c-1.13,3.75 0.21,7.77 3.38,10.1l89.99 65.5c-3.58,53.4 1.76,106.15 15.05,156.45l-75.99 81.49c-2.66,2.85 -3.22,7.12 -1.38,10.55l62.65 118c1.85,3.43 5.66,5.37 9.52,4.72l110.03 -17.28c34.25,39.16 74.97,73.15 121.22,100.07l3.88 111.27c0.13,3.89 2.74,7.31 6.48,8.41l127.74 39.16c3.74,1.17 7.78,-0.19 10.09,-3.37l65.52 -90.04c53.41,3.63 106.19,-1.75 156.49,-15.02l81.46 75.99c2.87,2.65 7.09,3.24 10.54,1.36l118 -62.65c3.46,-1.81 5.37,-5.63 4.76,-9.52l-17.33 -110.04c39.19,-34.24 73.17,-74.96 100.1,-121.24l111.26 -3.82c3.92,-0.19 7.3,-2.78 8.44,-6.47l39.14 -127.78c1.12,-3.75 -0.23,-7.76 -3.38,-10.09l-89.99 -65.51c3.58,-53.4 -1.77,-106.22 -15.05,-156.51l75.99 -81.43c2.66,-2.85 3.2,-7.12 1.38,-10.55l-62.68 -118z"/>
   <path class="fil2" d="M4361.67 3135.56l0.05 0 -0.05 0zm49.65 27.38c-15.02,-9.19 -32.17,-14.56 -50.26,-15.47 -28.46,-1.43 -55.78,8.35 -76.89,27.44 -21.14,19.16 -33.56,45.31 -34.98,73.79 -1.41,28.48 8.32,55.8 27.44,76.9 19.11,21.17 45.32,33.59 73.79,35.02 28.46,1.43 55.77,-8.35 76.91,-27.44 21.14,-19.16 33.56,-45.37 34.99,-73.79 1.41,-28.48 -8.35,-55.8 -27.46,-76.96 -6.96,-7.7 -14.89,-14.24 -23.52,-19.48zm-123.62 202.67c-10.57,-6.47 -20.25,-14.5 -28.8,-23.95 -23.42,-25.89 -35.35,-59.29 -33.61,-94.11 1.74,-34.89 16.95,-66.93 42.83,-90.36 25.87,-23.37 59.3,-35.34 94.13,-33.59 34.83,1.75 66.93,16.96 90.32,42.85 23.43,25.83 35.35,59.29 33.58,94.11 -1.72,34.83 -16.91,66.93 -42.79,90.3 -25.88,23.43 -59.3,35.34 -94.13,33.59 -22.15,-1.1 -43.13,-7.63 -61.53,-18.83z"/>
   <path class="fil2" d="M4178.9 3540.89c-127.05,-77.74 -190.83,-234.44 -145.25,-383.26 8.39,-27.44 20.05,-53.01 34.38,-76.51 77.7,-127.06 234.42,-190.82 383.26,-145.25 2.66,0.78 5.35,1.69 7.98,2.53 17.92,6.02 35.24,13.46 51.76,22.26 1.93,0.97 3.84,2.07 5.74,3.11l-11.65 20.84c-19.14,-10.68 -39.62,-19.42 -60.84,-25.89l-0.58 -0.19c-163.53,-49.71 -337.11,42.65 -387.17,206.09 -50.15,163.7 42.23,337.62 205.93,387.79 138.18,42.33 283.69,-16.89 355.82,-134.89 13.33,-21.75 24.14,-45.5 31.94,-71.01 16.48,-53.85 18.09,-111.01 4.63,-165.31l23.19 -5.76c14.51,58.52 12.8,120.14 -4.96,178.07 -8.4,27.44 -20.04,53.07 -34.41,76.51 -77.68,127.06 -234.39,190.89 -383.23,145.25 -27.46,-8.42 -53.08,-20.07 -76.53,-34.37z"/>
   <path class="fil90" d="M2450.69 4809.1l-74.71 73.66c-106.07,-10.19 -187.82,-43.18 -250.6,-85.05 37.78,-93.96 76.17,-149.68 106.3,-182.34 98.77,138.87 219.01,193.73 219.01,193.73z"/>
   <path class="fil91" d="M1930.61 4533.37l176.34 -275.71c11.57,155.52 64.09,272.43 124.73,357.71 -30.13,32.67 -68.52,88.38 -106.3,182.34 -156.67,-104.46 -194.77,-264.35 -194.77,-264.35z"/>
   <path class="fil92" d="M1743.07 6712.43c87.92,4.04 173.02,1.51 229.85,-1.41 -51.76,-36.83 -170.93,-116.94 -270.66,-148.83l-68.46 -4.09c0,0 -23.2,35.3 -31.48,116.02 11.35,14.15 44.51,33.89 140.75,38.32z"/>
   <path class="fil93" d="M1973.61 6711.53l-0.69 -0.51c-56.82,2.92 -141.93,5.45 -229.85,1.41 -96.24,-4.43 -129.41,-24.17 -140.75,-38.32 -0.38,3.71 -0.78,7.42 -1.09,11.34 -1.43,17.71 11.73,33.27 29.45,34.6 72,5.45 250.52,17.76 336.63,13.26 11.37,-0.59 15.56,-15.18 6.3,-21.78z"/>
   <path class="fil94" d="M1114.26 6688.91c-6.44,-41.26 -16.76,-100.95 -24.74,-116.2 -12.51,-23.93 -55.36,0 -55.36,0 0,0 -30.07,14.03 -43.92,37.42 -8.82,14.89 -33.22,57.28 -49.76,86.07 -1.9,3.3 -2.69,6.83 -2.59,10.23l171.53 6c4.19,-6.71 6.17,-14.93 4.83,-23.52z"/>
   <path class="fil95" d="M937.9 6706.44c0.29,9.81 8.05,18.69 19,18.99l122.21 3.35c12.91,0.36 24.09,-6.35 30.32,-16.35l-171.53 -6z"/>
   <path class="fil96" d="M1127.37 6435.55c-1.48,4.93 -23.65,112.38 -33.35,159.56 -2.69,13.02 -14.42,22.19 -27.71,21.52 -7.26,-0.35 -15.71,-1.02 -24.56,-2.17 -15.71,-2.03 -27.68,-15.15 -28.28,-30.96 -1.57,-41.31 -2.35,-120.64 12.82,-151.37 20.93,-42.41 101.09,3.44 101.09,3.44z"/>
   <path class="fil97" d="M1620.33 6466.31c9.5,-0.3 -3.8,49.07 10.59,97.63 3.24,10.95 11.43,19.56 22.85,19.68 7.4,0.1 16.17,-0.05 25.07,-0.74 13.39,-1.07 24.15,-11.47 25.39,-24.85l11.7 -125.9 -95.6 34.19z"/>
   <path class="fil98" d="M1886.25 5127.91c-4.25,20.65 -154.02,894.23 -163.1,1346.28 -0.16,7.58 -5.74,13.92 -13.24,14.98 -19.02,2.65 -56.05,6.07 -91.94,-0.59 -4.92,-0.93 -8.62,-4.97 -8.93,-9.96 -5.24,-84.23 -47.33,-796.48 4.22,-1131.74 0,0 -425.85,896.25 -490.39,1143.39 -1.57,6 -7.09,10.06 -13.3,9.73 -18.24,-0.97 -56.17,-4.24 -86.28,-15.33 -10.8,-3.96 -16.94,-15.33 -14.22,-26.48 36.07,-147.91 288.82,-1166.89 460.43,-1391.38l416.77 61.12z"/>
   <path class="fil99" d="M1613.25 5352.46c-1.41,0 -2.81,-0.54 -3.91,-1.59 -2.2,-2.15 -2.24,-5.7 -0.08,-7.91l57.02 -58.3c2.16,-2.23 5.7,-2.25 7.91,-0.1 2.2,2.17 2.24,5.71 0.09,7.91l-57.04 58.3c-1.09,1.13 -2.54,1.7 -3.99,1.7z"/>
   <path class="fil100" d="M2129.68 4034.19c-109.39,-28.67 -311.16,-73.53 -471.79,-63.95 -36.89,2.2 -66.45,31.39 -68.55,68.29 -24.26,427.76 -57.42,807.38 -119.86,1028.27 140.35,55.54 279.49,81.29 416.77,61.12 102.84,-220.27 192.75,-474.55 269.56,-763.36 0,0 45.08,-230.35 1.31,-307.12 -6.81,-11.91 -15.79,-20.2 -27.44,-23.24z"/>
   <path class="fil101" d="M1866.57 3734.56c0,0 -27.61,164.73 -35.85,240.98 -1.33,12.36 5.14,24.08 16.22,29.78 30.18,15.53 94.63,40.58 164.86,17.61 11.55,-3.76 19.15,-15.02 18.86,-27.12l-4.81 -220.01 -159.28 -41.23z"/>
   <path class="fil102" d="M2046.7 3551.96c0,0 53.31,122.4 56.87,186.68 3.59,64.27 17.43,105.96 -56.87,118.91 -74.28,12.94 -136.88,-24.08 -170.8,-88.09 0,0 -53.1,-98.65 -41.2,-139.04 11.93,-40.39 212,-78.45 212,-78.45z"/>
   <path class="fil103" d="M1901.3 3723.43l9.39 0c0,0 -38.7,-79.36 -4.68,-93.34 33.99,-13.92 168.69,-41.43 197.74,-89.2 28.02,-46.09 3.04,-105.57 -34.35,-122.27 -2.35,-1.04 -5.15,0.07 -6.35,2.4l-3.09 5.82c-2.12,4.02 -8.06,3.43 -9.31,-0.97 -1.2,-4.14 -6.78,-5.05 -9.06,-1.36 -8.88,14.31 -32.97,37.54 -97.59,49.45 -91.66,16.9 -152.27,54.05 -153.75,117.35 -0.1,4.01 -4.4,6.28 -7.83,4.14 -6.76,-4.08 -17.59,-6.02 -32.07,6.15 -25.17,21.17 -14.87,76.06 40.31,121.24 2.63,2.14 2.61,6.21 -0.23,8.09 -10,6.47 -24.9,22.01 13.72,42.66 39.54,21.1 62.94,18.83 71.74,16.57 2.38,-0.65 3.99,-2.78 3.84,-5.24l-3.48 -56.12c-0.18,-2.91 2.12,-5.37 5.04,-5.37l20.01 0z"/>
   <path class="fil104" d="M1903.61 3735.14c0,0 -20.33,-78.19 -55.39,-56.25 -35.06,21.94 18.2,87.64 46.38,90.56l9.01 -34.31z"/>
   <path class="fil105" d="M796.93 5106.33c92.99,-23.5 179.69,2.22 193.65,57.48 13.97,55.26 -50.09,119.09 -143.08,142.61 -92.99,23.5 -179.69,-2.25 -193.66,-57.48 -13.96,-55.26 50.09,-119.12 143.09,-142.61zm-31 -98.82l-71.98 18.2c-123.51,31.23 -206.57,124.03 -185.52,207.32l25.02 99c21.05,83.29 138.24,125.49 261.75,94.26l71.98 -18.19c4.76,-1.2 9.5,-2.51 14.21,-3.92l2110.55 -631.5 -54.52 -215.69 -2157.13 447.22c-4.81,1 -9.61,2.09 -14.37,3.3z"/>
   <path class="fil106" d="M3639.16 4263.91l-417.63 105.56c-29.74,7.53 -54.31,28.41 -66.49,56.56l-62.5 144.28c-17.81,41.18 -5.68,89.19 29.59,116.96l123.52 97.24c24.11,18.99 55.65,25.7 85.38,18.18l417.63 -105.56c63.01,-15.92 116.53,49.81 86.79,107.57 -71.15,138.21 -201.7,247.53 -367.87,289.53 -300.35,75.91 -566.16,-106.04 -639.18,-394.95 -73.02,-288.89 74.38,-575.31 374.74,-651.24 166.16,-41.94 332.98,-7.83 461.27,79.94 53.62,36.73 37.75,120.02 -25.24,135.93z"/>
   <path class="fil107" d="M3649.11 4303.28l-417.65 105.55c-29.74,7.52 -54.29,28.41 -66.47,56.56l-62.51 144.28c-17.83,41.18 -5.68,89.2 29.57,116.97l123.54 97.23c24.09,18.97 55.65,25.7 85.39,18.17l417.63 -105.57c62.98,-15.92 116.5,49.83 86.76,107.59 -71.15,138.22 -201.68,247.53 -367.87,289.53 -300.33,75.91 -566.13,-106.06 -639.15,-394.95 -73.02,-288.89 74.38,-575.29 374.73,-651.18 166.17,-42.01 333,-7.9 461.25,79.91 53.62,36.7 37.78,119.98 -25.21,135.91z"/>
   <path class="fil108" d="M804.86 5137.74c92.99,-23.52 179.69,2.22 193.66,57.48 13.97,55.23 -50.09,119.09 -143.08,142.59 -92.99,23.52 -179.69,-2.23 -193.66,-57.48 -13.97,-55.26 50.1,-119.09 143.09,-142.59zm-31 -98.82l-71.98 18.2c-123.51,31.22 -206.57,124.03 -185.52,207.32l25.02 99c21.05,83.29 138.24,125.46 261.75,94.26l71.98 -18.19c4.76,-1.2 9.51,-2.51 14.22,-3.92l2110.54 -631.5 -54.51 -215.71 -2157.13 447.25c-4.81,1 -9.61,2.1 -14.37,3.3z"/>
   <path class="fil109" d="M1306.28 4603.93c-54.09,151.78 -23.63,314.49 -23.63,314.49l-71.3 19.01c0,0 -92.12,-109.57 -71.05,-352.67 65.82,-10.06 127.46,5.37 165.98,19.17z"/>
   <path class="fil110" d="M1140.31 4584.76c2.36,-27.33 6.1,-56.28 11.63,-87.04 48.18,-268.13 391.93,-474.41 472.82,-519.52 7.52,-4.21 16.67,1.42 16.4,10.03l-11.49 364.52c-191.45,25.72 -282.06,135.27 -323.39,251.19 -38.51,-13.8 -100.15,-29.22 -165.98,-19.17z"/>
   <path class="fil111" d="M2601.11 4942.81c13.36,-3.69 24.22,-13.18 29.87,-25.85 10.95,-24.52 23.26,-63.81 -3.05,-75.78 -39.24,-17.81 -110.54,55.26 -110.54,55.26l-34.83 56.46 -31.86 15.51c29.2,8.04 85.48,-5.35 150.42,-25.59z"/>
   <path class="fil112" d="M1277.89 4882.76l88.16 0c0,0 -71.52,42.9 -73.89,88 -2.38,45.12 28.39,138.54 42.78,163.98 15.74,27.79 -199.63,-41.44 -123.59,-251.98l66.54 0z"/>
   <path class="fil113" d="M5631.78 9203.54l0 75.59c0,19.32 -9.96,35.31 -23.08,37.06l-1178.87 106.83c-8.75,1.2 -17.53,1 -26.24,-0.51 -2.25,-0.43 -4.53,-0.92 -6.81,-1.49l-821.38 -154.82c-8.73,-2.25 -15.15,-13.7 -15.15,-26.95l0 -79.83 871.5 -108.04 112.18 -53.08 111.54 16.08 65.88 -12.62 150.56 43.8 759.88 157.99z"/>
   <path class="fil114" d="M5631.78 9203.54l0 75.59c0,19.32 -9.96,35.31 -23.08,37.06l-1178.82 106.83c-8.75,1.2 -19.66,0.92 -26.19,-0.54l0 -407.03 140.29 -17.15 111.51 16.08 65.85 -12.62 150.56 43.8 759.88 157.99z"/>
   <path class="fil115" d="M4721.35 9001.75l-1161.1 154.1 837.49 157.74c10.31,2.63 20.78,3.25 31.15,1.84l1202.9 -111.9 -910.43 -201.79z"/>
   <path class="fil116" d="M5146.97 9140.94c0,55.31 -174.02,98.31 -414.22,109.44 -60.66,2.81 -125.46,3.58 -192.73,2.02 -330.63,-7.63 -596.3,-69.1 -596.3,-137.21 0,-1.54 0.2,-4.89 0.46,-4.89l-0.46 0 1.38 -3.28c0.31,-1.13 0.74,-2.15 1.23,-3.18l76.24 -199.33 92.09 -240.54 128.98 -337.11 98.69 -258.05 122.78 -320.87c15.36,-40.16 43.81,-65.15 74.59,-65.15 4.17,0 8.27,0.44 12.33,1.36 25.96,5.65 49.15,29.05 62.48,63.86l123.8 323.13 98.87 261.45 130.48 343.86 0 0.08 93.66 247.07 0 0.08 1.51 0.13 78.01 200.79c3.35,5.38 6.15,10.85 6.15,16.33z"/>
   <path class="fil71" d="M5062.81 8923.82c-75.3,25.15 -195.62,43.28 -339.7,50.01 -58.05,2.74 -119.47,3.64 -183.46,2.41 -222.17,-4.23 -414.77,-32.81 -517.27,-71.69l92.19 -240.54c107.83,24.26 258.17,40.62 425.23,43.13 54.02,0.81 106.67,0.12 156.81,-1.9 105.51,-4.17 198.52,-14.31 271.82,-28.69l92.86 247.07 0 0.08 1.51 0.13z"/>
   <path class="fil71" d="M4838.3 8332.6c-57.46,6.22 -120.63,10.42 -187.63,12.34 -35.89,1.07 -72.87,1.4 -110.65,1.05 -108.13,-1.05 -209.27,-7.96 -296.39,-19.12l98.69 -258.05c61.76,4.89 128.28,7.69 197.69,8.07 24.52,0.15 48.66,0 72.38,-0.48 43.49,-0.82 85.67,-2.56 125.91,-5.25l100 261.45z"/>
  </g>
 </g>
</svg>
