<?xml version="1.0" encoding="UTF-8"?>
<!DOCTYPE svg PUBLIC "-//W3C//DTD SVG 1.1//EN" "http://www.w3.org/Graphics/SVG/1.1/DTD/svg11.dtd">
<!-- Creator: CorelDRAW 2020 (64-Bit) -->
<svg xmlns="http://www.w3.org/2000/svg" xml:space="preserve" width="0.874106in" height="1.53441in" version="1.1" style="shape-rendering:geometricPrecision; text-rendering:geometricPrecision; image-rendering:optimizeQuality; fill-rule:evenodd; clip-rule:evenodd"
viewBox="0 0 22.31 39.17"
 xmlns:xlink="http://www.w3.org/1999/xlink"
 xmlns:xodm="http://www.corel.com/coreldraw/odm/2003">
 <defs>
  <style type="text/css">
   <![CDATA[
    .str0 {stroke:#FF3F0B;stroke-width:1.06;stroke-miterlimit:2.61313}
    .str2 {stroke:#FF3F0B;stroke-width:0.53;stroke-miterlimit:2.61313}
    .str1 {stroke:#FF3F0B;stroke-width:0.18;stroke-miterlimit:2.61313}
    .fil0 {fill:none}
    .fil1 {fill:#FF3F0B}
    .fnt0 {font-weight:normal;font-size:8.51px;font-family:'Arial'}
   ]]>
  </style>
 </defs>
 <g id="Layer_x0020_1">
  <metadata id="CorelCorpID_0Corel-Layer"/>
  <path class="fil0 str0" d="M6.21 6.09c1.54,0 2.78,1.26 2.78,2.81l0 18.6c1.94,0.96 3.28,2.96 3.28,5.27 0,3.24 -2.63,5.87 -5.87,5.87 -3.24,0 -5.87,-2.63 -5.87,-5.87 0,-2.16 1.17,-4.05 2.9,-5.07l0 -18.8c0,-1.55 1.24,-2.81 2.78,-2.81z"/>
  <path class="fil1 str1" d="M7.13 21.75l0 7.34c1.59,0.36 2.78,1.78 2.78,3.48 0,1.97 -1.6,3.57 -3.57,3.57 -1.97,0 -3.57,-1.6 -3.57,-3.57 0,-1.76 1.27,-3.22 2.94,-3.52l0 -7.31c0,-0.39 0.32,-0.71 0.72,-0.71 0.4,0 0.72,0.32 0.72,0.71z"/>
  <rect class="fil1 str1" x="10.64" y="8.32" width="3.44" height="0.93"/>
  <rect class="fil1 str1" x="10.58" y="11.42" width="1.78" height="0.57"/>
  <rect class="fil1 str1" x="10.65" y="14.28" width="3.24" height="0.72"/>
  <rect class="fil1 str1" x="10.45" y="17.01" width="1.79" height="0.74"/>
  <rect class="fil1 str1" x="10.74" y="19.9" width="3.28" height="0.69"/>
  <rect class="fil1 str1" x="10.46" y="22.82" width="1.86" height="0.65"/>
  <rect class="fil1 str1" x="10.72" y="25.4" width="3.11" height="1.04"/>
  <circle class="fil0 str2" cx="15.47" cy="1.16" r="0.89"/>
  <text x="16.51" y="7.02"  class="fil1 fnt0">C</text>
 </g>
</svg>
