<?xml version="1.0" encoding="UTF-8"?>
<!DOCTYPE svg PUBLIC "-//W3C//DTD SVG 1.1//EN" "http://www.w3.org/Graphics/SVG/1.1/DTD/svg11.dtd">
<!-- Creator: CorelDRAW 2020 (64-Bit) -->
<svg xmlns="http://www.w3.org/2000/svg" xml:space="preserve" width="1.4116in" height="2.00252in" version="1.1" style="shape-rendering:geometricPrecision; text-rendering:geometricPrecision; image-rendering:optimizeQuality; fill-rule:evenodd; clip-rule:evenodd"
viewBox="0 0 43.4 61.57"
 xmlns:xlink="http://www.w3.org/1999/xlink"
 xmlns:xodm="http://www.corel.com/coreldraw/odm/2003">
 <defs>
  <style type="text/css">
   <![CDATA[
    .str0 {stroke:#606062;stroke-width:0.85;stroke-miterlimit:2.61313;stroke-opacity:0.501961}
    .str4 {stroke:#606062;stroke-width:0.21;stroke-miterlimit:2.61313}
    .str3 {stroke:#373435;stroke-width:0.21;stroke-miterlimit:2.61313}
    .str2 {stroke:#1A191C;stroke-width:0.21;stroke-miterlimit:2.61313}
    .str1 {stroke:#E6F6F7;stroke-width:0.21;stroke-miterlimit:2.61313}
    .fil3 {fill:#1A191C}
    .fil4 {fill:#2C8CF8}
    .fil1 {fill:#E6F6F7}
    .fil2 {fill:#2C8CF8;fill-rule:nonzero}
    .fil0 {fill:#2C8CF8;fill-opacity:0.501961}
   ]]>
  </style>
 </defs>
 <g id="Layer_x0020_1">
  <metadata id="CorelCorpID_0Corel-Layer"/>
  <path class="fil0 str0" d="M9.63 0.43l25.56 0c0.88,0 1.6,0.72 1.6,1.6l0 42.35c-0.46,0.06 -0.92,0.2 -1.37,0.43 -0.84,0.44 -1.64,1.22 -2.42,1.77 -0.78,0.55 -1.54,0.87 -2.3,0.8 -0.76,-0.07 -1.52,-0.54 -2.11,-0.97 -0.59,-0.43 -1.02,-0.81 -1.57,-1.09 -0.56,-0.28 -1.24,-0.45 -1.95,-0.53 -0.72,-0.09 -1.46,-0.09 -2.14,0.07 -0.67,0.16 -1.27,0.48 -1.71,0.8 -0.44,0.32 -0.72,0.64 -1.27,0.94 -0.55,0.3 -1.37,0.59 -2.12,0.64 -0.75,0.04 -1.42,-0.16 -1.97,-0.46 -0.55,-0.3 -0.98,-0.71 -1.33,-1.02 -0.35,-0.31 -0.63,-0.52 -1.2,-0.88 -0.57,-0.35 -1.44,-0.84 -2.61,-0.48 -0.85,0.27 -1.86,0.98 -2.69,1.6l0 -43.97c0,-0.88 0.72,-1.6 1.6,-1.6z"/>
  <rect class="fil1 str1" x="19.99" y="3.63" width="5.25" height="44.52" rx="0.96" ry="1.34"/>
  <path class="fil2" d="M-0 43.79c0.12,0.04 0.24,0.09 0.36,0.14 0.49,0.23 0.89,0.54 1.22,0.81l0.63 0.51c0.3,0.24 0.54,0.44 0.77,0.62 0.19,0.15 0.37,0.28 0.53,0.39 0.17,0.11 0.33,0.21 0.5,0.29 0.16,0.08 0.32,0.15 0.49,0.2l0 0c0.15,0.04 0.28,0.07 0.39,0.08 0.19,0.01 0.38,-0.03 0.56,-0.07 0.03,-0.01 0.17,-0.05 0.21,-0.05 0.2,-0.04 0.42,-0.09 1.15,-0.61 0.11,-0.08 0.32,-0.24 0.55,-0.41 0.91,-0.68 2.11,-1.58 3.17,-1.91 0.72,-0.23 1.35,-0.19 1.89,-0.04 0.51,0.14 0.92,0.38 1.24,0.58 0.31,0.19 0.53,0.34 0.73,0.48 0.2,0.15 0.37,0.29 0.56,0.46l0.14 0.12 0 0c0.31,0.27 0.67,0.6 1.08,0.82 0.24,0.13 0.51,0.24 0.8,0.31 0.26,0.06 0.54,0.09 0.82,0.07 0.29,-0.02 0.61,-0.08 0.91,-0.17 0.36,-0.11 0.68,-0.24 0.93,-0.38 0.3,-0.16 0.52,-0.35 0.74,-0.53l0 -0c0.14,-0.12 0.28,-0.24 0.46,-0.37 0.26,-0.19 0.58,-0.39 0.94,-0.55 0.31,-0.15 0.65,-0.27 1,-0.36 0.35,-0.08 0.73,-0.13 1.12,-0.14 0.42,-0.01 0.84,0.01 1.24,0.06 0.39,0.05 0.78,0.12 1.16,0.22 0.36,0.1 0.69,0.22 1,0.38 0.45,0.23 0.8,0.49 1.2,0.79 0.16,0.12 0.33,0.25 0.47,0.35 0.28,0.2 0.59,0.41 0.9,0.57 0.29,0.15 0.6,0.26 0.89,0.29 0.28,0.03 0.56,-0.02 0.86,-0.13 0.32,-0.12 0.66,-0.31 1.01,-0.55 0.27,-0.19 0.54,-0.41 0.82,-0.63 0.53,-0.43 1.08,-0.87 1.68,-1.18 0.46,-0.24 0.93,-0.39 1.39,-0.47 0.51,-0.09 1.02,-0.09 1.51,-0.04 0.45,0.05 0.88,0.15 1.29,0.3 0.41,0.15 0.81,0.36 1.18,0.61 0.42,0.28 0.78,0.59 1.13,0.9 0.26,0.22 0.51,0.45 0.72,0.6 0.27,0.2 0.54,0.37 0.81,0.49 0.09,0.04 0.17,0.07 0.26,0.1l0 1.32c-0.26,-0.05 -0.52,-0.14 -0.78,-0.25 -0.35,-0.16 -0.71,-0.37 -1.05,-0.63 -0.3,-0.22 -0.55,-0.44 -0.8,-0.66 -0.33,-0.29 -0.67,-0.58 -1,-0.8 -0.29,-0.19 -0.59,-0.35 -0.91,-0.47 -0.31,-0.12 -0.64,-0.19 -0.99,-0.23 -0.37,-0.04 -0.76,-0.04 -1.15,0.03 -0.34,0.06 -0.69,0.17 -1.03,0.35 -0.48,0.25 -0.98,0.65 -1.46,1.04 -0.3,0.24 -0.59,0.48 -0.89,0.68 -0.43,0.3 -0.87,0.55 -1.31,0.71 -0.47,0.17 -0.94,0.25 -1.42,0.2 -0.46,-0.05 -0.92,-0.21 -1.34,-0.42 -0.4,-0.2 -0.76,-0.44 -1.08,-0.67 -0.21,-0.15 -0.35,-0.26 -0.5,-0.37 -0.35,-0.26 -0.66,-0.5 -0.99,-0.67 -0.23,-0.11 -0.49,-0.21 -0.77,-0.28 -0.3,-0.08 -0.63,-0.14 -0.98,-0.18 -0.35,-0.04 -0.71,-0.06 -1.05,-0.05 -0.29,0.01 -0.58,0.05 -0.87,0.11 -0.27,0.07 -0.53,0.16 -0.76,0.26 -0.27,0.13 -0.52,0.28 -0.72,0.43 -0.13,0.1 -0.26,0.21 -0.39,0.32l-0 -0c-0.27,0.22 -0.53,0.45 -0.94,0.67 -0.34,0.19 -0.75,0.36 -1.18,0.49 -0.39,0.12 -0.8,0.2 -1.21,0.22 -0.42,0.02 -0.81,-0.02 -1.18,-0.1 -0.41,-0.1 -0.79,-0.25 -1.13,-0.44 -0.56,-0.31 -0.97,-0.67 -1.31,-0.98l0 -0 -0.13 -0.11c-0.16,-0.14 -0.3,-0.26 -0.48,-0.39 -0.18,-0.13 -0.38,-0.26 -0.64,-0.43 -0.25,-0.15 -0.56,-0.34 -0.91,-0.44 -0.33,-0.09 -0.72,-0.11 -1.17,0.03 -0.84,0.26 -1.95,1.09 -2.79,1.71 -0.18,0.13 -0.35,0.26 -0.57,0.42 -0.94,0.67 -1.3,0.75 -1.63,0.82l-0.18 0.04c-0.27,0.06 -0.56,0.13 -0.93,0.1l-0 0c-0.22,-0.01 -0.45,-0.06 -0.68,-0.13 -0.22,-0.07 -0.46,-0.16 -0.69,-0.28 -0.22,-0.11 -0.43,-0.24 -0.64,-0.37 -0.22,-0.15 -0.41,-0.29 -0.6,-0.44 -0.25,-0.19 -0.49,-0.39 -0.79,-0.64l-0.62 -0.5c-0.23,-0.19 -0.49,-0.4 -0.78,-0.56l0 -1.39z"/>
  <path class="fil2" d="M-0 50.41c0.27,0.05 0.53,0.14 0.77,0.25 0.49,0.23 0.89,0.54 1.22,0.81l0.63 0.51c0.3,0.24 0.54,0.44 0.77,0.62 0.19,0.15 0.37,0.28 0.53,0.39 0.17,0.11 0.33,0.21 0.5,0.29 0.16,0.08 0.32,0.15 0.49,0.2l0 0c0.15,0.04 0.28,0.07 0.39,0.08 0.19,0.01 0.38,-0.03 0.56,-0.07 0.03,-0.01 0.17,-0.05 0.21,-0.05 0.2,-0.04 0.42,-0.09 1.15,-0.61 0.11,-0.08 0.32,-0.24 0.55,-0.41 0.91,-0.68 2.11,-1.58 3.17,-1.91 0.72,-0.23 1.35,-0.19 1.89,-0.04 0.51,0.14 0.92,0.38 1.24,0.58 0.31,0.19 0.53,0.34 0.73,0.48 0.2,0.15 0.37,0.29 0.56,0.46l0.14 0.12 0 0c0.31,0.27 0.67,0.6 1.08,0.82 0.24,0.13 0.51,0.24 0.8,0.31 0.26,0.06 0.54,0.09 0.82,0.07 0.29,-0.02 0.61,-0.08 0.91,-0.17 0.36,-0.11 0.68,-0.24 0.93,-0.38 0.3,-0.16 0.52,-0.35 0.74,-0.53l0 -0c0.14,-0.12 0.28,-0.24 0.46,-0.37 0.26,-0.19 0.58,-0.39 0.94,-0.55 0.31,-0.15 0.65,-0.27 1,-0.36 0.35,-0.08 0.73,-0.13 1.12,-0.14 0.42,-0.01 0.84,0.01 1.24,0.06 0.39,0.05 0.78,0.12 1.16,0.22 0.36,0.1 0.69,0.22 1,0.38 0.45,0.23 0.8,0.49 1.2,0.79 0.16,0.12 0.33,0.25 0.47,0.35 0.28,0.2 0.59,0.41 0.9,0.57 0.29,0.15 0.6,0.26 0.89,0.29 0.28,0.03 0.56,-0.02 0.86,-0.13 0.32,-0.12 0.66,-0.31 1.01,-0.55 0.27,-0.19 0.54,-0.41 0.82,-0.63 0.53,-0.43 1.08,-0.87 1.68,-1.18 0.46,-0.24 0.93,-0.39 1.39,-0.47 0.51,-0.09 1.02,-0.09 1.51,-0.04 0.45,0.05 0.88,0.15 1.29,0.3 0.41,0.15 0.81,0.36 1.18,0.61 0.42,0.28 0.78,0.59 1.13,0.9 0.26,0.22 0.51,0.45 0.72,0.6 0.22,0.16 0.44,0.3 0.65,0.41l0 1.38c-0.12,-0.04 -0.24,-0.09 -0.36,-0.14 -0.35,-0.16 -0.71,-0.37 -1.05,-0.63 -0.3,-0.22 -0.55,-0.44 -0.8,-0.66 -0.33,-0.29 -0.67,-0.58 -1,-0.8 -0.29,-0.19 -0.59,-0.35 -0.91,-0.47 -0.31,-0.12 -0.64,-0.19 -0.99,-0.23 -0.37,-0.04 -0.76,-0.04 -1.15,0.03 -0.34,0.06 -0.69,0.17 -1.03,0.35 -0.48,0.25 -0.98,0.65 -1.46,1.04 -0.3,0.24 -0.59,0.48 -0.89,0.68 -0.43,0.3 -0.87,0.55 -1.31,0.71 -0.47,0.17 -0.94,0.25 -1.42,0.2 -0.46,-0.05 -0.92,-0.21 -1.34,-0.42 -0.4,-0.2 -0.76,-0.44 -1.08,-0.67 -0.21,-0.15 -0.35,-0.26 -0.5,-0.37 -0.35,-0.26 -0.66,-0.5 -0.99,-0.67 -0.23,-0.11 -0.49,-0.21 -0.77,-0.28 -0.3,-0.08 -0.63,-0.14 -0.98,-0.18 -0.35,-0.04 -0.71,-0.06 -1.05,-0.05 -0.29,0.01 -0.58,0.05 -0.87,0.11 -0.27,0.07 -0.53,0.16 -0.76,0.26 -0.27,0.13 -0.52,0.28 -0.72,0.43 -0.13,0.1 -0.26,0.21 -0.39,0.32l-0 -0c-0.27,0.22 -0.53,0.45 -0.94,0.67 -0.34,0.19 -0.75,0.36 -1.18,0.49 -0.39,0.12 -0.8,0.2 -1.21,0.22 -0.42,0.02 -0.81,-0.02 -1.18,-0.1 -0.41,-0.1 -0.79,-0.25 -1.13,-0.44 -0.56,-0.31 -0.97,-0.67 -1.31,-0.98l0 -0 -0.13 -0.11c-0.16,-0.14 -0.3,-0.26 -0.48,-0.39 -0.18,-0.13 -0.38,-0.26 -0.64,-0.43 -0.25,-0.15 -0.56,-0.34 -0.91,-0.44 -0.33,-0.09 -0.72,-0.11 -1.17,0.03 -0.84,0.26 -1.95,1.09 -2.79,1.71 -0.18,0.13 -0.35,0.26 -0.57,0.42 -0.94,0.67 -1.3,0.75 -1.63,0.82l-0.18 0.04c-0.27,0.06 -0.56,0.13 -0.93,0.1l-0 0c-0.22,-0.01 -0.45,-0.06 -0.68,-0.13 -0.22,-0.07 -0.46,-0.16 -0.69,-0.28 -0.22,-0.11 -0.43,-0.24 -0.64,-0.37 -0.22,-0.15 -0.41,-0.29 -0.6,-0.44 -0.25,-0.19 -0.49,-0.39 -0.79,-0.64l-0.62 -0.5c-0.28,-0.22 -0.6,-0.48 -0.96,-0.65 -0.08,-0.03 -0.15,-0.07 -0.23,-0.09l0 -1.32z"/>
  <path class="fil2" d="M-0 57.1c0.43,0.01 0.83,0.13 1.18,0.29 0.49,0.23 0.89,0.54 1.22,0.81l0.63 0.51c0.3,0.24 0.54,0.44 0.77,0.62 0.19,0.15 0.37,0.28 0.53,0.39 0.17,0.11 0.33,0.21 0.5,0.29 0.16,0.08 0.32,0.15 0.49,0.2l0 0c0.15,0.04 0.28,0.07 0.39,0.08 0.19,0.01 0.38,-0.03 0.56,-0.07 0.03,-0.01 0.17,-0.05 0.21,-0.05 0.2,-0.04 0.42,-0.09 1.15,-0.61 0.11,-0.08 0.32,-0.24 0.55,-0.41 0.91,-0.68 2.11,-1.58 3.17,-1.91 0.72,-0.23 1.35,-0.19 1.89,-0.04 0.51,0.14 0.92,0.38 1.24,0.58 0.31,0.19 0.53,0.34 0.73,0.48 0.2,0.15 0.37,0.29 0.56,0.46l0.14 0.12 0 0c0.31,0.27 0.67,0.6 1.08,0.82 0.24,0.13 0.51,0.24 0.8,0.31 0.26,0.06 0.54,0.09 0.82,0.07 0.29,-0.02 0.61,-0.08 0.91,-0.17 0.36,-0.11 0.68,-0.24 0.93,-0.38 0.3,-0.16 0.52,-0.35 0.74,-0.53l0 -0c0.14,-0.12 0.28,-0.24 0.46,-0.37 0.26,-0.19 0.58,-0.39 0.94,-0.55 0.31,-0.15 0.65,-0.27 1,-0.36 0.35,-0.08 0.73,-0.13 1.12,-0.14 0.42,-0.01 0.84,0.01 1.24,0.06 0.39,0.05 0.78,0.12 1.16,0.22 0.36,0.1 0.69,0.22 1,0.38 0.45,0.23 0.8,0.49 1.2,0.79 0.16,0.12 0.33,0.25 0.47,0.35 0.28,0.2 0.59,0.41 0.9,0.57 0.29,0.15 0.6,0.26 0.89,0.29 0.28,0.03 0.56,-0.02 0.86,-0.13 0.32,-0.12 0.66,-0.31 1.01,-0.55 0.27,-0.19 0.54,-0.41 0.82,-0.63 0.53,-0.43 1.08,-0.87 1.68,-1.18 0.46,-0.24 0.93,-0.39 1.39,-0.47 0.51,-0.09 1.02,-0.09 1.51,-0.04 0.45,0.05 0.88,0.15 1.29,0.3 0.41,0.15 0.81,0.36 1.18,0.61 0.42,0.28 0.78,0.59 1.13,0.9 0.26,0.22 0.51,0.45 0.72,0.6 0.08,0.06 0.16,0.12 0.24,0.17l0 1.46c-0.34,-0.16 -0.68,-0.36 -1.01,-0.61 -0.3,-0.22 -0.55,-0.44 -0.8,-0.66 -0.33,-0.29 -0.67,-0.58 -1,-0.8 -0.29,-0.19 -0.59,-0.35 -0.91,-0.47 -0.31,-0.12 -0.64,-0.19 -0.99,-0.23 -0.37,-0.04 -0.76,-0.04 -1.15,0.03 -0.34,0.06 -0.69,0.17 -1.03,0.35 -0.48,0.25 -0.98,0.65 -1.46,1.04 -0.3,0.24 -0.59,0.48 -0.89,0.68 -0.43,0.3 -0.87,0.55 -1.31,0.71 -0.47,0.17 -0.94,0.25 -1.42,0.2 -0.46,-0.05 -0.92,-0.21 -1.34,-0.42 -0.4,-0.2 -0.76,-0.44 -1.08,-0.67 -0.21,-0.15 -0.35,-0.26 -0.5,-0.37 -0.35,-0.26 -0.66,-0.5 -0.99,-0.67 -0.23,-0.11 -0.49,-0.21 -0.77,-0.28 -0.3,-0.08 -0.63,-0.14 -0.98,-0.18 -0.35,-0.04 -0.71,-0.06 -1.05,-0.05 -0.29,0.01 -0.58,0.05 -0.87,0.11 -0.27,0.07 -0.53,0.16 -0.76,0.26 -0.27,0.13 -0.52,0.28 -0.72,0.43 -0.13,0.1 -0.26,0.21 -0.39,0.32l-0 -0c-0.27,0.22 -0.53,0.45 -0.94,0.67 -0.34,0.19 -0.75,0.36 -1.18,0.49 -0.39,0.12 -0.8,0.2 -1.21,0.22 -0.42,0.02 -0.81,-0.02 -1.18,-0.1 -0.41,-0.1 -0.79,-0.25 -1.13,-0.44 -0.56,-0.31 -0.97,-0.67 -1.31,-0.98l0 -0 -0.13 -0.11c-0.16,-0.14 -0.3,-0.26 -0.48,-0.39 -0.18,-0.13 -0.38,-0.26 -0.64,-0.43 -0.25,-0.15 -0.56,-0.34 -0.91,-0.44 -0.33,-0.09 -0.72,-0.11 -1.17,0.03 -0.84,0.26 -1.95,1.09 -2.79,1.71 -0.18,0.13 -0.35,0.26 -0.57,0.42 -0.94,0.67 -1.3,0.75 -1.63,0.82l-0.18 0.04c-0.27,0.06 -0.56,0.13 -0.93,0.1l-0 0c-0.22,-0.01 -0.45,-0.06 -0.68,-0.13 -0.22,-0.07 -0.46,-0.16 -0.69,-0.28 -0.22,-0.11 -0.43,-0.24 -0.64,-0.37 -0.22,-0.15 -0.41,-0.29 -0.6,-0.44 -0.25,-0.19 -0.49,-0.39 -0.79,-0.64l-0.62 -0.5c-0.28,-0.22 -0.6,-0.48 -0.96,-0.65 -0.2,-0.09 -0.41,-0.16 -0.64,-0.17l0 -1.28z"/>
  <rect class="fil3 str2" x="11.01" y="5.69" width="4.23" height="1.59" rx="0.95" ry="0.78"/>
  <rect class="fil3 str2" x="29.58" y="5.44" width="4.23" height="1.59" rx="0.95" ry="0.78"/>
  <rect class="fil3 str2" x="11.01" y="26.19" width="4.23" height="1.59" rx="0.95" ry="0.78"/>
  <rect class="fil3 str3" x="29.58" y="25.93" width="4.23" height="1.59" rx="0.95" ry="0.78"/>
  <rect class="fil3 str3" x="11.01" y="10.78" width="6.15" height="1.59" rx="1.38" ry="0.78"/>
  <rect class="fil3 str3" x="27.66" y="10.52" width="6.15" height="1.59" rx="1.38" ry="0.78"/>
  <rect class="fil3 str3" x="11.01" y="31.27" width="6.15" height="1.59" rx="1.38" ry="0.78"/>
  <rect class="fil3 str3" x="27.66" y="31.02" width="6.15" height="1.59" rx="1.38" ry="0.78"/>
  <rect class="fil3 str3" x="11.01" y="15.86" width="4.04" height="1.59" rx="0.91" ry="0.78"/>
  <rect class="fil3 str3" x="29.77" y="15.61" width="4.04" height="1.59" rx="0.91" ry="0.78"/>
  <rect class="fil3 str3" x="11.01" y="36.36" width="4.04" height="1.59" rx="0.91" ry="0.78"/>
  <rect class="fil3 str3" x="29.77" y="36.1" width="4.04" height="1.59" rx="0.91" ry="0.78"/>
  <rect class="fil3 str3" x="11.01" y="21.09" width="6.18" height="1.59" rx="1.39" ry="0.78"/>
  <rect class="fil3 str3" x="27.63" y="20.83" width="6.18" height="1.59" rx="1.39" ry="0.78"/>
  <rect class="fil3 str3" x="11.01" y="41.59" width="6.18" height="1.59" rx="1.39" ry="0.78"/>
  <rect class="fil3 str2" x="27.63" y="41.33" width="6.18" height="1.59" rx="1.39" ry="0.78"/>
  <path class="fil4 str4" d="M22.61 16.25l0 0c1.44,0 2.63,1.18 2.63,2.63l0 25.93c-0.06,-0.01 -0.12,-0.02 -0.19,-0.02 -0.72,-0.09 -1.46,-0.09 -2.14,0.07 -0.67,0.16 -1.27,0.48 -1.71,0.8 -0.38,0.27 -0.63,0.55 -1.05,0.81 -0.11,-0.29 -0.18,-0.61 -0.18,-0.95l0 -26.65c0,-1.44 1.18,-2.63 2.63,-2.63z"/>
 </g>
</svg>
